<?xml version="1.0" encoding="utf-8"?>
<!-- Generator: Adobe Illustrator 26.3.1, SVG Export Plug-In . SVG Version: 6.00 Build 0)  -->
<svg version="1.1" id="Calque_1" xmlns="http://www.w3.org/2000/svg" xmlns:xlink="http://www.w3.org/1999/xlink" x="0px" y="0px"
	 viewBox="0 0 1280 600" style="enable-background:new 0 0 1280 600;" xml:space="preserve">
<style type="text/css">
	.st0{clip-path:url(#SVGID_00000011015889609315925820000007723353708312529792_);fill:#FFBE96;}
	.st1{clip-path:url(#SVGID_00000011015889609315925820000007723353708312529792_);fill:#FFFFFF;}
	.st2{clip-path:url(#SVGID_00000011015889609315925820000007723353708312529792_);fill:#FF6917;}
</style>
<g>
	<defs>
		<rect id="SVGID_1_" width="1280" height="600"/>
	</defs>
	<clipPath id="SVGID_00000142890693346771650580000016669587577571789500_">
		<use xlink:href="#SVGID_1_"  style="overflow:visible;"/>
	</clipPath>
	
		<rect x="0" style="clip-path:url(#SVGID_00000142890693346771650580000016669587577571789500_);fill:#FFBE96;" width="1280" height="600"/>
	<path style="clip-path:url(#SVGID_00000142890693346771650580000016669587577571789500_);fill:#FFFFFF;" d="M1303.1,1114.2
		L1455.5,963l74.4-73.7l107.3-106.4c15.1-15,15.1-39.5,0-54.5l-330.3-327.5c-15.1-15-39.9-15-55,0l-52.7,52.2
		c-15,14.8-39.4,14.8-54.4,0L989.7,299.2c-15.1-15-39.8-15-55,0L707.9,524c-15.1,15-15.1,39.5,0,54.5l540.2,535.6
		C1263.3,1129.2,1288,1129.2,1303.1,1114.2"/>
	<polygon style="clip-path:url(#SVGID_00000142890693346771650580000016669587577571789500_);fill:#FF6917;" points="27.4,0 
		27.4,76.6 112,159.4 27.4,242.2 27.4,293.8 340.3,600 393,600 477.6,517.2 562.2,600 640.4,600 640.4,119.8 518,0 	"/>
</g>
</svg>
