<?xml version="1.0" encoding="utf-8"?>
<!-- Generator: Adobe Illustrator 26.3.1, SVG Export Plug-In . SVG Version: 6.00 Build 0)  -->
<svg version="1.2" baseProfile="tiny" id="Calque_1"
	 xmlns="http://www.w3.org/2000/svg" xmlns:xlink="http://www.w3.org/1999/xlink" x="0px" y="0px" viewBox="0 0 1280 600"
	 overflow="visible" xml:space="preserve">
<g>
	<path fill="#AAC8FF" d="M1222.6,542.8l-180.4-180.4c-64.7-64.7-63.4-171,3-237.4l56.7-56.7c49.5-49.5,121.3-62.9,181.4-39.5V0H-2.8
		v40h326.2c20.1,0,36.6,16.5,36.6,36.6v70.2c0,19.9,16.3,36.2,36.2,36.2h206.9c20.1,0,36.6,16.5,36.6,36.6V522
		c0,20.1-16.5,36.6-36.6,36.6h-606v49.4h1286.2v-27C1261.1,573.3,1240.3,560.5,1222.6,542.8z"/>
	<path fill="#0000FF" d="M1101.9,68.3l-56.7,56.7c-66.4,66.4-67.7,172.6-3,237.4l180.4,180.4c17.7,17.7,38.5,30.4,60.8,38.3V28.8
		C1223.2,5.4,1151.5,18.8,1101.9,68.3z"/>
	<path fill="#FFFFFF" d="M639.8,522V219.7c0-20.1-16.5-36.6-36.6-36.6H396.3c-19.9,0-36.2-16.3-36.2-36.2V76.7
		c0-20.2-16.5-36.6-36.6-36.6H-2.8v518.6h606C623.3,558.6,639.8,542.2,639.8,522z"/>
</g>
</svg>
