<?xml version="1.0" encoding="utf-8"?>
<!-- Generator: Adobe Illustrator 26.3.1, SVG Export Plug-In . SVG Version: 6.00 Build 0)  -->
<svg version="1.1" id="Calque_1" xmlns="http://www.w3.org/2000/svg" xmlns:xlink="http://www.w3.org/1999/xlink" x="0px" y="0px"
	 viewBox="0 0 1148 214" style="enable-background:new 0 0 1148 214;" xml:space="preserve">
<style type="text/css">
	.st0{clip-path:url(#SVGID_00000134212585183322327920000011602041397622355382_);}
	.st1{fill:#1754FF;}
	.st2{fill:#3DF069;}
	.st3{clip-path:url(#SVGID_00000018945937456278287080000003975006215016585122_);}
</style>
<g>
	<g>
		<g>
			<g>
				<g>
					<defs>
						<rect id="SVGID_1_" x="1" y="1.4" width="1134.5" height="211.2"/>
					</defs>
					<clipPath id="SVGID_00000043439052085506720310000016986166849733726862_">
						<use xlink:href="#SVGID_1_"  style="overflow:visible;"/>
					</clipPath>
					<g style="clip-path:url(#SVGID_00000043439052085506720310000016986166849733726862_);">
						<path class="st1" d="M254.5,189.7c-43.2,0-77.5-34.8-77.2-82.8c0.3-48.7,34.6-83.1,77.2-83.1c42.9,0,77.5,34.4,77.5,83.1
							C332,154.9,298,189.7,254.5,189.7"/>
						<path class="st2" d="M1029.8,184.6c-40,0-71.8-32.6-71.5-77.8c0.3-45.7,32.1-78.1,71.5-78.1c39.7,0,71.8,32.4,71.8,78.1
							C1101.6,152,1070.1,184.6,1029.8,184.6"/>
						<path class="st2" d="M254.5,1.4c-58.8,0-103,46.3-103,105.9c0,60.2,44,105.3,103,105.3c59.3,0,103.3-45.1,103.3-105.3
							C357.8,47.7,313.3,1.4,254.5,1.4 M254.5,184.8c-40,0-71.8-32.6-71.5-77.8c0.3-45.7,32.1-78.1,71.5-78.1
							c39.7,0,71.8,32.4,71.8,78.1C326.3,152.1,294.8,184.8,254.5,184.8"/>
					</g>
				</g>
			</g>
		</g>
	</g>
	<polygon points="1,5.4 1,208 30.3,208 30.3,120.3 124.8,120.3 124.8,92.5 30.3,92.5 30.3,33.5 132.5,33.5 132.5,5.4 	"/>
	<g>
		<g>
			<g>
				<g>
					<defs>
						<rect id="SVGID_00000171704502774079237260000014346695862194621102_" x="1" y="1.4" width="1134.5" height="211.2"/>
					</defs>
					<clipPath id="SVGID_00000067219380975727674780000011265411664064907445_">
						<use xlink:href="#SVGID_00000171704502774079237260000014346695862194621102_"  style="overflow:visible;"/>
					</clipPath>
					<g style="clip-path:url(#SVGID_00000067219380975727674780000011265411664064907445_);">
						<path d="M894.6,69.8c0-40.6-36-64.4-75.2-64.4h-71V208H793v-72.9h21l54.8,72.9h51.1l-61.6-81.7
							C879.3,116.4,894.6,98.5,894.6,69.8 M821.1,94.8H793V50h27c18.7,0,29.8,8.8,29.8,22.1C849.7,85.4,839.8,94.8,821.1,94.8"/>
						<path d="M524.4,65.3c0-41.2-34.1-59.9-71.3-59.9h-62.7V208h29v-82h25.8l63.6,82h36.3l-67.3-86
							C499.7,117.8,524.4,97.4,524.4,65.3 M419.4,98.2v-65H454c23.3,0,40.9,10.2,40.9,32.1c0,23.6-17.9,32.9-40.9,32.9H419.4
							L419.4,98.2z"/>
						<path class="st1" d="M1030,1.4C970.9,1.7,924.4,47.7,924.4,107c0,60.7,49.4,105.6,105.6,105.3s105.6-44.6,105.6-105.3
							C1135.6,47.7,1089,1.1,1030,1.4 M1030,168.9c-30.9,0-58.8-23.6-58.8-61.9c0-40,28.1-62.2,58.8-62.2c30.7,0,59,22.4,59,62.2
							C1089,145.3,1060.9,168.9,1030,168.9"/>
						<path d="M643.7,5.4h-70.1V208h44.6v-65.8h28.1c43.4,0,76.4-28.1,76.4-68.4C722.6,27.5,686.5,5.4,643.7,5.4 M645.1,99.9h-27
							V49.4h27c20.7,0,33.5,9.4,33.5,25C678.6,88.8,665.8,99.9,645.1,99.9"/>
					</g>
				</g>
			</g>
		</g>
	</g>
</g>
</svg>
