<?xml version="1.0" encoding="UTF-8"?>
<svg id="Calque_2" data-name="Calque 2" xmlns="http://www.w3.org/2000/svg" viewBox="0 0 297.36379 55.35385">
  <defs>
    <style>
      .cls-1 {
        fill: #ff6917;
      }

      .cls-2 {
        fill: #29007c;
      }
    </style>
  </defs>
  <g id="Layer_1" data-name="Layer 1">
    <g>
      <g>
        <path class="cls-2" d="M66.4321,49.34805c-11.3212,0-20.3144-9.1104-20.2343-21.7061,.081-12.7549,9.0722-21.7842,20.2343-21.7842,11.2408,0,20.314,9.0293,20.314,21.7842,0,12.5957-8.9121,21.7061-20.314,21.7061"/>
        <path class="cls-1" d="M269.65089,48.02575c-10.4902,0-18.8242-8.5566-18.75-20.3867,.0762-11.9785,8.4082-20.46,18.75-20.46,10.416,0,18.8223,8.4815,18.8223,20.46,0,11.8301-8.2579,20.3867-18.8223,20.3867"/>
        <path class="cls-1" d="M66.4346,48.06385c-10.4898,0-18.8228-8.5566-18.7486-20.3867,.0748-11.9785,8.4068-20.46,18.7486-20.46,10.416,0,18.8232,8.4815,18.8232,20.46,0,11.8301-8.2578,20.3867-18.8232,20.3867M66.4346,.00035C51.0337,.00035,39.4277,12.12735,39.4277,27.75135c0,15.7734,11.5323,27.6025,27.0069,27.6025,15.5503,0,27.082-11.8291,27.082-27.6025C93.5166,12.12735,81.8359,.00035,66.4346,.00035"/>
      </g>
      <polygon points="0 1.04135 0 54.16345 7.6631 54.16345 7.6631 31.17325 32.438 31.17325 32.438 23.88125 7.6631 23.88125 7.6631 8.40755 34.4468 8.40755 34.4468 1.04135 0 1.04135"/>
      <g>
        <path d="M214.93209,24.47795h-7.3671V12.72205h7.0693c4.9111,0,7.8115,2.3076,7.8115,5.8037,0,3.4971-2.6035,5.9522-7.5137,5.9522m19.2696-6.5479c0-10.6387-9.4483-16.8887-19.7168-16.8887h-18.5987V54.16345h11.6788v-19.1211h5.5078l14.3574,19.1211h13.3926l-16.1436-21.4258c5.5049-2.6054,9.5225-7.292,9.5225-14.8076"/>
        <path d="M109.6572,25.37045V8.33335h9.0762c6.10111,0,10.7139,2.6778,10.7139,8.4073,0,6.1748-4.687,8.6298-10.7139,8.6298h-9.0762Zm27.5288-8.6298c0-10.7881-8.9287-15.6993-18.6757-15.6993h-16.4419V54.16345h7.5888v-21.5019h6.7701l16.666,21.5019h9.5224l-17.6323-22.543c5.729-1.1152,12.2026-6.4726,12.2026-14.8798"/>
        <path class="cls-2" d="M269.68799,43.89785c-8.1104,0-15.4014-6.1758-15.4014-16.2207,0-10.4912,7.3662-16.294,15.4014-16.294s15.4746,5.878,15.4746,16.294c0,10.0449-7.3672,16.2207-15.4746,16.2207M269.68799,.00035c-15.4766,.0742-27.6787,12.127-27.6787,27.6768,0,15.9219,12.9473,27.6767,27.6787,27.6035,14.72951-.0742,27.6758-11.6816,27.6758-27.6035C297.36379,12.12735,285.16259-.07485,269.68799,.00035"/>
        <path d="M168.8071,25.81775h-7.0664V12.57365h7.0664c5.4336,0,8.7793,2.456,8.7793,6.5478,0,3.794-3.3457,6.6963-8.7793,6.6963m-.3711-24.7764h-18.3759V54.16345h11.6806v-17.2598h7.3653c11.3828,0,20.0136-7.3652,20.0136-17.9316,0-12.127-9.4492-17.9307-20.6836-17.9307"/>
      </g>
    </g>
  </g>
</svg>