<?xml version="1.0" encoding="utf-8"?>
<!-- Generator: Adobe Illustrator 26.2.1, SVG Export Plug-In . SVG Version: 6.00 Build 0)  -->
<svg version="1.1" id="Layer_1" xmlns="http://www.w3.org/2000/svg" xmlns:xlink="http://www.w3.org/1999/xlink" x="0px" y="0px"
	 viewBox="0 0 1920 1080" style="enable-background:new 0 0 1920 1080;" xml:space="preserve">
<style type="text/css">
	.st0{fill:#2E2015;}
	.st1{fill:#FFFFFF;}
</style>
<g id="m">
</g>
<g>
	<rect x="860.1" y="445.1" class="st0" width="0.2" height="225.9"/>
	<rect x="870.6" y="445.1" class="st0" width="0.2" height="225.9"/>
	<rect x="798.8" y="445.1" class="st0" width="0.2" height="225.9"/>
	<rect x="809.5" y="445.1" class="st0" width="0.2" height="225.9"/>
	<rect x="819.5" y="445.1" class="st0" width="0.2" height="225.9"/>
	<rect x="1034.2" y="445.1" class="st0" width="0.2" height="225.9"/>
	<rect x="1084.4" y="445.1" class="st0" width="0.2" height="225.9"/>
	<rect x="1095" y="445.1" class="st0" width="0.2" height="225.9"/>
	<rect x="625.9" y="445.1" class="st0" width="0.2" height="225.9"/>
	<rect x="860.2" y="540.1" class="st0" width="11.7" height="0.2"/>
	<rect x="798.7" y="540.1" class="st0" width="29.4" height="0.2"/>
	<rect x="860.2" y="576.7" class="st0" width="11.7" height="0.2"/>
	<rect x="798.7" y="576.7" class="st0" width="29.4" height="0.2"/>
	<rect x="1045.6" y="540.1" class="st0" width="49.2" height="0.2"/>
	<rect x="1024.1" y="540.1" class="st0" width="10.2" height="0.2"/>
	<rect x="1045.6" y="576.6" class="st0" width="49.2" height="0.2"/>
	<rect x="1024.1" y="576.6" class="st0" width="10.2" height="0.2"/>
	<rect x="1074.9" y="564.6" class="st0" width="9.6" height="0.2"/>
	<rect x="1074.9" y="528.4" class="st0" width="9.6" height="0.2"/>
	<rect x="1257.6" y="540.1" class="st0" width="19.3" height="0.2"/>
	<rect x="1256.9" y="528.4" class="st0" width="9.6" height="0.2"/>
	<rect x="1074.9" y="491.7" class="st0" width="9.6" height="0.2"/>
	<rect x="809.5" y="564.6" class="st0" width="10.2" height="0.2"/>
	<rect x="809.8" y="528.4" class="st0" width="9.9" height="0.2"/>
	<rect x="809.8" y="491.7" class="st0" width="9.9" height="0.2"/>
	<rect x="881" y="667.7" class="st0" width="0.2" height="3.3"/>
	<rect x="891.5" y="667.7" class="st0" width="0.2" height="3.3"/>
	<rect x="902" y="667.7" class="st0" width="0.2" height="3.3"/>
	<rect x="920.7" y="667.7" class="st0" width="0.2" height="3.3"/>
	<rect x="931.2" y="667.7" class="st0" width="0.2" height="3.3"/>
	<rect x="973.4" y="667.7" class="st0" width="0.2" height="3.3"/>
	<rect x="952.4" y="667.7" class="st0" width="0.2" height="3.3"/>
	<rect x="941.7" y="667.7" class="st0" width="0.2" height="3.3"/>
	<rect x="962.8" y="667.7" class="st0" width="0.2" height="3.3"/>
	<rect x="1002.6" y="667.7" class="st0" width="0.2" height="3.3"/>
	<rect x="1013" y="667.7" class="st0" width="0.2" height="3.3"/>
	<rect x="1023.5" y="667.7" class="st0" width="0.2" height="3.3"/>
	<rect x="1256.9" y="491.9" class="st0" width="9.6" height="0.2"/>
	<rect x="1266.5" y="576.6" class="st0" width="6.3" height="0.2"/>
	<rect x="1266.5" y="613" class="st0" width="6.3" height="0.2"/>
	<g>
		<rect x="461.1" y="402.2" class="st0" width="0.2" height="324.6"/>
		<rect x="467" y="403.9" class="st0" width="0.2" height="321"/>
		<rect x="473.8" y="405.9" class="st0" width="0.2" height="316.5"/>
		<rect x="479.3" y="407.6" class="st0" width="0.2" height="312.7"/>
		<rect x="500.4" y="413.6" class="st0" width="0.2" height="298.7"/>
		<rect x="495.5" y="412.1" class="st0" width="0.2" height="302"/>
		<rect x="506.3" y="415.3" class="st0" width="0.2" height="294.8"/>
		<rect x="511.2" y="416.7" class="st0" width="0.2" height="291.5"/>
		<rect x="525.3" y="420.7" class="st0" width="0.2" height="282.1"/>
		<rect x="530.2" y="422.2" class="st0" width="0.2" height="278.8"/>
		<rect x="534.8" y="423.5" class="st0" width="0.2" height="275.8"/>
		<rect x="539.5" y="425.1" class="st0" width="0.2" height="272.5"/>
		<rect x="555.3" y="429.6" class="st0" width="0.2" height="206.8"/>
		<rect x="559.5" y="430.6" class="st0" width="0.2" height="205"/>
		<rect x="563.6" y="431.8" class="st0" width="0.2" height="202.8"/>
		<rect x="578.2" y="436" class="st0" width="0.2" height="195"/>
		<rect x="581.9" y="437.3" class="st0" width="0.2" height="192.8"/>
		<rect x="585.5" y="438.3" class="st0" width="0.2" height="191.2"/>
		<rect x="605" y="443.8" class="st0" width="0.2" height="181"/>
		<rect x="627.5" y="445" class="st0" width="0.2" height="178.7"/>
		<polygon class="st0" points="451.9,716.9 451.8,716.7 546.2,683 546.3,683.2 		"/>
		<polygon class="st0" points="451.9,681.8 451.8,681.6 506.6,666.5 506.6,666.7 		"/>
		<polygon class="st0" points="451.9,646.3 451.8,646.1 611.1,613.6 611.1,613.7 		"/>
		<polygon class="st0" points="451.9,592.8 451.8,592.6 611.1,576.7 611.1,576.8 		"/>
		<rect x="451.9" y="539.1" class="st0" width="159.3" height="0.2"/>
		<polygon class="st0" points="595,502.1 451.8,485.5 451.9,485.4 595,502 		"/>
		<polygon class="st0" points="537.8,450.4 451.8,431.7 451.9,431.6 537.9,450.3 		"/>
		<polygon class="st0" points="467.1,417.9 461.3,416.4 461.3,416.2 467.1,417.7 		"/>
		<polygon class="st0" points="479.3,421 473.8,419.6 473.9,419.5 479.3,420.9 		"/>
		<polygon class="st0" points="500.5,426.6 495.6,425.3 495.6,425.1 500.5,426.4 		"/>
		<polygon class="st0" points="511.2,429.3 506.3,428.1 506.4,427.9 511.3,429.2 		"/>
		<polygon class="st0" points="530.2,434.3 525.4,433 525.4,432.9 530.2,434.1 		"/>
		<polygon class="st0" points="539.5,436.7 534.9,435.5 534.9,435.3 539.5,436.5 		"/>
		<polygon class="st0" points="555.4,440.8 545.9,438.4 546,438.2 555.4,440.7 		"/>
		<polygon class="st0" points="563.6,443 559.5,441.9 559.6,441.7 563.7,442.8 		"/>
		<polygon class="st0" points="578.2,446.7 571.7,445 571.7,444.9 578.3,446.6 		"/>
		
			<rect x="464.2" y="466.6" transform="matrix(0.1481 -0.989 0.989 0.1481 -68.9046 859.2033)" class="st0" width="0.2" height="5.9"/>
		
			<rect x="476.5" y="468.6" transform="matrix(0.1481 -0.989 0.989 0.1481 -60.1717 872.9985)" class="st0" width="0.2" height="5.6"/>
		<rect x="498" y="472.1" transform="matrix(0.1482 -0.989 0.989 0.1482 -45.0709 896.9088)" class="st0" width="0.2" height="5"/>
		<rect x="508.8" y="473.7" transform="matrix(0.148 -0.989 0.989 0.148 -37.4081 908.9816)" class="st0" width="0.2" height="5"/>
		
			<rect x="527.8" y="476.7" transform="matrix(0.1481 -0.989 0.989 0.1481 -24.1772 930.2635)" class="st0" width="0.2" height="4.9"/>
		
			<rect x="537.1" y="478.2" transform="matrix(0.1481 -0.989 0.989 0.1481 -17.5568 940.6917)" class="st0" width="0.2" height="4.7"/>
		
			<rect x="552.7" y="480.3" transform="matrix(0.1481 -0.989 0.989 0.1481 -6.6308 958.0044)" class="st0" width="0.2" height="5.2"/>
		
			<rect x="561.5" y="482.1" transform="matrix(0.1482 -0.989 0.989 0.1482 -0.4455 967.8123)" class="st0" width="0.2" height="4.1"/>
		
			<rect x="575.4" y="483.3" transform="matrix(0.1481 -0.989 0.989 0.1481 9.4105 983.3241)" class="st0" width="0.2" height="5.7"/>
		
			<rect x="583.7" y="485.6" transform="matrix(0.1482 -0.989 0.989 0.1482 15.2607 992.5699)" class="st0" width="0.2" height="3.7"/>
		
			<rect x="597.8" y="482.2" transform="matrix(0.1481 -0.989 0.989 0.1481 25.1719 1008.3233)" class="st0" width="0.2" height="14.8"/>
		<polygon class="st0" points="467.1,522.7 461.3,522.4 461.3,522.3 467.1,522.5 		"/>
		<polygon class="st0" points="479.3,523.1 473.8,522.9 473.8,522.8 479.3,523 		"/>
		<polygon class="st0" points="500.5,523.9 495.6,523.7 495.6,523.6 500.5,523.7 		"/>
		<polygon class="st0" points="511.3,524.3 506.4,524.1 506.4,524 511.3,524.1 		"/>
		<polygon class="st0" points="530.2,525 525.4,524.8 525.4,524.7 530.3,524.8 		"/>
		<polygon class="st0" points="539.5,525.4 534.9,525.2 534.9,525 539.6,525.2 		"/>
		<polygon class="st0" points="555.4,526 545.3,525.6 545.3,525.4 555.4,525.8 		"/>
		<polygon class="st0" points="563.6,526.3 559.6,526.1 559.6,525.9 563.6,526.1 		"/>
		<polygon class="st0" points="578.3,526.8 569,526.5 569,526.3 578.3,526.6 		"/>
		<polygon class="st0" points="585.5,527.1 581.9,526.9 581.9,526.8 585.5,526.9 		"/>
		<polygon class="st0" points="605.1,527.8 602.1,527.7 602.1,527.5 605.1,527.6 		"/>
		
			<rect x="461.3" y="574.4" transform="matrix(0.9979 -6.533390e-02 6.533390e-02 0.9979 -36.5439 31.5565)" class="st0" width="5.8" height="0.2"/>
		
			<rect x="473.8" y="573.6" transform="matrix(0.9979 -6.533390e-02 6.533390e-02 0.9979 -36.4654 32.3618)" class="st0" width="5.5" height="0.2"/>
		
			<rect x="495.6" y="572.2" transform="matrix(0.9979 -6.533390e-02 6.533390e-02 0.9979 -36.3278 33.7636)" class="st0" width="4.9" height="0.2"/>
		
			<rect x="506.4" y="571.5" transform="matrix(0.9979 -6.533390e-02 6.533390e-02 0.9979 -36.2587 34.4711)" class="st0" width="5" height="0.2"/>
		
			<rect x="525.4" y="570.2" transform="matrix(0.9979 -6.533390e-02 6.533390e-02 0.9979 -36.1334 35.7063)" class="st0" width="4.9" height="0.2"/>
		
			<rect x="534.9" y="569.6" transform="matrix(0.9979 -6.533390e-02 6.533390e-02 0.9979 -36.0741 36.3192)" class="st0" width="4.7" height="0.2"/>
		
			<rect x="545.2" y="568.7" transform="matrix(0.9979 -6.533390e-02 6.533390e-02 0.9979 -35.9877 37.1698)" class="st0" width="10.2" height="0.2"/>
		
			<rect x="559.6" y="568" transform="matrix(0.9979 -6.533390e-02 6.533390e-02 0.9979 -35.9173 37.9101)" class="st0" width="4.1" height="0.2"/>
		
			<rect x="568.9" y="567.2" transform="matrix(0.9979 -6.533390e-02 6.533390e-02 0.9979 -35.8396 38.6891)" class="st0" width="9.4" height="0.2"/>
		
			<rect x="581.9" y="566.5" transform="matrix(0.9979 -6.533390e-02 6.533390e-02 0.9979 -35.7726 39.3474)" class="st0" width="3.6" height="0.2"/>
		
			<rect x="596.8" y="565.4" transform="matrix(0.9979 -6.533390e-02 6.533390e-02 0.9979 -35.6637 40.4722)" class="st0" width="8.3" height="0.2"/>
		
			<rect x="461.3" y="626.5" transform="matrix(0.9851 -0.1721 0.1721 0.9851 -100.9085 89.2478)" class="st0" width="5.9" height="0.2"/>
		
			<rect x="473.8" y="624.3" transform="matrix(0.9851 -0.1721 0.1721 0.9851 -100.3473 91.3395)" class="st0" width="5.6" height="0.2"/>
		
			<rect x="495.6" y="620.6" transform="matrix(0.9851 -0.1721 0.1721 0.9851 -99.3883 94.9853)" class="st0" width="5" height="0.2"/>
		
			<rect x="506.3" y="618.7" transform="matrix(0.9851 -0.1721 0.1721 0.9851 -98.9045 96.7983)" class="st0" width="5" height="0.2"/>
		
			<rect x="525.4" y="615.4" transform="matrix(0.9851 -0.1721 0.1721 0.9851 -98.0502 100.0274)" class="st0" width="4.9" height="0.2"/>
		
			<rect x="534.9" y="613.8" transform="matrix(0.9851 -0.1721 0.1721 0.9851 -97.6346 101.6224)" class="st0" width="4.7" height="0.2"/>
		
			<rect x="545.2" y="611.5" transform="matrix(0.9851 -0.1721 0.1721 0.9851 -97.0434 103.8421)" class="st0" width="10.3" height="0.2"/>
		
			<rect x="559.5" y="609.5" transform="matrix(0.9851 -0.1721 0.1721 0.9851 -96.5343 105.739)" class="st0" width="4.1" height="0.2"/>
		
			<rect x="574" y="607" transform="matrix(0.9851 -0.1721 0.1721 0.9851 -95.8839 108.2149)" class="st0" width="4.3" height="0.2"/>
		
			<rect x="581.9" y="605.7" transform="matrix(0.9851 -0.1721 0.1721 0.9851 -95.5472 109.5044)" class="st0" width="3.7" height="0.2"/>
		
			<rect x="602.1" y="602.2" transform="matrix(0.9851 -0.1721 0.1721 0.9851 -94.6499 112.8674)" class="st0" width="3" height="0.2"/>
		<polygon class="st0" points="461.3,696.2 461.3,696 467.1,694.2 467.1,694.4 		"/>
		<polygon class="st0" points="473.9,692.2 473.8,692.1 479.3,690.3 479.4,690.5 		"/>
		<polygon class="st0" points="495.6,685.4 495.6,685.2 500.5,683.7 500.5,683.8 		"/>
		<polygon class="st0" points="506.4,682 506.3,681.8 511.3,680.3 511.3,680.4 		"/>
		<polygon class="st0" points="525.4,676 525.4,675.8 530.2,674.3 530.3,674.4 		"/>
		<polygon class="st0" points="534.9,673 534.9,672.8 539.5,671.3 539.6,671.5 		"/>
	</g>
	<g>
		<rect x="1432.7" y="402.2" class="st0" width="0.2" height="324.9"/>
		<rect x="1426.8" y="403.9" class="st0" width="0.2" height="321"/>
		<rect x="1420.1" y="405.9" class="st0" width="0.2" height="316.5"/>
		<rect x="1414.6" y="407.6" class="st0" width="0.2" height="312.7"/>
		<rect x="1393.4" y="413.6" class="st0" width="0.2" height="298.7"/>
		<rect x="1398.3" y="412.1" class="st0" width="0.2" height="302"/>
		<rect x="1387.5" y="415.3" class="st0" width="0.2" height="294.8"/>
		<rect x="1382.6" y="416.7" class="st0" width="0.2" height="291.5"/>
		<rect x="1368.5" y="420.7" class="st0" width="0.2" height="282.1"/>
		<rect x="1363.6" y="422.2" class="st0" width="0.2" height="278.8"/>
		<rect x="1359" y="423.5" class="st0" width="0.2" height="275.8"/>
		<rect x="1354.3" y="425.1" class="st0" width="0.2" height="272.5"/>
		<rect x="1338.5" y="429.6" class="st0" width="0.2" height="206.8"/>
		<rect x="1334.3" y="430.6" class="st0" width="0.2" height="205"/>
		<rect x="1330.3" y="431.8" class="st0" width="0.2" height="202.8"/>
		<rect x="1315.7" y="436" class="st0" width="0.2" height="195"/>
		<rect x="1312" y="437.3" class="st0" width="0.2" height="192.8"/>
		<rect x="1308.3" y="438.3" class="st0" width="0.2" height="191.2"/>
		<rect x="1288.8" y="443.8" class="st0" width="0.2" height="181"/>
		<rect x="1266.4" y="445" class="st0" width="0.2" height="178.7"/>
		<polygon class="st0" points="1442.1,716.9 1347.7,683.2 1347.7,683 1442.2,716.7 		"/>
		<polygon class="st0" points="1442.1,681.8 1387.3,666.7 1387.4,666.5 1442.2,681.6 		"/>
		<polygon class="st0" points="1442.1,646.3 1282.9,613.7 1282.9,613.6 1442.1,646.1 		"/>
		<polygon class="st0" points="1442.1,592.8 1282.9,576.8 1282.9,576.7 1442.1,592.6 		"/>
		<rect x="1282.9" y="539.1" class="st0" width="159.3" height="0.2"/>
		<polygon class="st0" points="1299,502.1 1299,502 1442.1,485.4 1442.1,485.5 		"/>
		<polygon class="st0" points="1356.1,450.4 1356.1,450.3 1442.1,431.6 1442.1,431.7 		"/>
		<polygon class="st0" points="1426.9,417.9 1426.9,417.7 1432.7,416.2 1432.7,416.4 		"/>
		<polygon class="st0" points="1414.7,421 1414.7,420.9 1420.1,419.5 1420.2,419.6 		"/>
		<polygon class="st0" points="1393.5,426.6 1393.4,426.4 1398.4,425.1 1398.4,425.3 		"/>
		<polygon class="st0" points="1382.8,429.3 1382.7,429.2 1387.6,427.9 1387.6,428.1 		"/>
		<polygon class="st0" points="1363.8,434.3 1363.8,434.1 1368.6,432.9 1368.6,433 		"/>
		<polygon class="st0" points="1354.5,436.7 1354.5,436.5 1359,435.3 1359.1,435.5 		"/>
		<polygon class="st0" points="1338.6,440.8 1338.6,440.7 1348,438.2 1348,438.4 		"/>
		<polygon class="st0" points="1330.4,443 1330.3,442.8 1334.4,441.7 1334.5,441.9 		"/>
		<polygon class="st0" points="1315.8,446.7 1315.7,446.6 1322.3,444.9 1322.3,445 		"/>
		<polygon class="st0" points="1426.9,470.1 1426.9,469.9 1432.7,469.1 1432.7,469.2 		"/>
		<polygon class="st0" points="1414.7,471.9 1414.6,471.8 1420.1,471 1420.1,471.1 		"/>
		<polygon class="st0" points="1393.5,475.1 1393.5,475 1398.4,474.2 1398.4,474.4 		"/>
		<polygon class="st0" points="1382.7,476.7 1382.6,476.6 1387.6,475.8 1387.6,476 		"/>
		<polygon class="st0" points="1363.7,479.6 1363.7,479.4 1368.6,478.7 1368.6,478.8 		"/>
		<polygon class="st0" points="1354.4,481 1354.4,480.8 1359.1,480.1 1359.1,480.3 		"/>
		<polygon class="st0" points="1338.6,483.3 1338.6,483.2 1343.8,482.4 1343.8,482.6 		"/>
		<polygon class="st0" points="1330.4,484.6 1330.3,484.4 1334.4,483.8 1334.4,484 		"/>
		<polygon class="st0" points="1315.7,486.8 1315.7,486.6 1321.3,485.8 1321.3,485.9 		"/>
		<polygon class="st0" points="1308.4,487.9 1308.4,487.7 1312,487.1 1312.1,487.3 		"/>
		<polygon class="st0" points="1288.8,490.8 1288.8,490.6 1303.4,488.4 1303.5,488.6 		"/>
		<polygon class="st0" points="1426.9,522.7 1426.9,522.5 1432.7,522.3 1432.7,522.4 		"/>
		<polygon class="st0" points="1414.6,523.1 1414.6,523 1420.1,522.8 1420.1,522.9 		"/>
		<polygon class="st0" points="1393.5,523.9 1393.5,523.7 1398.4,523.6 1398.4,523.7 		"/>
		<polygon class="st0" points="1382.7,524.3 1382.7,524.1 1387.6,524 1387.6,524.1 		"/>
		<polygon class="st0" points="1363.7,525 1363.7,524.8 1368.6,524.7 1368.6,524.8 		"/>
		<polygon class="st0" points="1354.4,525.4 1354.4,525.2 1359.1,525 1359.1,525.2 		"/>
		<polygon class="st0" points="1338.6,526 1338.6,525.8 1348.7,525.4 1348.7,525.6 		"/>
		<polygon class="st0" points="1330.3,526.3 1330.3,526.1 1334.4,525.9 1334.4,526.1 		"/>
		<polygon class="st0" points="1315.7,526.8 1315.7,526.6 1325,526.3 1325,526.5 		"/>
		<polygon class="st0" points="1308.5,527.1 1308.5,526.9 1312,526.8 1312,526.9 		"/>
		<polygon class="st0" points="1288.9,527.8 1288.9,527.6 1291.8,527.5 1291.8,527.7 		"/>
		<polygon class="st0" points="1432.7,574.8 1426.9,574.4 1426.9,574.2 1432.7,574.6 		"/>
		<polygon class="st0" points="1420.1,574 1414.6,573.6 1414.6,573.4 1420.1,573.8 		"/>
		<polygon class="st0" points="1398.4,572.5 1393.5,572.2 1393.5,572 1398.4,572.4 		"/>
		<polygon class="st0" points="1387.6,571.8 1382.7,571.5 1382.7,571.3 1387.6,571.6 		"/>
		<polygon class="st0" points="1368.6,570.5 1363.7,570.2 1363.7,570.1 1368.6,570.4 		"/>
		<polygon class="st0" points="1359.1,569.9 1354.4,569.6 1354.4,569.4 1359.1,569.8 		"/>
		<polygon class="st0" points="1348.7,569.2 1338.6,568.6 1338.6,568.4 1348.7,569.1 		"/>
		<polygon class="st0" points="1334.4,568.3 1330.3,568 1330.4,567.9 1334.4,568.1 		"/>
		<polygon class="st0" points="1325.1,567.7 1315.7,567.1 1315.7,566.9 1325.1,567.5 		"/>
		<polygon class="st0" points="1312,566.8 1308.4,566.6 1308.4,566.4 1312,566.6 		"/>
		<polygon class="st0" points="1297.2,565.8 1288.9,565.3 1288.9,565.1 1297.2,565.7 		"/>
		<polygon class="st0" points="1432.7,627.2 1426.9,626.1 1426.9,626 1432.7,627 		"/>
		<polygon class="st0" points="1420.1,625 1414.6,624 1414.7,623.8 1420.1,624.8 		"/>
		<polygon class="st0" points="1398.4,621.2 1393.5,620.3 1393.5,620.2 1398.4,621 		"/>
		<polygon class="st0" points="1387.6,619.3 1382.6,618.4 1382.7,618.3 1387.6,619.1 		"/>
		<polygon class="st0" points="1368.6,616 1363.7,615.1 1363.7,615 1368.6,615.8 		"/>
		<polygon class="st0" points="1359.1,614.3 1354.4,613.5 1354.4,613.4 1359.1,614.2 		"/>
		<polygon class="st0" points="1348.7,612.5 1338.6,610.8 1338.6,610.6 1348.7,612.4 		"/>
		<polygon class="st0" points="1334.4,610 1330.3,609.3 1330.4,609.2 1334.4,609.9 		"/>
		<polygon class="st0" points="1320,607.5 1315.7,606.8 1315.7,606.6 1320,607.4 		"/>
		<polygon class="st0" points="1312,606.1 1308.4,605.5 1308.4,605.3 1312.1,606 		"/>
		<polygon class="st0" points="1291.8,602.6 1288.8,602.1 1288.9,601.9 1291.8,602.5 		"/>
		<polygon class="st0" points="1432.7,696.2 1426.9,694.4 1426.9,694.2 1432.7,696 		"/>
		<polygon class="st0" points="1420.1,692.2 1414.6,690.5 1414.7,690.3 1420.2,692.1 		"/>
		<polygon class="st0" points="1398.4,685.4 1393.4,683.8 1393.5,683.7 1398.4,685.2 		"/>
		<polygon class="st0" points="1387.6,682 1382.6,680.4 1382.7,680.3 1387.6,681.8 		"/>
		<polygon class="st0" points="1368.6,676 1363.7,674.4 1363.8,674.3 1368.6,675.8 		"/>
		<polygon class="st0" points="1359,673 1354.4,671.5 1354.5,671.3 1359.1,672.8 		"/>
	</g>
	<g>
		<polygon class="st1" points="1165.1,587.1 1266.4,608.4 628.4,608.4 729,587.1 		"/>
		<path class="st0" d="M1268.5,608.6H626.3L729,586.9h436.2l0,0L1268.5,608.6z M630.5,608.1h633.9l-99.3-20.9H729L630.5,608.1z"/>
	</g>
	<g>
		<polyline class="st1" points="451.9,661.4 608.1,623.6 1285,623.6 1442.3,661.4 		"/>
		<polygon class="st0" points="1442.2,661.6 1284.9,623.8 608.1,623.8 452,661.6 451.9,661.1 608,623.4 1285,623.4 1442.3,661.1 		
			"/>
	</g>
	<polygon class="st0" points="628.2,608.6 628.2,560.7 628.6,560.7 628.6,608.1 728.9,586.9 1165.1,586.9 1266.2,608.1 
		1266.2,560.3 1266.6,560.3 1266.6,608.6 1266.4,608.5 1165,587.3 729,587.3 	"/>
	<polygon class="st0" points="1442.2,730.9 1284.9,671.5 608.1,671.5 452,730.9 451.9,730.5 608.1,671.1 1285,671.1 1442.3,730.5 	
		"/>
	<polygon class="st0" points="1285,445.2 608,445.2 451.9,399.5 452,399.1 608.1,444.8 1284.9,444.8 1442.2,399.1 1442.3,399.5 	"/>
	<g>
		<polyline class="st1" points="451.9,454.5 608.1,481.4 1285,481.4 1442.3,454.5 		"/>
		<polygon class="st0" points="608.1,481.7 451.9,454.7 452,454.3 608.1,481.2 1285,481.2 1442.2,454.3 1442.3,454.7 1285,481.7 		
			"/>
	</g>
	<g>
		<polyline class="st1" points="451.9,507.3 608.1,518.6 1285,518.6 1442.3,507.3 		"/>
		<polygon class="st0" points="608.1,518.8 451.9,507.5 452,507.1 608.1,518.4 1285,518.4 1442.2,507.1 1442.3,507.5 1285,518.8 		
			"/>
	</g>
	<g>
		<polyline class="st1" points="451.9,554.5 608.1,550.7 1285,550.7 1442.3,554.5 		"/>
		<polygon class="st0" points="1442.3,554.7 1285,550.9 608.1,550.9 451.9,554.7 451.9,554.2 608.1,550.4 1285,550.4 1442.3,554.2 
					"/>
	</g>
	<rect x="871.8" y="478.1" class="st1" width="152.3" height="23"/>
	<rect x="871.8" y="558.1" class="st1" width="152.3" height="32.5"/>
	<rect x="871.8" y="515.3" class="st1" width="152.3" height="37.6"/>
	<rect x="871.8" y="418.6" class="st1" width="152.3" height="31.4"/>
	<rect x="793.8" y="627.5" class="st0" width="308" height="0.4"/>
	<rect x="871.8" y="612.8" class="st1" width="152.3" height="16"/>
	<path class="st0" d="M1024.3,553H871.5v-41.3h152.7V553H1024.3z M871.8,552.7H1024v-40.8H871.8V552.7z"/>
	<path class="st0" d="M1024.3,599.2H871.5v-39.3h152.7v39.3H1024.3z M871.8,598.9H1024v-38.7H871.8V598.9z"/>
	<path class="st0" d="M1024.3,645.6H871.5v-31.3h152.7v31.3H1024.3z M871.8,645.4H1024v-30.8H871.8V645.4z"/>
	<path class="st0" d="M1024.3,501.5H871.5V466h152.7v35.5H1024.3z M871.8,501.2H1024v-35H871.8V501.2z"/>
	<path class="st0" d="M1024.3,448.5H871.5v-30h152.7v30H1024.3z M871.8,448.2H1024v-29.4H871.8V448.2z"/>
	<rect x="876.4" y="554.3" class="st0" width="0.3" height="44.8"/>
	<rect x="876.4" y="511.8" class="st0" width="0.3" height="41.1"/>
	<rect x="876.4" y="466" class="st0" width="0.3" height="41.3"/>
	<rect x="876.4" y="418.6" class="st0" width="0.3" height="35.7"/>
	<rect x="1018" y="554.3" class="st0" width="0.3" height="44.8"/>
	<rect x="1018" y="511.8" class="st0" width="0.3" height="41.1"/>
	<rect x="1018" y="466" class="st0" width="0.3" height="41.3"/>
	<rect x="1018" y="418.6" class="st0" width="0.3" height="35.7"/>
	<rect x="1004.7" y="554.3" class="st0" width="0.3" height="44.8"/>
	<rect x="1004.7" y="511.8" class="st0" width="0.3" height="41.1"/>
	<rect x="1004.7" y="466" class="st0" width="0.3" height="41.3"/>
	<rect x="1004.7" y="418.6" class="st0" width="0.3" height="35.7"/>
	<rect x="980.9" y="554.3" class="st0" width="0.3" height="44.8"/>
	<rect x="980.9" y="511.8" class="st0" width="0.3" height="41.1"/>
	<rect x="980.9" y="466" class="st0" width="0.3" height="41.3"/>
	<rect x="980.9" y="418.6" class="st0" width="0.3" height="35.7"/>
	<rect x="968" y="554.3" class="st0" width="0.3" height="44.8"/>
	<rect x="968" y="511.8" class="st0" width="0.3" height="41.1"/>
	<rect x="968" y="466" class="st0" width="0.3" height="41.3"/>
	<rect x="968" y="418.6" class="st0" width="0.3" height="35.7"/>
	<rect x="954" y="554.3" class="st0" width="0.3" height="44.8"/>
	<rect x="954" y="511.8" class="st0" width="0.3" height="41.1"/>
	<rect x="954" y="466" class="st0" width="0.3" height="41.3"/>
	<rect x="954" y="418.6" class="st0" width="0.3" height="35.7"/>
	<rect x="941" y="554.3" class="st0" width="0.3" height="44.8"/>
	<rect x="941" y="511.8" class="st0" width="0.3" height="41.1"/>
	<rect x="941" y="466" class="st0" width="0.3" height="41.3"/>
	<rect x="941" y="418.6" class="st0" width="0.3" height="35.7"/>
	<rect x="927.4" y="554.3" class="st0" width="0.3" height="44.8"/>
	<rect x="927.4" y="511.8" class="st0" width="0.3" height="41.1"/>
	<rect x="927.4" y="466" class="st0" width="0.3" height="41.3"/>
	<rect x="927.4" y="418.6" class="st0" width="0.3" height="35.7"/>
	<rect x="890.4" y="554.2" class="st0" width="0.3" height="44.9"/>
	<rect x="890.4" y="511.8" class="st0" width="0.3" height="41.1"/>
	<rect x="890.4" y="466" class="st0" width="0.3" height="41.3"/>
	<rect x="890.4" y="418.6" class="st0" width="0.3" height="35.7"/>
	<rect x="914.4" y="554.2" class="st0" width="0.3" height="44.9"/>
	<rect x="914.4" y="511.8" class="st0" width="0.3" height="41.1"/>
	<rect x="914.4" y="466" class="st0" width="0.3" height="41.3"/>
	<rect x="914.4" y="418.6" class="st0" width="0.3" height="35.7"/>
	<rect x="890.6" y="431.1" class="st0" width="13.4" height="0.3"/>
	<rect x="876.7" y="492.9" class="st0" width="141.4" height="0.3"/>
	<rect x="876.7" y="539.3" class="st0" width="141.4" height="0.3"/>
	<rect x="876.7" y="585.8" class="st0" width="141.4" height="0.3"/>
	<rect x="914.5" y="632.1" class="st0" width="66.6" height="0.3"/>
	<rect x="991.5" y="632.1" class="st0" width="26.6" height="0.3"/>
	<rect x="876.5" y="632.1" class="st0" width="27.7" height="0.3"/>
	<rect x="871.8" y="639.1" class="st0" width="152.3" height="0.3"/>
	<rect x="876.7" y="446.5" class="st0" width="141.4" height="0.3"/>
	<rect x="991.5" y="431.1" class="st0" width="13.4" height="0.3"/>
	<rect x="968" y="431.1" class="st0" width="13.1" height="0.3"/>
	<rect x="941.2" y="431.1" class="st0" width="12.8" height="0.3"/>
	<rect x="914.6" y="431.1" class="st0" width="12.8" height="0.3"/>
	<rect x="890.6" y="524.2" class="st0" width="13.4" height="0.3"/>
	<rect x="991.5" y="524.2" class="st0" width="13.4" height="0.3"/>
	<rect x="968" y="524.2" class="st0" width="13.1" height="0.3"/>
	<rect x="941.2" y="524.2" class="st0" width="12.8" height="0.3"/>
	<rect x="914.6" y="524.2" class="st0" width="12.8" height="0.3"/>
	<rect x="890.6" y="477.7" class="st0" width="13.4" height="0.3"/>
	<rect x="991.5" y="477.7" class="st0" width="13.4" height="0.3"/>
	<rect x="968" y="477.7" class="st0" width="13.1" height="0.3"/>
	<rect x="941.2" y="477.7" class="st0" width="12.8" height="0.3"/>
	<rect x="914.6" y="477.7" class="st0" width="12.8" height="0.3"/>
	<rect x="890.6" y="570.6" class="st0" width="13.4" height="0.3"/>
	<rect x="991.5" y="570.6" class="st0" width="13.4" height="0.3"/>
	<rect x="968" y="570.6" class="st0" width="13.1" height="0.3"/>
	<rect x="941.2" y="570.6" class="st0" width="12.8" height="0.3"/>
	<rect x="914.6" y="570.6" class="st0" width="12.8" height="0.3"/>
	<rect x="890.6" y="616.9" class="st0" width="13.4" height="0.2"/>
	<rect x="991.5" y="616.9" class="st0" width="13.4" height="0.2"/>
	<rect x="968" y="616.9" class="st0" width="13.1" height="0.2"/>
	<rect x="941.2" y="616.9" class="st0" width="12.8" height="0.2"/>
	<rect x="914.6" y="616.9" class="st0" width="12.8" height="0.2"/>
	<rect x="876.4" y="614.3" class="st0" width="0.2" height="24.9"/>
	<rect x="1018" y="614.3" class="st0" width="0.2" height="24.9"/>
	<rect x="1004.8" y="614.3" class="st0" width="0.2" height="24.9"/>
	<rect x="981" y="614.3" class="st0" width="0.2" height="24.9"/>
	<rect x="968" y="614.3" class="st0" width="0.2" height="24.9"/>
	<rect x="954" y="614.3" class="st0" width="0.2" height="24.9"/>
	<rect x="941.1" y="614.3" class="st0" width="0.2" height="24.9"/>
	<rect x="927.4" y="614.3" class="st0" width="0.2" height="24.9"/>
	<rect x="890.4" y="614.3" class="st0" width="0.2" height="24.9"/>
	<rect x="914.5" y="614.3" class="st0" width="0.2" height="24.9"/>
	<g>
		<rect x="610.5" y="518.8" class="st1" width="3.2" height="31.6"/>
		<path class="st0" d="M613.9,550.6h-3.5v-31.9h3.5V550.6z M610.6,550.3h3v-31.4h-3V550.3z"/>
	</g>
	<g>
		<rect x="590.6" y="516.8" class="st1" width="3.2" height="34.3"/>
		<path class="st0" d="M593.9,551.2h-3.5v-34.6h3.5V551.2z M590.7,551h3v-34.1h-3V551z"/>
	</g>
	<g>
		<rect x="590.6" y="478.1" class="st1" width="3.2" height="23.5"/>
		<path class="st0" d="M593.9,501.7h-3.5v-23.8h3.5V501.7z M590.7,501.5h3v-23.3h-3V501.5z"/>
	</g>
	<g>
		<rect x="590.6" y="438.8" class="st1" width="3.2" height="9.4"/>
		<path class="st0" d="M593.9,448.3h-3.5v-9.6h3.5V448.3z M590.7,448.1h3V439h-3V448.1z"/>
	</g>
	<g>
		<rect x="1280.3" y="591.6" class="st1" width="3.2" height="32.2"/>
		<path class="st0" d="M1283.7,623.9h-3.5v-32.4h3.5V623.9z M1280.5,623.7h3v-31.9h-3V623.7z"/>
	</g>
	<g>
		<rect x="1266.4" y="587.4" class="st1" width="17.1" height="4.2"/>
		<path class="st0" d="M1283.7,591.7h-17.4v-4.4h17.4V591.7z M1266.6,591.5h16.9v-4h-16.9V591.5z"/>
	</g>
	<g>
		<polygon class="st1" points="1439.3,615.1 1283.5,591.6 1283.5,587.4 1439.3,607.8 		"/>
		<path class="st0" d="M1439.4,615.3L1439.4,615.3l-155.9-23.5v-4.5h0.1l155.8,20.5V615.3z M1283.7,591.5l155.5,23.4v-7l-155.5-20.4
			V591.5z"/>
	</g>
	<g>
		<rect x="1400.5" y="667.5" class="st1" width="5.9" height="50.8"/>
		<path class="st0" d="M1406.6,718.4h-6.2v-51h6.2V718.4z M1400.6,718.1h5.7v-50.5h-5.7V718.1z"/>
	</g>
	<g>
		<rect x="1400.5" y="609.2" class="st1" width="5.9" height="44.5"/>
		<path class="st0" d="M1406.6,653.9h-6.2v-44.8h6.2V653.9z M1400.6,653.6h5.7v-44.3h-5.7V653.6z"/>
	</g>
	<g>
		<rect x="1400.5" y="509.4" class="st1" width="5.9" height="44"/>
		<path class="st0" d="M1406.6,553.5h-6.2v-44.2h6.2V553.5z M1400.6,553.2h5.7v-43.7h-5.7V553.2z"/>
	</g>
	<g>
		<rect x="1400.5" y="458.9" class="st1" width="5.9" height="44"/>
		<path class="st0" d="M1406.6,502.9h-6.2v-44.2h6.2V502.9z M1400.6,502.7h5.7V459h-5.7V502.7z"/>
	</g>
	<g>
		<rect x="1400.5" y="409.3" class="st1" width="5.9" height="39.1"/>
		<path class="st0" d="M1406.6,448.5h-6.2v-39.4h6.2V448.5z M1400.6,448.3h5.7v-38.9h-5.7V448.3z"/>
	</g>
	<g>
		<rect x="1371.3" y="667.5" class="st1" width="5.5" height="39.3"/>
		<path class="st0" d="M1376.9,706.9h-5.7v-39.6h5.7V706.9z M1371.5,706.6h5.2v-39h-5.2V706.6z"/>
	</g>
	<g>
		<rect x="1371.3" y="605" class="st1" width="5.5" height="41.2"/>
		<path class="st0" d="M1376.9,646.3h-5.7v-41.4h5.7V646.3z M1371.5,646.1h5.2v-40.9h-5.2V646.1z"/>
	</g>
	<g>
		<rect x="1371.3" y="511.6" class="st1" width="5.5" height="41.8"/>
		<path class="st0" d="M1376.9,553.5h-5.7v-42h5.7V553.5z M1371.5,553.2h5.2v-41.5h-5.2V553.2z"/>
	</g>
	<g>
		<rect x="1371.3" y="465.3" class="st1" width="5.5" height="37.5"/>
		<path class="st0" d="M1376.9,502.9h-5.7v-37.8h5.7V502.9z M1371.5,502.7h5.2v-37.3h-5.2V502.7z"/>
	</g>
	<g>
		<rect x="1371.3" y="418" class="st1" width="5.5" height="30.4"/>
		<path class="st0" d="M1376.9,448.5h-5.7v-30.6h5.7V448.5z M1371.5,448.3h5.2v-30.1h-5.2V448.3z"/>
	</g>
	<g>
		<rect x="1343.8" y="667.5" class="st1" width="5" height="28.4"/>
		<path class="st0" d="M1348.9,696h-5.2v-28.7h5.2V696z M1344,695.8h4.7v-28.2h-4.7V695.8z"/>
	</g>
	<g>
		<rect x="1343.8" y="600.7" class="st1" width="5" height="38.7"/>
		<path class="st0" d="M1348.9,639.6h-5.2v-39h5.2V639.6z M1344,639.4h4.7v-38.5h-4.7V639.4z"/>
	</g>
	<g>
		<rect x="1343.8" y="513.8" class="st1" width="5" height="38.5"/>
		<path class="st0" d="M1348.9,552.4h-5.2v-38.7h5.2V552.4z M1344,552.2h4.7V514h-4.7V552.2z"/>
	</g>
	<g>
		<rect x="1343.8" y="470.1" class="st1" width="5" height="31.2"/>
		<path class="st0" d="M1348.9,501.5h-5.2V470h5.2V501.5z M1344,501.2h4.7v-31h-4.7V501.2z"/>
	</g>
	<g>
		<rect x="1300.3" y="478.2" class="st1" width="3.2" height="23.2"/>
		<path class="st0" d="M1303.6,501.5h-3.4v-23.4h3.4V501.5z M1300.4,501.2h2.9v-22.9h-2.9V501.2z"/>
	</g>
	<g>
		<rect x="1300.3" y="439.2" class="st1" width="3.2" height="9"/>
		<path class="st0" d="M1303.6,448.3h-3.4V439h3.4V448.3z M1300.4,448.1h2.9v-8.8h-2.9V448.1z"/>
	</g>
	<g>
		<rect x="1300.3" y="517.5" class="st1" width="3.2" height="33.2"/>
		<path class="st0" d="M1303.6,550.9h-3.4v-33.5h3.4V550.9z M1300.4,550.6h2.9v-33h-2.9V550.6z"/>
	</g>
	<g>
		<rect x="1300.3" y="560.7" class="st1" width="3.2" height="29.3"/>
		<path class="st0" d="M1303.6,590.1h-3.4v-29.5h3.4V590.1z M1300.4,589.8h2.9v-29h-2.9V589.8z"/>
	</g>
	<g>
		<rect x="1300.3" y="594" class="st1" width="3.2" height="34.3"/>
		<path class="st0" d="M1303.6,628.3h-3.4v-34.5h3.4V628.3z M1300.4,628.1h2.9v-34h-2.9V628.1z"/>
	</g>
	<g>
		<rect x="1343.8" y="426.1" class="st1" width="5" height="22.3"/>
		<path class="st0" d="M1348.9,448.5h-5.2V426h5.2V448.5z M1344,448.3h4.7v-22h-4.7V448.3z"/>
	</g>
	<g>
		<rect x="1431.9" y="609.6" class="st1" width="7.4" height="4.3"/>
		<path class="st0" d="M1439.4,614h-7.7v-4.5h7.7V614z M1432,613.8h7.2v-4h-7.2V613.8z"/>
	</g>
	<g>
		<polygon class="st1" points="1431.9,609.6 1280.4,588.6 1280.4,591.6 1431.9,613.9 		"/>
		<path class="st0" d="M1432,614L1432,614l-151.7-22.3v-3.3h0.1l151.6,21V614z M1280.5,591.5l151.3,22.2v-4l-151.3-21V591.5z"/>
	</g>
	<g>
		<polygon class="st1" points="1280.4,588.6 1283.8,588.6 1439.3,609.6 1431.9,609.6 		"/>
		<path class="st0" d="M1439.3,609.7h-7.4l-151.5-21v-0.2h3.4l155.5,21V609.7z M1282.2,588.7l149.7,20.8h5.5l-153.7-20.8H1282.2z"/>
	</g>
	<g>
		<rect x="1371.3" y="560.1" class="st1" width="5.5" height="41.1"/>
		<path class="st0" d="M1376.9,601.3h-5.7v-41.4h5.7V601.3z M1371.5,601.1h5.2v-40.9h-5.2V601.1z"/>
	</g>
	<g>
		<rect x="1400.5" y="560.1" class="st1" width="5.9" height="45.1"/>
		<path class="st0" d="M1406.6,605.3h-6.2V560h6.2V605.3z M1400.6,605h5.7v-44.8h-5.7V605z"/>
	</g>
	<g>
		<rect x="1343.8" y="560.1" class="st1" width="5" height="37.2"/>
		<path class="st0" d="M1348.9,597.5h-5.2V560h5.2V597.5z M1344,597.2h4.7v-37h-4.7V597.2z"/>
	</g>
	<g>
		<rect x="1280.3" y="518.9" class="st1" width="3.2" height="31.8"/>
		<path class="st0" d="M1283.7,550.8h-3.5v-32h3.5V550.8z M1280.5,550.5h3V519h-3V550.5z"/>
	</g>
	<g>
		<rect x="1280.3" y="481.6" class="st1" width="3.2" height="19.7"/>
		<path class="st0" d="M1283.7,501.5h-3.5v-20h3.5V501.5z M1280.5,501.2h3v-19.5h-3V501.2z"/>
	</g>
	<g>
		<rect x="1280.3" y="445" class="st1" width="3.2" height="3"/>
		<path class="st0" d="M1283.7,448.2h-3.5v-3.3h3.5V448.2z M1280.5,447.9h3v-2.8h-3V447.9z"/>
	</g>
	<g>
		<rect x="1439.3" y="607.8" class="st1" width="2.2" height="7.3"/>
		<path class="st0" d="M1441.6,615.2h-2.5v-7.5h2.5V615.2z M1439.4,615h2v-7h-2V615z"/>
	</g>
	<g>
		<rect x="1266.4" y="588.6" class="st1" width="13.9" height="3"/>
		<path class="st0" d="M1280.5,591.7h-14.2v-3.3h14.2V591.7z M1266.6,591.5h13.7v-2.8h-13.7V591.5z"/>
	</g>
	<g>
		<rect x="1280.3" y="560.1" class="st1" width="3.2" height="28.5"/>
		<path class="st0" d="M1283.7,588.7h-3.5V560h3.5V588.7z M1280.5,588.4h3v-28.2h-3V588.4z"/>
	</g>
	<g>
		<rect x="610.5" y="591.6" class="st1" width="3.2" height="32.6"/>
		<path class="st0" d="M613.9,624.3h-3.5v-32.8h3.5V624.3z M610.6,624.1h3v-32.3h-3V624.1z"/>
	</g>
	<g>
		<rect x="590.6" y="594.6" class="st1" width="3.2" height="34.3"/>
		<path class="st0" d="M594,628.9h-3.5v-34.5h3.5V628.9z M590.8,628.7h3v-34h-3V628.7z"/>
	</g>
	<g>
		<rect x="610.6" y="587.4" class="st1" width="17.9" height="4.2"/>
		<path class="st0" d="M628.6,591.7h-18.2v-4.4h18.2V591.7z M610.6,591.5h17.7v-4h-17.7V591.5z"/>
	</g>
	<g>
		<polygon class="st1" points="454.8,615.1 610.5,591.6 610.5,587.4 454.8,607.8 		"/>
		<path class="st0" d="M454.7,615.3v-7.5h0.1l155.8-20.5v4.5h-0.1L454.7,615.3z M454.9,608v7l155.5-23.4v-4L454.9,608z"/>
	</g>
	<g>
		<rect x="487.7" y="609.2" class="st1" width="5.9" height="44.5"/>
		<path class="st0" d="M493.7,653.9h-6.2v-44.8h6.2V653.9z M487.7,653.6h5.7v-44.3h-5.7V653.6z"/>
	</g>
	<g>
		<rect x="487.7" y="667.6" class="st1" width="5.9" height="51.1"/>
		<path class="st0" d="M493.7,718.8h-6.2v-51.3h6.2V718.8z M487.7,718.6h5.7v-50.8h-5.7V718.6z"/>
	</g>
	<g>
		<rect x="487.7" y="509.3" class="st1" width="5.9" height="44"/>
		<path class="st0" d="M493.7,553.5h-6.2v-44.2h6.2V553.5z M487.7,553.2h5.7v-43.7h-5.7V553.2z"/>
	</g>
	<g>
		<rect x="487.7" y="458.8" class="st1" width="5.9" height="44"/>
		<path class="st0" d="M493.7,502.9h-6.2v-44.2h6.2V502.9z M487.7,502.7h5.7V459h-5.7V502.7z"/>
	</g>
	<g>
		<rect x="487.7" y="409.3" class="st1" width="5.9" height="39.1"/>
		<path class="st0" d="M493.7,448.5h-6.2v-39.4h6.2V448.5z M487.7,448.3h5.7v-38.9h-5.7V448.3z"/>
	</g>
	<g>
		<rect x="517.2" y="605" class="st1" width="5.5" height="41.2"/>
		<path class="st0" d="M522.9,646.3h-5.7v-41.4h5.7V646.3z M517.4,646.1h5.2v-40.9h-5.2V646.1z"/>
	</g>
	<g>
		<rect x="517.2" y="667.6" class="st1" width="5.5" height="39.7"/>
		<path class="st0" d="M522.9,707.4h-5.7v-39.9h5.7V707.4z M517.4,707.2h5.2v-39.4h-5.2V707.2z"/>
	</g>
	<g>
		<rect x="517.2" y="511.5" class="st1" width="5.5" height="41.8"/>
		<path class="st0" d="M522.9,553.5h-5.7v-42h5.7V553.5z M517.4,553.2h5.2v-41.5h-5.2V553.2z"/>
	</g>
	<g>
		<rect x="517.2" y="465.3" class="st1" width="5.5" height="37.5"/>
		<path class="st0" d="M522.9,502.9h-5.7v-37.8h5.7V502.9z M517.4,502.7h5.2v-37.3h-5.2V502.7z"/>
	</g>
	<g>
		<rect x="517.2" y="418" class="st1" width="5.5" height="30.4"/>
		<path class="st0" d="M522.9,448.5h-5.7v-30.6h5.7V448.5z M517.4,448.3h5.2v-30.1h-5.2V448.3z"/>
	</g>
	<g>
		<rect x="545.2" y="600.8" class="st1" width="5" height="38.7"/>
		<path class="st0" d="M550.3,639.6h-5.2v-39h5.2V639.6z M545.4,639.4h4.7v-38.5h-4.7V639.4z"/>
	</g>
	<g>
		<rect x="545.2" y="667.6" class="st1" width="5" height="29"/>
		<path class="st0" d="M550.3,696.7h-5.2v-29.3h5.2V696.7z M545.4,696.5h4.7v-28.8h-4.7V696.5z"/>
	</g>
	<g>
		<rect x="545.2" y="513.9" class="st1" width="5" height="38.5"/>
		<path class="st0" d="M550.3,552.4h-5.2v-38.7h5.2V552.4z M545.4,552.2h4.7V514h-4.7V552.2z"/>
	</g>
	<g>
		<rect x="545.2" y="470.2" class="st1" width="5" height="31.2"/>
		<path class="st0" d="M550.3,501.5h-5.2V470h5.2V501.5z M545.4,501.2h4.7v-31h-4.7V501.2z"/>
	</g>
	<g>
		<rect x="545.2" y="426.1" class="st1" width="5" height="22.3"/>
		<path class="st0" d="M550.3,448.5h-5.2V426h5.2V448.5z M545.4,448.3h4.7v-22h-4.7V448.3z"/>
	</g>
	<g>
		<rect x="454.8" y="609.6" class="st1" width="7.4" height="4.3"/>
		<path class="st0" d="M462.3,614h-7.7v-4.5h7.7V614z M454.9,613.8h7.2v-4h-7.2V613.8z"/>
	</g>
	<g>
		<polygon class="st1" points="462.2,609.6 613.7,588.6 613.7,591.6 462.2,613.9 		"/>
		<path class="st0" d="M462.1,614v-4.6h0.1l151.7-21v3.3h-0.1L462.1,614z M462.3,609.7v4l151.3-22.2v-2.8L462.3,609.7z"/>
	</g>
	<g>
		<polygon class="st1" points="613.7,588.6 610.3,588.6 454.8,609.6 462.2,609.6 		"/>
		<path class="st0" d="M454.8,609.7v-0.2l155.5-21h3.4v0.2l-151.5,21H454.8z M456.6,609.5h5.5l149.7-20.8h-1.6L456.6,609.5z"/>
	</g>
	<g>
		<rect x="517.2" y="560.1" class="st1" width="5.5" height="41.1"/>
		<path class="st0" d="M522.9,601.3h-5.7v-41.4h5.7V601.3z M517.4,601.1h5.2v-40.9h-5.2V601.1z"/>
	</g>
	<g>
		<rect x="487.7" y="560.1" class="st1" width="5.9" height="45.1"/>
		<path class="st0" d="M493.7,605.3h-6.2V560h6.2V605.3z M487.7,605h5.7v-44.8h-5.7V605z"/>
	</g>
	<g>
		<rect x="545.2" y="560.1" class="st1" width="5" height="37.2"/>
		<path class="st0" d="M550.3,597.5h-5.2V560h5.2V597.5z M545.4,597.2h4.7v-37h-4.7V597.2z"/>
	</g>
	<g>
		<rect x="610.5" y="481.4" class="st1" width="3.2" height="19.9"/>
		<path class="st0" d="M613.9,501.5h-3.5v-20.2h3.5V501.5z M610.6,501.2h3v-19.7h-3V501.2z"/>
	</g>
	<g>
		<rect x="452.6" y="607.9" class="st1" width="2.2" height="7.3"/>
		<path class="st0" d="M454.9,615.2h-2.5v-7.5h2.5V615.2z M452.7,615h2v-7h-2V615z"/>
	</g>
	<g>
		<rect x="613.8" y="588.6" class="st1" width="14.6" height="3"/>
		<path class="st0" d="M628.6,591.7h-14.8v-3.3h14.8V591.7z M614,591.5h14.3v-2.8H614V591.5z"/>
	</g>
	<g>
		<rect x="610.5" y="560.1" class="st1" width="3.2" height="28.5"/>
		<path class="st0" d="M613.9,588.7h-3.5V560h3.5V588.7z M610.6,588.4h3v-28.2h-3V588.4z"/>
	</g>
	<g>
		<rect x="590.6" y="560.1" class="st1" width="3.2" height="30"/>
		<path class="st0" d="M593.9,590.2h-3.5v-30.3h3.5V590.2z M590.7,590h3v-29.8h-3V590z"/>
	</g>
	<g>
		<rect x="914.8" y="667.5" class="st1" width="2.1" height="11.9"/>
		<path class="st0" d="M917,679.5h-2.3v-12.1h2.3V679.5z M914.9,679.3h1.9v-11.7h-1.9V679.3z"/>
	</g>
	<g>
		<rect x="913.1" y="667.5" class="st1" width="2.1" height="20"/>
		<path class="st0" d="M915.3,687.6H913v-20.2h2.3V687.6z M913.2,687.4h1.9v-19.8h-1.9V687.4z"/>
	</g>
	<g>
		<rect x="910.4" y="667.5" class="st1" width="3.1" height="29.7"/>
		<path class="st0" d="M913.6,697.3h-3.3v-30h3.3V697.3z M910.5,697.1h2.9v-29.5h-2.9V697.1z"/>
	</g>
	<g>
		<rect x="906.7" y="667.5" class="st1" width="4.4" height="40"/>
		<path class="st0" d="M911.3,707.6h-4.7v-40.3h4.7V707.6z M906.9,707.4h4.2v-39.8h-4.2V707.4z"/>
	</g>
	<g>
		<rect x="1319.7" y="458.9" class="st1" width="5" height="44"/>
		<path class="st0" d="M1324.9,502.9h-5.3v-44.2h5.3V502.9z M1319.8,502.7h4.8v-43.8h-4.8V502.7z"/>
	</g>
	<g>
		<rect x="1319.7" y="509.4" class="st1" width="5" height="44"/>
		<path class="st0" d="M1324.9,553.5h-5.3v-44.2h5.3V553.5z M1319.8,553.2h4.8v-43.8h-4.8V553.2z"/>
	</g>
	<g>
		<rect x="1319.7" y="560.3" class="st1" width="5" height="93.8"/>
		<path class="st0" d="M1324.9,654.2h-5.3v-94h5.3V654.2z M1319.8,654h4.8v-93.6h-4.8V654z"/>
	</g>
	<g>
		<rect x="1319.7" y="409.3" class="st1" width="5" height="39.1"/>
		<path class="st0" d="M1324.9,448.5h-5.3v-39.3h5.3V448.5z M1319.8,448.3h4.8v-38.9h-4.8V448.3z"/>
	</g>
	<g>
		<rect x="1294.2" y="464.6" class="st1" width="6.6" height="36.8"/>
		<path class="st0" d="M1300.9,501.5h-6.8v-37h6.8V501.5z M1294.3,501.3h6.4v-36.6h-6.4V501.3z"/>
	</g>
	<g>
		<rect x="1294.2" y="511.6" class="st1" width="6.6" height="41.5"/>
		<path class="st0" d="M1300.9,553.2h-6.8v-41.7h6.8V553.2z M1294.3,553h6.4v-41.3h-6.4V553z"/>
	</g>
	<g>
		<rect x="1294.2" y="560.3" class="st1" width="6.6" height="85.8"/>
		<path class="st0" d="M1300.9,646.3h-6.8v-86.1h6.8V646.3z M1294.3,646h6.4v-85.6h-6.4V646z"/>
	</g>
	<g>
		<rect x="1250.3" y="614.3" class="st1" width="7.3" height="19.3"/>
		<path class="st0" d="M1257.7,633.7h-7.5v-19.5h7.5V633.7z M1250.4,633.5h7.1v-19.1h-7.1V633.5z"/>
	</g>
	<g>
		<rect x="1250.3" y="515.3" class="st1" width="7.3" height="36.3"/>
		<path class="st0" d="M1257.7,551.7h-7.5v-36.5h7.5V551.7z M1250.4,551.5h7.1v-36.1h-7.1V551.5z"/>
	</g>
	<g>
		<rect x="1250.3" y="474.1" class="st1" width="7.3" height="27"/>
		<path class="st0" d="M1257.7,501.2h-7.5V474h7.5V501.2z M1250.4,501h7.1v-26.8h-7.1V501z"/>
	</g>
	<g>
		<rect x="1250.3" y="433.2" class="st1" width="7.3" height="15"/>
		<path class="st0" d="M1257.7,448.3h-7.5v-15.2h7.5V448.3z M1250.4,448.1h7.1v-14.8h-7.1V448.1z"/>
	</g>
	<g>
		<rect x="1294.2" y="418" class="st1" width="6.6" height="30.4"/>
		<path class="st0" d="M1300.9,448.5h-6.8v-30.6h6.8V448.5z M1294.3,448.3h6.4v-30.2h-6.4V448.3z"/>
	</g>
	<g>
		<polygon class="st1" points="1294.2,464.6 1291.6,465.6 1291.6,501.4 1294.2,501.4 		"/>
		<path class="st0" d="M1294.3,501.5h-2.8v-36l2.8-1.1V501.5z M1291.7,501.3h2.4v-36.5l-2.4,0.9V501.3z"/>
	</g>
	<g>
		<polygon class="st1" points="1294.2,511.6 1291.6,511.9 1291.6,553.1 1294.2,553.1 		"/>
		<path class="st0" d="M1294.3,553.2h-2.8v-41.4l2.8-0.4V553.2z M1291.7,553h2.4v-41.3l-2.4,0.3V553z"/>
	</g>
	<g>
		<polygon class="st1" points="1294.2,560.3 1291.6,560.3 1291.6,645.5 1294.2,646.2 		"/>
		<path class="st0" d="M1294.3,646.3l-2.8-0.7v-85.4h2.8V646.3z M1291.7,645.4l2.4,0.6v-85.6h-2.4V645.4z"/>
	</g>
	<g>
		<polygon class="st1" points="1294.2,418 1291.6,419.7 1291.6,448.4 1294.2,448.4 		"/>
		<path class="st0" d="M1294.3,448.5h-2.8v-28.9l2.8-1.8V448.5z M1291.7,448.3h2.4v-30.1l-2.4,1.6V448.3z"/>
	</g>
	<g>
		<rect x="1272.8" y="426.1" class="st1" width="4.1" height="22.3"/>
		<path class="st0" d="M1277,448.5h-4.3V426h4.3V448.5z M1272.9,448.3h3.9v-22h-3.9V448.3z"/>
	</g>
	<g>
		<rect x="1272.8" y="469.7" class="st1" width="4.1" height="31.7"/>
		<path class="st0" d="M1277,501.5h-4.3v-31.9h4.3V501.5z M1272.9,501.3h3.9v-31.4h-3.9V501.3z"/>
	</g>
	<g>
		<rect x="1272.8" y="513.8" class="st1" width="4.1" height="38.7"/>
		<path class="st0" d="M1277,552.7h-4.3v-38.9h4.3V552.7z M1272.9,552.4h3.9v-38.5h-3.9V552.4z"/>
	</g>
	<g>
		<rect x="1272.8" y="560.3" class="st1" width="4.1" height="79"/>
		<path class="st0" d="M1277,639.5h-4.3v-79.2h4.3V639.5z M1272.9,639.2h3.9v-78.8h-3.9V639.2z"/>
	</g>
	<g>
		<rect x="569" y="458.8" class="st1" width="5" height="44"/>
		<path class="st0" d="M574.1,502.9h-5.3v-44.2h5.3V502.9z M569.1,502.7h4.8v-43.8h-4.8V502.7z"/>
	</g>
	<g>
		<rect x="569" y="509.3" class="st1" width="5" height="44"/>
		<path class="st0" d="M574.1,553.5h-5.3v-44.2h5.3V553.5z M569.1,553.2h4.8v-43.8h-4.8V553.2z"/>
	</g>
	<g>
		<rect x="569" y="560.3" class="st1" width="5" height="93.8"/>
		<path class="st0" d="M574.1,654.2h-5.3v-94h5.3V654.2z M569.1,654h4.8v-93.6h-4.8V654z"/>
	</g>
	<g>
		<rect x="569" y="409.3" class="st1" width="5" height="39.1"/>
		<path class="st0" d="M574.1,448.5h-5.3v-39.3h5.3V448.5z M569.1,448.3h4.8v-38.9h-4.8V448.3z"/>
	</g>
	<g>
		<rect x="592.9" y="464.5" class="st1" width="6.6" height="36.8"/>
		<path class="st0" d="M599.6,501.5h-6.8v-37h6.8V501.5z M593,501.3h6.4v-36.6H593V501.3z"/>
	</g>
	<g>
		<rect x="592.9" y="511.5" class="st1" width="6.6" height="41.5"/>
		<path class="st0" d="M599.6,553.2h-6.8v-41.7h6.8V553.2z M593,553h6.4v-41.3H593V553z"/>
	</g>
	<g>
		<rect x="592.9" y="560.4" class="st1" width="6.6" height="85.8"/>
		<path class="st0" d="M599.6,646.3h-6.8v-86.1h6.8V646.3z M593,646h6.4v-85.6H593V646z"/>
	</g>
	<g>
		<rect x="636.2" y="614.4" class="st1" width="7.3" height="19.3"/>
		<path class="st0" d="M643.5,633.7H636v-19.5h7.5V633.7z M636.2,633.5h7.1v-19.1h-7.1V633.5z"/>
	</g>
	<g>
		<rect x="636.2" y="515.3" class="st1" width="7.3" height="36.3"/>
		<path class="st0" d="M643.5,551.7H636v-36.5h7.5V551.7z M636.2,551.5h7.1v-36.1h-7.1V551.5z"/>
	</g>
	<g>
		<rect x="636.2" y="474.1" class="st1" width="7.3" height="27"/>
		<path class="st0" d="M643.5,501.2H636V474h7.5V501.2z M636.2,501h7.1v-26.8h-7.1V501z"/>
	</g>
	<g>
		<rect x="636.2" y="433.2" class="st1" width="7.3" height="15"/>
		<path class="st0" d="M643.5,448.3H636v-15.2h7.5V448.3z M636.2,448.1h7.1v-14.8h-7.1V448.1z"/>
	</g>
	<g>
		<rect x="592.9" y="418" class="st1" width="6.6" height="30.4"/>
		<path class="st0" d="M599.6,448.5h-6.8v-30.6h6.8V448.5z M593,448.3h6.4v-30.2H593V448.3z"/>
	</g>
	<g>
		<polygon class="st1" points="599.5,464.6 602.1,465.6 602.1,501.4 599.5,501.4 		"/>
		<path class="st0" d="M602.3,501.5h-2.8v-37.1l2.8,1.1V501.5z M599.6,501.3h2.4v-35.6l-2.4-0.9V501.3z"/>
	</g>
	<g>
		<polygon class="st1" points="599.5,511.6 602.1,511.9 602.1,553.1 599.5,553.1 		"/>
		<path class="st0" d="M602.3,553.2h-2.8v-41.7l2.8,0.4V553.2z M599.6,553h2.4v-41l-2.4-0.3V553z"/>
	</g>
	<g>
		<polygon class="st1" points="599.5,560.3 602.1,560.3 602.1,645.5 599.5,646.2 		"/>
		<path class="st0" d="M599.4,646.3v-86.1h2.8v85.4L599.4,646.3z M599.6,560.4V646l2.4-0.6v-85H599.6z"/>
	</g>
	<g>
		<polygon class="st1" points="599.5,418 602.1,419.7 602.1,448.4 599.5,448.4 		"/>
		<path class="st0" d="M602.3,448.5h-2.8v-30.7l2.8,1.8V448.5z M599.6,448.3h2.4v-28.5l-2.4-1.6V448.3z"/>
	</g>
	<g>
		<rect x="616.9" y="426.1" class="st1" width="4.1" height="22.3"/>
		<path class="st0" d="M621,448.5h-4.3V426h4.3V448.5z M617,448.3h3.9v-22H617V448.3z"/>
	</g>
	<g>
		<rect x="616.9" y="469.7" class="st1" width="4.1" height="31.7"/>
		<path class="st0" d="M621,501.5h-4.3v-31.9h4.3V501.5z M617,501.3h3.9v-31.4H617V501.3z"/>
	</g>
	<g>
		<rect x="616.9" y="513.9" class="st1" width="4.1" height="38.7"/>
		<path class="st0" d="M621,552.7h-4.3v-38.9h4.3V552.7z M617,552.4h3.9v-38.5H617V552.4z"/>
	</g>
	<g>
		<rect x="616.9" y="560.4" class="st1" width="4.1" height="79"/>
		<path class="st0" d="M621,639.5h-4.3v-79.2h4.3V639.5z M617,639.2h3.9v-78.8H617V639.2z"/>
	</g>
	<g>
		<rect x="904.2" y="667.5" class="st1" width="4.4" height="50.8"/>
		<path class="st0" d="M908.8,718.4h-4.7v-51h4.7V718.4z M904.3,718.1h4.2v-50.6h-4.2V718.1z"/>
	</g>
	<g>
		<rect x="978.9" y="667.4" class="st1" width="2.1" height="11.9"/>
		<path class="st0" d="M981.1,679.5h-2.3v-12.1h2.3V679.5z M979,679.3h1.9v-11.7H979V679.3z"/>
	</g>
	<g>
		<rect x="980.6" y="667.4" class="st1" width="2.1" height="20"/>
		<path class="st0" d="M982.8,687.6h-2.3v-20.2h2.3V687.6z M980.7,687.4h1.9v-19.8h-1.9V687.4z"/>
	</g>
	<g>
		<rect x="982.3" y="667.5" class="st1" width="3.1" height="29.7"/>
		<path class="st0" d="M985.5,697.3h-3.3v-30h3.3V697.3z M982.5,697.1h2.9v-29.5h-2.9V697.1z"/>
	</g>
	<g>
		<rect x="984.7" y="667.5" class="st1" width="4.4" height="40"/>
		<path class="st0" d="M989.2,707.6h-4.7v-40.3h4.7V707.6z M984.7,707.4h4.2v-39.8h-4.2V707.4z"/>
	</g>
	<g>
		<rect x="987.2" y="667.4" class="st1" width="4.4" height="50.8"/>
		<path class="st0" d="M991.7,718.4H987v-51h4.7V718.4z M987.2,718.1h4.2v-50.6h-4.2V718.1z"/>
	</g>
	<g>
		<rect x="1042" y="667.4" class="st1" width="3.2" height="11.9"/>
		<path class="st0" d="M1045.3,679.5h-3.5v-12.1h3.5V679.5z M1042.1,679.3h3v-11.7h-3V679.3z"/>
	</g>
	<g>
		<rect x="1046.7" y="667.4" class="st1" width="6" height="20"/>
		<path class="st0" d="M1052.9,687.6h-6.2v-20.2h6.2V687.6z M1046.9,687.4h5.8v-19.8h-5.8V687.4z"/>
	</g>
	<g>
		<rect x="1054.3" y="667.5" class="st1" width="3.7" height="29.7"/>
		<path class="st0" d="M1058.2,697.3h-3.9v-30h3.9V697.3z M1054.5,697.1h3.5v-29.5h-3.5V697.1z"/>
	</g>
	<g>
		<rect x="1060.6" y="667.5" class="st1" width="6.9" height="40"/>
		<path class="st0" d="M1067.6,707.6h-7.2v-40.3h7.2V707.6z M1060.6,707.4h6.7v-39.8h-6.7V707.4z"/>
	</g>
	<g>
		<rect x="1070" y="667.4" class="st1" width="4.4" height="50.8"/>
		<path class="st0" d="M1074.5,718.4h-4.7v-51h4.7V718.4z M1070,718.1h4.2v-50.6h-4.2V718.1z"/>
	</g>
	<g>
		<rect x="850.4" y="667.5" class="st1" width="3.2" height="11.9"/>
		<path class="st0" d="M853.7,679.5h-3.5v-12.1h3.5V679.5z M850.5,679.3h3v-11.7h-3V679.3z"/>
	</g>
	<g>
		<rect x="842.9" y="667.5" class="st1" width="6" height="20"/>
		<path class="st0" d="M849,687.6h-6.2v-20.2h6.2V687.6z M843,687.4h5.8v-19.8H843V687.4z"/>
	</g>
	<g>
		<rect x="837.5" y="667.5" class="st1" width="3.7" height="29.7"/>
		<path class="st0" d="M841.3,697.3h-3.9v-30h3.9V697.3z M837.6,697.1h3.5v-29.5h-3.5V697.1z"/>
	</g>
	<g>
		<rect x="828.1" y="667.5" class="st1" width="6.9" height="40"/>
		<path class="st0" d="M835.2,707.6H828v-40.3h7.2V707.6z M828.2,707.4h6.7v-39.8h-6.7V707.4z"/>
	</g>
	<g>
		<rect x="821.2" y="667.5" class="st1" width="4.4" height="50.8"/>
		<path class="st0" d="M825.8,718.4h-4.7v-51h4.7V718.4z M821.4,718.1h4.2v-50.6h-4.2V718.1z"/>
	</g>
	<g>
		<rect x="906.7" y="614.3" class="st1" width="4.4" height="31.9"/>
		<path class="st0" d="M911.3,646.3h-4.7v-32.1h4.7V646.3z M906.9,646.1h4.2v-31.6h-4.2V646.1z"/>
	</g>
	<g>
		<rect x="904.2" y="614.3" class="st1" width="4.4" height="39"/>
		<path class="st0" d="M908.8,653.4h-4.7v-39.2h4.7V653.4z M904.3,653.2h4.2v-38.7h-4.2V653.2z"/>
	</g>
	<g>
		<rect x="984.7" y="614.3" class="st1" width="4.4" height="31.9"/>
		<path class="st0" d="M989.2,646.3h-4.7v-32.1h4.7V646.3z M984.7,646.1h4.2v-31.6h-4.2V646.1z"/>
	</g>
	<g>
		<rect x="987.2" y="614.3" class="st1" width="4.4" height="39"/>
		<path class="st0" d="M991.7,653.4H987v-39.2h4.7V653.4z M987.2,653.2h4.2v-38.7h-4.2V653.2z"/>
	</g>
	<g>
		<rect x="1042" y="614.4" class="st1" width="3.2" height="14.1"/>
		<path class="st0" d="M1045.3,628.5h-3.5v-14.3h3.5V628.5z M1042.1,628.3h3v-13.9h-3V628.3z"/>
	</g>
	<g>
		<rect x="1046.7" y="614.3" class="st1" width="6" height="19.5"/>
		<path class="st0" d="M1052.9,633.9h-6.2v-19.7h6.2V633.9z M1046.9,633.7h5.8v-19.3h-5.8V633.7z"/>
	</g>
	<g>
		<rect x="1054.3" y="614.4" class="st1" width="3.7" height="24.9"/>
		<path class="st0" d="M1058.2,639.4h-3.9v-25.1h3.9V639.4z M1054.5,639.1h3.5v-24.7h-3.5V639.1z"/>
	</g>
	<g>
		<rect x="1060.6" y="614.3" class="st1" width="6.9" height="31.9"/>
		<path class="st0" d="M1067.6,646.3h-7.2v-32.1h7.2V646.3z M1060.6,646.1h6.7v-31.6h-6.7V646.1z"/>
	</g>
	<g>
		<rect x="1070" y="614.3" class="st1" width="4.4" height="39"/>
		<path class="st0" d="M1074.5,653.4h-4.7v-39.2h4.7V653.4z M1070,653.2h4.2v-38.7h-4.2V653.2z"/>
	</g>
	<g>
		<rect x="850.4" y="614.3" class="st1" width="3.2" height="14.1"/>
		<path class="st0" d="M853.7,628.5h-3.5v-14.3h3.5V628.5z M850.5,628.3h3v-13.9h-3V628.3z"/>
	</g>
	<g>
		<rect x="842.9" y="614.3" class="st1" width="6" height="19.5"/>
		<path class="st0" d="M849,633.9h-6.2v-19.7h6.2V633.9z M843,633.7h5.8v-19.3H843V633.7z"/>
	</g>
	<g>
		<rect x="837.5" y="614.3" class="st1" width="3.7" height="24.9"/>
		<path class="st0" d="M841.3,639.4h-3.9v-25.1h3.9V639.4z M837.6,639.1h3.5v-24.7h-3.5V639.1z"/>
	</g>
	<g>
		<rect x="828.1" y="614.3" class="st1" width="6.9" height="31.9"/>
		<path class="st0" d="M835.2,646.3H828v-32.1h7.2V646.3z M828.2,646.1h6.7v-31.6h-6.7V646.1z"/>
	</g>
	<g>
		<rect x="821.2" y="614.3" class="st1" width="4.4" height="39"/>
		<path class="st0" d="M825.8,653.4h-4.7v-39.2h4.7V653.4z M821.4,653.2h4.2v-38.7h-4.2V653.2z"/>
	</g>
	<g>
		<rect x="906.7" y="560.3" class="st1" width="4.4" height="39.8"/>
		<path class="st0" d="M911.3,600.2h-4.7v-40h4.7V600.2z M906.9,600h4.2v-39.5h-4.2V600z"/>
	</g>
	<g>
		<rect x="904.2" y="560.3" class="st1" width="4.4" height="43.8"/>
		<path class="st0" d="M908.8,604.2h-4.7v-44h4.7V604.2z M904.3,604h4.2v-43.5h-4.2V604z"/>
	</g>
	<g>
		<rect x="984.7" y="560.3" class="st1" width="4.4" height="39.8"/>
		<path class="st0" d="M989.2,600.2h-4.7v-40h4.7V600.2z M984.7,600h4.2v-39.5h-4.2V600z"/>
	</g>
	<g>
		<rect x="987.2" y="560.3" class="st1" width="4.4" height="43.8"/>
		<path class="st0" d="M991.7,604.2H987v-44h4.7V604.2z M987.2,604h4.2v-43.5h-4.2V604z"/>
	</g>
	<g>
		<rect x="906.7" y="512.1" class="st1" width="4.4" height="40.7"/>
		<path class="st0" d="M911.3,552.9h-4.7V512h4.7V552.9z M906.9,552.7h4.2v-40.4h-4.2V552.7z"/>
	</g>
	<g>
		<rect x="904.2" y="509.4" class="st1" width="4.4" height="44.8"/>
		<path class="st0" d="M908.8,554.3h-4.7v-45h4.7V554.3z M904.3,554.1h4.2v-44.6h-4.2V554.1z"/>
	</g>
	<g>
		<rect x="984.7" y="512.2" class="st1" width="4.4" height="40.7"/>
		<path class="st0" d="M989.2,552.9h-4.7V512h4.7V552.9z M984.7,552.7h4.2v-40.4h-4.2V552.7z"/>
	</g>
	<g>
		<rect x="987.2" y="509.4" class="st1" width="4.4" height="44.8"/>
		<path class="st0" d="M991.7,554.3H987v-45h4.7V554.3z M987.2,554.1h4.2v-44.6h-4.2V554.1z"/>
	</g>
	<g>
		<rect x="906.7" y="464.5" class="st1" width="4.4" height="36.9"/>
		<path class="st0" d="M911.3,501.5h-4.7v-37.1h4.7V501.5z M906.9,501.3h4.2v-36.6h-4.2V501.3z"/>
	</g>
	<g>
		<rect x="904.2" y="459.3" class="st1" width="4.4" height="42.1"/>
		<path class="st0" d="M908.8,501.5h-4.7v-42.3h4.7V501.5z M904.3,501.3h4.2v-41.8h-4.2V501.3z"/>
	</g>
	<g>
		<rect x="984.7" y="464.5" class="st1" width="4.4" height="36.9"/>
		<path class="st0" d="M989.2,501.5h-4.7v-37.1h4.7V501.5z M984.7,501.3h4.2v-36.6h-4.2V501.3z"/>
	</g>
	<g>
		<rect x="987.2" y="459.3" class="st1" width="4.4" height="42.1"/>
		<path class="st0" d="M991.7,501.5H987v-42.3h4.7V501.5z M987.2,501.3h4.2v-41.8h-4.2V501.3z"/>
	</g>
	<g>
		<rect x="906.7" y="417.8" class="st1" width="4.4" height="30.5"/>
		<path class="st0" d="M911.3,448.4h-4.7v-30.7h4.7V448.4z M906.9,448.2h4.2v-30.3h-4.2V448.2z"/>
	</g>
	<g>
		<rect x="904.2" y="409.2" class="st1" width="4.4" height="39.1"/>
		<path class="st0" d="M908.8,448.4h-4.7v-39.3h4.7V448.4z M904.3,448.2h4.2v-38.9h-4.2V448.2z"/>
	</g>
	<g>
		<rect x="984.7" y="417.8" class="st1" width="4.4" height="30.5"/>
		<path class="st0" d="M989.2,448.4h-4.7v-30.7h4.7V448.4z M984.7,448.2h4.2v-30.3h-4.2V448.2z"/>
	</g>
	<g>
		<rect x="987.2" y="409.2" class="st1" width="4.4" height="39.1"/>
		<path class="st0" d="M991.7,448.4H987v-39.3h4.7V448.4z M987.2,448.2h4.2v-38.9h-4.2V448.2z"/>
	</g>
	<g>
		<rect x="1042" y="560.3" class="st1" width="3.2" height="29.5"/>
		<path class="st0" d="M1045.3,589.9h-3.5v-29.7h3.5V589.9z M1042.1,589.7h3v-29.3h-3V589.7z"/>
	</g>
	<g>
		<rect x="1046.7" y="560.3" class="st1" width="6" height="32.9"/>
		<path class="st0" d="M1052.9,593.3h-6.2v-33.1h6.2V593.3z M1046.9,593.1h5.8v-32.6h-5.8V593.1z"/>
	</g>
	<g>
		<rect x="1054.3" y="560.3" class="st1" width="3.7" height="35.8"/>
		<path class="st0" d="M1058.2,596.2h-3.9v-36h3.9V596.2z M1054.5,596h3.5v-35.5h-3.5V596z"/>
	</g>
	<g>
		<rect x="1060.6" y="560.3" class="st1" width="6.9" height="39.8"/>
		<path class="st0" d="M1067.6,600.2h-7.2v-40h7.2V600.2z M1060.6,600h6.7v-39.5h-6.7V600z"/>
	</g>
	<g>
		<rect x="1070" y="560.3" class="st1" width="4.4" height="43.8"/>
		<path class="st0" d="M1074.5,604.2h-4.7v-44h4.7V604.2z M1070,604h4.2v-43.5h-4.2V604z"/>
	</g>
	<g>
		<rect x="850.4" y="560.3" class="st1" width="3.2" height="29.5"/>
		<path class="st0" d="M853.7,589.9h-3.5v-29.7h3.5V589.9z M850.5,589.7h3v-29.3h-3V589.7z"/>
	</g>
	<g>
		<rect x="842.9" y="560.3" class="st1" width="6" height="32.9"/>
		<path class="st0" d="M849,593.3h-6.2v-33.1h6.2V593.3z M843,593.1h5.8v-32.6H843V593.1z"/>
	</g>
	<g>
		<rect x="837.5" y="560.3" class="st1" width="3.7" height="35.8"/>
		<path class="st0" d="M841.3,596.2h-3.9v-36h3.9V596.2z M837.6,596h3.5v-35.5h-3.5V596z"/>
	</g>
	<g>
		<rect x="828.1" y="560.3" class="st1" width="6.9" height="39.8"/>
		<path class="st0" d="M835.2,600.2H828v-40h7.2V600.2z M828.2,600h6.7v-39.5h-6.7V600z"/>
	</g>
	<g>
		<rect x="821.2" y="560.3" class="st1" width="4.4" height="43.8"/>
		<path class="st0" d="M825.8,604.2h-4.7v-44h4.7V604.2z M821.4,604h4.2v-43.5h-4.2V604z"/>
	</g>
	<g>
		<rect x="1042" y="516.9" class="st1" width="3.2" height="34.4"/>
		<path class="st0" d="M1045.3,551.4h-3.4v-34.6h3.4V551.4z M1042.1,551.2h3V517h-3V551.2z"/>
	</g>
	<g>
		<rect x="1046.7" y="515.4" class="st1" width="6" height="37"/>
		<path class="st0" d="M1052.9,552.5h-6.2v-37.2h6.2V552.5z M1046.9,552.3h5.8v-36.8h-5.8V552.3z"/>
	</g>
	<g>
		<rect x="1054.3" y="513.7" class="st1" width="3.7" height="38.7"/>
		<path class="st0" d="M1058.2,552.5h-3.9v-39h3.9V552.5z M1054.5,552.3h3.5v-38.5h-3.5V552.3z"/>
	</g>
	<g>
		<rect x="1060.6" y="512.2" class="st1" width="6.9" height="40.7"/>
		<path class="st0" d="M1067.6,552.9h-7.2V512h7.2V552.9z M1060.6,552.7h6.7v-40.5h-6.7V552.7z"/>
	</g>
	<g>
		<rect x="1070" y="509.5" class="st1" width="4.4" height="44.9"/>
		<path class="st0" d="M1074.5,554.5h-4.7v-45.2h4.7V554.5z M1070,554.3h4.2v-44.7h-4.2V554.3z"/>
	</g>
	<g>
		<rect x="850.4" y="516.9" class="st1" width="3.2" height="34.4"/>
		<path class="st0" d="M853.7,551.4h-3.5v-34.6h3.5V551.4z M850.5,551.2h3V517h-3V551.2z"/>
	</g>
	<g>
		<rect x="842.9" y="515.4" class="st1" width="6" height="37"/>
		<path class="st0" d="M849,552.5h-6.2v-37.2h6.2V552.5z M843,552.3h5.8v-36.8H843V552.3z"/>
	</g>
	<g>
		<rect x="837.5" y="513.7" class="st1" width="3.7" height="38.7"/>
		<path class="st0" d="M841.3,552.5h-3.9v-39h3.9V552.5z M837.6,552.3h3.5v-38.5h-3.5V552.3z"/>
	</g>
	<g>
		<rect x="828.1" y="512.1" class="st1" width="6.9" height="40.7"/>
		<path class="st0" d="M835.2,552.9H828V512h7.2V552.9z M828.2,552.7h6.7v-40.5h-6.7V552.7z"/>
	</g>
	<g>
		<rect x="821.2" y="509.4" class="st1" width="4.4" height="44.9"/>
		<path class="st0" d="M825.8,554.5h-4.7v-45.2h4.7V554.5z M821.4,554.3h4.2v-44.7h-4.2V554.3z"/>
	</g>
	<g>
		<rect x="1042" y="478" class="st1" width="3.2" height="23.4"/>
		<path class="st0" d="M1045.3,501.6h-3.5V478h3.5V501.6z M1042.1,501.3h3v-23.1h-3V501.3z"/>
	</g>
	<g>
		<rect x="1046.7" y="473.7" class="st1" width="6" height="27.7"/>
		<path class="st0" d="M1052.9,501.6h-6.2v-28h6.2V501.6z M1046.9,501.3h5.8v-27.5h-5.8V501.3z"/>
	</g>
	<g>
		<rect x="1054.3" y="469.7" class="st1" width="3.7" height="31.7"/>
		<path class="st0" d="M1058.2,501.6h-3.9v-31.9h3.9V501.6z M1054.5,501.3h3.5v-31.4h-3.5V501.3z"/>
	</g>
	<g>
		<rect x="1060.6" y="464.6" class="st1" width="6.9" height="36.9"/>
		<path class="st0" d="M1067.6,501.6h-7.2v-37.2h7.2V501.6z M1060.6,501.3h6.7v-36.7h-6.7V501.3z"/>
	</g>
	<g>
		<rect x="1070" y="459.3" class="st1" width="4.4" height="42.1"/>
		<path class="st0" d="M1074.5,501.6h-4.7v-42.4h4.7V501.6z M1070,501.3h4.2v-41.9h-4.2V501.3z"/>
	</g>
	<g>
		<rect x="850.4" y="478.1" class="st1" width="3.2" height="23.4"/>
		<path class="st0" d="M853.7,501.6h-3.5V478h3.5V501.6z M850.5,501.3h3v-23.1h-3V501.3z"/>
	</g>
	<g>
		<rect x="842.9" y="473.7" class="st1" width="6" height="27.7"/>
		<path class="st0" d="M849,501.6h-6.2v-28h6.2V501.6z M843,501.3h5.8v-27.5H843V501.3z"/>
	</g>
	<g>
		<rect x="837.5" y="469.8" class="st1" width="3.7" height="31.7"/>
		<path class="st0" d="M841.3,501.6h-3.9v-31.9h3.9V501.6z M837.6,501.3h3.5v-31.4h-3.5V501.3z"/>
	</g>
	<g>
		<rect x="828.1" y="464.5" class="st1" width="6.9" height="36.9"/>
		<path class="st0" d="M835.2,501.6H828v-37.2h7.2V501.6z M828.2,501.3h6.7v-36.7h-6.7V501.3z"/>
	</g>
	<g>
		<rect x="821.2" y="459.3" class="st1" width="4.4" height="42.1"/>
		<path class="st0" d="M825.8,501.6h-4.7v-42.4h4.7V501.6z M821.4,501.3h4.2v-41.9h-4.2V501.3z"/>
	</g>
	<g>
		<rect x="1042" y="439.2" class="st1" width="3.2" height="9.1"/>
		<path class="st0" d="M1045.3,448.3h-3.5V439h3.5V448.3z M1042.1,448.1h3v-8.9h-3V448.1z"/>
	</g>
	<g>
		<rect x="1046.7" y="433" class="st1" width="6" height="15.2"/>
		<path class="st0" d="M1052.9,448.3h-6.2v-15.4h6.2V448.3z M1046.9,448.1h5.8v-14.9h-5.8V448.1z"/>
	</g>
	<g>
		<rect x="1054.3" y="426.6" class="st1" width="3.7" height="21.6"/>
		<path class="st0" d="M1058.2,448.3h-3.9v-21.8h3.9V448.3z M1054.5,448.1h3.5v-21.4h-3.5V448.1z"/>
	</g>
	<g>
		<rect x="1060.6" y="417.8" class="st1" width="6.9" height="30.4"/>
		<path class="st0" d="M1067.6,448.3h-7.2v-30.6h7.2V448.3z M1060.6,448.1h6.7v-30.2h-6.7V448.1z"/>
	</g>
	<g>
		<rect x="1070" y="409.2" class="st1" width="4.4" height="39"/>
		<path class="st0" d="M1074.5,448.3h-4.7v-39.2h4.7V448.3z M1070,448.1h4.2v-38.8h-4.2V448.1z"/>
	</g>
	<g>
		<rect x="850.4" y="439.1" class="st1" width="3.2" height="9.1"/>
		<path class="st0" d="M853.7,448.3h-3.5V439h3.5V448.3z M850.5,448.1h3v-8.9h-3V448.1z"/>
	</g>
	<g>
		<rect x="842.9" y="433.1" class="st1" width="6" height="15.2"/>
		<path class="st0" d="M849,448.3h-6.2v-15.4h6.2V448.3z M843,448.1h5.8v-14.9H843V448.1z"/>
	</g>
	<g>
		<rect x="837.5" y="426.6" class="st1" width="3.7" height="21.6"/>
		<path class="st0" d="M841.3,448.3h-3.9v-21.8h3.9V448.3z M837.6,448.1h3.5v-21.4h-3.5V448.1z"/>
	</g>
	<g>
		<rect x="828.1" y="417.8" class="st1" width="6.9" height="30.4"/>
		<path class="st0" d="M835.2,448.3H828v-30.6h7.2V448.3z M828.2,448.1h6.7v-30.2h-6.7V448.1z"/>
	</g>
	<g>
		<rect x="821.2" y="409.2" class="st1" width="4.4" height="39"/>
		<path class="st0" d="M825.8,448.3h-4.7v-39.2h4.7V448.3z M821.4,448.1h4.2v-38.8h-4.2V448.1z"/>
	</g>
	<g>
		<rect x="652.8" y="667.5" class="st1" width="92.6" height="53.8"/>
		<path class="st0" d="M745.6,721.4h-93v-54.1h93V721.4z M653,721h92.2v-53.4H653V721z"/>
	</g>
	<g>
		<polygon class="st1" points="652.8,667.5 638.2,667.5 638.2,730.8 652.8,721.2 		"/>
		<path class="st0" d="M638,731.1v-63.8h15v54l-0.1,0.1L638,731.1z M638.4,667.7v62.8l14.2-9.3v-53.5H638.4z"/>
	</g>
	<g>
		<polygon class="st1" points="764,667.5 745.4,667.5 745.4,721.2 764,704.5 		"/>
		<path class="st0" d="M745.2,721.6v-54.3h19v37.3l-0.1,0.1L745.2,721.6z M745.6,667.7v53.1l18.2-16.4v-36.7L745.6,667.7
			L745.6,667.7z"/>
	</g>
	<g>
		<polygon class="st1" points="794,667.5 781.6,667.5 781.6,688.6 794,677.3 		"/>
		<path class="st0" d="M781.5,689.1v-21.8h12.8v10.2l-0.1,0.1L781.5,689.1z M781.8,667.7v20.5l12-10.9v-9.6H781.8z"/>
	</g>
	<g>
		<rect x="764" y="667.5" class="st1" width="17.6" height="21.2"/>
		<path class="st0" d="M781.8,688.8h-18v-21.5h18V688.8z M764.2,688.4h17.2v-20.8h-17.2V688.4z"/>
	</g>
	<g>
		<rect x="1150.4" y="667.4" class="st1" width="92.6" height="53.8"/>
		<path class="st0" d="M1243.2,721.4h-93v-54.1h93V721.4z M1150.6,721h92.2v-53.4h-92.2V721z"/>
	</g>
	<g>
		<polygon class="st1" points="1243,667.5 1257.6,667.5 1257.6,730.8 1243,721.2 		"/>
		<path class="st0" d="M1257.8,731.1l-0.3-0.2l-14.7-9.6v-54h15V731.1z M1243.2,721.1l14.2,9.3v-62.8h-14.2V721.1z"/>
	</g>
	<g>
		<polygon class="st1" points="1131.8,667.5 1150.4,667.5 1150.4,721.2 1131.8,704.5 		"/>
		<path class="st0" d="M1150.6,721.6l-0.3-0.3l-18.7-16.8v-37.2h19V721.6z M1132,704.4l18.2,16.4v-53.1H1132V704.4z"/>
	</g>
	<g>
		<polygon class="st1" points="1101.8,667.5 1114.2,667.5 1114.2,688.6 1101.8,677.3 		"/>
		<path class="st0" d="M1114.4,689.1l-12.8-11.6v-10.2h12.8V689.1z M1102,677.3l12,10.9v-20.5h-12V677.3z"/>
	</g>
	<g>
		<rect x="1114.2" y="667.5" class="st1" width="17.6" height="21.2"/>
		<path class="st0" d="M1132,688.8h-18v-21.5h18V688.8z M1114.4,688.4h17.2v-20.8h-17.2V688.4z"/>
	</g>
	<g>
		<rect x="1150.3" y="614.3" class="st1" width="100" height="40.7"/>
		<path class="st0" d="M1250.5,655.2h-100.4v-41h100.4V655.2z M1150.6,654.8h99.6v-40.3h-99.6V654.8z"/>
	</g>
	<g>
		<polygon class="st1" points="1131.8,614.3 1150.4,614.3 1150.4,655 1131.8,644.7 		"/>
		<path class="st0" d="M1150.6,655.3l-19-10.5v-30.7h19V655.3z M1132,644.6l18.2,10.1v-40.1H1132V644.6z"/>
	</g>
	<g>
		<polygon class="st1" points="1101.8,614.3 1114.2,614.3 1114.2,634.7 1101.8,627.4 		"/>
		<path class="st0" d="M1114.4,635l-12.8-7.4v-13.4h12.8V635z M1102,627.3l12,7v-19.8h-12V627.3z"/>
	</g>
	<g>
		<rect x="1114.2" y="614.3" class="st1" width="8.5" height="20.3"/>
		<path class="st0" d="M1122.8,634.8h-8.9v-20.7h8.9V634.8z M1114.4,634.5h8.1v-19.9h-8.1V634.5z"/>
	</g>
	<g>
		<polygon class="st1" points="1122.6,614.3 1131.8,614.3 1131.8,639.2 1122.6,634.7 		"/>
		<path class="st0" d="M1132,639.6l-9.5-4.8v-20.6h9.5V639.6z M1122.8,634.5l8.7,4.4v-24.4h-8.7V634.5z"/>
	</g>
	<g>
		<rect x="645.4" y="614.3" class="st1" width="100" height="40.7"/>
		<path class="st0" d="M745.6,655.2H645.3v-41h100.4v41H745.6z M645.6,654.8h99.6v-40.3h-99.6V654.8z"/>
	</g>
	<g>
		<polygon class="st1" points="764,614.3 745.4,614.3 745.4,655 764,644.7 		"/>
		<path class="st0" d="M745.2,655.3v-41.2h19v30.7L745.2,655.3z M745.6,614.5v40.1l18.2-10.1v-30.1L745.6,614.5L745.6,614.5z"/>
	</g>
	<g>
		<polygon class="st1" points="794,614.3 781.6,614.3 781.6,634.7 794,627.4 		"/>
		<path class="st0" d="M781.5,635v-20.9h12.8v13.4L781.5,635z M781.8,614.5v19.8l12-7v-12.8H781.8z"/>
	</g>
	<g>
		<rect x="773.2" y="614.3" class="st1" width="8.5" height="20.3"/>
		<path class="st0" d="M781.8,634.8H773v-20.7h8.9v20.7H781.8z M773.4,634.5h8.1v-19.9h-8.1V634.5z"/>
	</g>
	<g>
		<polygon class="st1" points="773.2,614.3 764,614.3 764,639.2 773.2,634.7 		"/>
		<path class="st0" d="M763.9,639.6v-25.4h9.5v20.6l-0.1,0.1L763.9,639.6z M764.2,614.5v24.4l8.7-4.4v-20H764.2z"/>
	</g>
	<g>
		<rect x="1150.3" y="560.3" class="st1" width="100" height="44.4"/>
		<path class="st0" d="M1250.5,604.9h-100.4v-44.8h100.4V604.9z M1150.6,604.5h99.6v-44h-99.6V604.5z"/>
	</g>
	<g>
		<polygon class="st1" points="1131.8,560.3 1150.4,560.3 1150.4,604.7 1131.8,598.8 		"/>
		<path class="st0" d="M1150.6,604.9l-19-6V560h19V604.9z M1132,598.7l18.2,5.7v-43.9H1132V598.7z"/>
	</g>
	<g>
		<polygon class="st1" points="1101.8,560.3 1114.2,560.3 1114.2,593.2 1101.8,589.4 		"/>
		<path class="st0" d="M1114.4,593.4l-12.8-3.9v-29.4h12.8V593.4z M1102,589.2l12,3.7v-32.4h-12V589.2z"/>
	</g>
	<g>
		<rect x="1114.2" y="560.3" class="st1" width="8.5" height="32.9"/>
		<path class="st0" d="M1122.8,593.4h-8.9v-33.3h8.9V593.4z M1114.4,593h8.1v-32.5h-8.1V593z"/>
	</g>
	<g>
		<polygon class="st1" points="1122.6,560.3 1131.8,560.3 1131.8,596.7 1122.6,593.2 		"/>
		<path class="st0" d="M1132,597l-9.5-3.7v-33.2h9.5V597z M1122.8,593l8.7,3.4v-36h-8.7V593z"/>
	</g>
	<g>
		<rect x="645.4" y="560.3" class="st1" width="100" height="44.4"/>
		<path class="st0" d="M745.6,604.9H645.3v-44.8h100.4v44.8H745.6z M645.6,604.5h99.6v-44h-99.6V604.5z"/>
	</g>
	<g>
		<polygon class="st1" points="764,560.3 745.4,560.3 745.4,604.7 764,598.8 		"/>
		<path class="st0" d="M745.2,604.9v-44.8h19V599h-0.1L745.2,604.9z M745.6,560.5v43.9l18.2-5.7v-38.2H745.6z"/>
	</g>
	<g>
		<polygon class="st1" points="794,560.3 781.6,560.3 781.6,593.2 794,589.4 		"/>
		<path class="st0" d="M781.5,593.4v-33.3h12.8v29.4h-0.1L781.5,593.4z M781.8,560.5v32.4l12-3.7v-28.7H781.8z"/>
	</g>
	<g>
		<rect x="773.2" y="560.3" class="st1" width="8.5" height="32.9"/>
		<path class="st0" d="M781.8,593.4H773v-33.3h8.9v33.3H781.8z M773.4,593h8.1v-32.5h-8.1V593z"/>
	</g>
	<g>
		<polygon class="st1" points="773.2,560.3 764,560.3 764,596.7 773.2,593.2 		"/>
		<path class="st0" d="M763.9,597v-36.9h9.5v33.2L763.9,597z M764.2,560.5v36l8.7-3.4v-32.6H764.2z"/>
	</g>
	<g>
		<rect x="1150.3" y="458.4" class="st1" width="100" height="42.7"/>
		<path class="st0" d="M1250.5,501.3h-100.4v-43h100.4V501.3z M1150.6,501h99.6v-42.3h-99.6V501z"/>
	</g>
	<g>
		<polygon class="st1" points="1131.8,501.1 1150.4,501.1 1150.4,458.5 1131.8,466.4 		"/>
		<path class="st0" d="M1150.6,501.3h-19v-35.1l19-8.1V501.3z M1132,501h18.2v-42.2l-18.2,7.7V501z"/>
	</g>
	<g>
		<polygon class="st1" points="1101.8,501.1 1114.2,501.1 1114.2,473.7 1101.8,479.2 		"/>
		<path class="st0" d="M1114.4,501.3h-12.8v-22.2l0.1-0.1l12.6-5.6v27.9H1114.4z M1102,501h12v-27l-12,5.3V501z"/>
	</g>
	<g>
		<rect x="1114.2" y="473.7" class="st1" width="8.5" height="27.4"/>
		<path class="st0" d="M1122.8,501.3h-8.9v-27.8h8.9V501.3z M1114.4,501h8.1v-27.1h-8.1V501z"/>
	</g>
	<g>
		<polygon class="st1" points="1122.6,501.1 1131.8,501.1 1131.8,468.4 1122.6,473.7 		"/>
		<path class="st0" d="M1132,501.3h-9.5v-27.7l9.5-5.5V501.3z M1122.8,501h8.7v-32.2l-8.7,5V501z"/>
	</g>
	<g>
		<rect x="645.4" y="458.5" class="st1" width="100" height="42.7"/>
		<path class="st0" d="M745.6,501.3H645.3v-43h100.4v43H745.6z M645.6,501h99.6v-42.3h-99.6V501z"/>
	</g>
	<g>
		<polygon class="st1" points="764,501.1 745.4,501.1 745.4,458.5 764,466.4 		"/>
		<path class="st0" d="M764.2,501.3h-19v-43.2l19,8.1V501.3z M745.6,501h18.2v-34.5l-18.2-7.7V501z"/>
	</g>
	<g>
		<polygon class="st1" points="794,501.1 781.6,501.1 781.6,473.7 794,479.2 		"/>
		<path class="st0" d="M794.2,501.3h-12.8v-27.9l12.8,5.7V501.3z M781.8,501h12v-21.7l-12-5.3V501z"/>
	</g>
	<g>
		<rect x="773.2" y="473.7" class="st1" width="8.5" height="27.4"/>
		<path class="st0" d="M781.8,501.3H773v-27.8h8.9v27.8H781.8z M773.4,501h8.1v-27.1h-8.1V501z"/>
	</g>
	<g>
		<polygon class="st1" points="773.2,501.1 764,501.1 764,468.4 773.2,473.7 		"/>
		<path class="st0" d="M773.4,501.3h-9.5v-33.2l9.5,5.5V501.3z M764.2,501h8.7v-27.1l-8.7-5V501z"/>
	</g>
	<g>
		<rect x="1150.3" y="407.7" class="st1" width="100" height="40.6"/>
		<path class="st0" d="M1250.5,448.4h-100.4v-41h100.4V448.4z M1150.6,448.1h99.6v-40.2h-99.6V448.1z"/>
	</g>
	<g>
		<polygon class="st1" points="1131.8,448.3 1150.4,448.3 1150.4,407.6 1131.8,420.6 		"/>
		<path class="st0" d="M1150.6,448.4h-19v-27.9l0.1-0.1l18.9-13.2V448.4z M1132,448.1h18.2V408l-18.2,12.7V448.1z"/>
	</g>
	<g>
		<polygon class="st1" points="1101.8,448.3 1114.2,448.3 1114.2,431.7 1101.8,440.6 		"/>
		<path class="st0" d="M1114.4,448.4h-12.8v-7.9l0.1-0.1l12.7-9.1L1114.4,448.4L1114.4,448.4z M1102,448.1h12v-16l-12,8.6V448.1z"/>
	</g>
	<g>
		<rect x="1114.2" y="431.7" class="st1" width="8.5" height="16.6"/>
		<path class="st0" d="M1122.8,448.4h-8.9v-16.9h8.9V448.4z M1114.4,448.1h8.1v-16.2h-8.1V448.1z"/>
	</g>
	<g>
		<polygon class="st1" points="1122.6,448.3 1131.8,448.3 1131.8,424.4 1122.6,431.7 		"/>
		<path class="st0" d="M1132,448.4h-9.5v-16.8l0.1-0.1l9.4-7.6V448.4z M1122.8,448.1h8.7v-23.3l-8.7,7V448.1z"/>
	</g>
	<g>
		<rect x="645.4" y="407.6" class="st1" width="100" height="40.6"/>
		<path class="st0" d="M745.6,448.4H645.3v-41h100.4v41H745.6z M645.6,448.1h99.6v-40.2h-99.6V448.1z"/>
	</g>
	<g>
		<polygon class="st1" points="764,448.3 745.4,448.3 745.4,407.6 764,420.6 		"/>
		<path class="st0" d="M764.2,448.4h-19v-41.1l19,13.3V448.4z M745.6,448.1h18.2v-27.3l-18.2-12.7V448.1z"/>
	</g>
	<g>
		<polygon class="st1" points="794,448.3 781.6,448.3 781.6,431.7 794,440.6 		"/>
		<path class="st0" d="M794.2,448.4h-12.8v-17.1l12.8,9.2V448.4z M781.8,448.1h12v-7.4l-12-8.6V448.1z"/>
	</g>
	<g>
		<rect x="773.2" y="431.7" class="st1" width="8.5" height="16.6"/>
		<path class="st0" d="M781.8,448.4H773v-16.9h8.9v16.9H781.8z M773.4,448.1h8.1v-16.2h-8.1V448.1z"/>
	</g>
	<g>
		<polygon class="st1" points="773.2,448.3 764,448.3 764,424.4 773.2,431.7 		"/>
		<path class="st0" d="M773.4,448.4h-9.5V424l9.5,7.6V448.4z M764.2,448.1h8.7v-16.3l-8.7-7V448.1z"/>
	</g>
	<g>
		<rect x="1150.3" y="509.3" class="st1" width="100" height="45.1"/>
		<path class="st0" d="M1250.5,554.5h-100.4v-45.4h100.4V554.5z M1150.6,554.1h99.6v-44.7h-99.6V554.1z"/>
	</g>
	<g>
		<polygon class="st1" points="1131.8,512.7 1150.4,509.2 1150.4,554.3 1131.8,552.5 		"/>
		<path class="st0" d="M1150.6,554.5h-0.2l-18.8-1.8v-40.2l19-3.5V554.5z M1132,552.4l18.2,1.7v-44.6l-18.2,3.3V552.4z"/>
	</g>
	<g>
		<polygon class="st1" points="1101.8,517.4 1114.2,515 1114.2,552 1101.8,550.7 		"/>
		<path class="st0" d="M1114.4,552.2h-0.2l-12.5-1.4v-33.5h0.2l12.6-2.4L1114.4,552.2L1114.4,552.2z M1102,550.5l12,1.3v-36.5
			l-12,2.3V550.5z"/>
	</g>
	<g>
		<rect x="1114.2" y="515" class="st1" width="8.5" height="37"/>
		<path class="st0" d="M1122.8,552.2h-8.9v-37.3h8.9V552.2z M1114.4,551.8h8.1v-36.6h-8.1V551.8z"/>
	</g>
	<g>
		<polygon class="st1" points="1122.6,515 1131.8,512.7 1131.8,552.5 1122.6,552 		"/>
		<path class="st0" d="M1132,552.7l-9.5-0.6v-37.3h0.1l9.4-2.4V552.7z M1122.8,551.8l8.7,0.5v-39.4l-8.7,2.3V551.8z"/>
	</g>
	<g>
		<rect x="645.4" y="509.2" class="st1" width="100" height="45.1"/>
		<path class="st0" d="M745.6,554.5H645.3v-45.4h100.4v45.4H745.6z M645.6,554.1h99.6v-44.7h-99.6V554.1z"/>
	</g>
	<g>
		<polygon class="st1" points="764,512.7 745.4,509.2 745.4,554.3 764,552.5 		"/>
		<path class="st0" d="M745.2,554.5V509l19,3.5v40.2H764L745.2,554.5z M745.6,509.5v44.6l18.2-1.7v-39.6L745.6,509.5z"/>
	</g>
	<g>
		<polygon class="st1" points="794,517.4 781.6,515 781.6,552 794,550.6 		"/>
		<path class="st0" d="M781.5,552.2v-37.4l12.8,2.5v33.5L781.5,552.2z M781.8,515.3v36.5l12-1.4v-32.8L781.8,515.3z"/>
	</g>
	<g>
		<rect x="773.2" y="515" class="st1" width="8.5" height="37"/>
		<path class="st0" d="M781.8,552.2H773v-37.3h8.9v37.3H781.8z M773.4,551.8h8.1v-36.6h-8.1V551.8z"/>
	</g>
	<g>
		<polygon class="st1" points="773.2,515 764,512.7 764,552.5 773.2,552 		"/>
		<path class="st0" d="M763.9,552.7v-40.3l9.5,2.5v37.3L763.9,552.7z M764.2,512.9v39.4l8.7-0.5v-36.6L764.2,512.9z"/>
	</g>
	<g>
		<rect x="451.9" y="661.5" class="st1" width="990.3" height="6"/>
		<path class="st0" d="M1442.6,667.8h-991v-6.6h991V667.8z M452.3,667.1H1442v-5.3H452.3V667.1z"/>
	</g>
	<g>
		<rect x="628.4" y="608.4" class="st1" width="638.1" height="6"/>
		<path class="st0" d="M1266.8,614.7H628v-6.6h638.7v6.6H1266.8z M628.7,614h637.4v-5.3H628.7V614z"/>
	</g>
	<g>
		<rect x="451.9" y="554.3" class="st1" width="990.3" height="6"/>
		<path class="st0" d="M1442.6,560.6h-991V554h991V560.6z M452.3,560H1442v-5.3H452.3V560z"/>
	</g>
	<g>
		<rect x="451.9" y="501.4" class="st1" width="990.3" height="6"/>
		<path class="st0" d="M1442.6,507.7h-991v-6.6h991V507.7z M452.3,507H1442v-5.3H452.3V507z"/>
	</g>
	<g>
		<rect x="451.9" y="448.4" class="st1" width="990.3" height="6"/>
		<path class="st0" d="M1442.6,454.7h-991v-6.6h991V454.7z M452.3,454H1442v-5.3H452.3V454z"/>
	</g>
	<g>
		<rect x="451.9" y="393.4" class="st1" width="990.3" height="6"/>
		<path class="st0" d="M1442.6,399.7h-991v-6.6h991V399.7z M452.3,399H1442v-5.3H452.3V399z"/>
	</g>
	<g>
		<rect x="507.6" y="349.2" class="st1" width="879.1" height="6"/>
		<path class="st0" d="M1387,355.5H507.2v-6.6H1387V355.5z M507.9,354.8h878.4v-5.3H507.9V354.8z"/>
	</g>
	<g>
		<rect x="451.9" y="730.7" class="st1" width="990.3" height="6"/>
		<path class="st0" d="M1442.6,737h-991v-6.6h991V737z M452.3,736.3H1442V731H452.3V736.3z"/>
	</g>
	<rect x="1441.9" y="399.3" class="st0" width="0.7" height="331.4"/>
	<rect x="451.6" y="399.3" class="st0" width="0.7" height="331.4"/>
	<g>
		<rect x="552.2" y="667.5" class="st1" width="81.4" height="63.2"/>
		<path class="st0" d="M633.9,731h-82v-63.9h82V731z M552.5,730.4h80.7v-62.6h-80.7V730.4z"/>
	</g>
	<rect x="553.9" y="667.5" class="st0" width="0.3" height="63.2"/>
	<rect x="631.5" y="667.5" class="st0" width="0.3" height="63.2"/>
	<rect x="554.1" y="670.9" class="st0" width="77.4" height="0.5"/>
	<rect x="569.9" y="671.4" class="st0" width="0.3" height="59.3"/>
	<rect x="585.5" y="671.4" class="st0" width="0.3" height="59.3"/>
	<rect x="601.1" y="671.4" class="st0" width="0.3" height="26.1"/>
	<rect x="616.3" y="671.4" class="st0" width="0.3" height="59.3"/>
	<rect x="554.1" y="715.1" class="st0" width="16.1" height="0.3"/>
	<rect x="616.4" y="715.1" class="st0" width="15.3" height="0.3"/>
	<rect x="570" y="697.4" class="st0" width="46.4" height="0.3"/>
	<rect x="554.1" y="680.2" class="st0" width="77.5" height="0.3"/>
	<path class="st0" d="M615.7,730.7h-1.2v-31.6h1.2V730.7z M614.7,730.5h0.8v-31.2h-0.8V730.5z"/>
	<path class="st0" d="M588,730.7h-1.2v-31.6h1.2V730.7z M587,730.5h0.8v-31.2H587V730.5z"/>
	<rect x="587.9" y="727.3" class="st0" width="26.8" height="0.2"/>
	<rect x="587.9" y="700.2" class="st0" width="26.8" height="0.2"/>
	<rect x="587.9" y="699.2" class="st0" width="26.8" height="0.2"/>
	<g>
		<rect x="599.1" y="699.2" class="st1" width="2.2" height="31.4"/>
		<path class="st0" d="M601.5,730.8H599v-31.7h2.5V730.8z M599.2,730.5h2v-31.1h-2V730.5z"/>
	</g>
	<rect x="600.2" y="699.2" class="st0" width="0.2" height="31.1"/>
	<g>
		<rect x="1261.7" y="667.5" class="st1" width="81.4" height="63.2"/>
		<path class="st0" d="M1343.4,731h-82v-63.9h82V731z M1262,730.4h80.7v-62.6H1262V730.4z"/>
	</g>
	<rect x="1341.1" y="667.5" class="st0" width="0.3" height="63.2"/>
	<rect x="1263.5" y="667.5" class="st0" width="0.3" height="63.2"/>
	<rect x="1263.7" y="670.9" class="st0" width="77.4" height="0.5"/>
	<rect x="1325.1" y="671.4" class="st0" width="0.3" height="59.3"/>
	<rect x="1309.5" y="671.4" class="st0" width="0.3" height="59.3"/>
	<rect x="1293.8" y="671.4" class="st0" width="0.3" height="26.1"/>
	<rect x="1278.6" y="671.4" class="st0" width="0.3" height="59.3"/>
	<rect x="1325" y="715.1" class="st0" width="16.1" height="0.3"/>
	<rect x="1263.5" y="715.1" class="st0" width="15.3" height="0.3"/>
	<rect x="1278.8" y="697.4" class="st0" width="46.4" height="0.3"/>
	<rect x="1263.7" y="680.2" class="st0" width="77.5" height="0.3"/>
	<path class="st0" d="M1280.7,730.7h-1.2v-31.6h1.2V730.7z M1279.7,730.5h0.8v-31.2h-0.8V730.5z"/>
	<path class="st0" d="M1308.4,730.7h-1.2v-31.6h1.2V730.7z M1307.4,730.5h0.8v-31.2h-0.8V730.5z"/>
	<rect x="1280.5" y="727.3" class="st0" width="26.8" height="0.2"/>
	<rect x="1280.5" y="700.2" class="st0" width="26.8" height="0.2"/>
	<rect x="1280.5" y="699.2" class="st0" width="26.8" height="0.2"/>
	<g>
		<rect x="1294" y="699.3" class="st1" width="2.2" height="31.4"/>
		<path class="st0" d="M1296.3,730.8h-2.5v-31.7h2.5V730.8z M1294.1,730.5h2v-31.1h-2V730.5z"/>
	</g>
	<rect x="1294.9" y="699.2" class="st0" width="0.2" height="31.1"/>
	<rect x="509.2" y="355.4" class="st0" width="0.3" height="37.9"/>
	<rect x="520.8" y="355.4" class="st0" width="0.3" height="37.9"/>
	<rect x="535.2" y="355.8" class="st0" width="0.3" height="37.6"/>
	<rect x="549.5" y="355.4" class="st0" width="0.3" height="37.9"/>
	<rect x="555.7" y="355.4" class="st0" width="0.3" height="37.9"/>
	<rect x="535.2" y="355.4" class="st0" width="0.3" height="37.9"/>
	<rect x="636.7" y="355.4" class="st0" width="0.3" height="37.9"/>
	<rect x="643.8" y="355.4" class="st0" width="0.3" height="37.9"/>
	<rect x="723.9" y="355.4" class="st0" width="0.3" height="37.9"/>
	<rect x="731" y="355.4" class="st0" width="0.3" height="37.9"/>
	<rect x="811.7" y="355.4" class="st0" width="0.3" height="37.9"/>
	<rect x="820.2" y="355.4" class="st0" width="0.3" height="37.9"/>
	<rect x="1076.2" y="355.4" class="st0" width="0.3" height="37.9"/>
	<rect x="1085" y="355.4" class="st0" width="0.3" height="37.9"/>
	<rect x="1172.1" y="355.4" class="st0" width="0.3" height="37.9"/>
	<rect x="1163.6" y="355.4" class="st0" width="0.3" height="37.9"/>
	<rect x="1252" y="355.4" class="st0" width="0.3" height="37.9"/>
	<rect x="1258.4" y="355.4" class="st0" width="0.3" height="37.9"/>
	<rect x="1339.8" y="355.4" class="st0" width="0.3" height="37.9"/>
	<rect x="1345.5" y="355.4" class="st0" width="0.3" height="37.9"/>
	<rect x="1359.4" y="355.4" class="st0" width="0.3" height="37.9"/>
	<rect x="1374.1" y="355.4" class="st0" width="0.3" height="37.9"/>
	<rect x="1383.7" y="355.4" class="st0" width="0.3" height="37.9"/>
	<rect x="897.2" y="355.4" class="st0" width="0.3" height="37.9"/>
	<rect x="909.4" y="355.4" class="st0" width="0.3" height="37.9"/>
	<rect x="985.5" y="355.4" class="st0" width="0.3" height="37.9"/>
	<rect x="997.7" y="355.4" class="st0" width="0.3" height="37.9"/>
	<polygon class="st0" points="1385.3,349.1 1385,349.1 1385,343.3 509.9,343.3 509.9,348.3 509.6,348.3 509.6,343.1 1385.3,343.1 	
		"/>
	<rect x="1344.1" y="343" class="st0" width="0.3" height="6"/>
	<rect x="1332.7" y="343" class="st0" width="0.3" height="6"/>
	<rect x="1257.6" y="343" class="st0" width="0.3" height="6"/>
	<rect x="1170.9" y="343" class="st0" width="0.3" height="6"/>
	<rect x="1084" y="343" class="st0" width="0.3" height="6"/>
	<rect x="997.2" y="343" class="st0" width="0.3" height="6"/>
	<rect x="910.3" y="343" class="st0" width="0.3" height="6"/>
	<rect x="823.3" y="343" class="st0" width="0.3" height="6"/>
	<rect x="736.4" y="343" class="st0" width="0.3" height="6"/>
	<rect x="649.1" y="343" class="st0" width="0.3" height="6"/>
	<rect x="562.2" y="343" class="st0" width="0.3" height="6"/>
	<rect x="550.5" y="343" class="st0" width="0.3" height="6"/>
	<rect x="637.7" y="343" class="st0" width="0.3" height="6"/>
	<rect x="724.8" y="343" class="st0" width="0.3" height="6"/>
	<rect x="811.7" y="343" class="st0" width="0.3" height="6"/>
	<rect x="898.8" y="343" class="st0" width="0.3" height="6"/>
	<rect x="1072.6" y="343" class="st0" width="0.3" height="6"/>
	<rect x="985.8" y="343" class="st0" width="0.3" height="6"/>
	<rect x="1159.3" y="343" class="st0" width="0.3" height="6"/>
	<rect x="1246.2" y="343" class="st0" width="0.3" height="6"/>
	<rect x="509.4" y="362.6" class="st0" width="40.2" height="0.3"/>
	<rect x="555.9" y="362.6" class="st0" width="81" height="0.3"/>
	<rect x="562.2" y="362.8" class="st0" width="0.3" height="30.6"/>
	<rect x="577.3" y="362.8" class="st0" width="0.3" height="30.6"/>
	<rect x="592.4" y="362.8" class="st0" width="0.3" height="30.6"/>
	<rect x="607.9" y="362.8" class="st0" width="0.3" height="30.6"/>
	<rect x="622.4" y="362.8" class="st0" width="0.3" height="30.6"/>
	<rect x="644.1" y="362.6" class="st0" width="80" height="0.3"/>
	<rect x="649.4" y="362.8" class="st0" width="0.3" height="30.6"/>
	<rect x="664.4" y="362.8" class="st0" width="0.3" height="30.6"/>
	<rect x="679.6" y="362.8" class="st0" width="0.3" height="30.6"/>
	<rect x="695.1" y="362.8" class="st0" width="0.3" height="30.6"/>
	<rect x="709.6" y="362.8" class="st0" width="0.3" height="30.6"/>
	<rect x="731.2" y="362.6" class="st0" width="80.6" height="0.3"/>
	<rect x="736.5" y="362.8" class="st0" width="0.3" height="30.6"/>
	<rect x="751.5" y="362.8" class="st0" width="0.3" height="30.6"/>
	<rect x="766.7" y="362.8" class="st0" width="0.3" height="30.6"/>
	<rect x="782.1" y="362.8" class="st0" width="0.3" height="30.6"/>
	<rect x="796.7" y="362.8" class="st0" width="0.3" height="30.6"/>
	<rect x="820.4" y="362.6" class="st0" width="77.2" height="0.3"/>
	<rect x="825.7" y="362.8" class="st0" width="0.3" height="30.6"/>
	<rect x="839" y="362.8" class="st0" width="0.3" height="30.6"/>
	<rect x="853.8" y="362.8" class="st0" width="0.3" height="30.6"/>
	<rect x="869.1" y="362.8" class="st0" width="0.3" height="30.6"/>
	<rect x="884.2" y="362.8" class="st0" width="0.3" height="30.6"/>
	<rect x="909.7" y="362.6" class="st0" width="76" height="0.3"/>
	<rect x="997.9" y="362.6" class="st0" width="78.4" height="0.3"/>
	<rect x="1085.1" y="362.6" class="st0" width="78.4" height="0.3"/>
	<rect x="1172.1" y="362.6" class="st0" width="80" height="0.3"/>
	<rect x="1011.9" y="362.8" class="st0" width="0.3" height="30.6"/>
	<rect x="1027" y="362.8" class="st0" width="0.3" height="30.6"/>
	<rect x="1042.2" y="362.8" class="st0" width="0.3" height="30.6"/>
	<rect x="1057.2" y="362.8" class="st0" width="0.3" height="30.6"/>
	<rect x="1099.1" y="362.8" class="st0" width="0.3" height="30.6"/>
	<rect x="1114.1" y="362.8" class="st0" width="0.3" height="30.6"/>
	<rect x="1129" y="362.8" class="st0" width="0.3" height="30.6"/>
	<rect x="1144" y="362.8" class="st0" width="0.3" height="30.6"/>
	<rect x="1158.9" y="362.8" class="st0" width="0.3" height="30.6"/>
	<rect x="1185.6" y="362.8" class="st0" width="0.3" height="30.6"/>
	<rect x="1200.7" y="362.8" class="st0" width="0.3" height="30.6"/>
	<rect x="1215.8" y="362.8" class="st0" width="0.3" height="30.6"/>
	<rect x="1230.9" y="362.8" class="st0" width="0.3" height="30.6"/>
	<rect x="1246" y="362.8" class="st0" width="0.3" height="30.6"/>
	<rect x="1272.8" y="362.8" class="st0" width="0.3" height="30.6"/>
	<rect x="1286.9" y="362.8" class="st0" width="0.3" height="30.6"/>
	<rect x="1302.1" y="362.8" class="st0" width="0.3" height="30.6"/>
	<rect x="1317.2" y="362.8" class="st0" width="0.3" height="30.6"/>
	<rect x="1332.6" y="362.8" class="st0" width="0.3" height="30.6"/>
	<rect x="925.4" y="362.8" class="st0" width="0.3" height="30.6"/>
	<rect x="940.5" y="362.8" class="st0" width="0.3" height="30.6"/>
	<rect x="955.5" y="362.8" class="st0" width="0.3" height="30.6"/>
	<rect x="970.6" y="362.8" class="st0" width="0.3" height="30.6"/>
	<rect x="1258.5" y="362.6" class="st0" width="81.4" height="0.3"/>
	<rect x="1345.7" y="362.6" class="st0" width="38.1" height="0.3"/>
	<polygon class="st0" points="509.3,393.5 456.6,375.3 456.6,393.4 456.4,393.4 456.4,374.9 456.6,374.9 509.4,393.2 	"/>
	<rect x="465.1" y="378.1" class="st0" width="0.3" height="15"/>
	<rect x="477.1" y="382.1" class="st0" width="0.3" height="11"/>
	<rect x="488.4" y="386" class="st0" width="0.3" height="7.1"/>
	<rect x="499.2" y="389.7" class="st0" width="0.3" height="3.4"/>
	<polygon class="st0" points="1385.2,393.5 1385.1,393.2 1438.2,374.9 1438.2,393.4 1437.9,393.4 1437.9,375.3 	"/>
	<rect x="1429.2" y="378.1" class="st0" width="0.3" height="15"/>
	<rect x="1417.2" y="382.1" class="st0" width="0.3" height="11"/>
	<rect x="1405.9" y="386" class="st0" width="0.3" height="7.1"/>
	<rect x="1395" y="389.7" class="st0" width="0.3" height="3.4"/>
</g>
</svg>
