<?xml version="1.0" encoding="utf-8"?>
<!-- Generator: Adobe Illustrator 26.2.1, SVG Export Plug-In . SVG Version: 6.00 Build 0)  -->
<svg version="1.1" id="Layer_1" xmlns="http://www.w3.org/2000/svg" xmlns:xlink="http://www.w3.org/1999/xlink" x="0px" y="0px"
	 viewBox="0 0 1920 1080" style="enable-background:new 0 0 1920 1080;" xml:space="preserve">
<style type="text/css">
	.st0{fill:#FFFFFF;}
	.st1{fill:#2E2015;}
</style>
<g id="m">
</g>
<g>
	<polygon class="st0" points="464.6,399.4 621.1,445.2 1296.5,445.2 1455,399.4 	"/>
	<g>
		<polygon class="st0" points="1178.1,587.1 1279.5,608.4 641.4,608.4 742,587.1 		"/>
		<path class="st1" d="M1281.6,608.6H639.3L742,586.9h436.2l0,0L1281.6,608.6z M643.5,608.2h633.9l-99.3-20.9H742L643.5,608.2z"/>
	</g>
	<g>
		<polyline class="st0" points="465,661.4 621.1,623.6 1298,623.6 1455.3,661.4 		"/>
		<polygon class="st0" points="465,730.8 621.1,671.8 1298,671.8 1455.3,730.8 		"/>
		<polygon class="st1" points="1455.2,661.6 1297.9,623.9 621.1,623.9 465,661.6 464.9,661.2 621.1,623.4 1298,623.4 1455.3,661.2 
					"/>
	</g>
	<polygon class="st1" points="641.2,608.6 641.2,560.7 641.6,560.7 641.6,608.2 742,586.9 1178.1,586.9 1279.3,608.2 1279.3,560.4 
		1279.7,560.4 1279.7,608.6 1279.4,608.6 1178.1,587.2 742,587.2 	"/>
	<polygon class="st1" points="1455.2,731 1297.9,671.6 621.2,671.6 465,731 464.9,730.5 621.1,671.1 1298.1,671.1 1455.4,730.5 	"/>
	<polygon class="st1" points="1298,445.2 621.1,445.2 464.9,399.5 465,399.2 621.2,444.8 1298,444.8 1455.2,399.2 1455.3,399.5 	"/>
	<g>
		<polyline class="st0" points="465,454.5 621.1,481.5 1298,481.5 1455.3,454.5 		"/>
		<polygon class="st1" points="621.1,481.7 464.9,454.8 465,454.2 621.2,481.2 1298,481.2 1455.3,454.2 1455.3,454.8 1298,481.7 		
			"/>
	</g>
	<g>
		<polyline class="st0" points="465,507.4 621.1,518.7 1298,518.7 1455.3,507.4 		"/>
		<polygon class="st1" points="621.1,518.9 464.9,507.6 465,507.2 621.1,518.4 1298,518.4 1455.3,507.2 1455.3,507.6 1298,518.9 		
			"/>
	</g>
	<g>
		<polyline class="st0" points="465,554.5 621.1,550.7 1298,550.7 1455.3,554.5 		"/>
		<polygon class="st1" points="1455.3,554.7 1298,550.9 621.1,550.9 465,554.7 465,554.2 621.1,550.5 1298,550.5 1455.3,554.2 		"/>
	</g>
	<rect x="884.8" y="478" class="st0" width="152.3" height="23.6"/>
	<rect x="884.8" y="557.4" class="st0" width="152.3" height="33.3"/>
	<rect x="884.8" y="517.1" class="st0" width="152.3" height="34.4"/>
	<rect x="884.8" y="418.7" class="st0" width="152.3" height="31.4"/>
	<rect x="806.8" y="627.6" class="st1" width="308" height="0.4"/>
	<rect x="884.8" y="611.4" class="st0" width="152.3" height="17.5"/>
	<path class="st1" d="M1037.3,553H884.6v-41.3h152.7L1037.3,553L1037.3,553z M884.8,552.7H1037v-40.8H884.8V552.7z"/>
	<path class="st1" d="M1037.3,599.2H884.6v-39.3h152.7L1037.3,599.2L1037.3,599.2z M884.8,598.9H1037v-38.7H884.8V598.9z"/>
	<path class="st1" d="M1037.3,645.7H884.6v-31.4h152.7L1037.3,645.7L1037.3,645.7z M884.8,645.4H1037v-30.8H884.8V645.4z"/>
	<path class="st1" d="M1037.3,501.5H884.6V466h152.7L1037.3,501.5L1037.3,501.5z M884.8,501.2H1037v-35H884.8V501.2z"/>
	<path class="st1" d="M1037.3,448.5H884.6v-30h152.7L1037.3,448.5L1037.3,448.5z M884.8,448.2H1037v-29.4H884.8V448.2z"/>
	<rect x="889.4" y="554.4" class="st1" width="0.3" height="44.8"/>
	<rect x="889.4" y="511.8" class="st1" width="0.3" height="41.1"/>
	<rect x="889.4" y="466" class="st1" width="0.3" height="41.3"/>
	<rect x="889.4" y="418.7" class="st1" width="0.3" height="35.7"/>
	<rect x="1031" y="554.4" class="st1" width="0.3" height="44.8"/>
	<rect x="1031" y="511.8" class="st1" width="0.3" height="41.1"/>
	<rect x="1031" y="466" class="st1" width="0.3" height="41.3"/>
	<rect x="1031" y="418.7" class="st1" width="0.3" height="35.7"/>
	<rect x="1017.7" y="554.4" class="st1" width="0.3" height="44.8"/>
	<rect x="1017.7" y="511.8" class="st1" width="0.3" height="41.1"/>
	<rect x="1017.7" y="466" class="st1" width="0.3" height="41.3"/>
	<rect x="1017.7" y="418.7" class="st1" width="0.3" height="35.7"/>
	<rect x="994" y="554.4" class="st1" width="0.3" height="44.8"/>
	<rect x="994" y="511.8" class="st1" width="0.3" height="41.1"/>
	<rect x="994" y="466" class="st1" width="0.3" height="41.3"/>
	<rect x="994" y="418.7" class="st1" width="0.3" height="35.7"/>
	<rect x="981" y="554.4" class="st1" width="0.3" height="44.8"/>
	<rect x="981" y="511.8" class="st1" width="0.3" height="41.1"/>
	<rect x="981" y="466" class="st1" width="0.3" height="41.3"/>
	<rect x="981" y="418.7" class="st1" width="0.3" height="35.7"/>
	<rect x="967" y="554.4" class="st1" width="0.3" height="44.8"/>
	<rect x="967" y="511.8" class="st1" width="0.3" height="41.1"/>
	<rect x="967" y="466" class="st1" width="0.3" height="41.3"/>
	<rect x="967" y="418.7" class="st1" width="0.3" height="35.7"/>
	<rect x="954" y="554.4" class="st1" width="0.3" height="44.8"/>
	<rect x="954" y="511.8" class="st1" width="0.3" height="41.1"/>
	<rect x="954" y="466" class="st1" width="0.3" height="41.3"/>
	<rect x="954" y="418.7" class="st1" width="0.3" height="35.7"/>
	<rect x="940.4" y="554.4" class="st1" width="0.3" height="44.8"/>
	<rect x="940.4" y="511.8" class="st1" width="0.3" height="41.1"/>
	<rect x="940.4" y="466" class="st1" width="0.3" height="41.3"/>
	<rect x="940.4" y="418.7" class="st1" width="0.3" height="35.7"/>
	<rect x="903.4" y="554.2" class="st1" width="0.3" height="44.9"/>
	<rect x="903.4" y="511.8" class="st1" width="0.3" height="41.1"/>
	<rect x="903.4" y="466" class="st1" width="0.3" height="41.3"/>
	<rect x="903.4" y="418.7" class="st1" width="0.3" height="35.7"/>
	<rect x="927.4" y="554.2" class="st1" width="0.3" height="44.9"/>
	<rect x="927.4" y="511.8" class="st1" width="0.3" height="41.1"/>
	<rect x="927.4" y="466" class="st1" width="0.3" height="41.3"/>
	<rect x="927.4" y="418.7" class="st1" width="0.3" height="35.7"/>
	<rect x="903.6" y="431.2" class="st1" width="13.4" height="0.3"/>
	<rect x="889.7" y="492.9" class="st1" width="141.4" height="0.3"/>
	<rect x="889.7" y="539.4" class="st1" width="141.4" height="0.3"/>
	<rect x="889.7" y="585.8" class="st1" width="141.4" height="0.3"/>
	<rect x="927.5" y="632.2" class="st1" width="66.6" height="0.3"/>
	<rect x="1004.5" y="632.2" class="st1" width="26.6" height="0.3"/>
	<rect x="889.5" y="632.2" class="st1" width="27.7" height="0.3"/>
	<rect x="884.8" y="639.2" class="st1" width="152.3" height="0.3"/>
	<rect x="889.7" y="446.5" class="st1" width="141.4" height="0.3"/>
	<rect x="1004.6" y="431.2" class="st1" width="13.4" height="0.3"/>
	<rect x="981" y="431.2" class="st1" width="13.1" height="0.3"/>
	<rect x="954.3" y="431.2" class="st1" width="12.8" height="0.3"/>
	<rect x="927.6" y="431.2" class="st1" width="12.8" height="0.3"/>
	<rect x="903.6" y="524.2" class="st1" width="13.4" height="0.3"/>
	<rect x="1004.6" y="524.2" class="st1" width="13.4" height="0.3"/>
	<rect x="981" y="524.2" class="st1" width="13.1" height="0.3"/>
	<rect x="954.3" y="524.2" class="st1" width="12.8" height="0.3"/>
	<rect x="927.6" y="524.2" class="st1" width="12.8" height="0.3"/>
	<rect x="903.6" y="477.8" class="st1" width="13.4" height="0.3"/>
	<rect x="1004.6" y="477.8" class="st1" width="13.4" height="0.3"/>
	<rect x="981" y="477.8" class="st1" width="13.1" height="0.3"/>
	<rect x="954.3" y="477.8" class="st1" width="12.8" height="0.3"/>
	<rect x="927.6" y="477.8" class="st1" width="12.8" height="0.3"/>
	<rect x="903.6" y="570.7" class="st1" width="13.4" height="0.3"/>
	<rect x="1004.6" y="570.7" class="st1" width="13.4" height="0.3"/>
	<rect x="981" y="570.7" class="st1" width="13.1" height="0.3"/>
	<rect x="954.3" y="570.7" class="st1" width="12.8" height="0.3"/>
	<rect x="927.6" y="570.7" class="st1" width="12.8" height="0.3"/>
	<rect x="903.6" y="617" class="st1" width="13.4" height="0.2"/>
	<rect x="1004.6" y="617" class="st1" width="13.4" height="0.2"/>
	<rect x="981" y="617" class="st1" width="13.1" height="0.2"/>
	<rect x="954.3" y="617" class="st1" width="12.8" height="0.2"/>
	<rect x="927.6" y="617" class="st1" width="12.8" height="0.2"/>
	<rect x="889.5" y="614.2" class="st1" width="0.2" height="24.9"/>
	<rect x="1031.1" y="614.2" class="st1" width="0.2" height="24.9"/>
	<rect x="1017.8" y="614.2" class="st1" width="0.2" height="24.9"/>
	<rect x="994" y="614.2" class="st1" width="0.2" height="24.9"/>
	<rect x="981.1" y="614.2" class="st1" width="0.2" height="24.9"/>
	<rect x="967.1" y="614.2" class="st1" width="0.2" height="24.9"/>
	<rect x="954.1" y="614.2" class="st1" width="0.2" height="24.9"/>
	<rect x="940.5" y="614.2" class="st1" width="0.2" height="24.9"/>
	<rect x="903.5" y="614.2" class="st1" width="0.2" height="24.9"/>
	<rect x="927.5" y="614.2" class="st1" width="0.2" height="24.9"/>
	<g>
		<rect x="623.6" y="518.8" class="st0" width="3.2" height="31.6"/>
		<path class="st1" d="M626.9,550.6h-3.5v-31.9h3.5V550.6z M623.7,550.4h3V519h-3V550.4z"/>
	</g>
	<g>
		<rect x="603.5" y="516.8" class="st0" width="3.2" height="34.3"/>
		<path class="st1" d="M606.9,551.2h-3.5v-34.6h3.5V551.2z M603.7,551h3v-34.1h-3V551z"/>
	</g>
	<g>
		<rect x="603.5" y="478.1" class="st0" width="3.2" height="23.5"/>
		<path class="st1" d="M606.9,501.8h-3.5V478h3.5V501.8z M603.7,501.5h3v-23.3h-3V501.5z"/>
	</g>
	<g>
		<rect x="603.5" y="438.8" class="st0" width="3.2" height="9.4"/>
		<path class="st1" d="M606.9,448.4h-3.5v-9.6h3.5V448.4z M603.7,448h3v-9h-3V448z"/>
	</g>
	<g>
		<rect x="1293.4" y="591.7" class="st0" width="3.2" height="32.2"/>
		<path class="st1" d="M1296.7,624h-3.5v-32.4h3.5V624z M1293.5,623.7h3v-31.9h-3V623.7z"/>
	</g>
	<g>
		<rect x="1279.5" y="587.4" class="st0" width="17.1" height="4.2"/>
		<path class="st1" d="M1296.7,591.8h-17.4v-4.5h17.4V591.8z M1279.6,591.5h16.9v-4h-16.9V591.5z"/>
	</g>
	<g>
		<polygon class="st0" points="1452.3,615.1 1296.6,591.7 1296.6,587.4 1452.3,607.9 		"/>
		<path class="st1" d="M1452.4,615.2L1452.4,615.2l-155.9-23.5v-4.5h0.1l155.8,20.5V615.2z M1296.7,591.6l155.5,23.4v-7l-155.5-20.4
			V591.6z"/>
	</g>
	<g>
		<rect x="1413.5" y="667.5" class="st0" width="5.9" height="50.8"/>
		<path class="st1" d="M1419.6,718.4h-6.2v-51h6.2V718.4z M1413.7,718.2h5.7v-50.5h-5.7V718.2z"/>
	</g>
	<g>
		<rect x="1413.5" y="609.2" class="st0" width="5.9" height="44.5"/>
		<path class="st1" d="M1419.6,653.9h-6.2v-44.8h6.2V653.9z M1413.7,653.6h5.7v-44.3h-5.7V653.6z"/>
	</g>
	<g>
		<rect x="1413.5" y="509.4" class="st0" width="5.9" height="44"/>
		<path class="st1" d="M1419.6,553.5h-6.2v-44.2h6.2V553.5z M1413.7,553.2h5.7v-43.7h-5.7V553.2z"/>
	</g>
	<g>
		<rect x="1413.5" y="458.9" class="st0" width="5.9" height="44"/>
		<path class="st1" d="M1419.6,503h-6.2v-44.2h6.2V503z M1413.7,502.7h5.7V459h-5.7V502.7z"/>
	</g>
	<g>
		<rect x="1413.5" y="409.2" class="st0" width="5.9" height="39.1"/>
		<path class="st1" d="M1419.6,448.5h-6.2V409h6.2V448.5z M1413.7,448.2h5.7v-38.9h-5.7V448.2z"/>
	</g>
	<g>
		<rect x="1384.4" y="667.5" class="st0" width="5.5" height="39.3"/>
		<path class="st1" d="M1390,706.9h-5.7v-39.5h5.7V706.9z M1384.5,706.7h5.2v-39h-5.2V706.7z"/>
	</g>
	<g>
		<rect x="1384.4" y="605" class="st0" width="5.5" height="41.2"/>
		<path class="st1" d="M1390,646.2h-5.7v-41.4h5.7V646.2z M1384.5,646.1h5.2v-40.9h-5.2V646.1z"/>
	</g>
	<g>
		<rect x="1384.4" y="511.6" class="st0" width="5.5" height="41.8"/>
		<path class="st1" d="M1390,553.5h-5.7v-42h5.7V553.5z M1384.5,553.2h5.2v-41.6h-5.2V553.2z"/>
	</g>
	<g>
		<rect x="1384.4" y="465.2" class="st0" width="5.5" height="37.5"/>
		<path class="st1" d="M1390,503h-5.7v-37.8h5.7V503z M1384.5,502.7h5.2v-37.3h-5.2V502.7z"/>
	</g>
	<g>
		<rect x="1384.4" y="418" class="st0" width="5.5" height="30.4"/>
		<path class="st1" d="M1390,448.5h-5.7v-30.6h5.7V448.5z M1384.5,448.2h5.2v-30.1h-5.2V448.2z"/>
	</g>
	<g>
		<rect x="1356.9" y="667.5" class="st0" width="5" height="28.4"/>
		<path class="st1" d="M1362,696.1h-5.2v-28.7h5.2V696.1z M1357,695.8h4.7v-28.2h-4.7V695.8z"/>
	</g>
	<g>
		<rect x="1356.9" y="600.8" class="st0" width="5" height="38.7"/>
		<path class="st1" d="M1362,639.7h-5.2v-39h5.2V639.7z M1357,639.4h4.7v-38.5h-4.7V639.4z"/>
	</g>
	<g>
		<rect x="1356.9" y="513.9" class="st0" width="5" height="38.5"/>
		<path class="st1" d="M1362,552.5h-5.2v-38.7h5.2V552.5z M1357,552.2h4.7V514h-4.7V552.2z"/>
	</g>
	<g>
		<rect x="1356.9" y="470.2" class="st0" width="5" height="31.2"/>
		<path class="st1" d="M1362,501.5h-5.2V470h5.2V501.5z M1357,501.2h4.7v-31h-4.7V501.2z"/>
	</g>
	<g>
		<rect x="1313.3" y="478.2" class="st0" width="3.2" height="23.2"/>
		<path class="st1" d="M1316.6,501.5h-3.4V478h3.4V501.5z M1313.4,501.2h2.9v-22.9h-2.9V501.2z"/>
	</g>
	<g>
		<rect x="1313.3" y="439.2" class="st0" width="3.2" height="9"/>
		<path class="st1" d="M1316.6,448.4h-3.4v-9.3h3.4V448.4z M1313.4,448h2.9v-8.8h-2.9V448z"/>
	</g>
	<g>
		<rect x="1313.3" y="517.6" class="st0" width="3.2" height="33.2"/>
		<path class="st1" d="M1316.6,550.9h-3.4v-33.5h3.4V550.9z M1313.4,550.7h2.9v-33h-2.9V550.7z"/>
	</g>
	<g>
		<rect x="1313.3" y="560.7" class="st0" width="3.2" height="29.3"/>
		<path class="st1" d="M1316.6,590.1h-3.4v-29.5h3.4V590.1z M1313.4,589.9h2.9v-29h-2.9V589.9z"/>
	</g>
	<g>
		<rect x="1313.3" y="594" class="st0" width="3.2" height="34.3"/>
		<path class="st1" d="M1316.6,628.4h-3.4v-34.5h3.4V628.4z M1313.4,628.1h2.9v-34h-2.9V628.1z"/>
	</g>
	<g>
		<rect x="1356.9" y="426.2" class="st0" width="5" height="22.3"/>
		<path class="st1" d="M1362,448.5h-5.2V426h5.2V448.5z M1357,448.2h4.7v-22h-4.7V448.2z"/>
	</g>
	<g>
		<rect x="1444.9" y="609.6" class="st0" width="7.4" height="4.3"/>
		<path class="st1" d="M1452.4,614h-7.7v-4.5h7.7V614z M1445,613.8h7.2v-4h-7.2V613.8z"/>
	</g>
	<g>
		<polygon class="st0" points="1444.9,609.6 1293.4,588.6 1293.4,591.7 1444.9,613.9 		"/>
		<path class="st1" d="M1445,614.1L1445,614.1l-151.7-22.3v-3.3h0.1l151.6,21V614.1z M1293.5,591.6l151.3,22.2v-4l-151.3-21V591.6z"
			/>
	</g>
	<g>
		<polygon class="st0" points="1293.4,588.6 1296.8,588.6 1452.3,609.6 1444.9,609.6 		"/>
		<path class="st1" d="M1452.3,609.7h-7.4l-151.5-21v-0.2h3.4l155.5,21V609.7z M1295.2,588.7l149.7,20.8h5.5l-153.6-20.8H1295.2z"/>
	</g>
	<g>
		<rect x="1384.4" y="560.1" class="st0" width="5.5" height="41.1"/>
		<path class="st1" d="M1390,601.4h-5.7V560h5.7V601.4z M1384.5,601.1h5.2v-40.9h-5.2V601.1z"/>
	</g>
	<g>
		<rect x="1413.5" y="560.1" class="st0" width="5.9" height="45.1"/>
		<path class="st1" d="M1419.6,605.2h-6.2V560h6.2V605.2z M1413.7,605.1h5.7v-44.8h-5.7V605.1z"/>
	</g>
	<g>
		<rect x="1356.9" y="560.1" class="st0" width="5" height="37.2"/>
		<path class="st1" d="M1362,597.5h-5.2V560h5.2V597.5z M1357,597.2h4.7v-37h-4.7V597.2z"/>
	</g>
	<g>
		<rect x="1293.4" y="518.9" class="st0" width="3.2" height="31.8"/>
		<path class="st1" d="M1296.7,550.8h-3.5v-32h3.5V550.8z M1293.5,550.6h3v-31.5h-3V550.6z"/>
	</g>
	<g>
		<rect x="1293.4" y="481.7" class="st0" width="3.2" height="19.7"/>
		<path class="st1" d="M1296.7,501.5h-3.5v-20h3.5V501.5z M1293.5,501.2h3v-19.5h-3V501.2z"/>
	</g>
	<g>
		<rect x="1293.4" y="445" class="st0" width="3.2" height="3"/>
		<path class="st1" d="M1296.7,448.2h-3.5v-3.3h3.5V448.2z M1293.5,448h3v-2.8h-3V448z"/>
	</g>
	<g>
		<rect x="1452.3" y="607.9" class="st0" width="2.2" height="7.3"/>
		<path class="st1" d="M1454.6,615.2h-2.5v-7.5h2.5V615.2z M1452.4,615h2v-7h-2V615z"/>
	</g>
	<g>
		<rect x="1279.5" y="588.6" class="st0" width="13.9" height="3"/>
		<path class="st1" d="M1293.5,591.8h-14.2v-3.3h14.2V591.8z M1279.6,591.5h13.7v-2.8h-13.7V591.5z"/>
	</g>
	<g>
		<rect x="1293.4" y="560.1" class="st0" width="3.2" height="28.5"/>
		<path class="st1" d="M1296.7,588.7h-3.5V560h3.5V588.7z M1293.5,588.5h3v-28.2h-3V588.5z"/>
	</g>
	<g>
		<rect x="623.6" y="591.6" class="st0" width="3.2" height="32.6"/>
		<path class="st1" d="M626.9,624.4h-3.5v-32.8h3.5V624.4z M623.7,624.1h3v-32.3h-3V624.1z"/>
	</g>
	<g>
		<rect x="603.7" y="594.5" class="st0" width="3.2" height="34.3"/>
		<path class="st1" d="M607,629h-3.5v-34.5h3.5V629z M603.8,628.7h3v-34h-3V628.7z"/>
	</g>
	<g>
		<rect x="623.6" y="587.4" class="st0" width="17.9" height="4.2"/>
		<path class="st1" d="M641.6,591.8h-18.2v-4.5h18.2V591.8z M623.7,591.5h17.7v-4h-17.7V591.5z"/>
	</g>
	<g>
		<polygon class="st0" points="467.8,615.1 623.5,591.7 623.5,587.4 467.8,607.9 		"/>
		<path class="st1" d="M467.7,615.2v-7.5h0.1l155.9-20.5v4.5h-0.1L467.7,615.2z M467.9,608v7l155.5-23.4v-4L467.9,608z"/>
	</g>
	<g>
		<rect x="500.7" y="609.3" class="st0" width="5.9" height="44.5"/>
		<path class="st1" d="M506.7,653.9h-6.2v-44.8h6.2V653.9z M500.8,653.6h5.7v-44.3h-5.7V653.6z"/>
	</g>
	<g>
		<rect x="500.7" y="667.6" class="st0" width="5.9" height="51.1"/>
		<path class="st1" d="M506.7,718.9h-6.2v-51.3h6.2V718.9z M500.8,718.6h5.7v-50.8h-5.7V718.6z"/>
	</g>
	<g>
		<rect x="500.7" y="509.4" class="st0" width="5.9" height="44"/>
		<path class="st1" d="M506.7,553.5h-6.2v-44.2h6.2V553.5z M500.8,553.2h5.7v-43.7h-5.7V553.2z"/>
	</g>
	<g>
		<rect x="500.7" y="458.8" class="st0" width="5.9" height="44"/>
		<path class="st1" d="M506.7,503h-6.2v-44.2h6.2V503z M500.8,502.7h5.7V459h-5.7V502.7z"/>
	</g>
	<g>
		<rect x="500.7" y="409.3" class="st0" width="5.9" height="39.1"/>
		<path class="st1" d="M506.7,448.5h-6.2V409h6.2V448.5z M500.8,448.2h5.7v-38.9h-5.7V448.2z"/>
	</g>
	<g>
		<rect x="530.2" y="605" class="st0" width="5.5" height="41.2"/>
		<path class="st1" d="M535.9,646.2h-5.7v-41.4h5.7V646.2z M530.4,646.1h5.2v-40.9h-5.2V646.1z"/>
	</g>
	<g>
		<rect x="530.2" y="667.6" class="st0" width="5.5" height="39.7"/>
		<path class="st1" d="M535.9,707.5h-5.7v-39.9h5.7V707.5z M530.4,707.2h5.2v-39.4h-5.2V707.2z"/>
	</g>
	<g>
		<rect x="530.2" y="511.6" class="st0" width="5.5" height="41.8"/>
		<path class="st1" d="M535.9,553.5h-5.7v-42h5.7V553.5z M530.4,553.2h5.2v-41.6h-5.2V553.2z"/>
	</g>
	<g>
		<rect x="530.2" y="465.3" class="st0" width="5.5" height="37.5"/>
		<path class="st1" d="M535.9,503h-5.7v-37.8h5.7V503z M530.4,502.7h5.2v-37.3h-5.2V502.7z"/>
	</g>
	<g>
		<rect x="530.2" y="418" class="st0" width="5.5" height="30.4"/>
		<path class="st1" d="M535.9,448.5h-5.7v-30.6h5.7V448.5z M530.4,448.2h5.2v-30.1h-5.2V448.2z"/>
	</g>
	<g>
		<rect x="558.2" y="600.8" class="st0" width="5" height="38.7"/>
		<path class="st1" d="M563.4,639.7h-5.2v-39h5.2V639.7z M558.4,639.4h4.7v-38.5h-4.7V639.4z"/>
	</g>
	<g>
		<rect x="558.2" y="667.6" class="st0" width="5" height="29"/>
		<path class="st1" d="M563.4,696.8h-5.2v-29.3h5.2V696.8z M558.4,696.5h4.7v-28.8h-4.7V696.5z"/>
	</g>
	<g>
		<rect x="558.2" y="513.8" class="st0" width="5" height="38.5"/>
		<path class="st1" d="M563.4,552.5h-5.2v-38.7h5.2V552.5z M558.4,552.2h4.7V514h-4.7V552.2z"/>
	</g>
	<g>
		<rect x="558.2" y="470.1" class="st0" width="5" height="31.2"/>
		<path class="st1" d="M563.4,501.5h-5.2V470h5.2V501.5z M558.4,501.2h4.7v-31h-4.7V501.2z"/>
	</g>
	<g>
		<rect x="558.2" y="426" class="st0" width="5" height="22.3"/>
		<path class="st1" d="M563.4,448.5h-5.2V426h5.2V448.5z M558.4,448.2h4.7v-22h-4.7V448.2z"/>
	</g>
	<g>
		<rect x="467.8" y="609.6" class="st0" width="7.4" height="4.3"/>
		<path class="st1" d="M475.3,614h-7.7v-4.5h7.7V614z M467.9,613.8h7.2v-4h-7.2V613.8z"/>
	</g>
	<g>
		<polygon class="st0" points="475.2,609.6 626.7,588.6 626.7,591.7 475.2,613.9 		"/>
		<path class="st1" d="M475.1,614.1v-4.6h0.1l151.7-21v3.3h-0.1L475.1,614.1z M475.3,609.7v4l151.3-22.2v-2.8L475.3,609.7z"/>
	</g>
	<g>
		<polygon class="st0" points="626.7,588.6 623.3,588.6 467.8,609.6 475.2,609.6 		"/>
		<path class="st1" d="M467.8,609.7v-0.2l155.5-21h3.4v0.2l-151.5,21H467.8z M469.7,609.5h5.5l149.7-20.8h-1.6L469.7,609.5z"/>
	</g>
	<g>
		<rect x="530.2" y="560.2" class="st0" width="5.5" height="41.1"/>
		<path class="st1" d="M535.9,601.4h-5.7V560h5.7V601.4z M530.4,601.1h5.2v-40.9h-5.2V601.1z"/>
	</g>
	<g>
		<rect x="500.7" y="560.1" class="st0" width="5.9" height="45.1"/>
		<path class="st1" d="M506.7,605.2h-6.2V560h6.2V605.2z M500.8,605.1h5.7v-44.8h-5.7V605.1z"/>
	</g>
	<g>
		<rect x="558.2" y="560.2" class="st0" width="5" height="37.2"/>
		<path class="st1" d="M563.4,597.5h-5.2V560h5.2V597.5z M558.4,597.2h4.7v-37h-4.7V597.2z"/>
	</g>
	<g>
		<rect x="623.6" y="481.4" class="st0" width="3.2" height="19.9"/>
		<path class="st1" d="M626.9,501.5h-3.5v-20.2h3.5V501.5z M623.7,501.2h3v-19.7h-3V501.2z"/>
	</g>
	<g>
		<rect x="465.6" y="607.8" class="st0" width="2.2" height="7.3"/>
		<path class="st1" d="M467.9,615.2h-2.5v-7.5h2.5V615.2z M465.7,615h2v-7h-2V615z"/>
	</g>
	<g>
		<rect x="626.9" y="588.6" class="st0" width="14.6" height="3"/>
		<path class="st1" d="M641.6,591.8h-14.8v-3.3h14.8V591.8z M627,591.5h14.3v-2.8H627V591.5z"/>
	</g>
	<g>
		<rect x="623.6" y="560.1" class="st0" width="3.2" height="28.5"/>
		<path class="st1" d="M626.9,588.7h-3.5V560h3.5V588.7z M623.7,588.5h3v-28.2h-3V588.5z"/>
	</g>
	<g>
		<rect x="603.5" y="560.1" class="st0" width="3.2" height="30"/>
		<path class="st1" d="M606.9,590.2h-3.5V560h3.5V590.2z M603.7,590h3v-29.8h-3V590z"/>
	</g>
	<g>
		<rect x="927.8" y="667.5" class="st0" width="2.1" height="11.9"/>
		<path class="st1" d="M930,679.5h-2.3v-12.1h2.3V679.5z M927.9,679.2h1.9v-11.7h-1.9V679.2z"/>
	</g>
	<g>
		<rect x="926.1" y="667.5" class="st0" width="2.1" height="20"/>
		<path class="st1" d="M928.4,687.6H926v-20.2h2.3v20.2H928.4z M926.2,687.4h1.9v-19.8h-1.9V687.4z"/>
	</g>
	<g>
		<rect x="923.4" y="667.5" class="st0" width="3.1" height="29.7"/>
		<path class="st1" d="M926.6,697.2h-3.3v-29.9h3.3V697.2z M923.5,697.1h2.9v-29.5h-2.9V697.1z"/>
	</g>
	<g>
		<rect x="919.8" y="667.5" class="st0" width="4.4" height="40"/>
		<path class="st1" d="M924.3,707.6h-4.7v-40.2h4.7V707.6z M919.9,707.4h4.2v-39.8h-4.2V707.4z"/>
	</g>
	<g>
		<rect x="1332.7" y="458.9" class="st0" width="5" height="44"/>
		<path class="st1" d="M1337.9,503h-5.3v-44.2h5.3V503z M1332.8,502.8h4.8V459h-4.8V502.8z"/>
	</g>
	<g>
		<rect x="1332.7" y="509.4" class="st0" width="5" height="44"/>
		<path class="st1" d="M1337.9,553.5h-5.3v-44.2h5.3V553.5z M1332.8,553.2h4.8v-43.8h-4.8V553.2z"/>
	</g>
	<g>
		<rect x="1332.7" y="560.4" class="st0" width="5" height="93.8"/>
		<path class="st1" d="M1337.9,654.2h-5.3v-94h5.3V654.2z M1332.8,654.1h4.8v-93.6h-4.8V654.1z"/>
	</g>
	<g>
		<rect x="1332.7" y="409.2" class="st0" width="5" height="39.1"/>
		<path class="st1" d="M1337.9,448.5h-5.3v-39.3h5.3V448.5z M1332.8,448.2h4.8v-38.9h-4.8V448.2z"/>
	</g>
	<g>
		<rect x="1307.2" y="464.5" class="st0" width="6.6" height="36.8"/>
		<path class="st1" d="M1313.9,501.5h-6.8v-37h6.8V501.5z M1307.3,501.2h6.4v-36.6h-6.4V501.2z"/>
	</g>
	<g>
		<rect x="1307.2" y="511.6" class="st0" width="6.6" height="41.5"/>
		<path class="st1" d="M1313.9,553.2h-6.8v-41.7h6.8V553.2z M1307.3,553h6.4v-41.3h-6.4V553z"/>
	</g>
	<g>
		<rect x="1307.2" y="560.4" class="st0" width="6.6" height="85.8"/>
		<path class="st1" d="M1313.9,646.2h-6.8v-86.1h6.8V646.2z M1307.3,646.1h6.4v-85.6h-6.4V646.1z"/>
	</g>
	<g>
		<rect x="1263.3" y="614.4" class="st0" width="7.3" height="19.3"/>
		<path class="st1" d="M1270.7,633.8h-7.5v-19.5h7.5V633.8z M1263.4,633.6h7.1v-19.1h-7.1V633.6z"/>
	</g>
	<g>
		<rect x="1263.3" y="515.4" class="st0" width="7.3" height="36.3"/>
		<path class="st1" d="M1270.7,551.8h-7.5v-36.5h7.5V551.8z M1263.4,551.6h7.1v-36.1h-7.1V551.6z"/>
	</g>
	<g>
		<rect x="1263.3" y="474" class="st0" width="7.3" height="27"/>
		<path class="st1" d="M1270.7,501.2h-7.5V474h7.5V501.2z M1263.4,501h7.1v-26.8h-7.1V501z"/>
	</g>
	<g>
		<rect x="1263.3" y="433.2" class="st0" width="7.3" height="15"/>
		<path class="st1" d="M1270.7,448.4h-7.5v-15.2h7.5V448.4z M1263.4,448h7.1v-14.8h-7.1V448z"/>
	</g>
	<g>
		<rect x="1307.2" y="418" class="st0" width="6.6" height="30.4"/>
		<path class="st1" d="M1313.9,448.5h-6.8v-30.6h6.8V448.5z M1307.3,448.2h6.4V418h-6.4V448.2z"/>
	</g>
	<g>
		<polygon class="st0" points="1307.2,464.5 1304.6,465.5 1304.6,501.4 1307.2,501.4 		"/>
		<path class="st1" d="M1307.3,501.5h-2.8v-36l2.8-1.1V501.5z M1304.7,501.2h2.4v-36.5l-2.4,0.9V501.2z"/>
	</g>
	<g>
		<polygon class="st0" points="1307.2,511.6 1304.6,511.9 1304.6,553.1 1307.2,553.1 		"/>
		<path class="st1" d="M1307.3,553.2h-2.8v-41.4l2.8-0.4V553.2z M1304.7,553h2.4v-41.3l-2.4,0.3V553z"/>
	</g>
	<g>
		<polygon class="st0" points="1307.2,560.4 1304.6,560.4 1304.6,645.5 1307.2,646.2 		"/>
		<path class="st1" d="M1307.3,646.2l-2.8-0.7v-85.4h2.8V646.2z M1304.7,645.4l2.4,0.6v-85.6h-2.4V645.4z"/>
	</g>
	<g>
		<polygon class="st0" points="1307.2,418 1304.6,419.7 1304.6,448.4 1307.2,448.4 		"/>
		<path class="st1" d="M1307.3,448.5h-2.8v-28.8l2.8-1.8V448.5z M1304.7,448.2h2.4v-30.1l-2.4,1.6V448.2z"/>
	</g>
	<g>
		<rect x="1285.8" y="426.2" class="st0" width="4.1" height="22.3"/>
		<path class="st1" d="M1290,448.5h-4.3V426h4.3V448.5z M1285.9,448.2h3.9v-22h-3.9V448.2z"/>
	</g>
	<g>
		<rect x="1285.8" y="469.8" class="st0" width="4.1" height="31.7"/>
		<path class="st1" d="M1290,501.5h-4.3v-31.9h4.3V501.5z M1285.9,501.2h3.9v-31.4h-3.9V501.2z"/>
	</g>
	<g>
		<rect x="1285.8" y="513.9" class="st0" width="4.1" height="38.7"/>
		<path class="st1" d="M1290,552.7h-4.3v-38.9h4.3V552.7z M1285.9,552.5h3.9V514h-3.9V552.5z"/>
	</g>
	<g>
		<rect x="1285.8" y="560.4" class="st0" width="4.1" height="79"/>
		<path class="st1" d="M1290,639.5h-4.3v-79.3h4.3V639.5z M1285.9,639.2h3.9v-78.8h-3.9V639.2z"/>
	</g>
	<g>
		<rect x="582" y="458.8" class="st0" width="5" height="44"/>
		<path class="st1" d="M587.1,503h-5.3v-44.2h5.3V503z M582.1,502.8h4.8V459h-4.8V502.8z"/>
	</g>
	<g>
		<rect x="582" y="509.4" class="st0" width="5" height="44"/>
		<path class="st1" d="M587.1,553.5h-5.3v-44.2h5.3V553.5z M582.1,553.2h4.8v-43.8h-4.8V553.2z"/>
	</g>
	<g>
		<rect x="582" y="560.3" class="st0" width="5" height="93.8"/>
		<path class="st1" d="M587.1,654.2h-5.3v-94h5.3V654.2z M582.1,654.1h4.8v-93.6h-4.8V654.1z"/>
	</g>
	<g>
		<rect x="582" y="409.3" class="st0" width="5" height="39.1"/>
		<path class="st1" d="M587.1,448.5h-5.3v-39.3h5.3V448.5z M582.1,448.2h4.8v-38.9h-4.8V448.2z"/>
	</g>
	<g>
		<rect x="606" y="464.5" class="st0" width="6.6" height="36.8"/>
		<path class="st1" d="M612.7,501.5h-6.8v-37h6.8V501.5z M606,501.2h6.4v-36.6H606V501.2z"/>
	</g>
	<g>
		<rect x="606" y="511.6" class="st0" width="6.6" height="41.5"/>
		<path class="st1" d="M612.7,553.2h-6.8v-41.7h6.8V553.2z M606,553h6.4v-41.3H606V553z"/>
	</g>
	<g>
		<rect x="606" y="560.3" class="st0" width="6.6" height="85.8"/>
		<path class="st1" d="M612.7,646.2h-6.8v-86.1h6.8V646.2z M606,646.1h6.4v-85.6H606V646.1z"/>
	</g>
	<g>
		<rect x="649.1" y="614.3" class="st0" width="7.3" height="19.3"/>
		<path class="st1" d="M656.6,633.8h-7.5v-19.5h7.5V633.8z M649.3,633.6h7.1v-19.1h-7.1V633.6z"/>
	</g>
	<g>
		<rect x="649.1" y="515.3" class="st0" width="7.3" height="36.3"/>
		<path class="st1" d="M656.6,551.8h-7.5v-36.5h7.5V551.8z M649.3,551.6h7.1v-36.1h-7.1V551.6z"/>
	</g>
	<g>
		<rect x="649.1" y="474.1" class="st0" width="7.3" height="27"/>
		<path class="st1" d="M656.6,501.2h-7.5V474h7.5V501.2z M649.3,501h7.1v-26.8h-7.1V501z"/>
	</g>
	<g>
		<rect x="649.1" y="433.2" class="st0" width="7.3" height="15"/>
		<path class="st1" d="M656.6,448.4h-7.5v-15.2h7.5V448.4z M649.3,448h7.1v-14.8h-7.1V448z"/>
	</g>
	<g>
		<rect x="606" y="418" class="st0" width="6.6" height="30.4"/>
		<path class="st1" d="M612.7,448.5h-6.8v-30.6h6.8V448.5z M606,448.2h6.4V418H606V448.2z"/>
	</g>
	<g>
		<polygon class="st0" points="612.5,464.5 615.2,465.5 615.2,501.4 612.5,501.4 		"/>
		<path class="st1" d="M615.3,501.5h-2.8v-37.1l2.8,1.1V501.5z M612.7,501.2h2.4v-35.6l-2.4-0.9V501.2z"/>
	</g>
	<g>
		<polygon class="st0" points="612.5,511.6 615.2,511.9 615.2,553.1 612.5,553.1 		"/>
		<path class="st1" d="M615.3,553.2h-2.8v-41.7l2.8,0.4V553.2z M612.7,553h2.4v-41l-2.4-0.3V553z"/>
	</g>
	<g>
		<polygon class="st0" points="612.5,560.4 615.2,560.4 615.2,645.5 612.5,646.2 		"/>
		<path class="st1" d="M612.4,646.2v-86.1h2.8v85.4L612.4,646.2z M612.7,560.5V646l2.4-0.6v-85L612.7,560.5L612.7,560.5z"/>
	</g>
	<g>
		<polygon class="st0" points="612.5,418 615.2,419.7 615.2,448.4 612.5,448.4 		"/>
		<path class="st1" d="M615.3,448.5h-2.8v-30.7l2.8,1.8V448.5z M612.7,448.2h2.4v-28.5l-2.4-1.6V448.2z"/>
	</g>
	<g>
		<rect x="629.8" y="426" class="st0" width="4.1" height="22.3"/>
		<path class="st1" d="M634.1,448.5h-4.3V426h4.3V448.5z M630,448.2h3.9v-22H630V448.2z"/>
	</g>
	<g>
		<rect x="629.8" y="469.6" class="st0" width="4.1" height="31.7"/>
		<path class="st1" d="M634.1,501.5h-4.3v-31.9h4.3V501.5z M630,501.2h3.9v-31.4H630V501.2z"/>
	</g>
	<g>
		<rect x="629.8" y="513.8" class="st0" width="4.1" height="38.7"/>
		<path class="st1" d="M634.1,552.7h-4.3v-38.9h4.3V552.7z M630,552.5h3.9V514H630V552.5z"/>
	</g>
	<g>
		<rect x="629.8" y="560.3" class="st0" width="4.1" height="79"/>
		<path class="st1" d="M634.1,639.5h-4.3v-79.3h4.3V639.5z M630,639.2h3.9v-78.8H630V639.2z"/>
	</g>
	<g>
		<rect x="917.3" y="667.5" class="st0" width="4.4" height="50.8"/>
		<path class="st1" d="M921.8,718.4h-4.7v-51h4.7V718.4z M917.4,718.2h4.2v-50.6h-4.2V718.2z"/>
	</g>
	<g>
		<rect x="992" y="667.5" class="st0" width="2.1" height="11.9"/>
		<path class="st1" d="M994.1,679.5h-2.3v-12.1h2.3V679.5z M992,679.2h1.9v-11.7H992V679.2z"/>
	</g>
	<g>
		<rect x="993.6" y="667.5" class="st0" width="2.1" height="20"/>
		<path class="st1" d="M995.8,687.6h-2.3v-20.2h2.3V687.6z M993.7,687.4h1.9v-19.8h-1.9V687.4z"/>
	</g>
	<g>
		<rect x="995.3" y="667.5" class="st0" width="3.1" height="29.7"/>
		<path class="st1" d="M998.6,697.2h-3.3v-29.9h3.3V697.2z M995.5,697.1h2.9v-29.5h-2.9V697.1z"/>
	</g>
	<g>
		<rect x="997.7" y="667.5" class="st0" width="4.4" height="40"/>
		<path class="st1" d="M1002.2,707.6h-4.7v-40.2h4.7V707.6z M997.8,707.4h4.2v-39.8h-4.2V707.4z"/>
	</g>
	<g>
		<rect x="1000.2" y="667.4" class="st0" width="4.4" height="50.8"/>
		<path class="st1" d="M1004.7,718.4h-4.7v-51h4.7V718.4z M1000.3,718.2h4.2v-50.6h-4.2V718.2z"/>
	</g>
	<g>
		<rect x="1055.1" y="667.5" class="st0" width="3.2" height="11.9"/>
		<path class="st1" d="M1058.4,679.5h-3.5v-12.1h3.5V679.5z M1055.1,679.2h3v-11.7h-3V679.2z"/>
	</g>
	<g>
		<rect x="1059.7" y="667.5" class="st0" width="6" height="20"/>
		<path class="st1" d="M1065.9,687.6h-6.2v-20.2h6.2V687.6z M1059.9,687.4h5.8v-19.8h-5.8V687.4z"/>
	</g>
	<g>
		<rect x="1067.4" y="667.5" class="st0" width="3.7" height="29.7"/>
		<path class="st1" d="M1071.2,697.2h-3.9v-29.9h3.9V697.2z M1067.5,697.1h3.5v-29.5h-3.5V697.1z"/>
	</g>
	<g>
		<rect x="1073.6" y="667.5" class="st0" width="6.9" height="40"/>
		<path class="st1" d="M1080.6,707.6h-7.2v-40.2h7.2V707.6z M1073.7,707.4h6.7v-39.8h-6.7V707.4z"/>
	</g>
	<g>
		<rect x="1083" y="667.4" class="st0" width="4.4" height="50.8"/>
		<path class="st1" d="M1087.5,718.4h-4.7v-51h4.7V718.4z M1083,718.2h4.2v-50.6h-4.2V718.2z"/>
	</g>
	<g>
		<rect x="863.4" y="667.5" class="st0" width="3.2" height="11.9"/>
		<path class="st1" d="M866.7,679.5h-3.5v-12.1h3.5V679.5z M863.5,679.2h3v-11.7h-3V679.2z"/>
	</g>
	<g>
		<rect x="855.9" y="667.5" class="st0" width="6" height="20"/>
		<path class="st1" d="M862,687.6h-6.2v-20.2h6.2V687.6z M856,687.4h5.8v-19.8H856V687.4z"/>
	</g>
	<g>
		<rect x="850.5" y="667.5" class="st0" width="3.7" height="29.7"/>
		<path class="st1" d="M854.4,697.2h-3.9v-29.9h3.9V697.2z M850.7,697.1h3.5v-29.5h-3.5V697.1z"/>
	</g>
	<g>
		<rect x="841.2" y="667.5" class="st0" width="6.9" height="40"/>
		<path class="st1" d="M848.2,707.6H841v-40.2h7.2V707.6z M841.3,707.4h6.7v-39.8h-6.7V707.4z"/>
	</g>
	<g>
		<rect x="834.3" y="667.5" class="st0" width="4.4" height="50.8"/>
		<path class="st1" d="M838.8,718.4h-4.7v-51h4.7V718.4z M834.4,718.2h4.2v-50.6h-4.2V718.2z"/>
	</g>
	<g>
		<rect x="919.8" y="614.4" class="st0" width="4.4" height="31.9"/>
		<path class="st1" d="M924.3,646.2h-4.7v-32.1h4.7V646.2z M919.9,646.1h4.2v-31.6h-4.2V646.1z"/>
	</g>
	<g>
		<rect x="917.3" y="614.4" class="st0" width="4.4" height="39"/>
		<path class="st1" d="M921.8,653.4h-4.7v-39.2h4.7V653.4z M917.4,653.2h4.2v-38.7h-4.2V653.2z"/>
	</g>
	<g>
		<rect x="997.7" y="614.2" class="st0" width="4.4" height="31.9"/>
		<path class="st1" d="M1002.2,646.2h-4.7v-32.1h4.7V646.2z M997.8,646.1h4.2v-31.6h-4.2V646.1z"/>
	</g>
	<g>
		<rect x="1000.2" y="614.3" class="st0" width="4.4" height="39"/>
		<path class="st1" d="M1004.7,653.4h-4.7v-39.2h4.7V653.4z M1000.3,653.2h4.2v-38.7h-4.2V653.2z"/>
	</g>
	<g>
		<rect x="1055.1" y="614.3" class="st0" width="3.2" height="14.1"/>
		<path class="st1" d="M1058.4,628.6h-3.5v-14.3h3.5V628.6z M1055.1,628.4h3v-13.9h-3V628.4z"/>
	</g>
	<g>
		<rect x="1059.7" y="614.3" class="st0" width="6" height="19.5"/>
		<path class="st1" d="M1065.9,634h-6.2v-19.7h6.2V634z M1059.9,633.7h5.8v-19.3h-5.8V633.7z"/>
	</g>
	<g>
		<rect x="1067.4" y="614.3" class="st0" width="3.7" height="24.9"/>
		<path class="st1" d="M1071.2,639.4h-3.9v-25.1h3.9V639.4z M1067.5,639.2h3.5v-24.7h-3.5V639.2z"/>
	</g>
	<g>
		<rect x="1073.6" y="614.2" class="st0" width="6.9" height="31.9"/>
		<path class="st1" d="M1080.6,646.2h-7.2v-32.1h7.2V646.2z M1073.7,646.1h6.7v-31.6h-6.7V646.1z"/>
	</g>
	<g>
		<rect x="1083" y="614.3" class="st0" width="4.4" height="39"/>
		<path class="st1" d="M1087.5,653.4h-4.7v-39.2h4.7V653.4z M1083,653.2h4.2v-38.7h-4.2V653.2z"/>
	</g>
	<g>
		<rect x="863.4" y="614.4" class="st0" width="3.2" height="14.1"/>
		<path class="st1" d="M866.7,628.6h-3.5v-14.3h3.5V628.6z M863.5,628.4h3v-13.9h-3V628.4z"/>
	</g>
	<g>
		<rect x="855.9" y="614.4" class="st0" width="6" height="19.5"/>
		<path class="st1" d="M862,634h-6.2v-19.7h6.2V634z M856,633.7h5.8v-19.3H856V633.7z"/>
	</g>
	<g>
		<rect x="850.5" y="614.4" class="st0" width="3.7" height="24.9"/>
		<path class="st1" d="M854.4,639.4h-3.9v-25.1h3.9V639.4z M850.7,639.2h3.5v-24.7h-3.5V639.2z"/>
	</g>
	<g>
		<rect x="841.2" y="614.4" class="st0" width="6.9" height="31.9"/>
		<path class="st1" d="M848.2,646.2H841v-32.1h7.2V646.2z M841.3,646.1h6.7v-31.6h-6.7V646.1z"/>
	</g>
	<g>
		<rect x="834.3" y="614.4" class="st0" width="4.4" height="39"/>
		<path class="st1" d="M838.8,653.4h-4.7v-39.2h4.7V653.4z M834.4,653.2h4.2v-38.7h-4.2V653.2z"/>
	</g>
	<g>
		<rect x="919.8" y="560.4" class="st0" width="4.4" height="39.8"/>
		<path class="st1" d="M924.3,600.2h-4.7v-40h4.7V600.2z M919.9,600h4.2v-39.5h-4.2V600z"/>
	</g>
	<g>
		<rect x="917.3" y="560.4" class="st0" width="4.4" height="43.8"/>
		<path class="st1" d="M921.8,604.2h-4.7v-44h4.7V604.2z M917.4,604h4.2v-43.5h-4.2V604z"/>
	</g>
	<g>
		<rect x="997.7" y="560.2" class="st0" width="4.4" height="39.8"/>
		<path class="st1" d="M1002.2,600.2h-4.7v-40h4.7V600.2z M997.8,600h4.2v-39.5h-4.2V600z"/>
	</g>
	<g>
		<rect x="1000.2" y="560.2" class="st0" width="4.4" height="43.8"/>
		<path class="st1" d="M1004.7,604.2h-4.7v-44h4.7V604.2z M1000.3,604h4.2v-43.5h-4.2V604z"/>
	</g>
	<g>
		<rect x="919.8" y="512.2" class="st0" width="4.4" height="40.7"/>
		<path class="st1" d="M924.3,553h-4.7v-41h4.7V553z M919.9,552.8h4.2v-40.5h-4.2V552.8z"/>
	</g>
	<g>
		<rect x="917.3" y="509.5" class="st0" width="4.4" height="44.8"/>
		<path class="st1" d="M921.8,554.4h-4.7v-45h4.7V554.4z M917.4,554.1h4.2v-44.6h-4.2V554.1z"/>
	</g>
	<g>
		<rect x="997.7" y="512.1" class="st0" width="4.4" height="40.7"/>
		<path class="st1" d="M1002.2,553h-4.7v-41h4.7V553z M997.8,552.8h4.2v-40.5h-4.2V552.8z"/>
	</g>
	<g>
		<rect x="1000.2" y="509.4" class="st0" width="4.4" height="44.8"/>
		<path class="st1" d="M1004.7,554.4h-4.7v-45h4.7V554.4z M1000.3,554.1h4.2v-44.6h-4.2V554.1z"/>
	</g>
	<g>
		<rect x="919.8" y="464.5" class="st0" width="4.4" height="36.9"/>
		<path class="st1" d="M924.3,501.5h-4.7v-37.1h4.7V501.5z M919.9,501.2h4.2v-36.6h-4.2V501.2z"/>
	</g>
	<g>
		<rect x="917.3" y="459.2" class="st0" width="4.4" height="42.1"/>
		<path class="st1" d="M921.8,501.5h-4.7v-42.3h4.7V501.5z M917.4,501.2h4.2v-41.8h-4.2V501.2z"/>
	</g>
	<g>
		<rect x="997.7" y="464.5" class="st0" width="4.4" height="36.9"/>
		<path class="st1" d="M1002.2,501.5h-4.7v-37.1h4.7V501.5z M997.8,501.2h4.2v-36.6h-4.2V501.2z"/>
	</g>
	<g>
		<rect x="1000.2" y="459.3" class="st0" width="4.4" height="42.1"/>
		<path class="st1" d="M1004.7,501.5h-4.7v-42.3h4.7V501.5z M1000.3,501.2h4.2v-41.8h-4.2V501.2z"/>
	</g>
	<g>
		<rect x="919.8" y="417.9" class="st0" width="4.4" height="30.5"/>
		<path class="st1" d="M924.3,448.4h-4.7v-30.7h4.7V448.4z M919.9,448.2h4.2v-30.3h-4.2V448.2z"/>
	</g>
	<g>
		<rect x="917.3" y="409.2" class="st0" width="4.4" height="39.1"/>
		<path class="st1" d="M921.8,448.4h-4.7v-39.3h4.7V448.4z M917.4,448.2h4.2v-38.9h-4.2V448.2z"/>
	</g>
	<g>
		<rect x="997.7" y="417.7" class="st0" width="4.4" height="30.5"/>
		<path class="st1" d="M1002.2,448.4h-4.7v-30.7h4.7V448.4z M997.8,448.2h4.2v-30.3h-4.2V448.2z"/>
	</g>
	<g>
		<rect x="1000.2" y="409.2" class="st0" width="4.4" height="39.1"/>
		<path class="st1" d="M1004.7,448.4h-4.7v-39.3h4.7V448.4z M1000.3,448.2h4.2v-38.9h-4.2V448.2z"/>
	</g>
	<g>
		<rect x="1055.1" y="560.2" class="st0" width="3.2" height="29.5"/>
		<path class="st1" d="M1058.4,589.9h-3.5v-29.7h3.5V589.9z M1055.1,589.7h3v-29.3h-3V589.7z"/>
	</g>
	<g>
		<rect x="1059.7" y="560.2" class="st0" width="6" height="32.9"/>
		<path class="st1" d="M1065.9,593.2h-6.2v-33.1h6.2V593.2z M1059.9,593.1h5.8v-32.6h-5.8V593.1z"/>
	</g>
	<g>
		<rect x="1067.4" y="560.2" class="st0" width="3.7" height="35.8"/>
		<path class="st1" d="M1071.2,596.2h-3.9v-36h3.9V596.2z M1067.5,596h3.5v-35.5h-3.5V596z"/>
	</g>
	<g>
		<rect x="1073.6" y="560.2" class="st0" width="6.9" height="39.8"/>
		<path class="st1" d="M1080.6,600.2h-7.2v-40h7.2V600.2z M1073.7,600h6.7v-39.5h-6.7V600z"/>
	</g>
	<g>
		<rect x="1083" y="560.2" class="st0" width="4.4" height="43.8"/>
		<path class="st1" d="M1087.5,604.2h-4.7v-44h4.7V604.2z M1083,604h4.2v-43.5h-4.2V604z"/>
	</g>
	<g>
		<rect x="863.4" y="560.4" class="st0" width="3.2" height="29.5"/>
		<path class="st1" d="M866.7,589.9h-3.5v-29.7h3.5V589.9z M863.5,589.7h3v-29.3h-3V589.7z"/>
	</g>
	<g>
		<rect x="855.9" y="560.4" class="st0" width="6" height="32.9"/>
		<path class="st1" d="M862,593.2h-6.2v-33.1h6.2V593.2z M856,593.1h5.8v-32.6H856V593.1z"/>
	</g>
	<g>
		<rect x="850.5" y="560.4" class="st0" width="3.7" height="35.8"/>
		<path class="st1" d="M854.4,596.2h-3.9v-36h3.9V596.2z M850.7,596h3.5v-35.5h-3.5V596z"/>
	</g>
	<g>
		<rect x="841.2" y="560.4" class="st0" width="6.9" height="39.8"/>
		<path class="st1" d="M848.2,600.2H841v-40h7.2V600.2z M841.3,600h6.7v-39.5h-6.7V600z"/>
	</g>
	<g>
		<rect x="834.3" y="560.4" class="st0" width="4.4" height="43.8"/>
		<path class="st1" d="M838.8,604.2h-4.7v-44h4.7V604.2z M834.4,604h4.2v-43.5h-4.2V604z"/>
	</g>
	<g>
		<rect x="1055.1" y="516.9" class="st0" width="3.2" height="34.4"/>
		<path class="st1" d="M1058.4,551.4h-3.4v-34.6h3.4V551.4z M1055.1,551.2h3V517h-3V551.2z"/>
	</g>
	<g>
		<rect x="1059.7" y="515.4" class="st0" width="6" height="37"/>
		<path class="st1" d="M1065.9,552.6h-6.2v-37.2h6.2V552.6z M1059.9,552.2h5.8v-36.8h-5.8V552.2z"/>
	</g>
	<g>
		<rect x="1067.4" y="513.7" class="st0" width="3.7" height="38.7"/>
		<path class="st1" d="M1071.2,552.6h-3.9v-39h3.9V552.6z M1067.5,552.2h3.5v-38.5h-3.5V552.2z"/>
	</g>
	<g>
		<rect x="1073.6" y="512.1" class="st0" width="6.9" height="40.7"/>
		<path class="st1" d="M1080.6,553h-7.2v-41h7.2V553z M1073.7,552.8h6.7v-40.5h-6.7V552.8z"/>
	</g>
	<g>
		<rect x="1083" y="509.4" class="st0" width="4.4" height="44.9"/>
		<path class="st1" d="M1087.5,554.5h-4.7v-45.2h4.7V554.5z M1083,554.2h4.2v-44.7h-4.2V554.2z"/>
	</g>
	<g>
		<rect x="863.4" y="516.9" class="st0" width="3.2" height="34.4"/>
		<path class="st1" d="M866.7,551.4h-3.5v-34.6h3.5V551.4z M863.5,551.2h3V517h-3V551.2z"/>
	</g>
	<g>
		<rect x="855.9" y="515.5" class="st0" width="6" height="37"/>
		<path class="st1" d="M862,552.6h-6.2v-37.2h6.2V552.6z M856,552.2h5.8v-36.8H856V552.2z"/>
	</g>
	<g>
		<rect x="850.5" y="513.7" class="st0" width="3.7" height="38.7"/>
		<path class="st1" d="M854.4,552.6h-3.9v-39h3.9V552.6z M850.7,552.2h3.5v-38.5h-3.5V552.2z"/>
	</g>
	<g>
		<rect x="841.2" y="512.2" class="st0" width="6.9" height="40.7"/>
		<path class="st1" d="M848.2,553H841v-41h7.2V553z M841.3,552.8h6.7v-40.5h-6.7V552.8z"/>
	</g>
	<g>
		<rect x="834.3" y="509.5" class="st0" width="4.4" height="44.9"/>
		<path class="st1" d="M838.8,554.5h-4.7v-45.2h4.7V554.5z M834.4,554.2h4.2v-44.7h-4.2V554.2z"/>
	</g>
	<g>
		<rect x="1055.1" y="478.1" class="st0" width="3.2" height="23.4"/>
		<path class="st1" d="M1058.4,501.5h-3.5V478h3.5V501.5z M1055.1,501.4h3v-23.1h-3V501.4z"/>
	</g>
	<g>
		<rect x="1059.7" y="473.8" class="st0" width="6" height="27.7"/>
		<path class="st1" d="M1065.9,501.5h-6.2v-28h6.2V501.5z M1059.9,501.4h5.8v-27.5h-5.8V501.4z"/>
	</g>
	<g>
		<rect x="1067.4" y="469.8" class="st0" width="3.7" height="31.7"/>
		<path class="st1" d="M1071.2,501.5h-3.9v-31.9h3.9V501.5z M1067.5,501.4h3.5V470h-3.5V501.4z"/>
	</g>
	<g>
		<rect x="1073.6" y="464.6" class="st0" width="6.9" height="36.9"/>
		<path class="st1" d="M1080.6,501.5h-7.2v-37.2h7.2V501.5z M1073.7,501.4h6.7v-36.7h-6.7V501.4z"/>
	</g>
	<g>
		<rect x="1083" y="459.4" class="st0" width="4.4" height="42.1"/>
		<path class="st1" d="M1087.5,501.5h-4.7v-42.4h4.7V501.5z M1083,501.4h4.2v-41.9h-4.2V501.4z"/>
	</g>
	<g>
		<rect x="863.4" y="478" class="st0" width="3.2" height="23.4"/>
		<path class="st1" d="M866.7,501.5h-3.5V478h3.5V501.5z M863.5,501.4h3v-23.1h-3V501.4z"/>
	</g>
	<g>
		<rect x="855.9" y="473.7" class="st0" width="6" height="27.7"/>
		<path class="st1" d="M862,501.5h-6.2v-28h6.2V501.5z M856,501.4h5.8v-27.5H856V501.4z"/>
	</g>
	<g>
		<rect x="850.5" y="469.8" class="st0" width="3.7" height="31.7"/>
		<path class="st1" d="M854.4,501.5h-3.9v-31.9h3.9V501.5z M850.7,501.4h3.5V470h-3.5V501.4z"/>
	</g>
	<g>
		<rect x="841.2" y="464.5" class="st0" width="6.9" height="36.9"/>
		<path class="st1" d="M848.2,501.5H841v-37.2h7.2V501.5z M841.3,501.4h6.7v-36.7h-6.7V501.4z"/>
	</g>
	<g>
		<rect x="834.3" y="459.2" class="st0" width="4.4" height="42.1"/>
		<path class="st1" d="M838.8,501.5h-4.7v-42.4h4.7V501.5z M834.4,501.4h4.2v-41.9h-4.2V501.4z"/>
	</g>
	<g>
		<rect x="1055.1" y="439.1" class="st0" width="3.2" height="9.1"/>
		<path class="st1" d="M1058.4,448.4h-3.5v-9.3h3.5V448.4z M1055.1,448h3v-8.9h-3V448z"/>
	</g>
	<g>
		<rect x="1059.7" y="433" class="st0" width="6" height="15.2"/>
		<path class="st1" d="M1065.9,448.4h-6.2V433h6.2V448.4z M1059.9,448h5.8v-14.9h-5.8V448z"/>
	</g>
	<g>
		<rect x="1067.4" y="426.6" class="st0" width="3.7" height="21.6"/>
		<path class="st1" d="M1071.2,448.4h-3.9v-21.8h3.9V448.4z M1067.5,448h3.5v-21.4h-3.5V448z"/>
	</g>
	<g>
		<rect x="1073.6" y="417.8" class="st0" width="6.9" height="30.4"/>
		<path class="st1" d="M1080.6,448.4h-7.2v-30.6h7.2V448.4z M1073.7,448h6.7v-30.2h-6.7V448z"/>
	</g>
	<g>
		<rect x="1083" y="409.2" class="st0" width="4.4" height="39"/>
		<path class="st1" d="M1087.5,448.4h-4.7v-39.2h4.7V448.4z M1083,448h4.2v-38.8h-4.2V448z"/>
	</g>
	<g>
		<rect x="863.4" y="439.2" class="st0" width="3.2" height="9.1"/>
		<path class="st1" d="M866.7,448.4h-3.5v-9.3h3.5V448.4z M863.5,448h3v-8.9h-3V448z"/>
	</g>
	<g>
		<rect x="855.9" y="433" class="st0" width="6" height="15.2"/>
		<path class="st1" d="M862,448.4h-6.2V433h6.2V448.4z M856,448h5.8v-14.9H856V448z"/>
	</g>
	<g>
		<rect x="850.5" y="426.5" class="st0" width="3.7" height="21.6"/>
		<path class="st1" d="M854.4,448.4h-3.9v-21.8h3.9V448.4z M850.7,448h3.5v-21.4h-3.5V448z"/>
	</g>
	<g>
		<rect x="841.2" y="417.9" class="st0" width="6.9" height="30.4"/>
		<path class="st1" d="M848.2,448.4H841v-30.6h7.2V448.4z M841.3,448h6.7v-30.2h-6.7V448z"/>
	</g>
	<g>
		<rect x="834.3" y="409.2" class="st0" width="4.4" height="39"/>
		<path class="st1" d="M838.8,448.4h-4.7v-39.2h4.7V448.4z M834.4,448h4.2v-38.8h-4.2V448z"/>
	</g>
	<g>
		<rect x="665.8" y="667.5" class="st0" width="92.6" height="53.8"/>
		<path class="st1" d="M758.7,721.4h-93v-54.1h93V721.4z M666,721.1h92.2v-53.4H666V721.1z"/>
	</g>
	<g>
		<polygon class="st0" points="665.8,667.5 651.3,667.5 651.3,730.8 665.8,721.2 		"/>
		<path class="st1" d="M651.1,731.2v-63.8h15v54.1l-0.1,0.1L651.1,731.2z M651.4,667.7v62.8l14.2-9.3v-53.5H651.4z"/>
	</g>
	<g>
		<polygon class="st0" points="777.1,667.5 758.5,667.5 758.5,721.2 777.1,704.5 		"/>
		<path class="st1" d="M758.3,721.7v-54.4h19v37.3l-0.1,0.1L758.3,721.7z M758.7,667.7v53.1l18.2-16.4v-36.7L758.7,667.7
			L758.7,667.7z"/>
	</g>
	<g>
		<polygon class="st0" points="807,667.5 794.7,667.5 794.7,688.7 807,677.4 		"/>
		<path class="st1" d="M794.5,689.1v-21.8h12.8v10.2l-0.1,0.1L794.5,689.1z M794.9,667.7v20.5l12-10.9v-9.6H794.9z"/>
	</g>
	<g>
		<rect x="777.1" y="667.5" class="st0" width="17.6" height="21.2"/>
		<path class="st1" d="M794.9,688.9h-18v-21.6h18V688.9z M777.3,688.5h17.2v-20.8h-17.2V688.5z"/>
	</g>
	<g>
		<rect x="1163.4" y="667.4" class="st0" width="92.6" height="53.8"/>
		<path class="st1" d="M1256.2,721.4h-93v-54.1h93V721.4z M1163.6,721.1h92.2v-53.4h-92.2V721.1z"/>
	</g>
	<g>
		<polygon class="st0" points="1256,667.5 1270.6,667.5 1270.6,730.8 1256,721.2 		"/>
		<path class="st1" d="M1270.8,731.2l-0.3-0.2l-14.7-9.6v-54.1h15V731.2z M1256.2,721.2l14.2,9.3v-62.8h-14.2V721.2z"/>
	</g>
	<g>
		<polygon class="st0" points="1144.8,667.5 1163.4,667.5 1163.4,721.2 1144.8,704.5 		"/>
		<path class="st1" d="M1163.6,721.7l-0.3-0.3l-18.7-16.8v-37.3h19V721.7z M1145,704.4l18.2,16.4v-53.1H1145V704.4z"/>
	</g>
	<g>
		<polygon class="st0" points="1114.8,667.5 1127.2,667.5 1127.2,688.7 1114.8,677.4 		"/>
		<path class="st1" d="M1127.4,689.1l-12.8-11.6v-10.2h12.8V689.1z M1115,677.2l12,10.9v-20.5h-12V677.2z"/>
	</g>
	<g>
		<rect x="1127.2" y="667.5" class="st0" width="17.6" height="21.2"/>
		<path class="st1" d="M1145,688.9h-18v-21.6h18V688.9z M1127.4,688.5h17.2v-20.8h-17.2V688.5z"/>
	</g>
	<g>
		<rect x="1163.4" y="614.3" class="st0" width="100" height="40.7"/>
		<path class="st1" d="M1263.6,655.2h-100.4v-41h100.4V655.2z M1163.6,654.8h99.6v-40.3h-99.6V654.8z"/>
	</g>
	<g>
		<polygon class="st0" points="1144.8,614.4 1163.4,614.4 1163.4,655 1144.8,644.8 		"/>
		<path class="st1" d="M1163.6,655.4l-19-10.5v-30.7h19V655.4z M1145,644.6l18.2,10.1v-40.1H1145V644.6z"/>
	</g>
	<g>
		<polygon class="st0" points="1114.8,614.4 1127.2,614.4 1127.2,634.7 1114.8,627.5 		"/>
		<path class="st1" d="M1127.4,635l-12.8-7.4v-13.4h12.8V635z M1115,627.4l12,7v-19.8h-12V627.4z"/>
	</g>
	<g>
		<rect x="1127.2" y="614.4" class="st0" width="8.5" height="20.3"/>
		<path class="st1" d="M1135.8,634.9h-8.9v-20.7h8.9V634.9z M1127.4,634.5h8.1v-19.9h-8.1V634.5z"/>
	</g>
	<g>
		<polygon class="st0" points="1135.7,614.4 1144.8,614.4 1144.8,639.2 1135.7,634.7 		"/>
		<path class="st1" d="M1145,639.6l-9.5-4.8v-20.6h9.5V639.6z M1135.8,634.6l8.7,4.4v-24.4h-8.7V634.6z"/>
	</g>
	<g>
		<rect x="658.5" y="614.4" class="st0" width="100" height="40.7"/>
		<path class="st1" d="M758.7,655.2H658.3v-41h100.4V655.2z M658.7,654.8h99.6v-40.3h-99.6V654.8z"/>
	</g>
	<g>
		<polygon class="st0" points="777.1,614.4 758.5,614.4 758.5,655 777.1,644.8 		"/>
		<path class="st1" d="M758.3,655.4v-41.2h19v30.7L758.3,655.4z M758.7,614.6v40.1l18.2-10.1v-30.1L758.7,614.6L758.7,614.6z"/>
	</g>
	<g>
		<polygon class="st0" points="807,614.4 794.7,614.4 794.7,634.7 807,627.5 		"/>
		<path class="st1" d="M794.5,635v-21h12.8v13.4L794.5,635z M794.9,614.6v19.8l12-7v-12.8H794.9z"/>
	</g>
	<g>
		<rect x="786.2" y="614.4" class="st0" width="8.5" height="20.3"/>
		<path class="st1" d="M794.9,634.9H786v-20.7h8.9V634.9z M786.4,634.5h8.1v-19.9h-8.1V634.5z"/>
	</g>
	<g>
		<polygon class="st0" points="786.2,614.4 777.1,614.4 777.1,639.2 786.2,634.7 		"/>
		<path class="st1" d="M776.9,639.6v-25.4h9.5v20.6l-0.1,0.1L776.9,639.6z M777.3,614.6V639l8.7-4.4v-20H777.3z"/>
	</g>
	<g>
		<rect x="1163.4" y="560.3" class="st0" width="100" height="44.4"/>
		<path class="st1" d="M1263.6,604.9h-100.4v-44.8h100.4V604.9z M1163.6,604.5h99.6v-44h-99.6V604.5z"/>
	</g>
	<g>
		<polygon class="st0" points="1144.8,560.2 1163.4,560.2 1163.4,604.7 1144.8,598.9 		"/>
		<path class="st1" d="M1163.6,605l-19-6v-39h19V605z M1145,598.7l18.2,5.7v-43.9H1145V598.7z"/>
	</g>
	<g>
		<polygon class="st0" points="1114.8,560.2 1127.2,560.2 1127.2,593.2 1114.8,589.4 		"/>
		<path class="st1" d="M1127.4,593.5l-12.8-3.9v-29.4h12.8V593.5z M1115,589.2l12,3.7v-32.4h-12V589.2z"/>
	</g>
	<g>
		<rect x="1127.2" y="560.2" class="st0" width="8.5" height="32.9"/>
		<path class="st1" d="M1135.8,593.4h-8.9v-33.3h8.9V593.4z M1127.4,593h8.1v-32.5h-8.1V593z"/>
	</g>
	<g>
		<polygon class="st0" points="1135.7,560.2 1144.8,560.2 1144.8,596.8 1135.7,593.2 		"/>
		<path class="st1" d="M1145,597.1l-9.5-3.7v-33.2h9.5V597.1z M1135.8,593.1l8.7,3.4v-36h-8.7V593.1z"/>
	</g>
	<g>
		<rect x="658.5" y="560.2" class="st0" width="100" height="44.4"/>
		<path class="st1" d="M758.7,604.9H658.3v-44.8h100.4V604.9z M658.7,604.5h99.6v-44h-99.6V604.5z"/>
	</g>
	<g>
		<polygon class="st0" points="777.1,560.2 758.5,560.2 758.5,604.7 777.1,598.9 		"/>
		<path class="st1" d="M758.3,605v-44.8h19v38.9h-0.1L758.3,605z M758.7,560.5v43.9l18.2-5.7v-38.2H758.7z"/>
	</g>
	<g>
		<polygon class="st0" points="807,560.2 794.7,560.2 794.7,593.2 807,589.4 		"/>
		<path class="st1" d="M794.5,593.5v-33.3h12.8v29.4L794.5,593.5z M794.9,560.5v32.4l12-3.7v-28.7H794.9z"/>
	</g>
	<g>
		<rect x="786.2" y="560.2" class="st0" width="8.5" height="32.9"/>
		<path class="st1" d="M794.9,593.4H786v-33.3h8.9V593.4z M786.4,593h8.1v-32.5h-8.1V593z"/>
	</g>
	<g>
		<polygon class="st0" points="786.2,560.2 777.1,560.2 777.1,596.8 786.2,593.2 		"/>
		<path class="st1" d="M776.9,597.1v-36.9h9.5v33.2L776.9,597.1z M777.3,560.5v36l8.7-3.4v-32.6H777.3z"/>
	</g>
	<g>
		<rect x="1163.4" y="458.4" class="st0" width="100" height="42.7"/>
		<path class="st1" d="M1263.6,501.4h-100.4v-43.1h100.4V501.4z M1163.6,501h99.6v-42.3h-99.6V501z"/>
	</g>
	<g>
		<polygon class="st0" points="1144.8,501.2 1163.4,501.2 1163.4,458.5 1144.8,466.4 		"/>
		<path class="st1" d="M1163.6,501.4h-19v-35.1l19-8.1V501.4z M1145,501h18.2v-42.2l-18.2,7.7V501z"/>
	</g>
	<g>
		<polygon class="st0" points="1114.8,501.2 1127.2,501.2 1127.2,473.7 1114.8,479.2 		"/>
		<path class="st1" d="M1127.4,501.4h-12.8v-22.2l0.1-0.1l12.6-5.6v27.9L1127.4,501.4L1127.4,501.4z M1115,501h12v-27l-12,5.3V501z"
			/>
	</g>
	<g>
		<rect x="1127.2" y="473.7" class="st0" width="8.5" height="27.4"/>
		<path class="st1" d="M1135.8,501.4h-8.9v-27.8h8.9V501.4z M1127.4,501h8.1v-27.1h-8.1V501z"/>
	</g>
	<g>
		<polygon class="st0" points="1135.7,501.2 1144.8,501.2 1144.8,468.5 1135.7,473.7 		"/>
		<path class="st1" d="M1145,501.4h-9.5v-27.7l9.5-5.5V501.4z M1135.8,501h8.7v-32.2l-8.7,5V501z"/>
	</g>
	<g>
		<rect x="658.5" y="458.5" class="st0" width="100" height="42.7"/>
		<path class="st1" d="M758.7,501.4H658.3v-43.1h100.4V501.4z M658.7,501h99.6v-42.3h-99.6V501z"/>
	</g>
	<g>
		<polygon class="st0" points="777.1,501.2 758.5,501.2 758.5,458.5 777.1,466.4 		"/>
		<path class="st1" d="M777.3,501.4h-19v-43.2l19,8.1V501.4z M758.7,501h18.2v-34.5l-18.2-7.7V501z"/>
	</g>
	<g>
		<polygon class="st0" points="807,501.2 794.7,501.2 794.7,473.7 807,479.2 		"/>
		<path class="st1" d="M807.2,501.4h-12.8v-27.9l12.8,5.7V501.4z M794.9,501h12v-21.6l-12-5.3V501z"/>
	</g>
	<g>
		<rect x="786.2" y="473.7" class="st0" width="8.5" height="27.4"/>
		<path class="st1" d="M794.9,501.4H786v-27.8h8.9V501.4z M786.4,501h8.1v-27.1h-8.1V501z"/>
	</g>
	<g>
		<polygon class="st0" points="786.2,501.2 777.1,501.2 777.1,468.5 786.2,473.7 		"/>
		<path class="st1" d="M786.4,501.4h-9.5v-33.2l9.5,5.5V501.4z M777.3,501h8.7v-27.1l-8.7-5V501z"/>
	</g>
	<g>
		<rect x="1163.4" y="407.6" class="st0" width="100" height="40.6"/>
		<path class="st1" d="M1263.6,448.5h-100.4v-41h100.4V448.5z M1163.6,448h99.6v-40.2h-99.6V448z"/>
	</g>
	<g>
		<polygon class="st0" points="1144.8,448.2 1163.4,448.2 1163.4,407.7 1144.8,420.7 		"/>
		<path class="st1" d="M1163.6,448.5h-19v-27.9l0.1-0.1l18.9-13.2V448.5z M1145,448h18.2v-40l-18.2,12.7V448z"/>
	</g>
	<g>
		<polygon class="st0" points="1114.8,448.2 1127.2,448.2 1127.2,431.7 1114.8,440.7 		"/>
		<path class="st1" d="M1127.4,448.5h-12.8v-7.9l0.1-0.1l12.7-9.1L1127.4,448.5L1127.4,448.5z M1115,448h12v-16l-12,8.6V448z"/>
	</g>
	<g>
		<rect x="1127.2" y="431.7" class="st0" width="8.5" height="16.6"/>
		<path class="st1" d="M1135.8,448.5h-8.9v-16.9h8.9V448.5z M1127.4,448h8.1v-16.2h-8.1V448z"/>
	</g>
	<g>
		<polygon class="st0" points="1135.7,448.2 1144.8,448.2 1144.8,424.4 1135.7,431.7 		"/>
		<path class="st1" d="M1145,448.5h-9.5v-16.8l0.1-0.1l9.4-7.6V448.5z M1135.8,448h8.7v-23.3l-8.7,7V448z"/>
	</g>
	<g>
		<rect x="658.5" y="407.7" class="st0" width="100" height="40.6"/>
		<path class="st1" d="M758.7,448.5H658.3v-41h100.4V448.5z M658.7,448h99.6v-40.2h-99.6V448z"/>
	</g>
	<g>
		<polygon class="st0" points="777.1,448.2 758.5,448.2 758.5,407.7 777.1,420.7 		"/>
		<path class="st1" d="M777.3,448.5h-19v-41.2l19,13.3V448.5z M758.7,448h18.2v-27.3L758.7,408V448z"/>
	</g>
	<g>
		<polygon class="st0" points="807,448.2 794.7,448.2 794.7,431.7 807,440.7 		"/>
		<path class="st1" d="M807.2,448.5h-12.8v-17.1l12.8,9.2V448.5z M794.9,448h12v-7.4l-12-8.6V448z"/>
	</g>
	<g>
		<rect x="786.2" y="431.7" class="st0" width="8.5" height="16.6"/>
		<path class="st1" d="M794.9,448.5H786v-16.9h8.9V448.5z M786.4,448h8.1v-16.2h-8.1V448z"/>
	</g>
	<g>
		<polygon class="st0" points="786.2,448.2 777.1,448.2 777.1,424.4 786.2,431.7 		"/>
		<path class="st1" d="M786.4,448.5h-9.5V424l9.5,7.6V448.5z M777.3,448h8.7v-16.3l-8.7-7V448z"/>
	</g>
	<g>
		<rect x="1163.4" y="509.2" class="st0" width="100" height="45.1"/>
		<path class="st1" d="M1263.6,554.5h-100.4V509h100.4V554.5z M1163.6,554.2h99.6v-44.7h-99.6V554.2z"/>
	</g>
	<g>
		<polygon class="st0" points="1144.8,512.7 1163.4,509.2 1163.4,554.2 1144.8,552.6 		"/>
		<path class="st1" d="M1163.6,554.6h-0.2l-18.8-1.8v-40.2l19-3.5V554.6z M1145,552.4l18.2,1.7v-44.6l-18.2,3.3V552.4z"/>
	</g>
	<g>
		<polygon class="st0" points="1114.8,517.5 1127.2,515.1 1127.2,552 1114.8,550.7 		"/>
		<path class="st1" d="M1127.4,552.2l-12.8-1.4v-33.6h0.2l12.6-2.4L1127.4,552.2L1127.4,552.2z M1115,550.5l12,1.3v-36.5l-12,2.3
			V550.5z"/>
	</g>
	<g>
		<rect x="1127.2" y="515.1" class="st0" width="8.5" height="37"/>
		<path class="st1" d="M1135.8,552.2h-8.9v-37.3h8.9V552.2z M1127.4,551.8h8.1v-36.6h-8.1V551.8z"/>
	</g>
	<g>
		<polygon class="st0" points="1135.7,515.1 1144.8,512.7 1144.8,552.6 1135.7,552 		"/>
		<path class="st1" d="M1145,552.8l-9.5-0.6v-37.3h0.1l9.4-2.4V552.8z M1135.8,551.9l8.7,0.5V513l-8.7,2.3V551.9z"/>
	</g>
	<g>
		<rect x="658.5" y="509.2" class="st0" width="100" height="45.1"/>
		<path class="st1" d="M758.7,554.5H658.3V509h100.4V554.5z M658.7,554.2h99.6v-44.7h-99.6V554.2z"/>
	</g>
	<g>
		<polygon class="st0" points="777.1,512.7 758.5,509.2 758.5,554.2 777.1,552.6 		"/>
		<path class="st1" d="M758.3,554.6v-45.5l19,3.5v40.2h-0.2L758.3,554.6z M758.7,509.5V554l18.2-1.7v-39.5L758.7,509.5z"/>
	</g>
	<g>
		<polygon class="st0" points="807,517.5 794.7,515.1 794.7,552 807,550.6 		"/>
		<path class="st1" d="M794.5,552.2v-37.4l12.8,2.5v33.5L794.5,552.2z M794.9,515.2v36.5l12-1.4v-32.8L794.9,515.2z"/>
	</g>
	<g>
		<rect x="786.2" y="515.1" class="st0" width="8.5" height="37"/>
		<path class="st1" d="M794.9,552.2H786v-37.3h8.9V552.2z M786.4,551.8h8.1v-36.6h-8.1V551.8z"/>
	</g>
	<g>
		<polygon class="st0" points="786.2,515.1 777.1,512.7 777.1,552.6 786.2,552 		"/>
		<path class="st1" d="M776.9,552.8v-40.3l9.5,2.5v37.3L776.9,552.8z M777.3,512.9v39.4l8.7-0.5v-36.6L777.3,512.9z"/>
	</g>
	<g>
		<rect x="465" y="661.5" class="st0" width="990.3" height="6"/>
		<path class="st1" d="M1455.6,667.8h-991v-6.6h991V667.8z M465.3,667.2H1455v-5.3H465.3V667.2z"/>
	</g>
	<g>
		<rect x="641.4" y="608.4" class="st0" width="638.1" height="6"/>
		<path class="st1" d="M1279.8,614.7H641.1v-6.6h638.7V614.7z M641.7,614h637.4v-5.3H641.7V614z"/>
	</g>
	<g>
		<rect x="465" y="554.4" class="st0" width="990.3" height="6"/>
		<path class="st1" d="M1455.6,560.7h-991v-6.6h991V560.7z M465.3,560H1455v-5.3H465.3V560z"/>
	</g>
	<g>
		<rect x="465" y="501.4" class="st0" width="990.3" height="6"/>
		<path class="st1" d="M1455.6,507.7h-991V501h991V507.7z M465.3,507H1455v-5.3H465.3V507z"/>
	</g>
	<g>
		<rect x="465" y="448.4" class="st0" width="990.3" height="6"/>
		<path class="st1" d="M1455.6,454.7h-991V448h991V454.7z M465.3,454H1455v-5.3H465.3V454z"/>
	</g>
	<g>
		<rect x="465" y="393.4" class="st0" width="990.3" height="6"/>
		<path class="st1" d="M1455.6,399.7h-991V393h991V399.7z M465.3,399H1455v-5.3H465.3V399z"/>
	</g>
	<g>
		<rect x="520.6" y="349.2" class="st0" width="879.1" height="6"/>
		<path class="st1" d="M1400,355.5H520.2v-6.6H1400V355.5z M520.9,354.9h878.4v-5.3H520.9V354.9z"/>
	</g>
	<g>
		<rect x="465" y="730.7" class="st0" width="990.3" height="6"/>
		<path class="st1" d="M1455.6,737h-991v-6.6h991V737z M465.3,736.4H1455v-5.3H465.3V736.4z"/>
	</g>
	<rect x="1455" y="399.4" class="st1" width="0.7" height="331.4"/>
	<rect x="464.6" y="399.4" class="st1" width="0.7" height="331.4"/>
	<g>
		<rect x="565.2" y="667.5" class="st0" width="81.4" height="63.2"/>
		<path class="st1" d="M646.9,731.1h-82v-63.9h82V731.1z M565.5,730.4h80.7v-62.6h-80.7V730.4z"/>
	</g>
	<rect x="566.9" y="667.5" class="st1" width="0.3" height="63.2"/>
	<rect x="644.5" y="667.5" class="st1" width="0.3" height="63.2"/>
	<rect x="567.2" y="671" class="st1" width="77.4" height="0.5"/>
	<rect x="582.9" y="671.5" class="st1" width="0.3" height="59.3"/>
	<rect x="598.5" y="671.5" class="st1" width="0.3" height="59.3"/>
	<rect x="614.1" y="671.5" class="st1" width="0.3" height="26.1"/>
	<rect x="629.4" y="671.5" class="st1" width="0.3" height="59.3"/>
	<rect x="567.1" y="715.1" class="st1" width="16.1" height="0.3"/>
	<rect x="629.4" y="715.1" class="st1" width="15.3" height="0.3"/>
	<rect x="583.1" y="697.4" class="st1" width="46.4" height="0.3"/>
	<rect x="567.1" y="680.2" class="st1" width="77.5" height="0.3"/>
	<path class="st1" d="M628.7,730.8h-1.2v-31.6h1.2V730.8z M627.7,730.6h0.8v-31.2h-0.8V730.6z"/>
	<path class="st1" d="M601.1,730.8h-1.2v-31.6h1.2V730.8z M600,730.6h0.8v-31.2H600V730.6z"/>
	<rect x="601" y="727.4" class="st1" width="26.8" height="0.2"/>
	<rect x="601" y="700.2" class="st1" width="26.8" height="0.2"/>
	<rect x="601" y="699.2" class="st1" width="26.8" height="0.2"/>
	<g>
		<rect x="612.1" y="699.2" class="st0" width="2.2" height="31.4"/>
		<path class="st1" d="M614.5,730.8H612V699h2.5V730.8z M612.2,730.5h2v-31.1h-2V730.5z"/>
	</g>
	<rect x="613.2" y="699.2" class="st1" width="0.2" height="31.1"/>
	<g>
		<rect x="1274.8" y="667.5" class="st0" width="81.4" height="63.2"/>
		<path class="st1" d="M1356.4,731.1h-82v-63.9h82V731.1z M1275.1,730.4h80.7v-62.6h-80.7V730.4z"/>
	</g>
	<rect x="1354.1" y="667.5" class="st1" width="0.3" height="63.2"/>
	<rect x="1276.5" y="667.5" class="st1" width="0.3" height="63.2"/>
	<rect x="1276.8" y="671" class="st1" width="77.4" height="0.5"/>
	<rect x="1338.1" y="671.5" class="st1" width="0.3" height="59.3"/>
	<rect x="1322.5" y="671.5" class="st1" width="0.3" height="59.3"/>
	<rect x="1306.9" y="671.5" class="st1" width="0.3" height="26.1"/>
	<rect x="1291.6" y="671.5" class="st1" width="0.3" height="59.3"/>
	<rect x="1338.1" y="715.1" class="st1" width="16.1" height="0.3"/>
	<rect x="1276.6" y="715.1" class="st1" width="15.3" height="0.3"/>
	<rect x="1291.8" y="697.4" class="st1" width="46.4" height="0.3"/>
	<rect x="1276.7" y="680.2" class="st1" width="77.5" height="0.3"/>
	<path class="st1" d="M1293.7,730.8h-1.2v-31.6h1.2V730.8z M1292.7,730.6h0.8v-31.2h-0.8V730.6z"/>
	<path class="st1" d="M1321.4,730.8h-1.2v-31.6h1.2V730.8z M1320.4,730.6h0.8v-31.2h-0.8V730.6z"/>
	<rect x="1293.6" y="727.4" class="st1" width="26.8" height="0.2"/>
	<rect x="1293.6" y="700.2" class="st1" width="26.8" height="0.2"/>
	<rect x="1293.6" y="699.2" class="st1" width="26.8" height="0.2"/>
	<g>
		<rect x="1307" y="699.2" class="st0" width="2.2" height="31.4"/>
		<path class="st1" d="M1309.3,730.8h-2.5V699h2.5V730.8z M1307.1,730.5h2v-31.1h-2V730.5z"/>
	</g>
	<rect x="1307.9" y="699.2" class="st1" width="0.2" height="31.1"/>
	<rect x="522.2" y="355.5" class="st1" width="0.3" height="37.9"/>
	<rect x="533.8" y="355.5" class="st1" width="0.3" height="37.9"/>
	<rect x="548.2" y="355.8" class="st1" width="0.3" height="37.6"/>
	<rect x="562.5" y="355.5" class="st1" width="0.3" height="37.9"/>
	<rect x="568.8" y="355.5" class="st1" width="0.3" height="37.9"/>
	<rect x="548.2" y="355.5" class="st1" width="0.3" height="37.9"/>
	<rect x="649.7" y="355.5" class="st1" width="0.3" height="37.9"/>
	<rect x="656.9" y="355.5" class="st1" width="0.3" height="37.9"/>
	<rect x="737" y="355.5" class="st1" width="0.3" height="37.9"/>
	<rect x="744.1" y="355.5" class="st1" width="0.3" height="37.9"/>
	<rect x="824.7" y="355.5" class="st1" width="0.3" height="37.9"/>
	<rect x="833.2" y="355.5" class="st1" width="0.3" height="37.9"/>
	<rect x="1089.2" y="355.5" class="st1" width="0.3" height="37.9"/>
	<rect x="1098" y="355.5" class="st1" width="0.3" height="37.9"/>
	<rect x="1185.1" y="355.5" class="st1" width="0.3" height="37.9"/>
	<rect x="1176.6" y="355.5" class="st1" width="0.3" height="37.9"/>
	<rect x="1265" y="355.5" class="st1" width="0.3" height="37.9"/>
	<rect x="1271.4" y="355.5" class="st1" width="0.3" height="37.9"/>
	<rect x="1352.9" y="355.5" class="st1" width="0.3" height="37.9"/>
	<rect x="1358.6" y="355.5" class="st1" width="0.3" height="37.9"/>
	<rect x="1372.4" y="355.5" class="st1" width="0.3" height="37.9"/>
	<rect x="1387.1" y="355.5" class="st1" width="0.3" height="37.9"/>
	<rect x="1396.7" y="355.5" class="st1" width="0.3" height="37.9"/>
	<rect x="910.2" y="355.5" class="st1" width="0.3" height="37.9"/>
	<rect x="922.4" y="355.5" class="st1" width="0.3" height="37.9"/>
	<rect x="998.5" y="355.5" class="st1" width="0.3" height="37.9"/>
	<rect x="1010.7" y="355.5" class="st1" width="0.3" height="37.9"/>
	<polygon class="st1" points="1398.3,349 1398.1,349 1398.1,343.4 522.9,343.4 522.9,348.2 522.7,348.2 522.7,343 1398.3,343 	"/>
	<rect x="1357.2" y="343" class="st1" width="0.3" height="6"/>
	<rect x="1345.7" y="343" class="st1" width="0.3" height="6"/>
	<rect x="1270.6" y="343" class="st1" width="0.3" height="6"/>
	<rect x="1183.9" y="343" class="st1" width="0.3" height="6"/>
	<rect x="1097" y="343" class="st1" width="0.3" height="6"/>
	<rect x="1010.3" y="343" class="st1" width="0.3" height="6"/>
	<rect x="923.4" y="343" class="st1" width="0.3" height="6"/>
	<rect x="836.4" y="343" class="st1" width="0.3" height="6"/>
	<rect x="749.5" y="343" class="st1" width="0.3" height="6"/>
	<rect x="662.1" y="343" class="st1" width="0.3" height="6"/>
	<rect x="575.2" y="343" class="st1" width="0.3" height="6"/>
	<rect x="563.6" y="343" class="st1" width="0.3" height="6"/>
	<rect x="650.7" y="343" class="st1" width="0.3" height="6"/>
	<rect x="737.8" y="343" class="st1" width="0.3" height="6"/>
	<rect x="824.7" y="343" class="st1" width="0.3" height="6"/>
	<rect x="911.8" y="343" class="st1" width="0.3" height="6"/>
	<rect x="1085.6" y="343" class="st1" width="0.3" height="6"/>
	<rect x="998.8" y="343" class="st1" width="0.3" height="6"/>
	<rect x="1172.3" y="343" class="st1" width="0.3" height="6"/>
	<rect x="1259.2" y="343" class="st1" width="0.3" height="6"/>
	<rect x="522.4" y="362.7" class="st1" width="40.2" height="0.3"/>
	<rect x="568.9" y="362.7" class="st1" width="81" height="0.3"/>
	<rect x="575.3" y="362.8" class="st1" width="0.3" height="30.6"/>
	<rect x="590.3" y="362.8" class="st1" width="0.3" height="30.6"/>
	<rect x="605.4" y="362.8" class="st1" width="0.3" height="30.6"/>
	<rect x="620.9" y="362.8" class="st1" width="0.3" height="30.6"/>
	<rect x="635.5" y="362.8" class="st1" width="0.3" height="30.6"/>
	<rect x="657.1" y="362.7" class="st1" width="80" height="0.3"/>
	<rect x="662.4" y="362.8" class="st1" width="0.3" height="30.6"/>
	<rect x="677.4" y="362.8" class="st1" width="0.3" height="30.6"/>
	<rect x="692.6" y="362.8" class="st1" width="0.3" height="30.6"/>
	<rect x="708.1" y="362.8" class="st1" width="0.3" height="30.6"/>
	<rect x="722.6" y="362.8" class="st1" width="0.3" height="30.6"/>
	<rect x="744.2" y="362.7" class="st1" width="80.6" height="0.3"/>
	<rect x="749.5" y="362.8" class="st1" width="0.3" height="30.6"/>
	<rect x="764.5" y="362.8" class="st1" width="0.3" height="30.6"/>
	<rect x="779.7" y="362.8" class="st1" width="0.3" height="30.6"/>
	<rect x="795.1" y="362.8" class="st1" width="0.3" height="30.6"/>
	<rect x="809.7" y="362.8" class="st1" width="0.3" height="30.6"/>
	<rect x="833.4" y="362.7" class="st1" width="77.2" height="0.3"/>
	<rect x="838.7" y="362.8" class="st1" width="0.3" height="30.6"/>
	<rect x="852" y="362.8" class="st1" width="0.3" height="30.6"/>
	<rect x="866.8" y="362.8" class="st1" width="0.3" height="30.6"/>
	<rect x="882.2" y="362.8" class="st1" width="0.3" height="30.6"/>
	<rect x="897.2" y="362.8" class="st1" width="0.3" height="30.6"/>
	<rect x="922.7" y="362.7" class="st1" width="76" height="0.3"/>
	<rect x="1011" y="362.7" class="st1" width="78.4" height="0.3"/>
	<rect x="1098.1" y="362.7" class="st1" width="78.4" height="0.3"/>
	<rect x="1185.1" y="362.7" class="st1" width="80" height="0.3"/>
	<rect x="1024.9" y="362.8" class="st1" width="0.3" height="30.6"/>
	<rect x="1040.1" y="362.8" class="st1" width="0.3" height="30.6"/>
	<rect x="1055.2" y="362.8" class="st1" width="0.3" height="30.6"/>
	<rect x="1070.2" y="362.8" class="st1" width="0.3" height="30.6"/>
	<rect x="1112.1" y="362.8" class="st1" width="0.3" height="30.6"/>
	<rect x="1127.2" y="362.8" class="st1" width="0.3" height="30.6"/>
	<rect x="1142" y="362.8" class="st1" width="0.3" height="30.6"/>
	<rect x="1157" y="362.8" class="st1" width="0.3" height="30.6"/>
	<rect x="1171.9" y="362.8" class="st1" width="0.3" height="30.6"/>
	<rect x="1198.6" y="362.8" class="st1" width="0.3" height="30.6"/>
	<rect x="1213.7" y="362.8" class="st1" width="0.3" height="30.6"/>
	<rect x="1228.8" y="362.8" class="st1" width="0.3" height="30.6"/>
	<rect x="1244" y="362.8" class="st1" width="0.3" height="30.6"/>
	<rect x="1259" y="362.8" class="st1" width="0.3" height="30.6"/>
	<rect x="1285.8" y="362.8" class="st1" width="0.3" height="30.6"/>
	<rect x="1299.9" y="362.8" class="st1" width="0.3" height="30.6"/>
	<rect x="1315.2" y="362.8" class="st1" width="0.3" height="30.6"/>
	<rect x="1330.2" y="362.8" class="st1" width="0.3" height="30.6"/>
	<rect x="1345.6" y="362.8" class="st1" width="0.3" height="30.6"/>
	<rect x="938.4" y="362.8" class="st1" width="0.3" height="30.6"/>
	<rect x="953.5" y="362.8" class="st1" width="0.3" height="30.6"/>
	<rect x="968.5" y="362.8" class="st1" width="0.3" height="30.6"/>
	<rect x="983.6" y="362.8" class="st1" width="0.3" height="30.6"/>
	<rect x="1271.5" y="362.7" class="st1" width="81.4" height="0.3"/>
	<rect x="1358.7" y="362.7" class="st1" width="38.1" height="0.3"/>
	<polygon class="st1" points="522.3,393.5 469.7,375.2 469.7,393.4 469.4,393.4 469.4,374.9 469.6,375 522.4,393.2 	"/>
	<rect x="478.1" y="378" class="st1" width="0.3" height="15"/>
	<rect x="490.1" y="382.2" class="st1" width="0.3" height="11"/>
	<rect x="501.4" y="386" class="st1" width="0.3" height="7.1"/>
	<rect x="512.3" y="389.8" class="st1" width="0.3" height="3.4"/>
	<polygon class="st1" points="1398.3,393.5 1398.2,393.2 1451.2,374.9 1451.2,393.4 1450.9,393.4 1450.9,375.2 	"/>
	<rect x="1442.2" y="378" class="st1" width="0.3" height="15"/>
	<rect x="1430.2" y="382.2" class="st1" width="0.3" height="11"/>
	<rect x="1418.9" y="386" class="st1" width="0.3" height="7.1"/>
	<rect x="1408.1" y="389.8" class="st1" width="0.3" height="3.4"/>
</g>
</svg>
