<?xml version="1.0" encoding="utf-8"?>
<!-- Generator: Adobe Illustrator 26.2.1, SVG Export Plug-In . SVG Version: 6.00 Build 0)  -->
<svg version="1.1" xmlns="http://www.w3.org/2000/svg" xmlns:xlink="http://www.w3.org/1999/xlink" x="0px" y="0px"
	 viewBox="0 0 1920 780" style="enable-background:new 0 0 1920 780;" xml:space="preserve">
<style type="text/css">
	.st0{fill:#E4F1FD;stroke:#000000;stroke-width:0.8498;stroke-miterlimit:10;}
	.st1{opacity:0.6;fill:#FFFFFF;}
	.st2{fill:#FFFFFF;}
	.st3{fill:#2E2015;}
</style>
<g id="Layer_2">
	<rect class="st0" width="1920" height="780"/>
</g>
<g id="Layer_1">
	<rect x="118.9" y="24.4" class="st1" width="1679.5" height="83.2"/>
	<rect x="196.5" y="34.6" class="st2" width="11.3" height="72.8"/>
	<rect x="363.8" y="34.6" class="st2" width="13.5" height="72.8"/>
	<rect x="531.7" y="34.6" class="st2" width="13.5" height="72.8"/>
	<rect x="699.7" y="34.6" class="st2" width="16.1" height="72.8"/>
	<rect x="863.6" y="34.6" class="st2" width="23.7" height="72.8"/>
	<rect x="1033.3" y="34.6" class="st2" width="23.7" height="72.8"/>
	<rect x="1207.4" y="34.6" class="st2" width="17.5" height="72.8"/>
	<rect x="1375.8" y="34.6" class="st2" width="15.7" height="72.8"/>
	<rect x="1545" y="34.6" class="st2" width="12.3" height="72.8"/>
	<rect x="1714.2" y="34.6" class="st2" width="10.4" height="72.8"/>
	<rect x="347.2" y="427.9" class="st2" width="33" height="94.7"/>
	<rect x="1539.4" y="427.9" class="st2" width="33" height="92.9"/>
	<g id="m">
	</g>
	<polygon class="st2" points="7.9,119.1 308.5,207 1605.5,207 1909.8,119.1 	"/>
	<polyline class="st2" points="8.7,622.2 308.5,549.6 1608.4,549.6 1910.4,622.2 	"/>
	<polygon class="st2" points="8.7,755.5 308.5,642.2 1608.4,642.2 1910.4,755.5 	"/>
	<polygon class="st3" points="1910.2,622.6 1608.2,550.2 308.5,550.2 8.7,622.6 8.5,621.8 308.5,549.2 1608.4,549.2 1910.4,621.8 	
		"/>
	<rect x="792.4" y="206.8" class="st3" width="0.4" height="433.8"/>
	<rect x="812.6" y="206.8" class="st3" width="0.4" height="433.8"/>
	<rect x="674.7" y="206.8" class="st3" width="0.4" height="433.8"/>
	<rect x="695.2" y="206.8" class="st3" width="0.4" height="433.8"/>
	<rect x="714.4" y="206.8" class="st3" width="0.4" height="433.8"/>
	<rect x="1126.7" y="206.8" class="st3" width="0.4" height="433.8"/>
	<rect x="1223.1" y="206.8" class="st3" width="0.4" height="433.8"/>
	<rect x="1243.5" y="206.8" class="st3" width="0.4" height="433.8"/>
	<rect x="342.6" y="206.8" class="st3" width="0.4" height="433.8"/>
	<rect x="792.6" y="389.3" class="st3" width="22.5" height="0.4"/>
	<rect x="674.5" y="389.3" class="st3" width="56.5" height="0.4"/>
	<rect x="792.6" y="459.6" class="st3" width="22.5" height="0.4"/>
	<rect x="674.5" y="459.6" class="st3" width="56.5" height="0.4"/>
	<rect x="1148.6" y="389.3" class="st3" width="94.5" height="0.4"/>
	<rect x="1107.3" y="389.3" class="st3" width="19.6" height="0.4"/>
	<rect x="1148.6" y="459.4" class="st3" width="94.5" height="0.4"/>
	<rect x="1107.3" y="459.4" class="st3" width="19.6" height="0.4"/>
	<rect x="1204.9" y="436.3" class="st3" width="18.4" height="0.4"/>
	<rect x="1204.9" y="366.8" class="st3" width="18.4" height="0.4"/>
	<rect x="1555.7" y="389.3" class="st3" width="37.1" height="0.4"/>
	<rect x="1554.4" y="366.8" class="st3" width="18.4" height="0.4"/>
	<rect x="1204.9" y="296.3" class="st3" width="18.4" height="0.4"/>
	<rect x="695.2" y="436.3" class="st3" width="19.6" height="0.4"/>
	<rect x="695.8" y="366.8" class="st3" width="19" height="0.4"/>
	<rect x="695.8" y="296.3" class="st3" width="19" height="0.4"/>
	<rect x="832.5" y="634.3" class="st3" width="0.4" height="6.3"/>
	<rect x="852.7" y="634.3" class="st3" width="0.4" height="6.3"/>
	<rect x="872.9" y="634.3" class="st3" width="0.4" height="6.3"/>
	<rect x="908.8" y="634.3" class="st3" width="0.4" height="6.3"/>
	<rect x="928.9" y="634.3" class="st3" width="0.4" height="6.3"/>
	<rect x="1010" y="634.3" class="st3" width="0.4" height="6.3"/>
	<rect x="969.6" y="634.3" class="st3" width="0.4" height="6.3"/>
	<rect x="949.1" y="634.3" class="st3" width="0.4" height="6.3"/>
	<rect x="989.6" y="634.3" class="st3" width="0.4" height="6.3"/>
	<rect x="1066" y="634.3" class="st3" width="0.4" height="6.3"/>
	<rect x="1086" y="634.3" class="st3" width="0.4" height="6.3"/>
	<rect x="1106.2" y="634.3" class="st3" width="0.4" height="6.3"/>
	<rect x="1554.4" y="296.7" class="st3" width="18.4" height="0.4"/>
	<rect x="1572.8" y="459.4" class="st3" width="12.1" height="0.4"/>
	<rect x="1572.8" y="529.3" class="st3" width="12.1" height="0.4"/>
	<rect x="26.2" y="124.5" class="st3" width="0.4" height="623.3"/>
	<rect x="37.5" y="127.7" class="st3" width="0.4" height="616.4"/>
	<rect x="50.6" y="131.6" class="st3" width="0.4" height="607.8"/>
	<rect x="61.1" y="134.8" class="st3" width="0.4" height="600.5"/>
	<rect x="101.6" y="146.4" class="st3" width="0.4" height="573.6"/>
	<rect x="92.2" y="143.5" class="st3" width="0.4" height="579.9"/>
	<rect x="113" y="149.6" class="st3" width="0.4" height="566.1"/>
	<rect x="122.4" y="152.3" class="st3" width="0.4" height="559.8"/>
	<rect x="149.5" y="160" class="st3" width="0.4" height="541.7"/>
	<rect x="158.9" y="162.9" class="st3" width="0.4" height="535.4"/>
	<rect x="167.7" y="165.4" class="st3" width="0.4" height="529.6"/>
	<rect x="176.7" y="168.4" class="st3" width="0.4" height="523.3"/>
	<rect x="207.1" y="177.1" class="st3" width="0.4" height="397.1"/>
	<rect x="215.1" y="179" class="st3" width="0.4" height="393.7"/>
	<rect x="223" y="181.3" class="st3" width="0.4" height="389.4"/>
	<rect x="251" y="189.4" class="st3" width="0.4" height="374.5"/>
	<rect x="258.1" y="191.9" class="st3" width="0.4" height="370.2"/>
	<rect x="265.1" y="193.8" class="st3" width="0.4" height="367.2"/>
	<rect x="302.5" y="204.3" class="st3" width="0.4" height="347.6"/>
	<rect x="345.7" y="206.7" class="st3" width="0.4" height="343.2"/>
	<polygon class="st3" points="8.5,728.8 8.3,728.4 189.6,663.7 189.8,664.1 	"/>
	<polygon class="st3" points="8.5,661.4 8.3,661 113.5,632 113.5,632.4 	"/>
	<polygon class="st3" points="8.5,593.2 8.3,592.8 314.2,530.4 314.2,530.6 	"/>
	<polygon class="st3" points="8.5,490.5 8.3,490.1 314.2,459.6 314.2,459.8 	"/>
	<rect x="8.5" y="387.4" class="st3" width="305.9" height="0.4"/>
	<polygon class="st3" points="283.3,316.3 8.3,284.4 8.5,284.2 283.3,316.1 	"/>
	<polygon class="st3" points="173.5,217 8.3,181.1 8.5,180.9 173.6,216.8 	"/>
	<polygon class="st3" points="37.7,154.6 26.5,151.7 26.5,151.3 37.7,154.2 	"/>
	<polygon class="st3" points="61.1,160.6 50.6,157.9 50.7,157.7 61.1,160.4 	"/>
	<polygon class="st3" points="101.8,171.3 92.4,168.8 92.4,168.4 101.8,170.9 	"/>
	<polygon class="st3" points="122.4,176.5 113,174.2 113.2,173.8 122.6,176.3 	"/>
	<polygon class="st3" points="158.9,186.1 149.6,183.6 149.6,183.4 158.9,185.7 	"/>
	<polygon class="st3" points="176.7,190.7 167.9,188.4 167.9,188 176.7,190.3 	"/>
	<polygon class="st3" points="207.3,198.6 189,194 189.2,193.6 207.3,198.4 	"/>
	<polygon class="st3" points="223,202.8 215.1,200.7 215.3,200.3 223.2,202.4 	"/>
	<polygon class="st3" points="251,209.9 238.6,206.7 238.6,206.5 251.2,209.7 	"/>
	
		<rect x="32" y="248.2" transform="matrix(0.1481 -0.989 0.989 0.1481 -223.6169 248.1224)" class="st3" width="0.4" height="11.3"/>
	
		<rect x="55.9" y="252.1" transform="matrix(0.1481 -0.989 0.989 0.1481 -206.8786 274.8329)" class="st3" width="0.4" height="10.8"/>
	
		<rect x="97.1" y="258.7" transform="matrix(0.1482 -0.989 0.989 0.1482 -177.7925 320.6799)" class="st3" width="0.4" height="9.6"/>
	<rect x="117.8" y="261.6" transform="matrix(0.148 -0.989 0.989 0.148 -162.957 343.7044)" class="st3" width="0.4" height="9.6"/>
	
		<rect x="154.3" y="267.4" transform="matrix(0.1481 -0.989 0.989 0.1481 -137.5459 384.6222)" class="st3" width="0.4" height="9.4"/>
	<rect x="172.2" y="270.4" transform="matrix(0.1481 -0.989 0.989 0.1481 -124.94 404.689)" class="st3" width="0.4" height="9"/>
	
		<rect x="202.1" y="274.3" transform="matrix(0.1481 -0.989 0.989 0.1481 -103.8267 438.0113)" class="st3" width="0.4" height="10"/>
	<rect x="219" y="277.9" transform="matrix(0.1482 -0.989 0.989 0.1482 -91.9364 456.8498)" class="st3" width="0.4" height="7.9"/>
	
		<rect x="245.6" y="280.3" transform="matrix(0.1481 -0.989 0.989 0.1481 -73.2256 486.4688)" class="st3" width="0.4" height="10.9"/>
	
		<rect x="261.8" y="284.5" transform="matrix(0.1482 -0.989 0.989 0.1482 -61.6748 504.4733)" class="st3" width="0.4" height="7.1"/>
	
		<rect x="288.7" y="278" transform="matrix(0.1481 -0.989 0.989 0.1481 -42.7942 534.6478)" class="st3" width="0.4" height="28.4"/>
	<polygon class="st3" points="37.7,355.9 26.5,355.3 26.5,355.1 37.7,355.5 	"/>
	<polygon class="st3" points="61.1,356.6 50.6,356.2 50.6,356.1 61.1,356.4 	"/>
	<polygon class="st3" points="101.8,358.2 92.4,357.8 92.4,357.6 101.8,357.8 	"/>
	<polygon class="st3" points="122.6,358.9 113.2,358.6 113.2,358.4 122.6,358.6 	"/>
	<polygon class="st3" points="158.9,360.3 149.6,359.9 149.6,359.7 159.1,359.9 	"/>
	<polygon class="st3" points="176.7,361 167.9,360.7 167.9,360.3 176.9,360.7 	"/>
	<polygon class="st3" points="207.3,362.2 187.9,361.4 187.9,361 207.3,361.8 	"/>
	<polygon class="st3" points="223,362.8 215.3,362.4 215.3,362 223,362.4 	"/>
	<polygon class="st3" points="251.2,363.7 233.4,363.2 233.4,362.8 251.2,363.4 	"/>
	<polygon class="st3" points="265.1,364.3 258.1,363.9 258.1,363.7 265.1,363.9 	"/>
	<polygon class="st3" points="302.7,365.7 296.9,365.5 296.9,365.1 302.7,365.3 	"/>
	
		<rect x="26.6" y="455.2" transform="matrix(0.9979 -6.532915e-02 6.532915e-02 0.9979 -29.681 3.0729)" class="st3" width="11.1" height="0.4"/>
	
		<rect x="50.6" y="453.7" transform="matrix(0.9979 -6.532915e-02 6.532915e-02 0.9979 -29.5299 4.6191)" class="st3" width="10.6" height="0.4"/>
	
		<rect x="92.4" y="451" transform="matrix(0.9979 -6.532915e-02 6.532915e-02 0.9979 -29.2661 7.3107)" class="st3" width="9.4" height="0.4"/>
	
		<rect x="113.2" y="449.6" transform="matrix(0.9979 -6.532915e-02 6.532915e-02 0.9979 -29.1338 8.6691)" class="st3" width="9.6" height="0.4"/>
	
		<rect x="149.7" y="447.1" transform="matrix(0.9979 -6.532915e-02 6.532915e-02 0.9979 -28.8929 11.0412)" class="st3" width="9.4" height="0.4"/>
	
		<rect x="167.9" y="446" transform="matrix(0.9979 -6.532915e-02 6.532915e-02 0.9979 -28.7791 12.2181)" class="st3" width="9" height="0.4"/>
	
		<rect x="187.7" y="444.2" transform="matrix(0.9979 -6.532915e-02 6.532915e-02 0.9979 -28.6126 13.8517)" class="st3" width="19.6" height="0.4"/>
	
		<rect x="215.4" y="442.9" transform="matrix(0.9979 -6.532915e-02 6.532915e-02 0.9979 -28.4782 15.2727)" class="st3" width="7.9" height="0.4"/>
	
		<rect x="233.2" y="441.4" transform="matrix(0.9979 -6.532915e-02 6.532915e-02 0.9979 -28.3289 16.7687)" class="st3" width="18.1" height="0.4"/>
	
		<rect x="258.2" y="440" transform="matrix(0.9979 -6.532915e-02 6.532915e-02 0.9979 -28.1996 18.033)" class="st3" width="6.9" height="0.4"/>
	
		<rect x="286.8" y="437.9" transform="matrix(0.9979 -6.532915e-02 6.532915e-02 0.9979 -27.9908 20.1927)" class="st3" width="15.9" height="0.4"/>
	
		<rect x="26.6" y="555.2" transform="matrix(0.9851 -0.1721 0.1721 0.9851 -95.104 13.8335)" class="st3" width="11.3" height="0.4"/>
	<rect x="50.6" y="551" transform="matrix(0.9851 -0.1721 0.1721 0.9851 -94.023 17.8521)" class="st3" width="10.8" height="0.4"/>
	
		<rect x="92.4" y="543.9" transform="matrix(0.9851 -0.1721 0.1721 0.9851 -92.1842 24.8517)" class="st3" width="9.6" height="0.4"/>
	
		<rect x="113" y="540.2" transform="matrix(0.9851 -0.1721 0.1721 0.9851 -91.2495 28.3335)" class="st3" width="9.6" height="0.4"/>
	
		<rect x="149.7" y="533.9" transform="matrix(0.9851 -0.1721 0.1721 0.9851 -89.6132 34.5349)" class="st3" width="9.4" height="0.4"/>
	
		<rect x="167.9" y="530.8" transform="matrix(0.9851 -0.1721 0.1721 0.9851 -88.8151 37.5957)" class="st3" width="9" height="0.4"/>
	
		<rect x="187.7" y="526.4" transform="matrix(0.9851 -0.1721 0.1721 0.9851 -87.6796 41.8593)" class="st3" width="19.8" height="0.4"/>
	
		<rect x="215.1" y="522.6" transform="matrix(0.9851 -0.1721 0.1721 0.9851 -86.6976 45.5035)" class="st3" width="7.9" height="0.4"/>
	
		<rect x="243" y="517.8" transform="matrix(0.9851 -0.1721 0.1721 0.9851 -85.4531 50.2571)" class="st3" width="8.3" height="0.4"/>
	
		<rect x="258.2" y="515.3" transform="matrix(0.9851 -0.1721 0.1721 0.9851 -84.8057 52.7316)" class="st3" width="7.1" height="0.4"/>
	
		<rect x="297" y="508.6" transform="matrix(0.9851 -0.1721 0.1721 0.9851 -83.0802 59.1916)" class="st3" width="5.8" height="0.4"/>
	<polygon class="st3" points="26.5,689 26.5,688.7 37.7,685.2 37.7,685.6 	"/>
	<polygon class="st3" points="50.7,681.4 50.6,681.2 61.1,677.7 61.3,678.1 	"/>
	<polygon class="st3" points="92.4,668.3 92.4,667.9 101.8,665 101.8,665.2 	"/>
	<polygon class="st3" points="113.2,661.8 113,661.4 122.6,658.5 122.6,658.7 	"/>
	<polygon class="st3" points="149.6,650.3 149.6,649.9 158.9,647 159.1,647.2 	"/>
	<polygon class="st3" points="167.9,644.5 167.9,644.1 176.7,641.2 176.9,641.6 	"/>
	<rect x="1892" y="124.5" class="st3" width="0.4" height="623.9"/>
	<rect x="1880.7" y="127.7" class="st3" width="0.4" height="616.4"/>
	<rect x="1867.8" y="131.6" class="st3" width="0.4" height="607.8"/>
	<rect x="1857.2" y="134.8" class="st3" width="0.4" height="600.5"/>
	<rect x="1816.5" y="146.4" class="st3" width="0.4" height="573.6"/>
	<rect x="1825.9" y="143.5" class="st3" width="0.4" height="579.9"/>
	<rect x="1805.2" y="149.6" class="st3" width="0.4" height="566.1"/>
	<rect x="1795.8" y="152.3" class="st3" width="0.4" height="559.8"/>
	<rect x="1768.7" y="160" class="st3" width="0.4" height="541.7"/>
	<rect x="1759.3" y="162.9" class="st3" width="0.4" height="535.4"/>
	<rect x="1750.5" y="165.4" class="st3" width="0.4" height="529.6"/>
	<rect x="1741.4" y="168.4" class="st3" width="0.4" height="523.3"/>
	<rect x="1711.1" y="177.1" class="st3" width="0.4" height="397.1"/>
	<rect x="1703" y="179" class="st3" width="0.4" height="393.7"/>
	<rect x="1695.3" y="181.3" class="st3" width="0.4" height="389.4"/>
	<rect x="1667.3" y="189.4" class="st3" width="0.4" height="374.5"/>
	<rect x="1660.2" y="191.9" class="st3" width="0.4" height="370.2"/>
	<rect x="1653.1" y="193.8" class="st3" width="0.4" height="367.2"/>
	<rect x="1615.6" y="204.3" class="st3" width="0.4" height="347.6"/>
	<rect x="1572.6" y="206.7" class="st3" width="0.4" height="343.2"/>
	<polygon class="st3" points="1910,728.8 1728.8,664.1 1728.8,663.7 1910.2,728.4 	"/>
	<polygon class="st3" points="1910,661.4 1804.8,632.4 1805,632 1910.2,661 	"/>
	<polygon class="st3" points="1910,593.2 1604.3,530.6 1604.3,530.4 1910,592.8 	"/>
	<polygon class="st3" points="1910,490.5 1604.3,459.8 1604.3,459.6 1910,490.1 	"/>
	<rect x="1604.3" y="387.4" class="st3" width="305.9" height="0.4"/>
	<polygon class="st3" points="1635.2,316.3 1635.2,316.1 1910,284.2 1910,284.4 	"/>
	<polygon class="st3" points="1744.9,217 1744.9,216.8 1910,180.9 1910,181.1 	"/>
	<polygon class="st3" points="1880.9,154.6 1880.9,154.2 1892,151.3 1892,151.7 	"/>
	<polygon class="st3" points="1857.4,160.6 1857.4,160.4 1867.8,157.7 1868,157.9 	"/>
	<polygon class="st3" points="1816.7,171.3 1816.5,170.9 1826.1,168.4 1826.1,168.8 	"/>
	<polygon class="st3" points="1796.2,176.5 1796,176.3 1805.4,173.8 1805.4,174.2 	"/>
	<polygon class="st3" points="1759.7,186.1 1759.7,185.7 1768.9,183.4 1768.9,183.6 	"/>
	<polygon class="st3" points="1741.8,190.7 1741.8,190.3 1750.5,188 1750.6,188.4 	"/>
	<polygon class="st3" points="1711.3,198.6 1711.3,198.4 1729.3,193.6 1729.3,194 	"/>
	<polygon class="st3" points="1695.5,202.8 1695.3,202.4 1703.2,200.3 1703.4,200.7 	"/>
	<polygon class="st3" points="1667.5,209.9 1667.3,209.7 1680,206.5 1680,206.7 	"/>
	<polygon class="st3" points="1880.9,254.9 1880.9,254.5 1892,252.9 1892,253.1 	"/>
	<polygon class="st3" points="1857.4,258.3 1857.2,258.1 1867.8,256.6 1867.8,256.8 	"/>
	<polygon class="st3" points="1816.7,264.5 1816.7,264.3 1826.1,262.7 1826.1,263.1 	"/>
	<polygon class="st3" points="1796,267.5 1795.8,267.3 1805.4,265.8 1805.4,266.2 	"/>
	<polygon class="st3" points="1759.5,273.1 1759.5,272.7 1768.9,271.4 1768.9,271.6 	"/>
	<polygon class="st3" points="1741.6,275.8 1741.6,275.4 1750.6,274.1 1750.6,274.4 	"/>
	<polygon class="st3" points="1711.3,280.2 1711.3,280 1721.3,278.5 1721.3,278.9 	"/>
	<polygon class="st3" points="1695.5,282.7 1695.3,282.3 1703.2,281.2 1703.2,281.5 	"/>
	<polygon class="st3" points="1667.3,286.9 1667.3,286.5 1678.1,285 1678.1,285.2 	"/>
	<polygon class="st3" points="1653.3,289 1653.3,288.7 1660.2,287.5 1660.4,287.9 	"/>
	<polygon class="st3" points="1615.6,294.6 1615.6,294.2 1643.7,290 1643.9,290.4 	"/>
	<polygon class="st3" points="1880.9,355.9 1880.9,355.5 1892,355.1 1892,355.3 	"/>
	<polygon class="st3" points="1857.2,356.6 1857.2,356.4 1867.8,356.1 1867.8,356.2 	"/>
	<polygon class="st3" points="1816.7,358.2 1816.7,357.8 1826.1,357.6 1826.1,357.8 	"/>
	<polygon class="st3" points="1796,358.9 1796,358.6 1805.4,358.4 1805.4,358.6 	"/>
	<polygon class="st3" points="1759.5,360.3 1759.5,359.9 1768.9,359.7 1768.9,359.9 	"/>
	<polygon class="st3" points="1741.6,361 1741.6,360.7 1750.6,360.3 1750.6,360.7 	"/>
	<polygon class="st3" points="1711.3,362.2 1711.3,361.8 1730.7,361 1730.7,361.4 	"/>
	<polygon class="st3" points="1695.3,362.8 1695.3,362.4 1703.2,362 1703.2,362.4 	"/>
	<polygon class="st3" points="1667.3,363.7 1667.3,363.4 1685.2,362.8 1685.2,363.2 	"/>
	<polygon class="st3" points="1653.5,364.3 1653.5,363.9 1660.2,363.7 1660.2,363.9 	"/>
	<polygon class="st3" points="1615.8,365.7 1615.8,365.3 1621.4,365.1 1621.4,365.5 	"/>
	<polygon class="st3" points="1892,455.9 1880.9,455.1 1880.9,454.8 1892,455.5 	"/>
	<polygon class="st3" points="1867.8,454.4 1857.2,453.6 1857.2,453.2 1867.8,454 	"/>
	<polygon class="st3" points="1826.1,451.5 1816.7,450.9 1816.7,450.5 1826.1,451.3 	"/>
	<polygon class="st3" points="1805.4,450.2 1796,449.6 1796,449.2 1805.4,449.8 	"/>
	<polygon class="st3" points="1768.9,447.7 1759.5,447.1 1759.5,446.9 1768.9,447.5 	"/>
	<polygon class="st3" points="1750.6,446.5 1741.6,445.9 1741.6,445.5 1750.6,446.3 	"/>
	<polygon class="st3" points="1730.7,445.2 1711.3,444 1711.3,443.6 1730.7,445 	"/>
	<polygon class="st3" points="1703.2,443.4 1695.3,442.9 1695.5,442.7 1703.2,443 	"/>
	<polygon class="st3" points="1685.4,442.3 1667.3,441.1 1667.3,440.7 1685.4,441.9 	"/>
	<polygon class="st3" points="1660.2,440.6 1653.3,440.2 1653.3,439.8 1660.2,440.2 	"/>
	<polygon class="st3" points="1631.8,438.6 1615.8,437.7 1615.8,437.3 1631.8,438.4 	"/>
	<polygon class="st3" points="1892,556.5 1880.9,554.4 1880.9,554.2 1892,556.2 	"/>
	<polygon class="st3" points="1867.8,552.3 1857.2,550.4 1857.4,550 1867.8,551.9 	"/>
	<polygon class="st3" points="1826.1,545 1816.7,543.3 1816.7,543.1 1826.1,544.6 	"/>
	<polygon class="st3" points="1805.4,541.4 1795.8,539.6 1796,539.5 1805.4,541 	"/>
	<polygon class="st3" points="1768.9,535 1759.5,533.3 1759.5,533.1 1768.9,534.6 	"/>
	<polygon class="st3" points="1750.6,531.8 1741.6,530.2 1741.6,530 1750.6,531.6 	"/>
	<polygon class="st3" points="1730.7,528.3 1711.3,525 1711.3,524.7 1730.7,528.1 	"/>
	<polygon class="st3" points="1703.2,523.5 1695.3,522.2 1695.5,522 1703.2,523.3 	"/>
	<polygon class="st3" points="1675.6,518.7 1667.3,517.4 1667.3,517 1675.6,518.5 	"/>
	<polygon class="st3" points="1660.2,516 1653.3,514.9 1653.3,514.5 1660.4,515.8 	"/>
	<polygon class="st3" points="1621.4,509.3 1615.6,508.3 1615.8,508 1621.4,509.1 	"/>
	<polygon class="st3" points="1892,689 1880.9,685.6 1880.9,685.2 1892,688.7 	"/>
	<polygon class="st3" points="1867.8,681.4 1857.2,678.1 1857.4,677.7 1868,681.2 	"/>
	<polygon class="st3" points="1826.1,668.3 1816.5,665.2 1816.7,665 1826.1,667.9 	"/>
	<polygon class="st3" points="1805.4,661.8 1795.8,658.7 1796,658.5 1805.4,661.4 	"/>
	<polygon class="st3" points="1768.9,650.3 1759.5,647.2 1759.7,647 1768.9,649.9 	"/>
	<polygon class="st3" points="1750.5,644.5 1741.6,641.6 1741.8,641.2 1750.6,644.1 	"/>
	<polygon class="st2" points="1378.1,479.5 1572.6,520.4 347.4,520.4 540.6,479.5 	"/>
	<path class="st3" d="M1576.7,520.8H343.4l197.2-41.7h837.7l0,0L1576.7,520.8z M351.5,519.9h1217.3l-190.7-40.1H540.6L351.5,519.9z"
		/>
	<polyline class="st2" points="8.5,622.2 308.5,549.6 1608.4,549.6 1910.4,622.2 	"/>
	<polygon class="st3" points="1910.2,622.6 1608.2,550 308.5,550 8.7,622.6 8.5,621.6 308.3,549.2 1608.4,549.2 1910.4,621.6 	"/>
	<polygon class="st3" points="347.1,520.8 347.1,428.8 347.8,428.8 347.8,519.9 540.4,479.2 1378.1,479.2 1572.2,519.9 
		1572.2,428.1 1573,428.1 1573,520.8 1572.6,520.6 1377.9,479.9 540.6,479.9 	"/>
	<polygon class="st3" points="1910.2,755.7 1608.2,641.6 308.5,641.6 8.7,755.7 8.5,754.9 308.5,640.8 1608.4,640.8 1910.4,754.9 	
		"/>
	<polygon class="st3" points="1608.4,207 308.3,207 8.5,119.3 8.7,118.5 308.5,206.3 1608.2,206.3 1910.2,118.5 1910.4,119.3 	"/>
	<polyline class="st2" points="8.5,224.9 308.5,276.6 1608.4,276.6 1910.4,224.9 	"/>
	<polygon class="st3" points="308.5,277.1 8.5,225.3 8.7,224.5 308.5,276.2 1608.4,276.2 1910.2,224.5 1910.4,225.3 1608.4,277.1 	
		"/>
	<polyline class="st2" points="8.5,326.3 308.5,348 1608.4,348 1910.4,326.3 	"/>
	<polygon class="st3" points="308.5,348.4 8.5,326.7 8.7,325.9 308.5,347.6 1608.4,347.6 1910.2,325.9 1910.4,326.7 1608.4,348.4 	
		"/>
	<polyline class="st2" points="8.5,416.9 308.5,409.6 1608.4,409.6 1910.4,416.9 	"/>
	<polygon class="st3" points="1910.4,417.3 1608.4,410 308.5,410 8.5,417.3 8.5,416.4 308.5,409.1 1608.4,409.1 1910.4,416.4 	"/>
	<rect x="815" y="247.4" class="st2" width="292.1" height="67"/>
	<rect x="815" y="428.1" class="st2" width="292.7" height="74.1"/>
	<rect x="815" y="334.9" class="st2" width="292.5" height="78.9"/>
	<rect x="815" y="156" class="st2" width="292.1" height="57.4"/>
	<rect x="665.1" y="557.1" class="st3" width="591.5" height="0.8"/>
	<rect x="815" y="531.6" class="st2" width="292.5" height="47.8"/>
	<path class="st3" d="M1107.7,414.1H814.3v-79.3h293.2v79.3H1107.7z M814.9,413.5h292.3v-78.4H814.9V413.5z"/>
	<path class="st3" d="M1107.7,502.8H814.3v-75.5h293.2v75.5H1107.7z M814.9,502.2h292.3v-74.3H814.9V502.2z"/>
	<path class="st3" d="M1107.7,591.9H814.3v-60.1h293.2v60.1H1107.7z M814.9,591.5h292.3v-59.1H814.9V591.5z"/>
	<path class="st3" d="M1107.7,315.2H814.3V247h293.2v68.2H1107.7z M814.9,314.6h292.3v-67.2H814.9V314.6z"/>
	<path class="st3" d="M1107.7,213.4H814.3v-57.6h293.2v57.6H1107.7z M814.9,212.8h292.3v-56.5H814.9V212.8z"/>
	<rect x="823.7" y="416.5" class="st3" width="0.6" height="86"/>
	<rect x="823.7" y="334.9" class="st3" width="0.6" height="78.9"/>
	<rect x="823.7" y="247" class="st3" width="0.6" height="79.3"/>
	<rect x="823.7" y="156" class="st3" width="0.6" height="68.6"/>
	<rect x="1095.6" y="416.5" class="st3" width="0.6" height="86"/>
	<rect x="1095.6" y="334.9" class="st3" width="0.6" height="78.9"/>
	<rect x="1095.6" y="247" class="st3" width="0.6" height="79.3"/>
	<rect x="1095.6" y="156" class="st3" width="0.6" height="68.6"/>
	<rect x="1070.1" y="416.5" class="st3" width="0.6" height="86"/>
	<rect x="1070.1" y="334.9" class="st3" width="0.6" height="78.9"/>
	<rect x="1070.1" y="247" class="st3" width="0.6" height="79.3"/>
	<rect x="1070.1" y="156" class="st3" width="0.6" height="68.6"/>
	<rect x="1024.4" y="416.5" class="st3" width="0.6" height="86"/>
	<rect x="1024.4" y="334.9" class="st3" width="0.6" height="78.9"/>
	<rect x="1024.4" y="247" class="st3" width="0.6" height="79.3"/>
	<rect x="1024.4" y="156" class="st3" width="0.6" height="68.6"/>
	<rect x="999.6" y="416.5" class="st3" width="0.6" height="86"/>
	<rect x="999.6" y="334.9" class="st3" width="0.6" height="78.9"/>
	<rect x="999.6" y="247" class="st3" width="0.6" height="79.3"/>
	<rect x="999.6" y="156" class="st3" width="0.6" height="68.6"/>
	<rect x="972.7" y="416.5" class="st3" width="0.6" height="86"/>
	<rect x="972.7" y="334.9" class="st3" width="0.6" height="78.9"/>
	<rect x="972.7" y="247" class="st3" width="0.6" height="79.3"/>
	<rect x="972.7" y="156" class="st3" width="0.6" height="68.6"/>
	<rect x="947.7" y="416.5" class="st3" width="0.6" height="86"/>
	<rect x="947.7" y="334.9" class="st3" width="0.6" height="78.9"/>
	<rect x="947.7" y="247" class="st3" width="0.6" height="79.3"/>
	<rect x="947.7" y="156" class="st3" width="0.6" height="68.6"/>
	<rect x="921.6" y="416.5" class="st3" width="0.6" height="86"/>
	<rect x="921.6" y="334.9" class="st3" width="0.6" height="78.9"/>
	<rect x="921.6" y="247" class="st3" width="0.6" height="79.3"/>
	<rect x="921.6" y="156" class="st3" width="0.6" height="68.6"/>
	<rect x="850.6" y="416.4" class="st3" width="0.6" height="86.2"/>
	<rect x="850.6" y="334.9" class="st3" width="0.6" height="78.9"/>
	<rect x="850.6" y="247" class="st3" width="0.6" height="79.3"/>
	<rect x="850.6" y="156" class="st3" width="0.6" height="68.6"/>
	<rect x="896.7" y="416.4" class="st3" width="0.6" height="86.2"/>
	<rect x="896.7" y="334.9" class="st3" width="0.6" height="78.9"/>
	<rect x="896.7" y="247" class="st3" width="0.6" height="79.3"/>
	<rect x="896.7" y="156" class="st3" width="0.6" height="68.6"/>
	<rect x="851" y="180" class="st3" width="25.7" height="0.6"/>
	<rect x="824.3" y="298.6" class="st3" width="271.5" height="0.6"/>
	<rect x="824.3" y="387.7" class="st3" width="271.5" height="0.6"/>
	<rect x="824.3" y="477" class="st3" width="271.5" height="0.6"/>
	<rect x="896.9" y="566" class="st3" width="127.9" height="0.6"/>
	<rect x="1044.7" y="566" class="st3" width="51.1" height="0.6"/>
	<rect x="823.9" y="566" class="st3" width="53.2" height="0.6"/>
	<rect x="814.9" y="579.4" class="st3" width="292.5" height="0.6"/>
	<rect x="824.3" y="209.5" class="st3" width="271.5" height="0.6"/>
	<rect x="1044.7" y="180" class="st3" width="25.7" height="0.6"/>
	<rect x="999.6" y="180" class="st3" width="25.2" height="0.6"/>
	<rect x="948.1" y="180" class="st3" width="24.6" height="0.6"/>
	<rect x="897" y="180" class="st3" width="24.6" height="0.6"/>
	<rect x="851" y="358.7" class="st3" width="25.7" height="0.6"/>
	<rect x="1044.7" y="358.7" class="st3" width="25.7" height="0.6"/>
	<rect x="999.6" y="358.7" class="st3" width="25.2" height="0.6"/>
	<rect x="948.1" y="358.7" class="st3" width="24.6" height="0.6"/>
	<rect x="897" y="358.7" class="st3" width="24.6" height="0.6"/>
	<rect x="851" y="269.4" class="st3" width="25.7" height="0.6"/>
	<rect x="1044.7" y="269.4" class="st3" width="25.7" height="0.6"/>
	<rect x="999.6" y="269.4" class="st3" width="25.2" height="0.6"/>
	<rect x="948.1" y="269.4" class="st3" width="24.6" height="0.6"/>
	<rect x="897" y="269.4" class="st3" width="24.6" height="0.6"/>
	<rect x="851" y="447.8" class="st3" width="25.7" height="0.6"/>
	<rect x="1044.7" y="447.8" class="st3" width="25.7" height="0.6"/>
	<rect x="999.6" y="447.8" class="st3" width="25.2" height="0.6"/>
	<rect x="948.1" y="447.8" class="st3" width="24.6" height="0.6"/>
	<rect x="897" y="447.8" class="st3" width="24.6" height="0.6"/>
	<rect x="851" y="536.8" class="st3" width="25.7" height="0.4"/>
	<rect x="1044.7" y="536.8" class="st3" width="25.7" height="0.4"/>
	<rect x="999.6" y="536.8" class="st3" width="25.2" height="0.4"/>
	<rect x="948.1" y="536.8" class="st3" width="24.6" height="0.4"/>
	<rect x="897" y="536.8" class="st3" width="24.6" height="0.4"/>
	<rect x="823.7" y="531.8" class="st3" width="0.4" height="47.8"/>
	<rect x="1095.6" y="531.8" class="st3" width="0.4" height="47.8"/>
	<rect x="1070.3" y="531.8" class="st3" width="0.4" height="47.8"/>
	<rect x="1024.6" y="531.8" class="st3" width="0.4" height="47.8"/>
	<rect x="999.6" y="531.8" class="st3" width="0.4" height="47.8"/>
	<rect x="972.7" y="531.8" class="st3" width="0.4" height="47.8"/>
	<rect x="947.9" y="531.8" class="st3" width="0.4" height="47.8"/>
	<rect x="921.6" y="531.8" class="st3" width="0.4" height="47.8"/>
	<rect x="850.6" y="531.8" class="st3" width="0.4" height="47.8"/>
	<rect x="896.9" y="531.8" class="st3" width="0.4" height="47.8"/>
	<rect x="313.1" y="348.4" class="st2" width="6.1" height="60.7"/>
	<path class="st3" d="M319.6,409.4h-6.7v-61.3h6.7V409.4z M313.3,408.9h5.8v-60.3h-5.8V408.9z"/>
	<rect x="274.9" y="344.5" class="st2" width="6.1" height="65.9"/>
	<path class="st3" d="M281.2,410.6h-6.7v-66.4h6.7V410.6z M275,410.2h5.8v-65.5H275V410.2z"/>
	<rect x="274.9" y="270.2" class="st2" width="6.1" height="45.1"/>
	<path class="st3" d="M281.2,315.5h-6.7v-45.7h6.7V315.5z M275,315.2h5.8v-44.7H275V315.2z"/>
	<rect x="274.9" y="194.7" class="st2" width="6.1" height="18.1"/>
	<path class="st3" d="M281.2,213h-6.7v-18.4h6.7V213z M275,212.6h5.8v-17.5H275V212.6z"/>
	<rect x="1599.3" y="488.2" class="st2" width="6.1" height="61.8"/>
	<path class="st3" d="M1605.9,550.2h-6.7V488h6.7V550.2z M1599.7,549.8h5.8v-61.3h-5.8V549.8z"/>
	<rect x="1572.6" y="480.1" class="st2" width="32.8" height="8.1"/>
	<path class="st3" d="M1605.9,488.4h-33.4v-8.4h33.4V488.4z M1573,488h32.5v-7.7H1573V488z"/>
	<polygon class="st2" points="1904.7,533.3 1605.5,488.2 1605.5,480.1 1904.7,519.3 	"/>
	<path class="st3" d="M1904.9,533.7L1904.9,533.7l-299.4-45.1v-8.6h0.2l299.2,39.4V533.7z M1605.9,488l298.6,44.9v-13.4l-298.6-39.2
		V488z"/>
	<rect x="1830.2" y="633.9" class="st2" width="11.3" height="97.6"/>
	<path class="st3" d="M1841.9,731.7H1830v-97.9h11.9V731.7z M1830.3,731.1h10.9v-97h-10.9V731.1z"/>
	<rect x="1830.2" y="522" class="st2" width="11.3" height="85.5"/>
	<path class="st3" d="M1841.9,607.8H1830v-86h11.9V607.8z M1830.3,607.2h10.9v-85.1h-10.9V607.2z"/>
	<rect x="1830.2" y="330.3" class="st2" width="11.3" height="84.5"/>
	<path class="st3" d="M1841.9,415H1830v-84.9h11.9V415z M1830.3,414.4h10.9v-83.9h-10.9V414.4z"/>
	<rect x="1830.2" y="233.3" class="st2" width="11.3" height="84.5"/>
	<path class="st3" d="M1841.9,317.8H1830V233h11.9V317.8z M1830.3,317.5h10.9v-83.9h-10.9V317.5z"/>
	<rect x="1830.2" y="138.1" class="st2" width="11.3" height="75.1"/>
	<path class="st3" d="M1841.9,213.4H1830v-75.7h11.9V213.4z M1830.3,213h10.9v-74.7h-10.9V213z"/>
	<rect x="1774.1" y="633.9" class="st2" width="10.6" height="75.5"/>
	<path class="st3" d="M1784.8,709.6h-10.9v-76h10.9V709.6z M1774.5,709h10v-74.9h-10V709z"/>
	<rect x="1774.1" y="513.9" class="st2" width="10.6" height="79.1"/>
	<path class="st3" d="M1784.8,593.2h-10.9v-79.5h10.9V593.2z M1774.5,592.8h10v-78.5h-10V592.8z"/>
	<rect x="1774.1" y="334.5" class="st2" width="10.6" height="80.3"/>
	<path class="st3" d="M1784.8,415h-10.9v-80.7h10.9V415z M1774.5,414.4h10v-79.7h-10V414.4z"/>
	<rect x="1774.1" y="245.6" class="st2" width="10.6" height="72"/>
	<path class="st3" d="M1784.8,317.8h-10.9v-72.6h10.9V317.8z M1774.5,317.5h10v-71.6h-10V317.5z"/>
	<rect x="1774.1" y="154.8" class="st2" width="10.6" height="58.4"/>
	<path class="st3" d="M1784.8,213.4h-10.9v-58.8h10.9V213.4z M1774.5,213h10v-57.8h-10V213z"/>
	<rect x="1721.3" y="633.9" class="st2" width="9.6" height="54.5"/>
	<path class="st3" d="M1731.1,688.7h-10v-55.1h10V688.7z M1721.7,688.3h9v-54.2h-9V688.3z"/>
	<rect x="1721.3" y="505.7" class="st2" width="9.6" height="74.3"/>
	<path class="st3" d="M1731.1,580.4h-10v-74.9h10V580.4z M1721.7,580h9V506h-9V580z"/>
	<rect x="1721.3" y="338.8" class="st2" width="9.6" height="73.9"/>
	<path class="st3" d="M1731.1,412.9h-10v-74.3h10V412.9z M1721.7,412.5h9v-73.4h-9V412.5z"/>
	<rect x="1721.3" y="254.9" class="st2" width="9.6" height="59.9"/>
	<path class="st3" d="M1731.1,315.2h-10v-60.5h10V315.2z M1721.7,314.6h9V255h-9V314.6z"/>
	<rect x="1637.7" y="270.4" class="st2" width="6.1" height="44.6"/>
	<path class="st3" d="M1644.1,315.2h-6.5v-44.9h6.5V315.2z M1637.9,314.6h5.6v-44h-5.6V314.6z"/>
	<rect x="1637.7" y="195.5" class="st2" width="6.1" height="17.3"/>
	<path class="st3" d="M1644.1,213h-6.5v-17.9h6.5V213z M1637.9,212.6h5.6v-16.9h-5.6V212.6z"/>
	<rect x="1637.7" y="345.9" class="st2" width="6.1" height="63.8"/>
	<path class="st3" d="M1644.1,410h-6.5v-64.3h6.5V410z M1637.9,409.4h5.6v-63.4h-5.6V409.4z"/>
	<rect x="1637.7" y="428.8" class="st2" width="6.1" height="56.3"/>
	<path class="st3" d="M1644.1,485.3h-6.5v-56.7h6.5V485.3z M1637.9,484.7h5.6V429h-5.6V484.7z"/>
	<rect x="1637.7" y="492.8" class="st2" width="6.1" height="65.9"/>
	<path class="st3" d="M1644.1,558.7h-6.5v-66.3h6.5V558.7z M1637.9,558.3h5.6V493h-5.6V558.3z"/>
	<rect x="1721.3" y="170.4" class="st2" width="9.6" height="42.8"/>
	<path class="st3" d="M1731.1,213.4h-10v-43.2h10V213.4z M1721.7,213h9v-42.2h-9V213z"/>
	<rect x="1890.5" y="522.7" class="st2" width="14.2" height="8.3"/>
	<path class="st3" d="M1904.9,531.2h-14.8v-8.6h14.8V531.2z M1890.6,530.8h13.8v-7.7h-13.8V530.8z"/>
	<polygon class="st2" points="1890.5,522.7 1599.5,482.4 1599.5,488.2 1890.5,531 	"/>
	<path class="st3" d="M1890.6,531.2L1890.6,531.2l-291.3-42.8V482h0.2l291.1,40.3V531.2z M1599.7,488l290.6,42.6v-7.7l-290.6-40.3
		V488z"/>
	<polygon class="st2" points="1599.5,482.4 1606,482.4 1904.7,522.7 1890.5,522.7 	"/>
	<path class="st3" d="M1904.7,522.9h-14.2l-290.9-40.3v-0.4h6.5l298.6,40.3V522.9z M1603,482.6l287.5,39.9h10.6l-295.2-39.9H1603z"
		/>
	<rect x="1774.1" y="427.7" class="st2" width="10.6" height="78.9"/>
	<path class="st3" d="M1784.8,506.8h-10.9v-79.5h10.9V506.8z M1774.5,506.4h10v-78.5h-10V506.4z"/>
	<rect x="1830.2" y="427.7" class="st2" width="11.3" height="86.6"/>
	<path class="st3" d="M1841.9,514.5H1830v-87h11.9V514.5z M1830.3,513.9h10.9v-86h-10.9V513.9z"/>
	<rect x="1721.3" y="427.7" class="st2" width="9.6" height="71.4"/>
	<path class="st3" d="M1731.1,499.5h-10v-72h10V499.5z M1721.7,498.9h9v-71.1h-9V498.9z"/>
	<rect x="1599.3" y="348.6" class="st2" width="6.1" height="61.1"/>
	<path class="st3" d="M1605.9,409.8h-6.7v-61.5h6.7V409.8z M1599.7,409.2h5.8v-60.5h-5.8V409.2z"/>
	<rect x="1599.3" y="276.9" class="st2" width="6.1" height="37.8"/>
	<path class="st3" d="M1605.9,315.2h-6.7v-38.4h6.7V315.2z M1599.7,314.6h5.8v-37.4h-5.8V314.6z"/>
	<rect x="1599.3" y="206.7" class="st2" width="6.1" height="5.8"/>
	<path class="st3" d="M1605.9,212.8h-6.7v-6.3h6.7V212.8z M1599.7,212.2h5.8v-5.4h-5.8V212.2z"/>
	<rect x="1904.7" y="519.3" class="st2" width="4.2" height="14"/>
	<path class="st3" d="M1909.1,533.5h-4.8v-14.4h4.8V533.5z M1904.9,533.1h3.8v-13.4h-3.8V533.1z"/>
	<rect x="1572.6" y="482.4" class="st2" width="26.7" height="5.8"/>
	<path class="st3" d="M1599.7,488.4h-27.3V482h27.3V488.4z M1573,488h26.3v-5.4H1573V488z"/>
	<rect x="1599.3" y="427.7" class="st2" width="6.1" height="54.7"/>
	<path class="st3" d="M1605.9,482.6h-6.7v-55.1h6.7V482.6z M1599.7,482h5.8v-54.2h-5.8V482z"/>
	<rect x="313.1" y="488.2" class="st2" width="6.1" height="62.6"/>
	<path class="st3" d="M319.6,551h-6.7v-63h6.7V551z M313.3,550.6h5.8v-62h-5.8V550.6z"/>
	<rect x="274.9" y="493.9" class="st2" width="6.1" height="65.9"/>
	<path class="st3" d="M281.4,559.8h-6.7v-66.3h6.7V559.8z M275.2,559.4h5.8v-65.3h-5.8V559.4z"/>
	<rect x="313.3" y="480.1" class="st2" width="34.4" height="8.1"/>
	<path class="st3" d="M347.8,488.4h-35v-8.4h35V488.4z M313.3,488h34v-7.7h-34V488z"/>
	<polygon class="st2" points="14.1,533.3 313.1,488.2 313.1,480.1 14.1,519.3 	"/>
	<path class="st3" d="M13.9,533.7v-14.4h0.2l299.2-39.4v8.6h-0.2L13.9,533.7z M14.3,519.7v13.4l298.6-44.9v-7.7L14.3,519.7z"/>
	<rect x="77.2" y="522" class="st2" width="11.3" height="85.5"/>
	<path class="st3" d="M88.8,607.8H76.9v-86h11.9V607.8z M77.2,607.2h10.9v-85.1H77.2V607.2z"/>
	<rect x="77.2" y="634.1" class="st2" width="11.3" height="98.1"/>
	<path class="st3" d="M88.8,732.4H76.9v-98.5h11.9V732.4z M77.2,732.1h10.9v-97.6H77.2V732.1z"/>
	<rect x="77.2" y="330.1" class="st2" width="11.3" height="84.5"/>
	<path class="st3" d="M88.8,415H76.9v-84.9h11.9V415z M77.2,414.4h10.9v-83.9H77.2V414.4z"/>
	<rect x="77.2" y="233.2" class="st2" width="11.3" height="84.5"/>
	<path class="st3" d="M88.8,317.8H76.9V233h11.9V317.8z M77.2,317.5h10.9v-83.9H77.2V317.5z"/>
	<rect x="77.2" y="138.1" class="st2" width="11.3" height="75.1"/>
	<path class="st3" d="M88.8,213.4H76.9v-75.7h11.9V213.4z M77.2,213h10.9v-74.7H77.2V213z"/>
	<rect x="133.9" y="513.9" class="st2" width="10.6" height="79.1"/>
	<path class="st3" d="M144.8,593.2h-10.9v-79.5h10.9V593.2z M134.3,592.8h10v-78.5h-10V592.8z"/>
	<rect x="133.9" y="634.1" class="st2" width="10.6" height="76.2"/>
	<path class="st3" d="M144.8,710.6h-10.9v-76.6h10.9V710.6z M134.3,710.2h10v-75.7h-10V710.2z"/>
	<rect x="133.9" y="334.4" class="st2" width="10.6" height="80.3"/>
	<path class="st3" d="M144.8,415h-10.9v-80.7h10.9V415z M134.3,414.4h10v-79.7h-10V414.4z"/>
	<rect x="133.9" y="245.6" class="st2" width="10.6" height="72"/>
	<path class="st3" d="M144.8,317.8h-10.9v-72.6h10.9V317.8z M134.3,317.5h10v-71.6h-10V317.5z"/>
	<rect x="133.9" y="154.8" class="st2" width="10.6" height="58.4"/>
	<path class="st3" d="M144.8,213.4h-10.9v-58.8h10.9V213.4z M134.3,213h10v-57.8h-10V213z"/>
	<rect x="187.7" y="505.8" class="st2" width="9.6" height="74.3"/>
	<path class="st3" d="M197.5,580.4h-10v-74.9h10V580.4z M188.1,580h9V506h-9V580z"/>
	<rect x="187.7" y="634.1" class="st2" width="9.6" height="55.7"/>
	<path class="st3" d="M197.5,690h-10v-56.3h10V690z M188.1,689.6h9v-55.3h-9V689.6z"/>
	<rect x="187.7" y="339" class="st2" width="9.6" height="73.9"/>
	<path class="st3" d="M197.5,412.9h-10v-74.3h10V412.9z M188.1,412.5h9v-73.4h-9V412.5z"/>
	<rect x="187.7" y="255" class="st2" width="9.6" height="59.9"/>
	<path class="st3" d="M197.5,315.2h-10v-60.5h10V315.2z M188.1,314.6h9V255h-9V314.6z"/>
	<rect x="187.7" y="170.4" class="st2" width="9.6" height="42.8"/>
	<path class="st3" d="M197.5,213.4h-10v-43.2h10V213.4z M188.1,213h9v-42.2h-9V213z"/>
	<rect x="14.1" y="522.7" class="st2" width="14.2" height="8.3"/>
	<path class="st3" d="M28.5,531.2H13.7v-8.6h14.8V531.2z M14.3,530.8h13.8v-7.7H14.3V530.8z"/>
	<polygon class="st2" points="28.3,522.7 319.2,482.4 319.2,488.2 28.3,531 	"/>
	<path class="st3" d="M28.1,531.2v-8.8h0.2L319.6,482v6.3h-0.2L28.1,531.2z M28.5,522.9v7.7L319,488v-5.4L28.5,522.9z"/>
	<polygon class="st2" points="319.2,482.4 312.7,482.4 14.1,522.7 28.3,522.7 	"/>
	<path class="st3" d="M14.1,522.9v-0.4l298.6-40.3h6.5v0.4L28.3,522.9H14.1z M17.5,522.6h10.6l287.5-39.9h-3.1L17.5,522.6z"/>
	<rect x="133.9" y="427.7" class="st2" width="10.6" height="78.9"/>
	<path class="st3" d="M144.8,506.8h-10.9v-79.5h10.9V506.8z M134.3,506.4h10v-78.5h-10V506.4z"/>
	<rect x="77.2" y="427.7" class="st2" width="11.3" height="86.6"/>
	<path class="st3" d="M88.8,514.5H76.9v-87h11.9V514.5z M77.2,513.9h10.9v-86H77.2V513.9z"/>
	<rect x="187.7" y="427.7" class="st2" width="9.6" height="71.4"/>
	<path class="st3" d="M197.5,499.5h-10v-72h10V499.5z M188.1,498.9h9v-71.1h-9V498.9z"/>
	<rect x="313.1" y="276.6" class="st2" width="6.1" height="38.2"/>
	<path class="st3" d="M319.6,315.2h-6.7v-38.8h6.7V315.2z M313.3,314.6h5.8v-37.8h-5.8V314.6z"/>
	<rect x="9.8" y="519.5" class="st2" width="4.2" height="14"/>
	<path class="st3" d="M14.3,533.5H9.5v-14.4h4.8V533.5z M10,533.1h3.8v-13.4H10V533.1z"/>
	<rect x="319.4" y="482.4" class="st2" width="28" height="5.8"/>
	<path class="st3" d="M347.8,488.4h-28.4V482h28.4V488.4z M319.8,488h27.5v-5.4h-27.5V488z"/>
	<rect x="313.1" y="427.7" class="st2" width="6.1" height="54.7"/>
	<path class="st3" d="M319.6,482.6h-6.7v-55.1h6.7V482.6z M313.3,482h5.8v-54.2h-5.8V482z"/>
	<rect x="274.9" y="427.7" class="st2" width="6.1" height="57.6"/>
	<path class="st3" d="M281.2,485.5h-6.7v-58.2h6.7V485.5z M275,485.1h5.8v-57.2H275V485.1z"/>
	<rect x="897.4" y="633.9" class="st2" width="4" height="22.9"/>
	<path class="st3" d="M901.7,657h-4.4v-23.2h4.4V657z M897.6,656.6h3.6v-22.5h-3.6V656.6z"/>
	<rect x="894.2" y="633.9" class="st2" width="4" height="38.4"/>
	<path class="st3" d="M898.4,672.5H894v-38.8h4.4V672.5z M894.4,672.1h3.6v-38h-3.6V672.1z"/>
	<rect x="889" y="633.9" class="st2" width="6" height="57"/>
	<path class="st3" d="M895.1,691.2h-6.3v-57.6h6.3V691.2z M889.2,690.8h5.6v-56.7h-5.6V690.8z"/>
	<rect x="881.9" y="633.9" class="st2" width="8.4" height="76.8"/>
	<path class="st3" d="M890.7,710.9h-9v-77.4h9V710.9z M882.3,710.6h8.1v-76.4h-8.1V710.6z"/>
	<rect x="1675" y="233.3" class="st2" width="9.6" height="84.5"/>
	<path class="st3" d="M1685,317.8h-10.2V233h10.2V317.8z M1675.2,317.5h9.2v-84.1h-9.2V317.5z"/>
	<rect x="1675" y="330.3" class="st2" width="9.6" height="84.5"/>
	<path class="st3" d="M1685,415h-10.2v-84.9h10.2V415z M1675.2,414.4h9.2v-84.1h-9.2V414.4z"/>
	<rect x="1675" y="428.1" class="st2" width="9.6" height="180.1"/>
	<path class="st3" d="M1685,608.4h-10.2V427.9h10.2V608.4z M1675.2,608h9.2V428.3h-9.2V608z"/>
	<rect x="1675" y="138.1" class="st2" width="9.6" height="75.1"/>
	<path class="st3" d="M1685,213.4h-10.2v-75.5h10.2V213.4z M1675.2,213h9.2v-74.7h-9.2V213z"/>
	<rect x="1626" y="244.3" class="st2" width="12.7" height="70.7"/>
	<path class="st3" d="M1638.9,315.2h-13.1v-71.1h13.1V315.2z M1626.2,314.8h12.3v-70.3h-12.3V314.8z"/>
	<rect x="1626" y="334.5" class="st2" width="12.7" height="79.7"/>
	<path class="st3" d="M1638.9,414.4h-13.1v-80.1h13.1V414.4z M1626.2,414.1h12.3v-79.3h-12.3V414.1z"/>
	<rect x="1626" y="428.1" class="st2" width="12.7" height="164.8"/>
	<path class="st3" d="M1638.9,593.2h-13.1V427.9h13.1V593.2z M1626.2,592.6h12.3V428.3h-12.3V592.6z"/>
	<rect x="1541.7" y="531.8" class="st2" width="14" height="37.1"/>
	<path class="st3" d="M1555.9,569h-14.4v-37.4h14.4V569z M1541.9,568.6h13.6V532h-13.6V568.6z"/>
	<rect x="1541.7" y="341.7" class="st2" width="14" height="69.7"/>
	<path class="st3" d="M1555.9,411.6h-14.4v-70.1h14.4V411.6z M1541.9,411.2h13.6v-69.3h-13.6V411.2z"/>
	<rect x="1541.7" y="262.5" class="st2" width="14" height="51.8"/>
	<path class="st3" d="M1555.9,314.6h-14.4v-52.2h14.4V314.6z M1541.9,314.2h13.6v-51.5h-13.6V314.2z"/>
	<rect x="1541.7" y="184" class="st2" width="14" height="28.8"/>
	<path class="st3" d="M1555.9,213h-14.4v-29.2h14.4V213z M1541.9,212.6h13.6v-28.4h-13.6V212.6z"/>
	<rect x="1626" y="154.8" class="st2" width="12.7" height="58.4"/>
	<path class="st3" d="M1638.9,213.4h-13.1v-58.8h13.1V213.4z M1626.2,213h12.3v-58h-12.3V213z"/>
	<polygon class="st2" points="1626,244.3 1621,246.2 1621,315 1626,315 	"/>
	<path class="st3" d="M1626.2,315.2h-5.4V246l5.4-2.1V315.2z M1621.2,314.8h4.6v-70.1l-4.6,1.7V314.8z"/>
	<polygon class="st2" points="1626,334.5 1621,335.1 1621,414.2 1626,414.2 	"/>
	<path class="st3" d="M1626.2,414.4h-5.4v-79.5l5.4-0.8V414.4z M1621.2,414.1h4.6v-79.3l-4.6,0.6V414.1z"/>
	<polygon class="st2" points="1626,428.1 1621,428.1 1621,591.7 1626,593 	"/>
	<path class="st3" d="M1626.2,593.2l-5.4-1.3v-164h5.4V593.2z M1621.2,591.5l4.6,1.2V428.3h-4.6V591.5z"/>
	<polygon class="st2" points="1626,154.8 1621,158.1 1621,213.2 1626,213.2 	"/>
	<path class="st3" d="M1626.2,213.4h-5.4v-55.5l5.4-3.5V213.4z M1621.2,213h4.6v-57.8l-4.6,3.1V213z"/>
	<rect x="1584.9" y="170.4" class="st2" width="7.9" height="42.8"/>
	<path class="st3" d="M1593,213.4h-8.3v-43.2h8.3V213.4z M1585.1,213h7.5v-42.2h-7.5V213z"/>
	<rect x="1584.9" y="254.1" class="st2" width="7.9" height="60.9"/>
	<path class="st3" d="M1593,315.2h-8.3v-61.3h8.3V315.2z M1585.1,314.8h7.5v-60.3h-7.5V314.8z"/>
	<rect x="1584.9" y="338.8" class="st2" width="7.9" height="74.3"/>
	<path class="st3" d="M1593,413.5h-8.3v-74.7h8.3V413.5z M1585.1,412.9h7.5V339h-7.5V412.9z"/>
	<rect x="1584.9" y="428.1" class="st2" width="7.9" height="151.7"/>
	<path class="st3" d="M1593,580.2h-8.3V428.1h8.3V580.2z M1585.1,579.6h7.5V428.3h-7.5V579.6z"/>
	<rect x="233.4" y="233.2" class="st2" width="9.6" height="84.5"/>
	<path class="st3" d="M243.2,317.8H233V233h10.2V317.8z M233.6,317.5h9.2v-84.1h-9.2V317.5z"/>
	<rect x="233.4" y="330.1" class="st2" width="9.6" height="84.5"/>
	<path class="st3" d="M243.2,415H233v-84.9h10.2V415z M233.6,414.4h9.2v-84.1h-9.2V414.4z"/>
	<rect x="233.4" y="428.1" class="st2" width="9.6" height="180.1"/>
	<path class="st3" d="M243.2,608.4H233V427.9h10.2V608.4z M233.6,608h9.2V428.3h-9.2V608z"/>
	<rect x="233.4" y="138.1" class="st2" width="9.6" height="75.1"/>
	<path class="st3" d="M243.2,213.4H233v-75.5h10.2V213.4z M233.6,213h9.2v-74.7h-9.2V213z"/>
	<rect x="279.3" y="244.1" class="st2" width="12.7" height="70.7"/>
	<path class="st3" d="M292.1,315.2h-13.1v-71.1h13.1V315.2z M279.5,314.8h12.3v-70.3h-12.3V314.8z"/>
	<rect x="279.3" y="334.4" class="st2" width="12.7" height="79.7"/>
	<path class="st3" d="M292.1,414.4h-13.1v-80.1h13.1V414.4z M279.5,414.1h12.3v-79.3h-12.3V414.1z"/>
	<rect x="279.3" y="428.3" class="st2" width="12.7" height="164.8"/>
	<path class="st3" d="M292.1,593.2h-13.1V427.9h13.1V593.2z M279.5,592.6h12.3V428.3h-12.3V592.6z"/>
	<rect x="362.4" y="532" class="st2" width="14" height="37.1"/>
	<path class="st3" d="M376.4,569H362v-37.4h14.4V569z M362.4,568.6h13.6V532h-13.6V568.6z"/>
	<rect x="362.4" y="341.7" class="st2" width="14" height="69.7"/>
	<path class="st3" d="M376.4,411.6H362v-70.1h14.4V411.6z M362.4,411.2h13.6v-69.3h-13.6V411.2z"/>
	<rect x="362.4" y="262.5" class="st2" width="14" height="51.8"/>
	<path class="st3" d="M376.4,314.6H362v-52.2h14.4V314.6z M362.4,314.2h13.6v-51.5h-13.6V314.2z"/>
	<rect x="362.4" y="184" class="st2" width="14" height="28.8"/>
	<path class="st3" d="M376.4,213H362v-29.2h14.4V213z M362.4,212.6h13.6v-28.4h-13.6V212.6z"/>
	<rect x="279.3" y="154.8" class="st2" width="12.7" height="58.4"/>
	<path class="st3" d="M292.1,213.4h-13.1v-58.8h13.1V213.4z M279.5,213h12.3v-58h-12.3V213z"/>
	<polygon class="st2" points="291.9,244.3 296.9,246.2 296.9,315 291.9,315 	"/>
	<path class="st3" d="M297.3,315.2h-5.4v-71.2l5.4,2.1V315.2z M292.1,314.8h4.6v-68.4l-4.6-1.7V314.8z"/>
	<polygon class="st2" points="291.9,334.5 296.9,335.1 296.9,414.2 291.9,414.2 	"/>
	<path class="st3" d="M297.3,414.4h-5.4v-80.1l5.4,0.8V414.4z M292.1,414.1h4.6v-78.7l-4.6-0.6V414.1z"/>
	<polygon class="st2" points="291.9,428.1 296.9,428.1 296.9,591.7 291.9,593 	"/>
	<path class="st3" d="M291.8,593.2V427.9h5.4v164L291.8,593.2z M292.1,428.3v164.4l4.6-1.2V428.3H292.1z"/>
	<polygon class="st2" points="291.9,154.8 296.9,158.1 296.9,213.2 291.9,213.2 	"/>
	<path class="st3" d="M297.3,213.4h-5.4v-59l5.4,3.5V213.4z M292.1,213h4.6v-54.7l-4.6-3.1V213z"/>
	<rect x="325.4" y="170.4" class="st2" width="7.9" height="42.8"/>
	<path class="st3" d="M333.2,213.4H325v-43.2h8.3V213.4z M325.5,213h7.5v-42.2h-7.5V213z"/>
	<rect x="325.4" y="254.1" class="st2" width="7.9" height="60.9"/>
	<path class="st3" d="M333.2,315.2H325v-61.3h8.3V315.2z M325.5,314.8h7.5v-60.3h-7.5V314.8z"/>
	<rect x="325.4" y="339" class="st2" width="7.9" height="74.3"/>
	<path class="st3" d="M333.2,413.5H325v-74.7h8.3V413.5z M325.5,412.9h7.5V339h-7.5V412.9z"/>
	<rect x="325.4" y="428.3" class="st2" width="7.9" height="151.7"/>
	<path class="st3" d="M333.2,580.2H325V428.1h8.3V580.2z M325.5,579.6h7.5V428.3h-7.5V579.6z"/>
	<rect x="877.1" y="633.9" class="st2" width="8.4" height="97.6"/>
	<path class="st3" d="M885.9,731.7h-9v-97.9h9V731.7z M877.3,731.1h8.1v-97.2h-8.1V731.1z"/>
	<rect x="1020.5" y="633.7" class="st2" width="4" height="22.9"/>
	<path class="st3" d="M1024.8,657h-4.4v-23.2h4.4V657z M1020.7,656.6h3.6v-22.5h-3.6V656.6z"/>
	<rect x="1023.8" y="633.7" class="st2" width="4" height="38.4"/>
	<path class="st3" d="M1028,672.5h-4.4v-38.8h4.4V672.5z M1024,672.1h3.6v-38h-3.6V672.1z"/>
	<rect x="1027.1" y="633.9" class="st2" width="6" height="57"/>
	<path class="st3" d="M1033.2,691.2h-6.3v-57.6h6.3V691.2z M1027.4,690.8h5.6v-56.7h-5.6V690.8z"/>
	<rect x="1031.7" y="633.9" class="st2" width="8.4" height="76.8"/>
	<path class="st3" d="M1040.3,710.9h-9v-77.4h9V710.9z M1031.7,710.6h8.1v-76.4h-8.1V710.6z"/>
	<rect x="1036.5" y="633.7" class="st2" width="8.4" height="97.6"/>
	<path class="st3" d="M1045.1,731.7h-9v-97.9h9V731.7z M1036.5,731.1h8.1v-97.2h-8.1V731.1z"/>
	<rect x="1141.7" y="633.7" class="st2" width="6.1" height="22.9"/>
	<path class="st3" d="M1148,657h-6.7v-23.2h6.7V657z M1141.9,656.6h5.8v-22.5h-5.8V656.6z"/>
	<rect x="1150.7" y="633.7" class="st2" width="11.5" height="38.4"/>
	<path class="st3" d="M1162.6,672.5h-11.9v-38.8h11.9V672.5z M1151.1,672.1h11.1v-38h-11.1V672.1z"/>
	<rect x="1165.3" y="633.9" class="st2" width="7.1" height="57"/>
	<path class="st3" d="M1172.8,691.2h-7.5v-57.6h7.5V691.2z M1165.7,690.8h6.7v-56.7h-6.7V690.8z"/>
	<rect x="1177.4" y="633.9" class="st2" width="13.3" height="76.8"/>
	<path class="st3" d="M1190.9,710.9H1177v-77.4h13.8V710.9z M1177.4,710.6h12.9v-76.4h-12.9V710.6z"/>
	<rect x="1195.5" y="633.7" class="st2" width="8.4" height="97.6"/>
	<path class="st3" d="M1204.1,731.7h-9v-97.9h9V731.7z M1195.5,731.1h8.1v-97.2h-8.1V731.1z"/>
	<rect x="773.8" y="633.9" class="st2" width="6.1" height="22.9"/>
	<path class="st3" d="M780.1,657h-6.7v-23.2h6.7V657z M774,656.6h5.8v-22.5H774V656.6z"/>
	<rect x="759.4" y="633.9" class="st2" width="11.5" height="38.4"/>
	<path class="st3" d="M771.1,672.5h-11.9v-38.8h11.9V672.5z M759.6,672.1h11.1v-38h-11.1V672.1z"/>
	<rect x="749" y="633.9" class="st2" width="7.1" height="57"/>
	<path class="st3" d="M756.3,691.2h-7.5v-57.6h7.5V691.2z M749.2,690.8h6.7v-56.7h-6.7V690.8z"/>
	<rect x="730.9" y="633.9" class="st2" width="13.3" height="76.8"/>
	<path class="st3" d="M744.6,710.9h-13.8v-77.4h13.8V710.9z M731.1,710.6H744v-76.4h-12.9V710.6z"/>
	<rect x="717.7" y="633.9" class="st2" width="8.4" height="97.6"/>
	<path class="st3" d="M726.5,731.7h-9v-97.9h9V731.7z M718.1,731.1h8.1v-97.2h-8.1V731.1z"/>
	<rect x="881.9" y="531.8" class="st2" width="8.4" height="61.3"/>
	<path class="st3" d="M890.7,593.2h-9v-61.6h9V593.2z M882.3,592.8h8.1v-60.7h-8.1V592.8z"/>
	<rect x="877.1" y="531.8" class="st2" width="8.4" height="74.9"/>
	<path class="st3" d="M885.9,606.9h-9v-75.3h9V606.9z M877.3,606.5h8.1v-74.3h-8.1V606.5z"/>
	<rect x="1031.7" y="531.8" class="st2" width="8.4" height="61.3"/>
	<path class="st3" d="M1040.3,593.2h-9v-61.6h9V593.2z M1031.7,592.8h8.1v-60.7h-8.1V592.8z"/>
	<rect x="1036.5" y="531.8" class="st2" width="8.4" height="74.9"/>
	<path class="st3" d="M1045.1,606.9h-9v-75.3h9V606.9z M1036.5,606.5h8.1v-74.3h-8.1V606.5z"/>
	<rect x="1141.7" y="532" class="st2" width="6.1" height="27.1"/>
	<path class="st3" d="M1148,559h-6.7v-27.5h6.7V559z M1141.9,558.7h5.8V532h-5.8V558.7z"/>
	<rect x="1150.7" y="531.8" class="st2" width="11.5" height="37.4"/>
	<path class="st3" d="M1162.6,569.4h-11.9v-37.8h11.9V569.4z M1151.1,569h11.1V532h-11.1V569z"/>
	<rect x="1165.3" y="532" class="st2" width="7.1" height="47.8"/>
	<path class="st3" d="M1172.8,580h-7.5v-48.2h7.5V580z M1165.7,579.4h6.7V532h-6.7V579.4z"/>
	<rect x="1177.4" y="531.8" class="st2" width="13.3" height="61.3"/>
	<path class="st3" d="M1190.9,593.2H1177v-61.6h13.8V593.2z M1177.4,592.8h12.9v-60.7h-12.9V592.8z"/>
	<rect x="1195.5" y="531.8" class="st2" width="8.4" height="74.9"/>
	<path class="st3" d="M1204.1,606.9h-9v-75.3h9V606.9z M1195.5,606.5h8.1v-74.3h-8.1V606.5z"/>
	<rect x="773.8" y="531.8" class="st2" width="6.1" height="27.1"/>
	<path class="st3" d="M780.1,559h-6.7v-27.5h6.7V559z M774,558.7h5.8V532H774V558.7z"/>
	<rect x="759.4" y="531.8" class="st2" width="11.5" height="37.4"/>
	<path class="st3" d="M771.1,569.4h-11.9v-37.8h11.9V569.4z M759.6,569h11.1V532h-11.1V569z"/>
	<rect x="749" y="531.8" class="st2" width="7.1" height="47.8"/>
	<path class="st3" d="M756.3,580h-7.5v-48.2h7.5V580z M749.2,579.4h6.7V532h-6.7V579.4z"/>
	<rect x="730.9" y="531.8" class="st2" width="13.3" height="61.3"/>
	<path class="st3" d="M744.6,593.2h-13.8v-61.6h13.8V593.2z M731.1,592.8H744v-60.7h-12.9V592.8z"/>
	<rect x="717.7" y="531.8" class="st2" width="8.4" height="74.9"/>
	<path class="st3" d="M726.5,606.9h-9v-75.3h9V606.9z M718.1,606.5h8.1v-74.3h-8.1V606.5z"/>
	<rect x="881.9" y="428.1" class="st2" width="8.4" height="76.4"/>
	<path class="st3" d="M890.7,504.7h-9v-76.8h9V504.7z M882.3,504.3h8.1v-75.9h-8.1V504.3z"/>
	<rect x="877.1" y="428.1" class="st2" width="8.4" height="84.1"/>
	<path class="st3" d="M885.9,512.4h-9v-84.5h9V512.4z M877.3,512h8.1v-83.5h-8.1V512z"/>
	<rect x="1031.7" y="428.1" class="st2" width="8.4" height="76.4"/>
	<path class="st3" d="M1040.3,504.7h-9v-76.8h9V504.7z M1031.7,504.3h8.1v-75.9h-8.1V504.3z"/>
	<rect x="1036.5" y="428.1" class="st2" width="8.4" height="84.1"/>
	<path class="st3" d="M1045.1,512.4h-9v-84.5h9V512.4z M1036.5,512h8.1v-83.5h-8.1V512z"/>
	<rect x="881.9" y="335.5" class="st2" width="8.4" height="78.2"/>
	<path class="st3" d="M890.7,413.9h-9v-78.5h9V413.9z M882.3,413.5h8.1v-77.6h-8.1V413.5z"/>
	<rect x="877.1" y="330.3" class="st2" width="8.4" height="86"/>
	<path class="st3" d="M885.9,416.5h-9v-86.4h9V416.5z M877.3,416.2h8.1v-85.6h-8.1V416.2z"/>
	<rect x="1031.7" y="335.7" class="st2" width="8.4" height="78.2"/>
	<path class="st3" d="M1040.3,413.9h-9v-78.5h9V413.9z M1031.7,413.5h8.1v-77.6h-8.1V413.5z"/>
	<rect x="1036.5" y="330.3" class="st2" width="8.4" height="86"/>
	<path class="st3" d="M1045.1,416.5h-9v-86.4h9V416.5z M1036.5,416.2h8.1v-85.6h-8.1V416.2z"/>
	<rect x="881.9" y="244.1" class="st2" width="8.4" height="70.9"/>
	<path class="st3" d="M890.7,315.2h-9v-71.2h9V315.2z M882.3,314.8h8.1v-70.3h-8.1V314.8z"/>
	<rect x="877.1" y="234.1" class="st2" width="8.4" height="80.8"/>
	<path class="st3" d="M885.9,315.2h-9v-81.2h9V315.2z M877.3,314.8h8.1v-80.3h-8.1V314.8z"/>
	<rect x="1031.7" y="244.1" class="st2" width="8.4" height="70.9"/>
	<path class="st3" d="M1040.3,315.2h-9v-71.2h9V315.2z M1031.7,314.8h8.1v-70.3h-8.1V314.8z"/>
	<rect x="1036.5" y="234.1" class="st2" width="8.4" height="80.8"/>
	<path class="st3" d="M1045.1,315.2h-9v-81.2h9V315.2z M1036.5,314.8h8.1v-80.3h-8.1V314.8z"/>
	<rect x="881.9" y="154.4" class="st2" width="8.4" height="58.6"/>
	<path class="st3" d="M890.7,213.2h-9v-59h9V213.2z M882.3,212.8h8.1v-58.2h-8.1V212.8z"/>
	<rect x="877.1" y="137.9" class="st2" width="8.4" height="75.1"/>
	<path class="st3" d="M885.9,213.2h-9v-75.5h9V213.2z M877.3,212.8h8.1v-74.7h-8.1V212.8z"/>
	<rect x="1031.7" y="154.4" class="st2" width="8.4" height="58.6"/>
	<path class="st3" d="M1040.3,213.2h-9v-59h9V213.2z M1031.7,212.8h8.1v-58.2h-8.1V212.8z"/>
	<rect x="1036.5" y="137.9" class="st2" width="8.4" height="75.1"/>
	<path class="st3" d="M1045.1,213.2h-9v-75.5h9V213.2z M1036.5,212.8h8.1v-74.7h-8.1V212.8z"/>
	<rect x="1141.7" y="428.1" class="st2" width="6.1" height="56.7"/>
	<path class="st3" d="M1148,484.9h-6.7v-57h6.7V484.9z M1141.9,484.5h5.8v-56.3h-5.8V484.5z"/>
	<rect x="1150.7" y="428.1" class="st2" width="11.5" height="63.2"/>
	<path class="st3" d="M1162.6,491.4h-11.9v-63.6h11.9V491.4z M1151.1,491.1h11.1v-62.6h-11.1V491.1z"/>
	<rect x="1165.3" y="428.1" class="st2" width="7.1" height="68.7"/>
	<path class="st3" d="M1172.8,497h-7.5v-69.1h7.5V497z M1165.7,496.6h6.7v-68.2h-6.7V496.6z"/>
	<rect x="1177.4" y="428.1" class="st2" width="13.3" height="76.4"/>
	<path class="st3" d="M1190.9,504.7H1177v-76.8h13.8V504.7z M1177.4,504.3h12.9v-75.9h-12.9V504.3z"/>
	<rect x="1195.5" y="428.1" class="st2" width="8.4" height="84.1"/>
	<path class="st3" d="M1204.1,512.4h-9v-84.5h9V512.4z M1195.5,512h8.1v-83.5h-8.1V512z"/>
	<rect x="773.8" y="428.1" class="st2" width="6.1" height="56.7"/>
	<path class="st3" d="M780.1,484.9h-6.7v-57h6.7V484.9z M774,484.5h5.8v-56.3H774V484.5z"/>
	<rect x="759.4" y="428.1" class="st2" width="11.5" height="63.2"/>
	<path class="st3" d="M771.1,491.4h-11.9v-63.6h11.9V491.4z M759.6,491.1h11.1v-62.6h-11.1V491.1z"/>
	<rect x="749" y="428.1" class="st2" width="7.1" height="68.7"/>
	<path class="st3" d="M756.3,497h-7.5v-69.1h7.5V497z M749.2,496.6h6.7v-68.2h-6.7V496.6z"/>
	<rect x="730.9" y="428.1" class="st2" width="13.3" height="76.4"/>
	<path class="st3" d="M744.6,504.7h-13.8v-76.8h13.8V504.7z M731.1,504.3H744v-75.9h-12.9V504.3z"/>
	<rect x="717.7" y="428.1" class="st2" width="8.4" height="84.1"/>
	<path class="st3" d="M726.5,512.4h-9v-84.5h9V512.4z M718.1,512h8.1v-83.5h-8.1V512z"/>
	<rect x="1141.7" y="344.7" class="st2" width="6.1" height="66.1"/>
	<path class="st3" d="M1148,411h-6.5v-66.4h6.5V411z M1141.9,410.6h5.8v-65.7h-5.8V410.6z"/>
	<rect x="1150.7" y="341.8" class="st2" width="11.5" height="71.1"/>
	<path class="st3" d="M1162.6,413.1h-11.9v-71.4h11.9V413.1z M1151.1,412.7h11.1V342h-11.1V412.7z"/>
	<rect x="1165.3" y="338.6" class="st2" width="7.1" height="74.3"/>
	<path class="st3" d="M1172.8,413.1h-7.5v-74.9h7.5V413.1z M1165.7,412.7h6.7v-73.9h-6.7V412.7z"/>
	<rect x="1177.4" y="335.7" class="st2" width="13.3" height="78.2"/>
	<path class="st3" d="M1190.9,413.9H1177v-78.5h13.8V413.9z M1177.4,413.5h12.9v-77.8h-12.9V413.5z"/>
	<rect x="1195.5" y="330.5" class="st2" width="8.4" height="86.2"/>
	<path class="st3" d="M1204.1,416.9h-9v-86.8h9V416.9z M1195.5,416.5h8.1v-85.8h-8.1V416.5z"/>
	<rect x="773.8" y="344.7" class="st2" width="6.1" height="66.1"/>
	<path class="st3" d="M780.1,411h-6.7v-66.4h6.7V411z M774,410.6h5.8v-65.7H774V410.6z"/>
	<rect x="759.4" y="341.8" class="st2" width="11.5" height="71.1"/>
	<path class="st3" d="M771.1,413.1h-11.9v-71.4h11.9V413.1z M759.6,412.7h11.1V342h-11.1V412.7z"/>
	<rect x="749" y="338.6" class="st2" width="7.1" height="74.3"/>
	<path class="st3" d="M756.3,413.1h-7.5v-74.9h7.5V413.1z M749.2,412.7h6.7v-73.9h-6.7V412.7z"/>
	<rect x="730.9" y="335.5" class="st2" width="13.3" height="78.2"/>
	<path class="st3" d="M744.6,413.9h-13.8v-78.5h13.8V413.9z M731.1,413.5H744v-77.8h-12.9V413.5z"/>
	<rect x="717.7" y="330.3" class="st2" width="8.4" height="86.2"/>
	<path class="st3" d="M726.5,416.9h-9v-86.8h9V416.9z M718.1,416.5h8.1v-85.8h-8.1V416.5z"/>
	<rect x="1141.7" y="270" class="st2" width="6.1" height="44.9"/>
	<path class="st3" d="M1148,315.3h-6.7V270h6.7V315.3z M1141.9,314.8h5.8v-44.4h-5.8V314.8z"/>
	<rect x="1150.7" y="261.8" class="st2" width="11.5" height="53.2"/>
	<path class="st3" d="M1162.6,315.3h-11.9v-53.8h11.9V315.3z M1151.1,314.8h11.1V262h-11.1V314.8z"/>
	<rect x="1165.3" y="254.1" class="st2" width="7.1" height="60.9"/>
	<path class="st3" d="M1172.8,315.3h-7.5v-61.3h7.5V315.3z M1165.7,314.8h6.7v-60.3h-6.7V314.8z"/>
	<rect x="1177.4" y="244.3" class="st2" width="13.3" height="70.9"/>
	<path class="st3" d="M1190.9,315.3H1177v-71.4h13.8V315.3z M1177.4,314.8h12.9v-70.5h-12.9V314.8z"/>
	<rect x="1195.5" y="234.1" class="st2" width="8.4" height="80.8"/>
	<path class="st3" d="M1204.1,315.3h-9v-81.4h9V315.3z M1195.5,314.8h8.1v-80.5h-8.1V314.8z"/>
	<rect x="773.8" y="270.2" class="st2" width="6.1" height="44.9"/>
	<path class="st3" d="M780.1,315.3h-6.7V270h6.7V315.3z M774,314.8h5.8v-44.4H774V314.8z"/>
	<rect x="759.4" y="261.8" class="st2" width="11.5" height="53.2"/>
	<path class="st3" d="M771.1,315.3h-11.9v-53.8h11.9V315.3z M759.6,314.8h11.1V262h-11.1V314.8z"/>
	<rect x="749" y="254.3" class="st2" width="7.1" height="60.9"/>
	<path class="st3" d="M756.3,315.3h-7.5v-61.3h7.5V315.3z M749.2,314.8h6.7v-60.3h-6.7V314.8z"/>
	<rect x="730.9" y="244.1" class="st2" width="13.3" height="70.9"/>
	<path class="st3" d="M744.6,315.3h-13.8v-71.4h13.8V315.3z M731.1,314.8H744v-70.5h-12.9V314.8z"/>
	<rect x="717.7" y="234.1" class="st2" width="8.4" height="80.8"/>
	<path class="st3" d="M726.5,315.3h-9v-81.4h9V315.3z M718.1,314.8h8.1v-80.5h-8.1V314.8z"/>
	<rect x="1141.7" y="195.5" class="st2" width="6.1" height="17.5"/>
	<path class="st3" d="M1148,213h-6.7v-17.9h6.7V213z M1141.9,212.6h5.8v-17.1h-5.8V212.6z"/>
	<rect x="1150.7" y="183.6" class="st2" width="11.5" height="29.2"/>
	<path class="st3" d="M1162.6,213h-11.9v-29.6h11.9V213z M1151.1,212.6h11.1V184h-11.1V212.6z"/>
	<rect x="1165.3" y="171.3" class="st2" width="7.1" height="41.5"/>
	<path class="st3" d="M1172.8,213h-7.5v-41.9h7.5V213z M1165.7,212.6h6.7v-41.1h-6.7V212.6z"/>
	<rect x="1177.4" y="154.4" class="st2" width="13.3" height="58.4"/>
	<path class="st3" d="M1190.9,213H1177v-58.8h13.8V213z M1177.4,212.6h12.9v-58h-12.9V212.6z"/>
	<rect x="1195.5" y="137.9" class="st2" width="8.4" height="74.9"/>
	<path class="st3" d="M1204.1,213h-9v-75.3h9V213z M1195.5,212.6h8.1v-74.5h-8.1V212.6z"/>
	<rect x="773.8" y="195.3" class="st2" width="6.1" height="17.5"/>
	<path class="st3" d="M780.1,213h-6.7v-17.9h6.7V213z M774,212.6h5.8v-17.1H774V212.6z"/>
	<rect x="759.4" y="183.8" class="st2" width="11.5" height="29.2"/>
	<path class="st3" d="M771.1,213h-11.9v-29.6h11.9V213z M759.6,212.6h11.1V184h-11.1V212.6z"/>
	<rect x="749" y="171.3" class="st2" width="7.1" height="41.5"/>
	<path class="st3" d="M756.3,213h-7.5v-41.9h7.5V213z M749.2,212.6h6.7v-41.1h-6.7V212.6z"/>
	<rect x="730.9" y="154.4" class="st2" width="13.3" height="58.4"/>
	<path class="st3" d="M744.6,213h-13.8v-58.8h13.8V213z M731.1,212.6H744v-58h-12.9V212.6z"/>
	<rect x="717.7" y="137.9" class="st2" width="8.4" height="74.9"/>
	<path class="st3" d="M726.5,213h-9v-75.3h9V213z M718.1,212.6h8.1v-74.5h-8.1V212.6z"/>
	<rect x="394.3" y="633.9" class="st2" width="177.8" height="103.3"/>
	<path class="st3" d="M572.5,737.4H393.9V633.5h178.6V737.4z M394.7,736.7h177.1V634.1H394.7V736.7z"/>
	<polygon class="st2" points="394.3,633.9 366.3,633.9 366.3,755.5 394.3,737.1 	"/>
	<path class="st3" d="M365.9,756.1V633.5h28.8v103.7l-0.2,0.2L365.9,756.1z M366.6,634.3v120.6l27.3-17.9V634.3H366.6z"/>
	<polygon class="st2" points="607.8,633.9 572.1,633.9 572.1,737.1 607.8,705 	"/>
	<path class="st3" d="M571.7,737.8V633.5h36.5v71.6l-0.2,0.2L571.7,737.8z M572.5,634.3v102l35-31.5v-70.5L572.5,634.3L572.5,634.3z
		"/>
	<polygon class="st2" points="665.5,633.9 641.6,633.9 641.6,674.5 665.5,652.8 	"/>
	<path class="st3" d="M641.4,675.4v-41.9H666v19.6l-0.2,0.2L641.4,675.4z M642,634.3v39.4l23-20.9v-18.4H642z"/>
	<rect x="607.8" y="633.9" class="st2" width="33.8" height="40.7"/>
	<path class="st3" d="M642,674.8h-34.6v-41.3H642V674.8z M608.2,674.1h33v-39.9h-33V674.1z"/>
	<rect x="1349.9" y="633.7" class="st2" width="177.8" height="103.3"/>
	<path class="st3" d="M1528.1,737.4h-178.6V633.5h178.6V737.4z M1350.3,736.7h177.1V634.1h-177.1V736.7z"/>
	<polygon class="st2" points="1527.7,633.9 1555.7,633.9 1555.7,755.5 1527.7,737.1 	"/>
	<path class="st3" d="M1556.1,756.1l-0.6-0.4l-28.2-18.4V633.5h28.8V756.1z M1528.1,736.9l27.3,17.9V634.1h-27.3V736.9z"/>
	<polygon class="st2" points="1314.2,633.9 1349.9,633.9 1349.9,737.1 1314.2,705 	"/>
	<path class="st3" d="M1350.3,737.8l-0.6-0.6l-35.9-32.3v-71.4h36.5V737.8z M1314.5,704.8l35,31.5v-102h-35V704.8z"/>
	<polygon class="st2" points="1256.5,633.9 1280.4,633.9 1280.4,674.5 1256.5,652.8 	"/>
	<path class="st3" d="M1280.7,675.4l-24.6-22.3v-19.6h24.6V675.4z M1256.9,652.8l23,20.9v-39.4h-23V652.8z"/>
	<rect x="1280.4" y="633.9" class="st2" width="33.8" height="40.7"/>
	<path class="st3" d="M1314.5,674.8H1280v-41.3h34.6V674.8z M1280.7,674.1h33v-39.9h-33V674.1z"/>
	<rect x="1349.7" y="531.8" class="st2" width="192" height="78.2"/>
	<path class="st3" d="M1542.1,610.3h-192.8v-78.7h192.8V610.3z M1350.3,609.5h191.3v-77.4h-191.3V609.5z"/>
	<polygon class="st2" points="1314.2,531.8 1349.9,531.8 1349.9,609.9 1314.2,590.1 	"/>
	<path class="st3" d="M1350.3,610.5l-36.5-20.2v-59h36.5V610.5z M1314.5,590l35,19.4v-77h-35V590z"/>
	<polygon class="st2" points="1256.5,531.8 1280.4,531.8 1280.4,570.9 1256.5,556.9 	"/>
	<path class="st3" d="M1280.7,571.5l-24.6-14.2v-25.7h24.6V571.5z M1256.9,556.7l23,13.4v-38h-23V556.7z"/>
	<rect x="1280.4" y="531.8" class="st2" width="16.3" height="39"/>
	<path class="st3" d="M1296.9,571.1h-17.1v-39.8h17.1V571.1z M1280.7,570.6h15.6v-38.2h-15.6V570.6z"/>
	<polygon class="st2" points="1296.5,531.8 1314.2,531.8 1314.2,579.6 1296.5,570.9 	"/>
	<path class="st3" d="M1314.5,580.4l-18.2-9.2v-39.6h18.2V580.4z M1296.9,570.6l16.7,8.4v-46.9h-16.7V570.6z"/>
	<rect x="380.1" y="531.8" class="st2" width="192" height="78.2"/>
	<path class="st3" d="M572.5,610.3H379.9v-78.7h192.8v78.7H572.5z M380.5,609.5h191.3v-77.4H380.5V609.5z"/>
	<polygon class="st2" points="607.8,531.8 572.1,531.8 572.1,609.9 607.8,590.1 	"/>
	<path class="st3" d="M571.7,610.5v-79.1h36.5v59L571.7,610.5z M572.5,532.2v77l35-19.4V532L572.5,532.2L572.5,532.2z"/>
	<polygon class="st2" points="665.5,531.8 641.6,531.8 641.6,570.9 665.5,556.9 	"/>
	<path class="st3" d="M641.4,571.5v-40.1H666v25.7L641.4,571.5z M642,532.2v38l23-13.4v-24.6H642z"/>
	<rect x="625.5" y="531.8" class="st2" width="16.3" height="39"/>
	<path class="st3" d="M642,571.1h-16.9v-39.8h17.1v39.8H642z M625.9,570.6h15.6v-38.2h-15.6V570.6z"/>
	<polygon class="st2" points="625.5,531.8 607.8,531.8 607.8,579.6 625.5,570.9 	"/>
	<path class="st3" d="M607.6,580.4v-48.8h18.2v39.6l-0.2,0.2L607.6,580.4z M608.2,532.2V579l16.7-8.4v-38.4H608.2z"/>
	<rect x="1349.7" y="428.1" class="st2" width="192" height="85.3"/>
	<path class="st3" d="M1542.1,513.7h-192.8v-86h192.8V513.7z M1350.3,512.9h191.3v-84.5h-191.3V512.9z"/>
	<polygon class="st2" points="1314.2,428.1 1349.9,428.1 1349.9,513.3 1314.2,502 	"/>
	<path class="st3" d="M1350.3,513.7l-36.5-11.5v-74.7h36.5V513.7z M1314.5,501.8l35,10.9v-84.3h-35V501.8z"/>
	<polygon class="st2" points="1256.5,428.1 1280.4,428.1 1280.4,491.2 1256.5,484 	"/>
	<path class="st3" d="M1280.7,491.6l-24.6-7.5v-56.5h24.6V491.6z M1256.9,483.6l23,7.1v-62.2h-23V483.6z"/>
	<rect x="1280.4" y="428.1" class="st2" width="16.3" height="63.2"/>
	<path class="st3" d="M1296.9,491.6h-17.1v-63.9h17.1V491.6z M1280.7,490.9h15.6v-62.4h-15.6V490.9z"/>
	<polygon class="st2" points="1296.5,428.1 1314.2,428.1 1314.2,498 1296.5,491.2 	"/>
	<path class="st3" d="M1314.5,498.5l-18.2-7.1v-63.8h18.2V498.5z M1296.9,490.9l16.7,6.5v-69.1h-16.7V490.9z"/>
	<rect x="380.1" y="428.1" class="st2" width="192" height="85.3"/>
	<path class="st3" d="M572.5,513.7H379.9v-86h192.8v86H572.5z M380.5,512.9h191.3v-84.5H380.5V512.9z"/>
	<polygon class="st2" points="607.8,428.1 572.1,428.1 572.1,513.3 607.8,502 	"/>
	<path class="st3" d="M571.7,513.7v-86h36.5v74.7H608L571.7,513.7z M572.5,428.5v84.3l35-10.9v-73.4H572.5z"/>
	<polygon class="st2" points="665.5,428.1 641.6,428.1 641.6,491.2 665.5,484 	"/>
	<path class="st3" d="M641.4,491.6v-63.9H666v56.5h-0.2L641.4,491.6z M642,428.5v62.2l23-7.1v-55.1H642z"/>
	<rect x="625.5" y="428.1" class="st2" width="16.3" height="63.2"/>
	<path class="st3" d="M642,491.6h-16.9v-63.9h17.1v63.9H642z M625.9,490.9h15.6v-62.4h-15.6V490.9z"/>
	<polygon class="st2" points="625.5,428.1 607.8,428.1 607.8,498 625.5,491.2 	"/>
	<path class="st3" d="M607.6,498.5v-70.9h18.2v63.8L607.6,498.5z M608.2,428.5v69.1l16.7-6.5v-62.6H608.2z"/>
	<rect x="1349.7" y="232.4" class="st2" width="192" height="82"/>
	<path class="st3" d="M1542.1,314.8h-192.8v-82.6h192.8V314.8z M1350.3,314.2h191.3V233h-191.3V314.2z"/>
	<polygon class="st2" points="1314.2,314.4 1349.9,314.4 1349.9,232.6 1314.2,247.7 	"/>
	<path class="st3" d="M1350.3,314.8h-36.5v-67.4l36.5-15.6V314.8z M1314.5,314.2h35v-81l-35,14.8V314.2z"/>
	<polygon class="st2" points="1256.5,314.4 1280.4,314.4 1280.4,261.8 1256.5,272.3 	"/>
	<path class="st3" d="M1280.7,314.8h-24.6v-42.6l0.2-0.2l24.2-10.8v53.6L1280.7,314.8L1280.7,314.8z M1256.9,314.2h23v-51.8
		l-23,10.2V314.2z"/>
	<rect x="1280.4" y="261.8" class="st2" width="16.3" height="52.6"/>
	<path class="st3" d="M1296.9,314.8h-17.1v-53.4h17.1V314.8z M1280.7,314.2h15.6v-52h-15.6V314.2z"/>
	<polygon class="st2" points="1296.5,314.4 1314.2,314.4 1314.2,251.6 1296.5,261.8 	"/>
	<path class="st3" d="M1314.5,314.8h-18.2v-53.2l18.2-10.6V314.8z M1296.9,314.2h16.7v-61.8l-16.7,9.6V314.2z"/>
	<rect x="380.1" y="232.6" class="st2" width="192" height="82"/>
	<path class="st3" d="M572.5,314.8H379.9v-82.6h192.8v82.6H572.5z M380.5,314.2h191.3V233H380.5V314.2z"/>
	<polygon class="st2" points="607.8,314.4 572.1,314.4 572.1,232.6 607.8,247.7 	"/>
	<path class="st3" d="M608.2,314.8h-36.5v-83l36.5,15.6V314.8z M572.5,314.2h35v-66.3l-35-14.8V314.2z"/>
	<polygon class="st2" points="665.5,314.4 641.6,314.4 641.6,261.8 665.5,272.3 	"/>
	<path class="st3" d="M665.8,314.8h-24.6v-53.6l24.6,10.9V314.8z M642,314.2h23v-41.7l-23-10.2V314.2z"/>
	<rect x="625.5" y="261.8" class="st2" width="16.3" height="52.6"/>
	<path class="st3" d="M642,314.8h-16.9v-53.4h17.1v53.4H642z M625.9,314.2h15.6v-52h-15.6V314.2z"/>
	<polygon class="st2" points="625.5,314.4 607.8,314.4 607.8,251.6 625.5,261.8 	"/>
	<path class="st3" d="M625.9,314.8h-18.2V251l18.2,10.6V314.8z M608.2,314.2h16.7v-52l-16.7-9.6V314.2z"/>
	<rect x="1349.7" y="135" class="st2" width="192" height="78"/>
	<path class="st3" d="M1542.1,213.2h-192.8v-78.7h192.8V213.2z M1350.3,212.6h191.3v-77.2h-191.3V212.6z"/>
	<polygon class="st2" points="1314.2,213 1349.9,213 1349.9,134.8 1314.2,159.8 	"/>
	<path class="st3" d="M1350.3,213.2h-36.5v-53.6l0.2-0.2l36.3-25.3V213.2z M1314.5,212.6h35v-77l-35,24.4V212.6z"/>
	<polygon class="st2" points="1256.5,213 1280.4,213 1280.4,181.1 1256.5,198.2 	"/>
	<path class="st3" d="M1280.7,213.2h-24.6V198l0.2-0.2l24.4-17.5L1280.7,213.2L1280.7,213.2z M1256.9,212.6h23v-30.7l-23,16.5V212.6
		z"/>
	<rect x="1280.4" y="181.1" class="st2" width="16.3" height="31.9"/>
	<path class="st3" d="M1296.9,213.2h-17.1v-32.5h17.1V213.2z M1280.7,212.6h15.6v-31.1h-15.6V212.6z"/>
	<polygon class="st2" points="1296.5,213 1314.2,213 1314.2,167.1 1296.5,181.1 	"/>
	<path class="st3" d="M1314.5,213.2h-18.2v-32.3l0.2-0.2l18.1-14.6V213.2z M1296.9,212.6h16.7v-44.7l-16.7,13.4V212.6z"/>
	<rect x="380.1" y="134.8" class="st2" width="192" height="78"/>
	<path class="st3" d="M572.5,213.2H379.9v-78.7h192.8v78.7H572.5z M380.5,212.6h191.3v-77.2H380.5V212.6z"/>
	<polygon class="st2" points="607.8,213 572.1,213 572.1,134.8 607.8,159.8 	"/>
	<path class="st3" d="M608.2,213.2h-36.5v-78.9l36.5,25.5V213.2z M572.5,212.6h35v-52.4l-35-24.4V212.6z"/>
	<polygon class="st2" points="665.5,213 641.6,213 641.6,181.1 665.5,198.2 	"/>
	<path class="st3" d="M665.8,213.2h-24.6v-32.8l24.6,17.7V213.2z M642,212.6h23v-14.2l-23-16.5V212.6z"/>
	<rect x="625.5" y="181.1" class="st2" width="16.3" height="31.9"/>
	<path class="st3" d="M642,213.2h-16.9v-32.5h17.1v32.5H642z M625.9,212.6h15.6v-31.1h-15.6V212.6z"/>
	<polygon class="st2" points="625.5,213 607.8,213 607.8,167.1 625.5,181.1 	"/>
	<path class="st3" d="M625.9,213.2h-18.2v-46.9l18.2,14.6V213.2z M608.2,212.6h16.7v-31.3l-16.7-13.4V212.6z"/>
	<rect x="1349.7" y="330.1" class="st2" width="192" height="86.6"/>
	<path class="st3" d="M1542.1,416.9h-192.8v-87.2h192.8V416.9z M1350.3,416.2h191.3v-85.8h-191.3V416.2z"/>
	<polygon class="st2" points="1314.2,336.7 1349.9,329.9 1349.9,416.5 1314.2,413.1 	"/>
	<path class="st3" d="M1350.3,416.9h-0.4l-36.1-3.5v-77.2l36.5-6.7V416.9z M1314.5,412.9l35,3.3v-85.6l-35,6.3V412.9z"/>
	<polygon class="st2" points="1256.5,345.7 1280.4,341.1 1280.4,412.1 1256.5,409.6 	"/>
	<path class="st3" d="M1280.7,412.5h-0.4l-24-2.7v-64.3h0.4l24.2-4.6L1280.7,412.5L1280.7,412.5z M1256.9,409.2l23,2.5v-70.1
		l-23,4.4V409.2z"/>
	<rect x="1280.4" y="341.1" class="st2" width="16.3" height="71.1"/>
	<path class="st3" d="M1296.9,412.5h-17.1v-71.6h17.1V412.5z M1280.7,411.7h15.6v-70.3h-15.6V411.7z"/>
	<polygon class="st2" points="1296.5,341.1 1314.2,336.7 1314.2,413.1 1296.5,412.1 	"/>
	<path class="st3" d="M1314.5,413.5l-18.2-1.2v-71.6h0.2l18.1-4.6V413.5z M1296.9,411.7l16.7,1V337l-16.7,4.4V411.7z"/>
	<rect x="380.1" y="329.9" class="st2" width="192" height="86.6"/>
	<path class="st3" d="M572.5,416.9H379.9v-87.2h192.8v87.2H572.5z M380.5,416.2h191.3v-85.8H380.5V416.2z"/>
	<polygon class="st2" points="607.8,336.7 572.1,329.9 572.1,416.5 607.8,413.1 	"/>
	<path class="st3" d="M571.7,416.9v-87.4l36.5,6.7v77.2h-0.4L571.7,416.9z M572.5,330.5v85.6l35-3.3v-76L572.5,330.5z"/>
	<polygon class="st2" points="665.5,345.7 641.6,341.1 641.6,412.1 665.5,409.4 	"/>
	<path class="st3" d="M641.4,412.5v-71.8l24.6,4.8v64.3L641.4,412.5z M642,341.7v70.1l23-2.7v-63L642,341.7z"/>
	<rect x="625.5" y="341.1" class="st2" width="16.3" height="71.1"/>
	<path class="st3" d="M642,412.5h-16.9v-71.6h17.1v71.6H642z M625.9,411.7h15.6v-70.3h-15.6V411.7z"/>
	<polygon class="st2" points="625.5,341.1 607.8,336.7 607.8,413.1 625.5,412.1 	"/>
	<path class="st3" d="M607.6,413.5v-77.4l18.2,4.8v71.6L607.6,413.5z M608.2,337v75.7l16.7-1v-70.3L608.2,337z"/>
	<rect x="8.5" y="622.4" class="st2" width="1901.7" height="11.5"/>
	<path class="st3" d="M1911,634.5H7.9v-12.7H1911V634.5z M9.3,633.2h1900.6V623H9.3V633.2z"/>
	<rect x="347.4" y="520.4" class="st2" width="1225.4" height="11.5"/>
	<path class="st3" d="M1573.4,532.5H346.7v-12.7h1226.5v12.7H1573.4z M348,531.2h1224V521H348V531.2z"/>
	<rect x="8.5" y="416.5" class="st2" width="1901.7" height="11.5"/>
	<path class="st3" d="M1911,428.6H7.9V416H1911V428.6z M9.3,427.5h1900.6v-10.2H9.3V427.5z"/>
	<rect x="8.5" y="315" class="st2" width="1901.7" height="11.5"/>
	<path class="st3" d="M1911,327.1H7.9v-12.7H1911V327.1z M9.3,325.7h1900.6v-10.2H9.3V325.7z"/>
	<rect x="8.5" y="213.2" class="st2" width="1901.7" height="11.5"/>
	<path class="st3" d="M1911,225.3H7.9v-12.7H1911V225.3z M9.3,223.9h1900.6v-10.2H9.3V223.9z"/>
	<rect x="8.5" y="107.6" class="st2" width="1901.7" height="11.5"/>
	<path class="st3" d="M1911,119.7H7.9V107H1911V119.7z M9.3,118.3h1900.6v-10.2H9.3V118.3z"/>
	<rect x="115.5" y="22.7" class="st2" width="1688.2" height="11.5"/>
	<rect x="119.9" y="11" class="st2" width="1681.1" height="11.5"/>
	<path class="st3" d="M1804.2,34.8H114.7V22.1h1689.5V34.8z M116,33.4h1686.8V23.3H116V33.4z"/>
	<rect x="8.5" y="755.3" class="st2" width="1901.7" height="11.5"/>
	<path class="st3" d="M1911,767.4H7.9v-12.7H1911V767.4z M9.3,766.1h1900.6v-10.2H9.3V766.1z"/>
	<rect x="1909.7" y="118.9" class="st3" width="1.3" height="636.4"/>
	<rect x="7.9" y="118.9" class="st3" width="1.3" height="636.4"/>
	<rect x="201.1" y="633.9" class="st2" width="156.3" height="121.4"/>
	<path class="st3" d="M358,755.9H200.5V633.2H358V755.9z M201.7,754.7h155V634.5h-155V754.7z"/>
	<rect x="204.4" y="633.9" class="st3" width="0.6" height="121.4"/>
	<rect x="353.4" y="633.9" class="st3" width="0.6" height="121.4"/>
	<rect x="204.8" y="640.5" class="st3" width="148.6" height="1"/>
	<rect x="235.1" y="641.4" class="st3" width="0.6" height="113.9"/>
	<rect x="265.1" y="641.4" class="st3" width="0.6" height="113.9"/>
	<rect x="295" y="641.4" class="st3" width="0.6" height="50.1"/>
	<rect x="324.2" y="641.4" class="st3" width="0.6" height="113.9"/>
	<rect x="204.8" y="725.3" class="st3" width="30.9" height="0.6"/>
	<rect x="324.4" y="725.3" class="st3" width="29.4" height="0.6"/>
	<rect x="235.3" y="691.4" class="st3" width="89.1" height="0.6"/>
	<rect x="204.8" y="658.3" class="st3" width="148.8" height="0.6"/>
	<path class="st3" d="M323.1,755.3h-2.3v-60.7h2.3V755.3z M321.1,754.9h1.5V695h-1.5V754.9z"/>
	<path class="st3" d="M269.9,755.3h-2.3v-60.7h2.3V755.3z M267.9,754.9h1.5V695h-1.5V754.9z"/>
	<rect x="269.7" y="748.8" class="st3" width="51.5" height="0.4"/>
	<rect x="269.7" y="696.7" class="st3" width="51.5" height="0.4"/>
	<rect x="269.7" y="694.8" class="st3" width="51.5" height="0.4"/>
	<rect x="291.2" y="694.8" class="st2" width="4.2" height="60.3"/>
	<path class="st3" d="M295.8,755.5H291v-60.9h4.8V755.5z M291.4,754.9h3.8v-59.7h-3.8V754.9z"/>
	<rect x="293.3" y="694.8" class="st3" width="0.4" height="59.7"/>
	<rect x="1563.6" y="633.9" class="st2" width="156.3" height="121.4"/>
	<path class="st3" d="M1720.5,755.9H1563V633.2h157.5V755.9z M1564.2,754.7h155V634.5h-155V754.7z"/>
	<rect x="1716.1" y="633.9" class="st3" width="0.6" height="121.4"/>
	<rect x="1567.1" y="633.9" class="st3" width="0.6" height="121.4"/>
	<rect x="1567.4" y="640.5" class="st3" width="148.6" height="1"/>
	<rect x="1685.4" y="641.4" class="st3" width="0.6" height="113.9"/>
	<rect x="1655.4" y="641.4" class="st3" width="0.6" height="113.9"/>
	<rect x="1625.3" y="641.4" class="st3" width="0.6" height="50.1"/>
	<rect x="1596.1" y="641.4" class="st3" width="0.6" height="113.9"/>
	<rect x="1685.2" y="725.3" class="st3" width="30.9" height="0.6"/>
	<rect x="1567.1" y="725.3" class="st3" width="29.4" height="0.6"/>
	<rect x="1596.4" y="691.4" class="st3" width="89.1" height="0.6"/>
	<rect x="1567.4" y="658.3" class="st3" width="148.8" height="0.6"/>
	<path class="st3" d="M1600.1,755.3h-2.3v-60.7h2.3V755.3z M1598.2,754.9h1.5V695h-1.5V754.9z"/>
	<path class="st3" d="M1653.3,755.3h-2.3v-60.7h2.3V755.3z M1651.4,754.9h1.5V695h-1.5V754.9z"/>
	<rect x="1599.7" y="748.8" class="st3" width="51.5" height="0.4"/>
	<rect x="1599.7" y="696.7" class="st3" width="51.5" height="0.4"/>
	<rect x="1599.7" y="694.8" class="st3" width="51.5" height="0.4"/>
	<rect x="1625.6" y="695" class="st2" width="4.2" height="60.3"/>
	<path class="st3" d="M1630.1,755.5h-4.8v-60.9h4.8V755.5z M1625.8,754.9h3.8v-59.7h-3.8V754.9z"/>
	<rect x="1627.4" y="694.8" class="st3" width="0.4" height="59.7"/>
	<rect x="118.5" y="34.6" class="st3" width="0.6" height="72.8"/>
	<rect x="140.8" y="34.6" class="st3" width="0.6" height="72.8"/>
	<rect x="168.5" y="35.4" class="st3" width="0.6" height="72.2"/>
	<rect x="195.9" y="34.6" class="st3" width="0.6" height="72.8"/>
	<rect x="207.8" y="34.6" class="st3" width="0.6" height="72.8"/>
	<rect x="168.5" y="34.6" class="st3" width="0.6" height="72.8"/>
	<rect x="363.4" y="34.6" class="st3" width="0.6" height="72.8"/>
	<rect x="377" y="34.6" class="st3" width="0.6" height="72.8"/>
	<rect x="530.8" y="34.6" class="st3" width="0.6" height="72.8"/>
	<rect x="544.5" y="34.6" class="st3" width="0.6" height="72.8"/>
	<rect x="699.4" y="34.6" class="st3" width="0.6" height="72.8"/>
	<rect x="715.8" y="34.6" class="st3" width="0.6" height="72.8"/>
	<rect x="1207.4" y="34.6" class="st3" width="0.6" height="72.8"/>
	<rect x="1224.3" y="34.6" class="st3" width="0.6" height="72.8"/>
	<rect x="1391.5" y="34.6" class="st3" width="0.6" height="72.8"/>
	<rect x="1375.2" y="34.6" class="st3" width="0.6" height="72.8"/>
	<rect x="1545" y="34.6" class="st3" width="0.6" height="72.8"/>
	<rect x="1557.3" y="34.6" class="st3" width="0.6" height="72.8"/>
	<rect x="1713.6" y="34.6" class="st3" width="0.6" height="72.8"/>
	<rect x="1724.5" y="34.6" class="st3" width="0.6" height="72.8"/>
	<rect x="1751.2" y="34.6" class="st3" width="0.6" height="72.8"/>
	<rect x="1779.5" y="34.6" class="st3" width="0.6" height="72.8"/>
	<rect x="1797.9" y="34.6" class="st3" width="0.6" height="72.8"/>
	<rect x="863.6" y="34.6" class="st3" width="0.6" height="72.8"/>
	<rect x="887.1" y="34.6" class="st3" width="0.6" height="72.8"/>
	<rect x="1033.2" y="34.6" class="st3" width="0.6" height="72.8"/>
	<rect x="1056.6" y="34.6" class="st3" width="0.6" height="72.8"/>
	<polygon class="st3" points="1801,22.5 1800.4,22.5 1800.4,11.4 119.9,11.4 119.9,21 119.3,21 119.3,11 1801,11 	"/>
	<rect x="1721.8" y="10.8" class="st3" width="0.6" height="11.5"/>
	<rect x="1700" y="10.8" class="st3" width="0.6" height="11.5"/>
	<rect x="1555.7" y="10.8" class="st3" width="0.6" height="11.5"/>
	<rect x="1389.2" y="10.8" class="st3" width="0.6" height="11.5"/>
	<rect x="1222.4" y="10.8" class="st3" width="0.6" height="11.5"/>
	<rect x="1055.7" y="10.8" class="st3" width="0.6" height="11.5"/>
	<rect x="888.8" y="10.8" class="st3" width="0.6" height="11.5"/>
	<rect x="721.7" y="10.8" class="st3" width="0.6" height="11.5"/>
	<rect x="554.8" y="10.8" class="st3" width="0.6" height="11.5"/>
	<rect x="387.2" y="10.8" class="st3" width="0.6" height="11.5"/>
	<rect x="220.3" y="10.8" class="st3" width="0.6" height="11.5"/>
	<rect x="197.8" y="10.8" class="st3" width="0.6" height="11.5"/>
	<rect x="365.3" y="10.8" class="st3" width="0.6" height="11.5"/>
	<rect x="532.6" y="10.8" class="st3" width="0.6" height="11.5"/>
	<rect x="699.4" y="10.8" class="st3" width="0.6" height="11.5"/>
	<rect x="866.7" y="10.8" class="st3" width="0.6" height="11.5"/>
	<rect x="1200.5" y="10.8" class="st3" width="0.6" height="11.5"/>
	<rect x="1033.8" y="10.8" class="st3" width="0.6" height="11.5"/>
	<rect x="1367" y="10.8" class="st3" width="0.6" height="11.5"/>
	<rect x="1533.8" y="10.8" class="st3" width="0.6" height="11.5"/>
	<rect x="118.9" y="48.4" class="st3" width="77.2" height="0.6"/>
	<rect x="208.2" y="48.4" class="st3" width="155.5" height="0.6"/>
	<rect x="220.3" y="48.8" class="st3" width="0.6" height="58.8"/>
	<rect x="249.3" y="48.8" class="st3" width="0.6" height="58.8"/>
	<rect x="278.3" y="48.8" class="st3" width="0.6" height="58.8"/>
	<rect x="308.1" y="48.8" class="st3" width="0.6" height="58.8"/>
	<rect x="335.9" y="48.8" class="st3" width="0.6" height="58.8"/>
	<rect x="377.6" y="48.4" class="st3" width="153.6" height="0.6"/>
	<rect x="387.8" y="48.8" class="st3" width="0.6" height="58.8"/>
	<rect x="416.6" y="48.8" class="st3" width="0.6" height="58.8"/>
	<rect x="445.8" y="48.8" class="st3" width="0.6" height="58.8"/>
	<rect x="475.5" y="48.8" class="st3" width="0.6" height="58.8"/>
	<rect x="503.4" y="48.8" class="st3" width="0.6" height="58.8"/>
	<rect x="544.9" y="48.4" class="st3" width="154.8" height="0.6"/>
	<rect x="555" y="48.8" class="st3" width="0.6" height="58.8"/>
	<rect x="583.8" y="48.8" class="st3" width="0.6" height="58.8"/>
	<rect x="613" y="48.8" class="st3" width="0.6" height="58.8"/>
	<rect x="642.6" y="48.8" class="st3" width="0.6" height="58.8"/>
	<rect x="670.6" y="48.8" class="st3" width="0.6" height="58.8"/>
	<rect x="716.2" y="48.4" class="st3" width="148.3" height="0.6"/>
	<rect x="726.3" y="48.8" class="st3" width="0.6" height="58.8"/>
	<rect x="751.9" y="48.8" class="st3" width="0.6" height="58.8"/>
	<rect x="780.3" y="48.8" class="st3" width="0.6" height="58.8"/>
	<rect x="809.7" y="48.8" class="st3" width="0.6" height="58.8"/>
	<rect x="838.7" y="48.8" class="st3" width="0.6" height="58.8"/>
	<rect x="887.6" y="48.4" class="st3" width="145.9" height="0.6"/>
	<rect x="1057" y="48.4" class="st3" width="150.6" height="0.6"/>
	<rect x="1224.5" y="48.4" class="st3" width="150.6" height="0.6"/>
	<rect x="1391.5" y="48.4" class="st3" width="153.6" height="0.6"/>
	<rect x="1083.9" y="48.8" class="st3" width="0.6" height="58.8"/>
	<rect x="1112.9" y="48.8" class="st3" width="0.6" height="58.8"/>
	<rect x="1142.1" y="48.8" class="st3" width="0.6" height="58.8"/>
	<rect x="1170.9" y="48.8" class="st3" width="0.6" height="58.8"/>
	<rect x="1251.4" y="48.8" class="st3" width="0.6" height="58.8"/>
	<rect x="1280.2" y="48.8" class="st3" width="0.6" height="58.8"/>
	<rect x="1308.8" y="48.8" class="st3" width="0.6" height="58.8"/>
	<rect x="1337.6" y="48.8" class="st3" width="0.6" height="58.8"/>
	<rect x="1366.2" y="48.8" class="st3" width="0.6" height="58.8"/>
	<rect x="1417.5" y="48.8" class="st3" width="0.6" height="58.8"/>
	<rect x="1446.5" y="48.8" class="st3" width="0.6" height="58.8"/>
	<rect x="1475.5" y="48.8" class="st3" width="0.6" height="58.8"/>
	<rect x="1504.5" y="48.8" class="st3" width="0.6" height="58.8"/>
	<rect x="1533.5" y="48.8" class="st3" width="0.6" height="58.8"/>
	<rect x="1584.9" y="48.8" class="st3" width="0.6" height="58.8"/>
	<rect x="1612" y="48.8" class="st3" width="0.6" height="58.8"/>
	<rect x="1641.2" y="48.8" class="st3" width="0.6" height="58.8"/>
	<rect x="1670.2" y="48.8" class="st3" width="0.6" height="58.8"/>
	<rect x="1699.8" y="48.8" class="st3" width="0.6" height="58.8"/>
	<rect x="917.8" y="48.8" class="st3" width="0.6" height="58.8"/>
	<rect x="946.8" y="48.8" class="st3" width="0.6" height="58.8"/>
	<rect x="975.6" y="48.8" class="st3" width="0.6" height="58.8"/>
	<rect x="1004.6" y="48.8" class="st3" width="0.6" height="58.8"/>
	<rect x="1557.5" y="48.4" class="st3" width="156.3" height="0.6"/>
	<rect x="1724.9" y="48.4" class="st3" width="73.2" height="0.6"/>
	<polygon class="st3" points="118.7,107.8 17.5,72.8 17.5,107.6 17.1,107.6 17.1,72 17.5,72 118.9,107.2 	"/>
	<rect x="33.8" y="78.2" class="st3" width="0.6" height="28.8"/>
	<rect x="56.9" y="85.9" class="st3" width="0.6" height="21.1"/>
	<rect x="78.6" y="93.3" class="st3" width="0.6" height="13.6"/>
	<rect x="99.3" y="100.5" class="st3" width="0.6" height="6.5"/>
	<polygon class="st3" points="1800.8,107.8 1800.6,107.2 1902.6,72 1902.6,107.6 1902,107.6 1902,72.8 	"/>
	<rect x="1885.3" y="78.2" class="st3" width="0.6" height="28.8"/>
	<rect x="1862.2" y="85.9" class="st3" width="0.6" height="21.1"/>
	<rect x="1840.5" y="93.3" class="st3" width="0.6" height="13.6"/>
	<rect x="1819.6" y="100.5" class="st3" width="0.6" height="6.5"/>
</g>
</svg>
