<?xml version="1.0" encoding="utf-8"?>
<!-- Generator: Adobe Illustrator 26.3.1, SVG Export Plug-In . SVG Version: 6.00 Build 0)  -->
<svg version="1.1" id="Layer_1" xmlns="http://www.w3.org/2000/svg" xmlns:xlink="http://www.w3.org/1999/xlink" x="0px" y="0px"
	 viewBox="0 0 996.1 398" style="enable-background:new 0 0 996.1 398;" xml:space="preserve">
<style type="text/css">
	.st0{fill:#FFFFFF;}
	.st1{fill:#2E2015;}
</style>
<g id="m">
</g>
<g>
	<polygon class="st0" points="2.7,58.1 159.2,104.1 834.6,104.1 993.1,58.1 	"/>
</g>
<g>
	<polyline class="st0" points="3.1,320.9 159.2,283.1 836.1,283.1 993.4,320.9 	"/>
</g>
<g>
	<polygon class="st0" points="3.1,390.1 159.2,331.1 836.1,331.1 993.4,390.1 	"/>
</g>
<g>
	<polygon class="st1" points="993.3,320.7 836,283.1 159.2,283.1 3.1,320.7 3,320.3 159.2,282.1 836.1,282.1 993.4,320.3 	"/>
</g>
<g>
	<rect x="411.1" y="104.1" class="st1" width="1" height="226"/>
</g>
<g>
	<rect x="421.1" y="104.1" class="st1" width="1" height="226"/>
</g>
<g>
	<rect x="349.1" y="104.1" class="st1" width="1" height="226"/>
</g>
<g>
	<rect x="360.1" y="104.1" class="st1" width="1" height="226"/>
</g>
<g>
	<rect x="370.1" y="104.1" class="st1" width="1" height="226"/>
</g>
<g>
	<rect x="585.1" y="104.1" class="st1" width="1" height="226"/>
</g>
<g>
	<rect x="636.1" y="104.1" class="st1" width="0" height="226"/>
</g>
<g>
	<rect x="646.1" y="104.1" class="st1" width="1" height="226"/>
</g>
<g>
	<rect x="177.1" y="104.1" class="st1" width="1" height="226"/>
</g>
<g>
	<rect x="411.1" y="199.1" class="st1" width="12" height="1"/>
</g>
<g>
	<rect x="350.1" y="199.1" class="st1" width="29" height="1"/>
</g>
<g>
	<rect x="411.1" y="235.1" class="st1" width="12" height="1"/>
</g>
<g>
	<rect x="350.1" y="235.1" class="st1" width="29" height="1"/>
</g>
<g>
	<rect x="597.1" y="199.1" class="st1" width="49" height="1"/>
</g>
<g>
	<rect x="575.1" y="199.1" class="st1" width="10" height="1"/>
</g>
<g>
	<rect x="597.1" y="235.1" class="st1" width="49" height="1"/>
</g>
<g>
	<rect x="575.1" y="235.1" class="st1" width="10" height="1"/>
</g>
<g>
	<rect x="626.1" y="223.1" class="st1" width="10" height="1"/>
</g>
<g>
	<rect x="626.1" y="188.1" class="st1" width="10" height="0"/>
</g>
<g>
	<rect x="809.1" y="199.1" class="st1" width="19" height="1"/>
</g>
<g>
	<rect x="808.1" y="188.1" class="st1" width="10" height="0"/>
</g>
<g>
	<rect x="626.1" y="150.1" class="st1" width="10" height="1"/>
</g>
<g>
	<rect x="361.1" y="223.1" class="st1" width="10" height="1"/>
</g>
<g>
	<rect x="361.1" y="188.1" class="st1" width="10" height="0"/>
</g>
<g>
	<rect x="361.1" y="150.1" class="st1" width="10" height="1"/>
</g>
<g>
	<rect x="432.1" y="327.1" class="st1" width="1" height="3"/>
</g>
<g>
	<rect x="442.1" y="327.1" class="st1" width="1" height="3"/>
</g>
<g>
	<rect x="453.1" y="327.1" class="st1" width="1" height="3"/>
</g>
<g>
	<rect x="471.1" y="327.1" class="st1" width="1" height="3"/>
</g>
<g>
	<rect x="482.1" y="327.1" class="st1" width="1" height="3"/>
</g>
<g>
	<rect x="525.1" y="327.1" class="st1" width="0" height="3"/>
</g>
<g>
	<rect x="504.1" y="327.1" class="st1" width="0" height="3"/>
</g>
<g>
	<rect x="492.1" y="327.1" class="st1" width="1" height="3"/>
</g>
<g>
	<rect x="513.1" y="327.1" class="st1" width="1" height="3"/>
</g>
<g>
	<rect x="553.1" y="327.1" class="st1" width="1" height="3"/>
</g>
<g>
	<rect x="564.1" y="327.1" class="st1" width="1" height="3"/>
</g>
<g>
	<rect x="574.1" y="327.1" class="st1" width="1" height="3"/>
</g>
<g>
	<rect x="808.1" y="151.1" class="st1" width="10" height="1"/>
</g>
<g>
	<rect x="818.1" y="235.1" class="st1" width="6" height="1"/>
</g>
<g>
	<rect x="818.1" y="272.1" class="st1" width="6" height="1"/>
</g>
<g>
	<rect x="12.1" y="61.1" class="st1" width="1" height="325"/>
</g>
<g>
	<rect x="18.1" y="63.1" class="st1" width="1" height="321"/>
</g>
<g>
	<rect x="24.1" y="65.1" class="st1" width="1" height="317"/>
</g>
<g>
	<rect x="30.1" y="66.1" class="st1" width="0" height="313"/>
</g>
<g>
	<rect x="52.1" y="72.1" class="st1" width="0" height="299"/>
</g>
<g>
	<rect x="46.1" y="71.1" class="st1" width="1" height="302"/>
</g>
<g>
	<rect x="57.1" y="74.1" class="st1" width="0" height="295"/>
</g>
<g>
	<rect x="62.1" y="75.1" class="st1" width="1" height="292"/>
</g>
<g>
	<rect x="76.1" y="80.1" class="st1" width="0" height="282"/>
</g>
<g>
	<rect x="81.1" y="81.1" class="st1" width="1" height="279"/>
</g>
<g>
	<rect x="85.1" y="82.1" class="st1" width="1" height="276"/>
</g>
<g>
	<rect x="90.1" y="84.1" class="st1" width="1" height="272"/>
</g>
<g>
	<rect x="106.1" y="89.1" class="st1" width="0" height="207"/>
</g>
<g>
	<rect x="110.1" y="90.1" class="st1" width="1" height="205"/>
</g>
<g>
	<rect x="114.1" y="91.1" class="st1" width="1" height="203"/>
</g>
<g>
	<rect x="129.1" y="95.1" class="st1" width="1" height="195"/>
</g>
<g>
	<rect x="133.1" y="96.1" class="st1" width="1" height="193"/>
</g>
<g>
	<rect x="136.1" y="97.1" class="st1" width="1" height="191"/>
</g>
<g>
	<rect x="156.1" y="103.1" class="st1" width="1" height="181"/>
</g>
<g>
	<rect x="178.1" y="104.1" class="st1" width="1" height="179"/>
</g>
<g>
	<polygon class="st1" points="3,376 2.9,375.8 97.3,342.1 97.4,342.3 	"/>
</g>
<g>
	<polygon class="st1" points="3.4,340.9 3.3,340.7 58.1,325.6 58.1,325.8 	"/>
</g>
<g>
	<polygon class="st1" points="2.9,305.4 2.8,305.2 162.1,272.7 162.1,272.8 	"/>
</g>
<g>
	<polygon class="st1" points="2.9,251.9 2.8,251.7 162.1,235.8 162.1,235.9 	"/>
</g>
<g>
	<rect x="3.1" y="198.1" class="st1" width="159" height="1"/>
</g>
<g>
	<polygon class="st1" points="146.1,161.2 2.9,144.6 3,144.5 146.1,161.1 	"/>
</g>
<g>
	<polygon class="st1" points="88.9,109.5 2.9,90.8 3,90.7 89,109.4 	"/>
</g>
<g>
	<polygon class="st1" points="18.1,77 12.1,75.5 12.1,75.3 18.1,76.8 	"/>
</g>
<g>
	<polygon class="st1" points="30.1,80.1 24.6,78.7 24.7,78.6 30.1,80 	"/>
</g>
<g>
	<polygon class="st1" points="52.1,85.7 47.1,84.4 47.1,84.2 52.1,85.5 	"/>
</g>
<g>
	<polygon class="st1" points="62.3,88.4 57.4,87.2 57.5,87 62.4,88.3 	"/>
</g>
<g>
	<polygon class="st1" points="81.1,93.4 76.1,92.1 76.1,92 81.1,93.2 	"/>
</g>
<g>
	<polygon class="st1" points="91.1,95.8 86.1,94.5 86.1,94.3 91.1,95.6 	"/>
</g>
<g>
	<polygon class="st1" points="106.1,99.9 96.6,97.5 96.7,97.3 106.1,99.8 	"/>
</g>
<g>
	<polygon class="st1" points="114.7,102.1 110.6,101 110.7,100.8 114.8,101.9 	"/>
</g>
<g>
	<polygon class="st1" points="129.6,105.8 123.1,104.1 123.1,104 129.7,105.7 	"/>
</g>
<g>
	
		<rect x="15.2" y="125.7" transform="matrix(0.1481 -0.989 0.989 0.1481 -114.1973 124.761)" class="st1" width="0.2" height="5.9"/>
</g>
<g>
	
		<rect x="27.7" y="127.8" transform="matrix(0.1481 -0.989 0.989 0.1481 -105.4811 138.6701)" class="st1" width="0.2" height="5.6"/>
</g>
<g>
	<rect x="49.1" y="131.2" transform="matrix(0.1482 -0.989 0.989 0.1482 -90.3349 162.5446)" class="st1" width="0.2" height="5"/>
</g>
<g>
	<rect x="59.9" y="132.7" transform="matrix(0.148 -0.989 0.989 0.148 -82.6097 174.5335)" class="st1" width="0.2" height="5"/>
</g>
<g>
	
		<rect x="78.9" y="135.7" transform="matrix(0.1481 -0.989 0.989 0.1481 -69.3771 195.8412)" class="st1" width="0.2" height="4.9"/>
</g>
<g>
	
		<rect x="88.2" y="137.3" transform="matrix(0.1481 -0.989 0.989 0.1481 -62.8128 206.2907)" class="st1" width="0.2" height="4.7"/>
</g>
<g>
	
		<rect x="103.8" y="139.3" transform="matrix(0.1481 -0.989 0.989 0.1481 -51.8184 223.6427)" class="st1" width="0.2" height="5.2"/>
</g>
<g>
	
		<rect x="112.6" y="141.2" transform="matrix(0.1482 -0.989 0.989 0.1482 -45.6266 233.453)" class="st1" width="0.2" height="4.1"/>
</g>
<g>
	
		<rect x="126.4" y="142.4" transform="matrix(0.1481 -0.989 0.989 0.1481 -35.8833 248.8763)" class="st1" width="0.2" height="5.7"/>
</g>
<g>
	
		<rect x="134.9" y="144.6" transform="matrix(0.1482 -0.989 0.989 0.1482 -29.8683 258.2522)" class="st1" width="0.2" height="3.7"/>
</g>
<g>
	
		<rect x="148.9" y="141.2" transform="matrix(0.1481 -0.989 0.989 0.1481 -20.0366 273.9647)" class="st1" width="0.2" height="14.8"/>
</g>
<g>
	<polygon class="st1" points="18.1,181.8 12.1,181.5 12.1,181.4 18.1,181.6 	"/>
</g>
<g>
	<polygon class="st1" points="31.1,182.2 25.1,182 25.1,181.9 31.1,182.1 	"/>
</g>
<g>
	<polygon class="st1" points="52.1,183 47.1,182.8 47.1,182.7 52.1,182.8 	"/>
</g>
<g>
	<polygon class="st1" points="62.1,183.4 57.1,183.2 57.1,183.1 62.1,183.2 	"/>
</g>
<g>
	<polygon class="st1" points="80.9,184.1 76.1,183.9 76.1,183.8 81,183.9 	"/>
</g>
<g>
	<polygon class="st1" points="90.7,184.5 86.1,184.3 86.1,184.1 90.8,184.3 	"/>
</g>
<g>
	<polygon class="st1" points="106.1,185.1 96.1,184.7 96.1,184.5 106.1,184.9 	"/>
</g>
<g>
	<polygon class="st1" points="115.1,185.4 111.1,185.2 111.1,185 115.1,185.2 	"/>
</g>
<g>
	<polygon class="st1" points="129.1,185.9 120.1,185.6 120.1,185.4 129.1,185.7 	"/>
</g>
<g>
	<polygon class="st1" points="137.1,186.2 133.1,186 133.1,185.9 137.1,186 	"/>
</g>
<g>
	<polygon class="st1" points="156.1,186.9 153.1,186.8 153.1,186.6 156.1,186.7 	"/>
</g>
<g>
	
		<rect x="12.4" y="233.5" transform="matrix(0.9979 -6.532915e-02 6.532915e-02 0.9979 -15.2286 1.4975)" class="st1" width="5.8" height="0.2"/>
</g>
<g>
	
		<rect x="24.9" y="232.7" transform="matrix(0.9979 -6.532915e-02 6.532915e-02 0.9979 -15.1499 2.3026)" class="st1" width="5.5" height="0.2"/>
</g>
<g>
	
		<rect x="46.7" y="231.3" transform="matrix(0.9979 -6.532915e-02 6.532915e-02 0.9979 -15.0126 3.7043)" class="st1" width="4.9" height="0.2"/>
</g>
<g>
	
		<rect x="57.5" y="230.6" transform="matrix(0.9979 -6.532915e-02 6.532915e-02 0.9979 -14.9436 4.4116)" class="st1" width="5" height="0.2"/>
</g>
<g>
	
		<rect x="76.5" y="229.3" transform="matrix(0.9979 -6.532915e-02 6.532915e-02 0.9979 -14.8182 5.6469)" class="st1" width="4.9" height="0.2"/>
</g>
<g>
	
		<rect x="86" y="228.7" transform="matrix(0.9979 -6.532915e-02 6.532915e-02 0.9979 -14.7589 6.2597)" class="st1" width="4.7" height="0.2"/>
</g>
<g>
	
		<rect x="96.3" y="227.8" transform="matrix(0.9979 -6.532915e-02 6.532915e-02 0.9979 -14.6723 7.1104)" class="st1" width="10.2" height="0.2"/>
</g>
<g>
	
		<rect x="110.7" y="227.1" transform="matrix(0.9979 -6.532915e-02 6.532915e-02 0.9979 -14.6023 7.8504)" class="st1" width="4.1" height="0.2"/>
</g>
<g>
	
		<rect x="120" y="226.3" transform="matrix(0.9979 -6.532915e-02 6.532915e-02 0.9979 -14.5245 8.6294)" class="st1" width="9.4" height="0.2"/>
</g>
<g>
	
		<rect x="133" y="225.6" transform="matrix(0.9979 -6.532915e-02 6.532915e-02 0.9979 -14.4572 9.2878)" class="st1" width="3.6" height="0.2"/>
</g>
<g>
	
		<rect x="147.9" y="224.5" transform="matrix(0.9979 -6.532915e-02 6.532915e-02 0.9979 -14.3485 10.4124)" class="st1" width="8.3" height="0.2"/>
</g>
<g>
	
		<rect x="12.4" y="285.6" transform="matrix(0.9851 -0.1721 0.1721 0.9851 -48.9387 6.9004)" class="st1" width="5.9" height="0.2"/>
</g>
<g>
	<rect x="24.9" y="283.4" transform="matrix(0.9851 -0.1721 0.1721 0.9851 -48.3757 8.993)" class="st1" width="5.6" height="0.2"/>
</g>
<g>
	<rect x="46.7" y="279.7" transform="matrix(0.9851 -0.1721 0.1721 0.9851 -47.4182 12.6379)" class="st1" width="5" height="0.2"/>
</g>
<g>
	<rect x="57.4" y="277.8" transform="matrix(0.9851 -0.1721 0.1721 0.9851 -46.9315 14.451)" class="st1" width="5" height="0.2"/>
</g>
<g>
	
		<rect x="76.5" y="274.5" transform="matrix(0.9851 -0.1721 0.1721 0.9851 -46.0794 17.6803)" class="st1" width="4.9" height="0.2"/>
</g>
<g>
	<rect x="86" y="272.9" transform="matrix(0.9851 -0.1721 0.1721 0.9851 -45.6638 19.2742)" class="st1" width="4.7" height="0.2"/>
</g>
<g>
	
		<rect x="96.3" y="270.6" transform="matrix(0.9851 -0.1721 0.1721 0.9851 -45.0725 21.4943)" class="st1" width="10.3" height="0.2"/>
</g>
<g>
	
		<rect x="110.6" y="268.6" transform="matrix(0.9851 -0.1721 0.1721 0.9851 -44.5611 23.392)" class="st1" width="4.1" height="0.2"/>
</g>
<g>
	
		<rect x="125.1" y="266.1" transform="matrix(0.9851 -0.1721 0.1721 0.9851 -43.9131 25.8674)" class="st1" width="4.3" height="0.2"/>
</g>
<g>
	<rect x="133" y="264.8" transform="matrix(0.9851 -0.1721 0.1721 0.9851 -43.576 27.1559)" class="st1" width="3.7" height="0.2"/>
</g>
<g>
	
		<rect x="153.2" y="261.3" transform="matrix(0.9851 -0.1721 0.1721 0.9851 -42.6774 30.5199)" class="st1" width="3" height="0.2"/>
</g>
<g>
	<polygon class="st1" points="12.1,355.3 12.1,355.1 18.1,353.2 18.1,353.5 	"/>
</g>
<g>
	<polygon class="st1" points="25,351.3 24.9,351.2 30.4,349.4 30.5,349.6 	"/>
</g>
<g>
	<polygon class="st1" points="47.1,344.5 47.1,344.3 52.1,342.8 52.1,342.9 	"/>
</g>
<g>
	<polygon class="st1" points="57.2,341.1 57.1,340.9 62.1,339.4 62.1,339.5 	"/>
</g>
<g>
	<polygon class="st1" points="76.1,335.1 76.1,334.9 80.9,333.4 81,333.5 	"/>
</g>
<g>
	<polygon class="st1" points="86.1,332.1 86.1,331.9 90.7,330.4 90.8,330.6 	"/>
</g>
<g>
	<rect x="983.1" y="61.1" class="st1" width="1" height="325"/>
</g>
<g>
	<rect x="977.1" y="63.1" class="st1" width="1" height="321"/>
</g>
<g>
	<rect x="971.1" y="65.1" class="st1" width="1" height="317"/>
</g>
<g>
	<rect x="965.1" y="66.1" class="st1" width="1" height="313"/>
</g>
<g>
	<rect x="945.1" y="72.1" class="st1" width="0" height="299"/>
</g>
<g>
	<rect x="949.1" y="71.1" class="st1" width="0" height="302"/>
</g>
<g>
	<rect x="938.1" y="74.1" class="st1" width="1" height="295"/>
</g>
<g>
	<rect x="933.1" y="75.1" class="st1" width="1" height="292"/>
</g>
<g>
	<rect x="919.1" y="80.1" class="st1" width="1" height="282"/>
</g>
<g>
	<rect x="914.1" y="81.1" class="st1" width="1" height="279"/>
</g>
<g>
	<rect x="910.1" y="82.1" class="st1" width="1" height="276"/>
</g>
<g>
	<rect x="905.1" y="84.1" class="st1" width="0" height="272"/>
</g>
<g>
	<rect x="889.1" y="89.1" class="st1" width="1" height="207"/>
</g>
<g>
	<rect x="885.1" y="90.1" class="st1" width="0" height="205"/>
</g>
<g>
	<rect x="881.1" y="91.1" class="st1" width="0" height="203"/>
</g>
<g>
	<rect x="866.1" y="95.1" class="st1" width="1" height="195"/>
</g>
<g>
	<rect x="863.1" y="96.1" class="st1" width="1" height="193"/>
</g>
<g>
	<rect x="859.1" y="97.1" class="st1" width="0" height="191"/>
</g>
<g>
	<rect x="839.1" y="103.1" class="st1" width="1" height="181"/>
</g>
<g>
	<rect x="818.1" y="104.1" class="st1" width="0" height="179"/>
</g>
<g>
	<polygon class="st1" points="993.5,376 899.1,342.3 899.1,342.1 993.6,375.8 	"/>
</g>
<g>
	<polygon class="st1" points="993.2,340.9 938.4,325.8 938.5,325.6 993.3,340.7 	"/>
</g>
<g>
	<polygon class="st1" points="993.1,305.4 834.1,272.8 834.1,272.7 993.1,305.2 	"/>
</g>
<g>
	<polygon class="st1" points="993.1,251.9 834.1,235.9 834.1,235.8 993.1,251.7 	"/>
</g>
<g>
	<rect x="834.1" y="198.1" class="st1" width="159" height="1"/>
</g>
<g>
	<polygon class="st1" points="850.1,161.2 850.1,161.1 993.1,144.5 993.1,144.6 	"/>
</g>
<g>
	<polygon class="st1" points="907.1,109.5 907.1,109.4 993.1,90.7 993.1,90.8 	"/>
</g>
<g>
	<polygon class="st1" points="978.1,77 978.1,76.8 984.1,75.3 984.1,75.5 	"/>
</g>
<g>
	<polygon class="st1" points="966.1,80.1 966.1,80 971.5,78.6 971.6,78.7 	"/>
</g>
<g>
	<polygon class="st1" points="944.2,85.7 944.1,85.5 949.1,84.2 949.1,84.4 	"/>
</g>
<g>
	<polygon class="st1" points="934.3,88.4 934.2,88.3 939.1,87 939.1,87.2 	"/>
</g>
<g>
	<polygon class="st1" points="915.1,93.4 915.1,93.2 920.1,92 920.1,92.1 	"/>
</g>
<g>
	<polygon class="st1" points="906.1,95.8 906.1,95.6 910.6,94.4 910.7,94.6 	"/>
</g>
<g>
	<polygon class="st1" points="890.1,99.8 890.1,99.7 899.1,97.3 899.1,97.5 	"/>
</g>
<g>
	<polygon class="st1" points="881.5,102.1 881.4,101.9 885.5,100.8 885.6,101 	"/>
</g>
<g>
	<polygon class="st1" points="866.6,105.8 866.5,105.7 873.1,104 873.1,104.1 	"/>
</g>
<g>
	<polygon class="st1" points="978.1,129.2 978.1,129 984.1,128.2 984.1,128.3 	"/>
</g>
<g>
	<polygon class="st1" points="965.7,131 965.6,130.9 971.1,130.1 971.1,130.2 	"/>
</g>
<g>
	<polygon class="st1" points="944.1,134.2 944.1,134.1 949.1,133.3 949.1,133.5 	"/>
</g>
<g>
	<polygon class="st1" points="934.2,135.8 934.1,135.7 939.1,134.9 939.1,135.1 	"/>
</g>
<g>
	<polygon class="st1" points="915.1,138.7 915.1,138.5 920.1,137.8 920.1,137.9 	"/>
</g>
<g>
	<polygon class="st1" points="905.1,140.1 905.1,139.9 910.1,139.2 910.1,139.4 	"/>
</g>
<g>
	<polygon class="st1" points="890.1,142.4 890.1,142.3 895.1,141.5 895.1,141.7 	"/>
</g>
<g>
	<polygon class="st1" points="881.1,143.7 881,143.5 885.1,142.9 885.1,143.1 	"/>
</g>
<g>
	<polygon class="st1" points="867.1,145.9 867.1,145.7 873.1,144.8 873.1,145 	"/>
</g>
<g>
	<polygon class="st1" points="859.1,147 859.1,146.8 862.7,146.2 862.8,146.4 	"/>
</g>
<g>
	<polygon class="st1" points="840.1,149.9 840.1,149.7 854.7,147.5 854.8,147.7 	"/>
</g>
<g>
	<polygon class="st1" points="978.1,181.8 978.1,181.6 984.1,181.4 984.1,181.5 	"/>
</g>
<g>
	<polygon class="st1" points="965.1,182.2 965.1,182.1 971.1,181.9 971.1,182 	"/>
</g>
<g>
	<polygon class="st1" points="944.1,183 944.1,182.8 949.1,182.7 949.1,182.8 	"/>
</g>
<g>
	<polygon class="st1" points="934.1,183.4 934.1,183.2 939.1,183.1 939.1,183.2 	"/>
</g>
<g>
	<polygon class="st1" points="915.1,184.1 915.1,183.9 920.1,183.8 920.1,183.9 	"/>
</g>
<g>
	<polygon class="st1" points="905.1,184.5 905.1,184.3 910.1,184.1 910.1,184.3 	"/>
</g>
<g>
	<polygon class="st1" points="890.1,185.1 890.1,184.9 900.1,184.5 900.1,184.7 	"/>
</g>
<g>
	<polygon class="st1" points="881.1,185.4 881.1,185.2 885.1,185 885.1,185.2 	"/>
</g>
<g>
	<polygon class="st1" points="867.1,185.9 867.1,185.7 876.1,185.4 876.1,185.6 	"/>
</g>
<g>
	<polygon class="st1" points="859.1,186.2 859.1,186 863.1,185.9 863.1,186 	"/>
</g>
<g>
	<polygon class="st1" points="840.1,186.9 840.1,186.7 843.1,186.6 843.1,186.8 	"/>
</g>
<g>
	<polygon class="st1" points="984.1,233.9 978.1,233.5 978.1,233.3 984.1,233.7 	"/>
</g>
<g>
	<polygon class="st1" points="971.1,233.1 965.1,232.7 965.1,232.5 971.1,232.9 	"/>
</g>
<g>
	<polygon class="st1" points="949.1,231.6 944.1,231.3 944.1,231.1 949.1,231.5 	"/>
</g>
<g>
	<polygon class="st1" points="939.1,230.9 934.1,230.6 934.1,230.4 939.1,230.7 	"/>
</g>
<g>
	<polygon class="st1" points="920.1,229.6 915.1,229.3 915.1,229.2 920.1,229.5 	"/>
</g>
<g>
	<polygon class="st1" points="910.1,229 905.1,228.7 905.1,228.5 910.1,228.9 	"/>
</g>
<g>
	<polygon class="st1" points="900.1,228.3 890.1,227.7 890.1,227.5 900.1,228.2 	"/>
</g>
<g>
	<polygon class="st1" points="885.1,227.4 881,227.1 881.1,227 885.1,227.2 	"/>
</g>
<g>
	<polygon class="st1" points="876.1,226.8 867.1,226.2 867.1,226 876.1,226.6 	"/>
</g>
<g>
	<polygon class="st1" points="863.1,225.9 859.1,225.7 859.1,225.5 863.1,225.7 	"/>
</g>
<g>
	<polygon class="st1" points="848.1,224.9 840.1,224.4 840.1,224.2 848.1,224.8 	"/>
</g>
<g>
	<polygon class="st1" points="984.1,286.3 978.1,285.2 978.1,285.1 984.1,286.1 	"/>
</g>
<g>
	<polygon class="st1" points="971.1,284.1 965.6,283.1 965.7,282.9 971.1,283.9 	"/>
</g>
<g>
	<polygon class="st1" points="949.1,280.3 944.1,279.4 944.1,279.3 949.1,280.1 	"/>
</g>
<g>
	<polygon class="st1" points="939.1,278.4 934.1,277.5 934.2,277.4 939.1,278.2 	"/>
</g>
<g>
	<polygon class="st1" points="920.1,275.1 915.1,274.2 915.1,274.1 920.1,274.9 	"/>
</g>
<g>
	<polygon class="st1" points="910.1,273.4 905.1,272.6 905.1,272.5 910.1,273.3 	"/>
</g>
<g>
	<polygon class="st1" points="900.1,271.6 890.1,269.9 890.1,269.7 900.1,271.5 	"/>
</g>
<g>
	<polygon class="st1" points="885.1,269.1 881,268.4 881.1,268.3 885.1,269 	"/>
</g>
<g>
	<polygon class="st1" points="871.1,266.6 867.1,265.9 867.1,265.7 871.1,266.5 	"/>
</g>
<g>
	<polygon class="st1" points="862.7,265.2 859.1,264.6 859.1,264.4 862.8,265.1 	"/>
</g>
<g>
	<polygon class="st1" points="843.1,261.7 840.1,261.2 840.2,261 843.1,261.6 	"/>
</g>
<g>
	<polygon class="st1" points="984.1,355.3 978.1,353.5 978.1,353.2 984.1,355.1 	"/>
</g>
<g>
	<polygon class="st1" points="971.2,351.3 965.7,349.6 965.8,349.4 971.3,351.2 	"/>
</g>
<g>
	<polygon class="st1" points="949.1,344.5 944.1,342.9 944.2,342.8 949.1,344.3 	"/>
</g>
<g>
	<polygon class="st1" points="939.1,341.1 934.1,339.5 934.2,339.4 939.1,340.9 	"/>
</g>
<g>
	<polygon class="st1" points="920.1,335.1 915.2,333.5 915.3,333.4 920.1,334.9 	"/>
</g>
<g>
	<polygon class="st1" points="910.1,332.1 905.5,330.6 905.6,330.4 910.2,331.9 	"/>
</g>
<g>
	<polygon class="st0" points="716.2,246.1 817.5,267.1 179.5,267.1 280.1,246.1 	"/>
</g>
<g>
	<path class="st1" d="M819.6,268.1H177.4l102.7-22h436.2l0,0L819.6,268.1z M181.6,267.1h633.9l-99.3-21H280.1L181.6,267.1z"/>
</g>
<g>
	<polyline class="st0" points="3,320.9 159.2,283.1 836.1,283.1 993.4,320.9 	"/>
</g>
<g>
	<polygon class="st1" points="993.3,320.7 836,283.1 159.2,283.1 3.1,320.7 3,320.2 159.1,283.1 836.1,283.1 993.4,320.2 	"/>
</g>
<g>
	<polygon class="st1" points="179.1,267.4 179.1,220.1 179.1,220.1 179.1,267.6 279.4,246.1 715.9,246.1 817.1,267.6 817.1,219.1 
		817.1,219.1 817.1,267.4 816.9,267.3 715.5,246.1 279.8,246.1 	"/>
</g>
<g>
	<polygon class="st1" points="993.3,390 836,330.1 159.2,330.1 3.1,390 3,389.6 159.2,330.1 836.1,330.1 993.4,389.6 	"/>
</g>
<g>
	<polygon class="st1" points="836.1,104.1 159.1,104.1 3,58.6 3.1,58.2 159.2,105.1 836,105.1 993.3,58.2 993.4,58.6 	"/>
</g>
<g>
	<polyline class="st0" points="3,113.2 159.2,140.1 836.1,140.1 993.4,113.2 	"/>
</g>
<g>
	<polygon class="st1" points="159.2,141.1 3,113.8 3.1,113.4 159.2,140.1 836.1,140.1 993.3,113.4 993.4,113.8 836.1,141.1 	"/>
</g>
<g>
	<polyline class="st0" points="3,166.8 159.2,178.1 836.1,178.1 993.4,166.8 	"/>
</g>
<g>
	<polygon class="st1" points="159.2,178.1 3,166.6 3.1,166.2 159.2,178.1 836.1,178.1 993.3,166.2 993.4,166.6 836.1,178.1 	"/>
</g>
<g>
	<polyline class="st0" points="3,213.9 159.2,210.1 836.1,210.1 993.4,213.9 	"/>
</g>
<g>
	<polygon class="st1" points="993.1,213.8 836.1,210.1 159.2,210.1 3.1,213.8 3.1,213.3 159.2,209.1 836.1,209.1 993.1,213.3 	"/>
</g>
<g>
	<rect x="423.1" y="137.1" class="st0" width="152" height="23"/>
</g>
<g>
	<rect x="423.1" y="217.1" class="st0" width="152" height="33"/>
</g>
<g>
	<rect x="423.1" y="174.1" class="st0" width="152" height="38"/>
</g>
<g>
	<rect x="423.1" y="78.1" class="st0" width="152" height="31"/>
</g>
<g>
	<rect x="345.1" y="286.1" class="st1" width="308" height="1"/>
</g>
<g>
	<rect x="423.1" y="272.1" class="st0" width="152" height="16"/>
</g>
<g>
	<path class="st1" d="M575.2,212.1H422.1v-41h153v41H575.2z M423.1,212.1h152v-41h-152V212.1z"/>
</g>
<g>
	<path class="st1" d="M575.2,258.1H422.1v-39h153v39H575.2z M423.1,258.1h152v-39h-152V258.1z"/>
</g>
<g>
	<path class="st1" d="M575.2,304.1H422.1v-31h153v31H575.2z M423.1,305.1h152v-31h-152V305.1z"/>
</g>
<g>
	<path class="st1" d="M575.2,161.1H422.1v-36h153v36H575.2z M423.1,160.1h152v-35h-152V160.1z"/>
</g>
<g>
	<path class="st1" d="M575.2,108.1H422.1v-30h153v30H575.2z M423.1,107.1h152v-29h-152V107.1z"/>
</g>
<g>
	<rect x="428.1" y="213.1" class="st1" width="0" height="45"/>
</g>
<g>
	<rect x="428.1" y="171.1" class="st1" width="0" height="41"/>
</g>
<g>
	<rect x="428.1" y="125.1" class="st1" width="0" height="41"/>
</g>
<g>
	<rect x="428.1" y="77.1" class="st1" width="0" height="36"/>
</g>
<g>
	<rect x="569.1" y="213.1" class="st1" width="1" height="45"/>
</g>
<g>
	<rect x="569.1" y="171.1" class="st1" width="1" height="41"/>
</g>
<g>
	<rect x="569.1" y="125.1" class="st1" width="1" height="41"/>
</g>
<g>
	<rect x="569.1" y="77.1" class="st1" width="1" height="36"/>
</g>
<g>
	<rect x="555.1" y="213.1" class="st1" width="1" height="45"/>
</g>
<g>
	<rect x="555.1" y="171.1" class="st1" width="1" height="41"/>
</g>
<g>
	<rect x="555.1" y="125.1" class="st1" width="1" height="41"/>
</g>
<g>
	<rect x="555.1" y="77.1" class="st1" width="1" height="36"/>
</g>
<g>
	<rect x="532.1" y="213.1" class="st1" width="1" height="45"/>
</g>
<g>
	<rect x="532.1" y="171.1" class="st1" width="1" height="41"/>
</g>
<g>
	<rect x="532.1" y="125.1" class="st1" width="1" height="41"/>
</g>
<g>
	<rect x="532.1" y="77.1" class="st1" width="1" height="36"/>
</g>
<g>
	<rect x="519.1" y="213.1" class="st1" width="1" height="45"/>
</g>
<g>
	<rect x="519.1" y="171.1" class="st1" width="1" height="41"/>
</g>
<g>
	<rect x="519.1" y="125.1" class="st1" width="1" height="41"/>
</g>
<g>
	<rect x="519.1" y="77.1" class="st1" width="1" height="36"/>
</g>
<g>
	<rect x="505.1" y="213.1" class="st1" width="1" height="45"/>
</g>
<g>
	<rect x="505.1" y="171.1" class="st1" width="1" height="41"/>
</g>
<g>
	<rect x="505.1" y="125.1" class="st1" width="1" height="41"/>
</g>
<g>
	<rect x="505.1" y="77.1" class="st1" width="1" height="36"/>
</g>
<g>
	<rect x="492.1" y="213.1" class="st1" width="1" height="45"/>
</g>
<g>
	<rect x="492.1" y="171.1" class="st1" width="1" height="41"/>
</g>
<g>
	<rect x="492.1" y="125.1" class="st1" width="1" height="41"/>
</g>
<g>
	<rect x="492.1" y="77.1" class="st1" width="1" height="36"/>
</g>
<g>
	<rect x="479.1" y="213.1" class="st1" width="0" height="45"/>
</g>
<g>
	<rect x="479.1" y="171.1" class="st1" width="0" height="41"/>
</g>
<g>
	<rect x="479.1" y="125.1" class="st1" width="0" height="41"/>
</g>
<g>
	<rect x="479.1" y="77.1" class="st1" width="0" height="36"/>
</g>
<g>
	<rect x="442.1" y="213.1" class="st1" width="0" height="45"/>
</g>
<g>
	<rect x="442.1" y="171.1" class="st1" width="0" height="41"/>
</g>
<g>
	<rect x="442.1" y="125.1" class="st1" width="0" height="41"/>
</g>
<g>
	<rect x="442.1" y="77.1" class="st1" width="0" height="36"/>
</g>
<g>
	<rect x="466.1" y="213.1" class="st1" width="0" height="45"/>
</g>
<g>
	<rect x="466.1" y="171.1" class="st1" width="0" height="41"/>
</g>
<g>
	<rect x="466.1" y="125.1" class="st1" width="0" height="41"/>
</g>
<g>
	<rect x="466.1" y="77.1" class="st1" width="0" height="36"/>
</g>
<g>
	<rect x="442.1" y="90.1" class="st1" width="13" height="1"/>
</g>
<g>
	<rect x="428.1" y="152.1" class="st1" width="141" height="1"/>
</g>
<g>
	<rect x="428.1" y="198.1" class="st1" width="141" height="0"/>
</g>
<g>
	<rect x="428.1" y="244.1" class="st1" width="141" height="1"/>
</g>
<g>
	<rect x="465.1" y="291.1" class="st1" width="67" height="1"/>
</g>
<g>
	<rect x="542.1" y="291.1" class="st1" width="27" height="1"/>
</g>
<g>
	<rect x="427.1" y="291.1" class="st1" width="28" height="1"/>
</g>
<g>
	<rect x="423.1" y="298.1" class="st1" width="152" height="1"/>
</g>
<g>
	<rect x="428.1" y="105.1" class="st1" width="141" height="1"/>
</g>
<g>
	<rect x="543.1" y="90.1" class="st1" width="13" height="1"/>
</g>
<g>
	<rect x="519.1" y="90.1" class="st1" width="13" height="1"/>
</g>
<g>
	<rect x="492.1" y="90.1" class="st1" width="13" height="1"/>
</g>
<g>
	<rect x="465.1" y="90.1" class="st1" width="13" height="1"/>
</g>
<g>
	<rect x="442.1" y="183.1" class="st1" width="13" height="0"/>
</g>
<g>
	<rect x="543.1" y="183.1" class="st1" width="13" height="0"/>
</g>
<g>
	<rect x="519.1" y="183.1" class="st1" width="13" height="0"/>
</g>
<g>
	<rect x="492.1" y="183.1" class="st1" width="13" height="0"/>
</g>
<g>
	<rect x="465.1" y="183.1" class="st1" width="13" height="0"/>
</g>
<g>
	<rect x="442.1" y="136.1" class="st1" width="13" height="1"/>
</g>
<g>
	<rect x="543.1" y="136.1" class="st1" width="13" height="1"/>
</g>
<g>
	<rect x="519.1" y="136.1" class="st1" width="13" height="1"/>
</g>
<g>
	<rect x="492.1" y="136.1" class="st1" width="13" height="1"/>
</g>
<g>
	<rect x="465.1" y="136.1" class="st1" width="13" height="1"/>
</g>
<g>
	<rect x="442.1" y="229.1" class="st1" width="13" height="1"/>
</g>
<g>
	<rect x="543.1" y="229.1" class="st1" width="13" height="1"/>
</g>
<g>
	<rect x="519.1" y="229.1" class="st1" width="13" height="1"/>
</g>
<g>
	<rect x="492.1" y="229.1" class="st1" width="13" height="1"/>
</g>
<g>
	<rect x="465.1" y="229.1" class="st1" width="13" height="1"/>
</g>
<g>
	<rect x="442.1" y="276.1" class="st1" width="13" height="1"/>
</g>
<g>
	<rect x="543.1" y="276.1" class="st1" width="13" height="1"/>
</g>
<g>
	<rect x="519.1" y="276.1" class="st1" width="13" height="1"/>
</g>
<g>
	<rect x="492.1" y="276.1" class="st1" width="13" height="1"/>
</g>
<g>
	<rect x="465.1" y="276.1" class="st1" width="13" height="1"/>
</g>
<g>
	<rect x="428.1" y="273.1" class="st1" width="0" height="25"/>
</g>
<g>
	<rect x="569.1" y="273.1" class="st1" width="1" height="25"/>
</g>
<g>
	<rect x="555.1" y="273.1" class="st1" width="1" height="25"/>
</g>
<g>
	<rect x="532.1" y="273.1" class="st1" width="1" height="25"/>
</g>
<g>
	<rect x="519.1" y="273.1" class="st1" width="1" height="25"/>
</g>
<g>
	<rect x="505.1" y="273.1" class="st1" width="1" height="25"/>
</g>
<g>
	<rect x="492.1" y="273.1" class="st1" width="1" height="25"/>
</g>
<g>
	<rect x="479.1" y="273.1" class="st1" width="0" height="25"/>
</g>
<g>
	<rect x="442.1" y="273.1" class="st1" width="0" height="25"/>
</g>
<g>
	<rect x="465.1" y="273.1" class="st1" width="1" height="25"/>
</g>
<g>
	<rect x="162.1" y="178.1" class="st0" width="3" height="32"/>
</g>
<g>
	<path class="st1" d="M165.1,210.1h-4v-32h4V210.1z M162.1,209.1h3v-31h-3V209.1z"/>
</g>
<g>
	<rect x="142.1" y="176.1" class="st0" width="3" height="34"/>
</g>
<g>
	<path class="st1" d="M145.1,210.1h-4v-35h4V210.1z M142.1,210.1h3v-34h-3V210.1z"/>
</g>
<g>
	<rect x="142.1" y="137.1" class="st0" width="3" height="24"/>
</g>
<g>
	<path class="st1" d="M145.1,161.1h-4v-24h4V161.1z M142.1,160.1h3v-23h-3V160.1z"/>
</g>
<g>
	<rect x="142.1" y="98.1" class="st0" width="3" height="9"/>
</g>
<g>
	<path class="st1" d="M145.1,107.1h-4v-10h4V107.1z M142.1,107.1h3v-9h-3V107.1z"/>
</g>
<g>
	<rect x="831.1" y="251.1" class="st0" width="3" height="32"/>
</g>
<g>
	<path class="st1" d="M835.1,283.1h-4v-32h4V283.1z M832.1,283.1h3v-32h-3V283.1z"/>
</g>
<g>
	<rect x="817.1" y="247.1" class="st0" width="17" height="4"/>
</g>
<g>
	<path class="st1" d="M834.1,251.1h-17v-4h17V251.1z M818.1,251.1h17v-4h-17V251.1z"/>
</g>
<g>
	<polygon class="st0" points="990.1,274.2 834.1,250.7 834.1,246.5 990.1,266.9 	"/>
</g>
<g>
	<path class="st1" d="M990.1,274.1L990.1,274.1l-156-23.5v-4.5h0.1l155.9,20.5V274.1z M834.1,250.6l156,23.5v-7l-156-20.5V250.6z"/>
</g>
<g>
	<rect x="951.1" y="326.1" class="st0" width="6" height="51"/>
</g>
<g>
	<path class="st1" d="M957.1,377.1h-6v-51h6V377.1z M951.1,377.1h6v-51h-6V377.1z"/>
</g>
<g>
	<rect x="951.1" y="268.1" class="st0" width="6" height="45"/>
</g>
<g>
	<path class="st1" d="M957.1,313.1h-6v-45h6V313.1z M951.1,312.1h6v-44h-6V312.1z"/>
</g>
<g>
	<rect x="951.1" y="168.1" class="st0" width="6" height="44"/>
</g>
<g>
	<path class="st1" d="M957.1,212.1h-6v-44h6V212.1z M951.1,212.1h6v-44h-6V212.1z"/>
</g>
<g>
	<rect x="951.1" y="118.1" class="st0" width="6" height="44"/>
</g>
<g>
	<path class="st1" d="M957.1,162.1h-6v-44h6V162.1z M951.1,162.1h6v-44h-6V162.1z"/>
</g>
<g>
	<rect x="951.1" y="68.1" class="st0" width="6" height="39"/>
</g>
<g>
	<path class="st1" d="M957.1,107.1h-6v-39h6V107.1z M951.1,107.1h6v-39h-6V107.1z"/>
</g>
<g>
	<rect x="922.1" y="327.1" class="st0" width="6" height="39"/>
</g>
<g>
	<path class="st1" d="M928.1,366.1h-6v-40h6V366.1z M923.1,366.1h5v-39h-5V366.1z"/>
</g>
<g>
	<rect x="922.1" y="264.1" class="st0" width="6" height="41"/>
</g>
<g>
	<path class="st1" d="M928.1,305.1h-6v-41h6V305.1z M923.1,305.1h5v-41h-5V305.1z"/>
</g>
<g>
	<rect x="922.1" y="171.1" class="st0" width="6" height="42"/>
</g>
<g>
	<path class="st1" d="M928.1,213.1h-6v-42h6V213.1z M923.1,212.1h5v-42h-5V212.1z"/>
</g>
<g>
	<rect x="922.1" y="124.1" class="st0" width="6" height="38"/>
</g>
<g>
	<path class="st1" d="M928.1,162.1h-6v-38h6V162.1z M923.1,162.1h5v-37h-5V162.1z"/>
</g>
<g>
	<rect x="922.1" y="77.1" class="st0" width="6" height="30"/>
</g>
<g>
	<path class="st1" d="M928.1,108.1h-6v-31h6V108.1z M923.1,107.1h5v-30h-5V107.1z"/>
</g>
<g>
	<rect x="895.1" y="327.1" class="st0" width="5" height="28"/>
</g>
<g>
	<path class="st1" d="M900.1,355.1h-5v-29h5V355.1z M895.1,355.1h5v-28h-5V355.1z"/>
</g>
<g>
	<rect x="895.1" y="260.1" class="st0" width="5" height="39"/>
</g>
<g>
	<path class="st1" d="M900.1,299.1h-5v-39h5V299.1z M895.1,299.1h5v-39h-5V299.1z"/>
</g>
<g>
	<rect x="895.1" y="173.1" class="st0" width="5" height="39"/>
</g>
<g>
	<path class="st1" d="M900.1,212.1h-5v-39h5V212.1z M895.1,211.1h5v-38h-5V211.1z"/>
</g>
<g>
	<rect x="895.1" y="129.1" class="st0" width="5" height="31"/>
</g>
<g>
	<path class="st1" d="M900.1,161.1h-5v-32h5V161.1z M895.1,160.1h5v-31h-5V160.1z"/>
</g>
<g>
	<rect x="851.1" y="137.1" class="st0" width="3" height="23"/>
</g>
<g>
	<path class="st1" d="M854.1,160.1h-3v-23h3V160.1z M851.1,160.1h3v-23h-3V160.1z"/>
</g>
<g>
	<rect x="851.1" y="98.1" class="st0" width="3" height="9"/>
</g>
<g>
	<path class="st1" d="M854.1,107.1h-3v-9h3V107.1z M851.1,107.1h3v-9h-3V107.1z"/>
</g>
<g>
	<rect x="851.1" y="177.1" class="st0" width="3" height="33"/>
</g>
<g>
	<path class="st1" d="M854.1,210.1h-3v-34h3V210.1z M851.1,210.1h3v-33h-3V210.1z"/>
</g>
<g>
	<rect x="851.1" y="220.1" class="st0" width="3" height="29"/>
</g>
<g>
	<path class="st1" d="M854.1,249.1h-3v-30h3V249.1z M851.1,249.1h3v-29h-3V249.1z"/>
</g>
<g>
	<rect x="851.1" y="253.1" class="st0" width="3" height="34"/>
</g>
<g>
	<path class="st1" d="M854.1,288.1h-3v-35h3V288.1z M851.1,287.1h3v-34h-3V287.1z"/>
</g>
<g>
	<rect x="895.1" y="85.1" class="st0" width="5" height="22"/>
</g>
<g>
	<path class="st1" d="M900.1,108.1h-5v-23h5V108.1z M895.1,107.1h5v-22h-5V107.1z"/>
</g>
<g>
	<rect x="983.1" y="269.1" class="st0" width="7" height="4"/>
</g>
<g>
	<path class="st1" d="M991.1,273.1h-8v-5h8V273.1z M983.1,273.1h7v-4h-7V273.1z"/>
</g>
<g>
	<polygon class="st0" points="983.1,268.7 831.1,247.6 831.1,250.7 983.1,273 	"/>
</g>
<g>
	<path class="st1" d="M983.1,272.7L983.1,272.7l-152-22.3v-3.3h0.1l151.9,21V272.7z M832.1,250.6l151,22.2v-4l-151-21V250.6z"/>
</g>
<g>
	<polygon class="st0" points="831.5,248.1 834.9,248.1 990.4,269.1 983,269.1 	"/>
</g>
<g>
	<path class="st1" d="M990.1,269.1h-7.4l-151.6-20.8v-0.2h3.4l155.6,20.8V269.1z M832.5,248.1l151.1,21h5.6l-155.2-21H832.5z"/>
</g>
<g>
	<rect x="922.1" y="219.1" class="st0" width="6" height="41"/>
</g>
<g>
	<path class="st1" d="M928.1,260.1h-6v-41h6V260.1z M923.1,260.1h5v-41h-5V260.1z"/>
</g>
<g>
	<rect x="951.1" y="219.1" class="st0" width="6" height="45"/>
</g>
<g>
	<path class="st1" d="M957.1,264.1h-6v-45h6V264.1z M951.1,264.1h6v-45h-6V264.1z"/>
</g>
<g>
	<rect x="895.1" y="219.1" class="st0" width="5" height="37"/>
</g>
<g>
	<path class="st1" d="M900.1,257.1h-5v-38h5V257.1z M895.1,256.1h5v-37h-5V256.1z"/>
</g>
<g>
	<rect x="831.1" y="178.1" class="st0" width="3" height="32"/>
</g>
<g>
	<path class="st1" d="M835.1,210.1h-4v-32h4V210.1z M832.1,210.1h3v-32h-3V210.1z"/>
</g>
<g>
	<rect x="831.1" y="140.1" class="st0" width="3" height="20"/>
</g>
<g>
	<path class="st1" d="M835.1,161.1h-4v-20h4V161.1z M832.1,160.1h3v-20h-3V160.1z"/>
</g>
<g>
	<rect x="831.1" y="104.1" class="st0" width="3" height="3"/>
</g>
<g>
	<path class="st1" d="M835.1,107.1h-4v-3h4V107.1z M832.1,107.1h3v-3h-3V107.1z"/>
</g>
<g>
	<rect x="990.1" y="267.1" class="st0" width="2" height="7"/>
</g>
<g>
	<path class="st1" d="M993.1,274.1h-3v-8h3V274.1z M990.1,274.1h2v-7h-2V274.1z"/>
</g>
<g>
	<rect x="817.1" y="248.1" class="st0" width="14" height="3"/>
</g>
<g>
	<path class="st1" d="M831.1,251.1h-14v-3h14V251.1z M817.1,251.1h14v-3h-14V251.1z"/>
</g>
<g>
	<rect x="831.1" y="219.1" class="st0" width="3" height="29"/>
</g>
<g>
	<path class="st1" d="M835.1,248.1h-4v-29h4V248.1z M832.1,247.1h3v-28h-3V247.1z"/>
</g>
<g>
	<rect x="162.1" y="250.1" class="st0" width="3" height="33"/>
</g>
<g>
	<path class="st1" d="M165.1,283.1h-4v-33h4V283.1z M162.1,283.1h3v-32h-3V283.1z"/>
</g>
<g>
	<rect x="142.1" y="254.1" class="st0" width="3" height="34"/>
</g>
<g>
	<path class="st1" d="M145.1,288.1h-4v-35h4V288.1z M142.1,288.1h3v-34h-3V288.1z"/>
</g>
<g>
	<rect x="162.1" y="247.1" class="st0" width="18" height="4"/>
</g>
<g>
	<path class="st1" d="M179.1,251.1h-18v-4h18V251.1z M161.1,251.1h18v-4h-18V251.1z"/>
</g>
<g>
	<polygon class="st0" points="6.1,274.2 162.1,250.7 162.1,246.5 6.1,266.9 	"/>
</g>
<g>
	<path class="st1" d="M6.1,274.6v-7.5h0.1l155.9-20.5v4.5H162L6.1,274.6z M6.1,267.1v7l156-23.5v-4L6.1,267.1z"/>
</g>
<g>
	<rect x="39.1" y="268.1" class="st0" width="6" height="45"/>
</g>
<g>
	<path class="st1" d="M45.1,313.1h-6v-45h6V313.1z M39.1,312.1h6v-44h-6V312.1z"/>
</g>
<g>
	<rect x="39.1" y="327.1" class="st0" width="6" height="51"/>
</g>
<g>
	<path class="st1" d="M45.1,378.1h-6v-51h6V378.1z M39.1,378.1h6v-51h-6V378.1z"/>
</g>
<g>
	<rect x="39.1" y="168.1" class="st0" width="6" height="44"/>
</g>
<g>
	<path class="st1" d="M45.1,212.1h-6v-44h6V212.1z M39.1,212.1h6v-44h-6V212.1z"/>
</g>
<g>
	<rect x="39.1" y="118.1" class="st0" width="6" height="44"/>
</g>
<g>
	<path class="st1" d="M45.1,162.1h-6v-44h6V162.1z M39.1,162.1h6v-44h-6V162.1z"/>
</g>
<g>
	<rect x="39.1" y="68.1" class="st0" width="6" height="39"/>
</g>
<g>
	<path class="st1" d="M45.1,107.1h-6v-39h6V107.1z M39.1,107.1h6v-39h-6V107.1z"/>
</g>
<g>
	<rect x="68.1" y="264.1" class="st0" width="6" height="41"/>
</g>
<g>
	<path class="st1" d="M74.1,305.1h-6v-41h6V305.1z M69.1,305.1h5v-41h-5V305.1z"/>
</g>
<g>
	<rect x="68.1" y="326.1" class="st0" width="6" height="40"/>
</g>
<g>
	<path class="st1" d="M74.1,366.1h-6v-40h6V366.1z M69.1,366.1h5v-39h-5V366.1z"/>
</g>
<g>
	<rect x="68.1" y="170.1" class="st0" width="6" height="42"/>
</g>
<g>
	<path class="st1" d="M74.1,213.1h-6v-42h6V213.1z M69.1,212.1h5v-42h-5V212.1z"/>
</g>
<g>
	<rect x="68.1" y="124.1" class="st0" width="6" height="38"/>
</g>
<g>
	<path class="st1" d="M74.1,162.1h-6v-38h6V162.1z M69.1,162.1h5v-37h-5V162.1z"/>
</g>
<g>
	<rect x="68.1" y="77.1" class="st0" width="6" height="30"/>
</g>
<g>
	<path class="st1" d="M74.1,108.1h-6v-31h6V108.1z M69.1,107.1h5v-30h-5V107.1z"/>
</g>
<g>
	<rect x="96.1" y="260.1" class="st0" width="5" height="39"/>
</g>
<g>
	<path class="st1" d="M101.1,299.1h-5v-39h5V299.1z M96.1,299.1h5v-39h-5V299.1z"/>
</g>
<g>
	<rect x="96.1" y="327.1" class="st0" width="5" height="29"/>
</g>
<g>
	<path class="st1" d="M101.1,356.1h-5v-29h5V356.1z M96.1,356.1h5v-29h-5V356.1z"/>
</g>
<g>
	<rect x="96.1" y="173.1" class="st0" width="5" height="39"/>
</g>
<g>
	<path class="st1" d="M101.1,212.1h-5v-39h5V212.1z M96.1,211.1h5v-38h-5V211.1z"/>
</g>
<g>
	<rect x="96.1" y="129.1" class="st0" width="5" height="31"/>
</g>
<g>
	<path class="st1" d="M101.1,161.1h-5v-32h5V161.1z M96.1,160.1h5v-31h-5V160.1z"/>
</g>
<g>
	<rect x="96.1" y="85.1" class="st0" width="5" height="22"/>
</g>
<g>
	<path class="st1" d="M101.1,108.1h-5v-23h5V108.1z M96.1,107.1h5v-22h-5V107.1z"/>
</g>
<g>
	<rect x="6.1" y="269.1" class="st0" width="7" height="4"/>
</g>
<g>
	<path class="st1" d="M13.1,273.1h-8v-5h8V273.1z M6.1,273.1h7v-4h-7V273.1z"/>
</g>
<g>
	<polygon class="st0" points="13.1,268.7 165.1,247.6 165.1,250.7 13.1,273 	"/>
</g>
<g>
	<path class="st1" d="M13.1,273.8v-4.7h0.1l151.9-21.4v3.4H165L13.1,273.8z M13.1,268.8v4l151-22.2v-2.8L13.1,268.8z"/>
</g>
<g>
	<polygon class="st0" points="164.8,248.1 161.4,248.1 5.9,269.1 13.3,269.1 	"/>
</g>
<g>
	<path class="st1" d="M6.1,269.1v-0.2l155.6-20.8h3.4v0.2L13.5,269.1H6.1z M6.9,269.1h5.6l151.1-21H162L6.9,269.1z"/>
</g>
<g>
	<rect x="68.1" y="219.1" class="st0" width="6" height="41"/>
</g>
<g>
	<path class="st1" d="M74.1,260.1h-6v-41h6V260.1z M69.1,260.1h5v-41h-5V260.1z"/>
</g>
<g>
	<rect x="39.1" y="219.1" class="st0" width="6" height="45"/>
</g>
<g>
	<path class="st1" d="M45.1,264.1h-6v-45h6V264.1z M39.1,264.1h6v-45h-6V264.1z"/>
</g>
<g>
	<rect x="96.1" y="219.1" class="st0" width="5" height="37"/>
</g>
<g>
	<path class="st1" d="M101.1,257.1h-5v-38h5V257.1z M96.1,256.1h5v-37h-5V256.1z"/>
</g>
<g>
	<rect x="162.1" y="140.1" class="st0" width="3" height="20"/>
</g>
<g>
	<path class="st1" d="M165.1,160.1h-4v-20h4V160.1z M162.1,160.1h3v-20h-3V160.1z"/>
</g>
<g>
	<rect x="4.1" y="267.1" class="st0" width="2" height="7"/>
</g>
<g>
	<path class="st1" d="M6.1,274.1h-3v-8h3V274.1z M4.1,274.1h2v-7h-2V274.1z"/>
</g>
<g>
	<rect x="165.1" y="248.1" class="st0" width="15" height="3"/>
</g>
<g>
	<path class="st1" d="M180.1,251.1h-15v-3h15V251.1z M165.1,251.1h14v-3h-14V251.1z"/>
</g>
<g>
	<rect x="162.1" y="219.1" class="st0" width="3" height="29"/>
</g>
<g>
	<path class="st1" d="M165.1,248.1h-4v-29h4V248.1z M162.1,247.1h3v-28h-3V247.1z"/>
</g>
<g>
	<rect x="142.1" y="219.1" class="st0" width="3" height="30"/>
</g>
<g>
	<path class="st1" d="M145.1,249.1h-4v-30h4V249.1z M142.1,249.1h3v-30h-3V249.1z"/>
</g>
<g>
	<rect x="466.1" y="326.1" class="st0" width="2" height="12"/>
</g>
<g>
	<path class="st1" d="M468.1,338.1h-2v-12h2V338.1z M466.1,338.1h2v-12h-2V338.1z"/>
</g>
<g>
	<rect x="464.1" y="327.1" class="st0" width="2" height="20"/>
</g>
<g>
	<path class="st1" d="M466.1,346.1h-2v-20h2V346.1z M464.1,347.1h2v-20h-2V347.1z"/>
</g>
<g>
	<rect x="461.1" y="326.1" class="st0" width="3" height="30"/>
</g>
<g>
	<path class="st1" d="M464.1,356.1h-3v-30h3V356.1z M461.1,356.1h3v-30h-3V356.1z"/>
</g>
<g>
	<rect x="458.1" y="327.1" class="st0" width="4" height="40"/>
</g>
<g>
	<path class="st1" d="M462.1,366.1h-5v-40h5V366.1z M458.1,367.1h4v-40h-4V367.1z"/>
</g>
<g>
	<rect x="871.1" y="118.1" class="st0" width="5" height="44"/>
</g>
<g>
	<path class="st1" d="M876.1,162.1h-5v-44h5V162.1z M871.1,162.1h5v-44h-5V162.1z"/>
</g>
<g>
	<rect x="871.1" y="168.1" class="st0" width="5" height="44"/>
</g>
<g>
	<path class="st1" d="M876.1,212.1h-5v-44h5V212.1z M871.1,212.1h5v-44h-5V212.1z"/>
</g>
<g>
	<rect x="871.1" y="219.1" class="st0" width="5" height="94"/>
</g>
<g>
	<path class="st1" d="M876.1,313.1h-5v-94h5V313.1z M871.1,313.1h5v-94h-5V313.1z"/>
</g>
<g>
	<rect x="871.1" y="68.1" class="st0" width="5" height="39"/>
</g>
<g>
	<path class="st1" d="M876.1,107.1h-5v-39h5V107.1z M871.1,107.1h5v-39h-5V107.1z"/>
</g>
<g>
	<rect x="845.1" y="124.1" class="st0" width="7" height="37"/>
</g>
<g>
	<path class="st1" d="M852.1,161.1h-7v-37h7V161.1z M846.1,160.1h6v-37h-6V160.1z"/>
</g>
<g>
	<rect x="845.1" y="171.1" class="st0" width="7" height="41"/>
</g>
<g>
	<path class="st1" d="M852.1,212.1h-7v-42h7V212.1z M846.1,212.1h6v-41h-6V212.1z"/>
</g>
<g>
	<rect x="845.1" y="219.1" class="st0" width="7" height="86"/>
</g>
<g>
	<path class="st1" d="M852.1,305.1h-7v-86h7V305.1z M846.1,305.1h6v-86h-6V305.1z"/>
</g>
<g>
	<rect x="801.1" y="273.1" class="st0" width="7" height="19"/>
</g>
<g>
	<path class="st1" d="M809.1,293.1h-8v-20h8V293.1z M801.1,292.1h7v-19h-7V292.1z"/>
</g>
<g>
	<rect x="801.1" y="174.1" class="st0" width="7" height="36"/>
</g>
<g>
	<path class="st1" d="M809.1,211.1h-8v-37h8V211.1z M801.1,210.1h7v-36h-7V210.1z"/>
</g>
<g>
	<rect x="801.1" y="133.1" class="st0" width="7" height="27"/>
</g>
<g>
	<path class="st1" d="M809.1,160.1h-8v-27h8V160.1z M801.1,160.1h7v-27h-7V160.1z"/>
</g>
<g>
	<rect x="801.1" y="92.1" class="st0" width="7" height="15"/>
</g>
<g>
	<path class="st1" d="M809.1,107.1h-8v-15h8V107.1z M801.1,107.1h7v-15h-7V107.1z"/>
</g>
<g>
	<rect x="845.1" y="77.1" class="st0" width="7" height="30"/>
</g>
<g>
	<path class="st1" d="M852.1,108.1h-7v-31h7V108.1z M846.1,107.1h6v-30h-6V107.1z"/>
</g>
<g>
	<polygon class="st0" points="845.1,123.7 842.1,124.7 842.1,160.1 845.1,160.1 	"/>
</g>
<g>
	<path class="st1" d="M845.1,161.1h-3v-36l3-1.1V161.1z M843.1,160.1h2v-36.2l-2,0.9V160.1z"/>
</g>
<g>
	<polygon class="st0" points="845.1,170.7 842.1,171 842.1,212.1 845.1,212.1 	"/>
</g>
<g>
	<path class="st1" d="M845.1,212.1h-3v-41.4l3-0.4V212.1z M843.1,212.1h2v-41.3l-2,0.3V212.1z"/>
</g>
<g>
	<polygon class="st0" points="845.1,219.1 842.1,219.1 842.1,304.6 845.1,305.3 	"/>
</g>
<g>
	<path class="st1" d="M845.1,305.2l-3-0.7v-85.4h3V305.2z M843.1,304.5l2,0.6v-86h-2V304.5z"/>
</g>
<g>
	<polygon class="st0" points="845.1,77.1 842.1,78.8 842.1,107.1 845.1,107.1 	"/>
</g>
<g>
	<path class="st1" d="M845.1,108.1h-3V79.2l3-1.8V108.1z M843.1,107.1h2V77.3l-2,1.6V107.1z"/>
</g>
<g>
	<rect x="824.1" y="85.1" class="st0" width="4" height="22"/>
</g>
<g>
	<path class="st1" d="M828.1,108.1h-4v-23h4V108.1z M824.1,107.1h4v-22h-4V107.1z"/>
</g>
<g>
	<rect x="824.1" y="129.1" class="st0" width="4" height="32"/>
</g>
<g>
	<path class="st1" d="M828.1,161.1h-4v-32h4V161.1z M824.1,160.1h4v-31h-4V160.1z"/>
</g>
<g>
	<rect x="824.1" y="173.1" class="st0" width="4" height="39"/>
</g>
<g>
	<path class="st1" d="M828.1,212.1h-4v-39h4V212.1z M824.1,212.1h4v-39h-4V212.1z"/>
</g>
<g>
	<rect x="824.1" y="219.1" class="st0" width="4" height="79"/>
</g>
<g>
	<path class="st1" d="M828.1,298.1h-4v-79h4V298.1z M824.1,298.1h4v-79h-4V298.1z"/>
</g>
<g>
	<rect x="120.1" y="118.1" class="st0" width="5" height="44"/>
</g>
<g>
	<path class="st1" d="M125.1,162.1h-5v-44h5V162.1z M120.1,162.1h5v-44h-5V162.1z"/>
</g>
<g>
	<rect x="120.1" y="168.1" class="st0" width="5" height="44"/>
</g>
<g>
	<path class="st1" d="M125.1,212.1h-5v-44h5V212.1z M120.1,212.1h5v-44h-5V212.1z"/>
</g>
<g>
	<rect x="120.1" y="219.1" class="st0" width="5" height="94"/>
</g>
<g>
	<path class="st1" d="M125.1,313.1h-5v-94h5V313.1z M120.1,313.1h5v-94h-5V313.1z"/>
</g>
<g>
	<rect x="120.1" y="68.1" class="st0" width="5" height="39"/>
</g>
<g>
	<path class="st1" d="M125.1,107.1h-5v-39h5V107.1z M120.1,107.1h5v-39h-5V107.1z"/>
</g>
<g>
	<rect x="144.1" y="123.1" class="st0" width="7" height="37"/>
</g>
<g>
	<path class="st1" d="M151.1,161.1h-7v-37h7V161.1z M144.1,160.1h6v-37h-6V160.1z"/>
</g>
<g>
	<rect x="144.1" y="170.1" class="st0" width="7" height="42"/>
</g>
<g>
	<path class="st1" d="M151.1,212.1h-7v-42h7V212.1z M144.1,212.1h6v-41h-6V212.1z"/>
</g>
<g>
	<rect x="144.1" y="219.1" class="st0" width="7" height="86"/>
</g>
<g>
	<path class="st1" d="M151.1,305.1h-7v-86h7V305.1z M144.1,305.1h6v-86h-6V305.1z"/>
</g>
<g>
	<rect x="187.1" y="274.1" class="st0" width="7" height="19"/>
</g>
<g>
	<path class="st1" d="M195.1,293.1h-8v-20h8V293.1z M187.1,292.1h7v-19h-7V292.1z"/>
</g>
<g>
	<rect x="187.1" y="174.1" class="st0" width="7" height="36"/>
</g>
<g>
	<path class="st1" d="M195.1,211.1h-8v-37h8V211.1z M187.1,210.1h7v-36h-7V210.1z"/>
</g>
<g>
	<rect x="187.1" y="133.1" class="st0" width="7" height="27"/>
</g>
<g>
	<path class="st1" d="M195.1,160.1h-8v-27h8V160.1z M187.1,160.1h7v-27h-7V160.1z"/>
</g>
<g>
	<rect x="187.1" y="92.1" class="st0" width="7" height="15"/>
</g>
<g>
	<path class="st1" d="M195.1,107.1h-8v-15h8V107.1z M187.1,107.1h7v-15h-7V107.1z"/>
</g>
<g>
	<rect x="144.1" y="77.1" class="st0" width="7" height="30"/>
</g>
<g>
	<path class="st1" d="M151.1,108.1h-7v-31h7V108.1z M144.1,107.1h6v-30h-6V107.1z"/>
</g>
<g>
	<polygon class="st0" points="150.1,123.7 153.1,124.7 153.1,160.1 150.1,160.1 	"/>
</g>
<g>
	<path class="st1" d="M153.1,161.1h-3V124l3,1.1V161.1z M151.1,160.1h2v-35.3l-2-0.9V160.1z"/>
</g>
<g>
	<polygon class="st0" points="150.1,170.7 153.1,171 153.1,212.1 150.1,212.1 	"/>
</g>
<g>
	<path class="st1" d="M153.1,212.1h-3v-41.7l3,0.4V212.1z M151.1,212.1h2v-41l-2-0.3V212.1z"/>
</g>
<g>
	<polygon class="st0" points="150.1,219.1 153.1,219.1 153.1,304.6 150.1,305.3 	"/>
</g>
<g>
	<path class="st1" d="M150.1,305.2v-86.1h3v85.4L150.1,305.2z M151.1,219.1v86l2-0.6v-85.4H151.1z"/>
</g>
<g>
	<polygon class="st0" points="150.1,77.1 153.1,78.8 153.1,107.1 150.1,107.1 	"/>
</g>
<g>
	<path class="st1" d="M153.1,108.1h-3V77.4l3,1.8V108.1z M151.1,107.1h2V78.9l-2-1.6V107.1z"/>
</g>
<g>
	<rect x="168.1" y="85.1" class="st0" width="4" height="22"/>
</g>
<g>
	<path class="st1" d="M172.1,108.1h-4v-23h4V108.1z M168.1,107.1h4v-22h-4V107.1z"/>
</g>
<g>
	<rect x="168.1" y="129.1" class="st0" width="4" height="32"/>
</g>
<g>
	<path class="st1" d="M172.1,161.1h-4v-32h4V161.1z M168.1,160.1h4v-31h-4V160.1z"/>
</g>
<g>
	<rect x="168.1" y="173.1" class="st0" width="4" height="39"/>
</g>
<g>
	<path class="st1" d="M172.1,212.1h-4v-39h4V212.1z M168.1,212.1h4v-39h-4V212.1z"/>
</g>
<g>
	<rect x="168.1" y="219.1" class="st0" width="4" height="79"/>
</g>
<g>
	<path class="st1" d="M172.1,298.1h-4v-79h4V298.1z M168.1,298.1h4v-79h-4V298.1z"/>
</g>
<g>
	<rect x="455.1" y="326.1" class="st0" width="4" height="51"/>
</g>
<g>
	<path class="st1" d="M460.1,377.1h-5v-51h5V377.1z M455.1,377.1h4v-51h-4V377.1z"/>
</g>
<g>
	<rect x="530.1" y="326.1" class="st0" width="2" height="12"/>
</g>
<g>
	<path class="st1" d="M532.1,338.1h-2v-12h2V338.1z M530.1,338.1h2v-12h-2V338.1z"/>
</g>
<g>
	<rect x="532.1" y="326.1" class="st0" width="2" height="20"/>
</g>
<g>
	<path class="st1" d="M534.1,346.1h-2v-20h2V346.1z M532.1,347.1h2v-20h-2V347.1z"/>
</g>
<g>
	<rect x="533.1" y="326.1" class="st0" width="3" height="30"/>
</g>
<g>
	<path class="st1" d="M536.1,356.1h-3v-30h3V356.1z M533.1,356.1h3v-30h-3V356.1z"/>
</g>
<g>
	<rect x="536.1" y="327.1" class="st0" width="4" height="40"/>
</g>
<g>
	<path class="st1" d="M540.1,366.1h-5v-40h5V366.1z M536.1,367.1h4v-40h-4V367.1z"/>
</g>
<g>
	<rect x="538.1" y="326.1" class="st0" width="4" height="51"/>
</g>
<g>
	<path class="st1" d="M543.1,377.1h-5v-51h5V377.1z M538.1,377.1h4v-51h-4V377.1z"/>
</g>
<g>
	<rect x="593.1" y="326.1" class="st0" width="3" height="12"/>
</g>
<g>
	<path class="st1" d="M597.1,338.1h-4v-12h4V338.1z M593.1,338.1h3v-12h-3V338.1z"/>
</g>
<g>
	<rect x="598.1" y="326.1" class="st0" width="6" height="20"/>
</g>
<g>
	<path class="st1" d="M604.1,346.1h-6v-20h6V346.1z M598.1,347.1h6v-20h-6V347.1z"/>
</g>
<g>
	<rect x="605.1" y="326.1" class="st0" width="4" height="30"/>
</g>
<g>
	<path class="st1" d="M609.1,356.1h-4v-30h4V356.1z M605.1,356.1h4v-30h-4V356.1z"/>
</g>
<g>
	<rect x="612.1" y="327.1" class="st0" width="7" height="40"/>
</g>
<g>
	<path class="st1" d="M618.1,366.1h-7v-40h7V366.1z M611.1,367.1h7v-40h-7V367.1z"/>
</g>
<g>
	<rect x="621.1" y="326.1" class="st0" width="4" height="51"/>
</g>
<g>
	<path class="st1" d="M626.1,377.1h-5v-51h5V377.1z M621.1,377.1h4v-51h-4V377.1z"/>
</g>
<g>
	<rect x="402.1" y="326.1" class="st0" width="3" height="12"/>
</g>
<g>
	<path class="st1" d="M405.1,338.1h-4v-12h4V338.1z M402.1,338.1h3v-12h-3V338.1z"/>
</g>
<g>
	<rect x="394.1" y="327.1" class="st0" width="6" height="20"/>
</g>
<g>
	<path class="st1" d="M400.1,346.1h-6v-20h6V346.1z M394.1,347.1h6v-20h-6V347.1z"/>
</g>
<g>
	<rect x="388.1" y="326.1" class="st0" width="4" height="30"/>
</g>
<g>
	<path class="st1" d="M392.1,356.1h-4v-30h4V356.1z M388.1,356.1h4v-30h-4V356.1z"/>
</g>
<g>
	<rect x="379.1" y="327.1" class="st0" width="7" height="40"/>
</g>
<g>
	<path class="st1" d="M386.1,366.1h-7v-40h7V366.1z M379.1,367.1h7v-40h-7V367.1z"/>
</g>
<g>
	<rect x="372.1" y="326.1" class="st0" width="4" height="51"/>
</g>
<g>
	<path class="st1" d="M377.1,377.1h-5v-51h5V377.1z M373.1,377.1h4v-51h-4V377.1z"/>
</g>
<g>
	<rect x="458.1" y="273.1" class="st0" width="4" height="32"/>
</g>
<g>
	<path class="st1" d="M462.1,305.1h-5v-32h5V305.1z M458.1,305.1h4v-32h-4V305.1z"/>
</g>
<g>
	<rect x="455.1" y="273.1" class="st0" width="4" height="39"/>
</g>
<g>
	<path class="st1" d="M460.1,312.1h-5v-39h5V312.1z M455.1,312.1h4v-39h-4V312.1z"/>
</g>
<g>
	<rect x="536.1" y="273.1" class="st0" width="4" height="32"/>
</g>
<g>
	<path class="st1" d="M540.1,305.1h-5v-32h5V305.1z M536.1,305.1h4v-32h-4V305.1z"/>
</g>
<g>
	<rect x="538.1" y="273.1" class="st0" width="4" height="39"/>
</g>
<g>
	<path class="st1" d="M543.1,312.1h-5v-39h5V312.1z M538.1,312.1h4v-39h-4V312.1z"/>
</g>
<g>
	<rect x="593.1" y="273.1" class="st0" width="3" height="14"/>
</g>
<g>
	<path class="st1" d="M597.1,287.1h-4v-14h4V287.1z M593.1,287.1h3v-14h-3V287.1z"/>
</g>
<g>
	<rect x="598.1" y="273.1" class="st0" width="6" height="20"/>
</g>
<g>
	<path class="st1" d="M604.1,293.1h-6v-20h6V293.1z M598.1,293.1h6v-19h-6V293.1z"/>
</g>
<g>
	<rect x="605.1" y="273.1" class="st0" width="4" height="25"/>
</g>
<g>
	<path class="st1" d="M609.1,298.1h-4v-25h4V298.1z M605.1,298.1h4v-25h-4V298.1z"/>
</g>
<g>
	<rect x="612.1" y="273.1" class="st0" width="7" height="32"/>
</g>
<g>
	<path class="st1" d="M618.1,305.1h-7v-32h7V305.1z M611.1,305.1h7v-32h-7V305.1z"/>
</g>
<g>
	<rect x="621.1" y="273.1" class="st0" width="4" height="39"/>
</g>
<g>
	<path class="st1" d="M626.1,312.1h-5v-39h5V312.1z M621.1,312.1h4v-39h-4V312.1z"/>
</g>
<g>
	<rect x="402.1" y="273.1" class="st0" width="3" height="14"/>
</g>
<g>
	<path class="st1" d="M405.1,287.1h-4v-14h4V287.1z M402.1,287.1h3v-14h-3V287.1z"/>
</g>
<g>
	<rect x="394.1" y="273.1" class="st0" width="6" height="20"/>
</g>
<g>
	<path class="st1" d="M400.1,293.1h-6v-20h6V293.1z M394.1,293.1h6v-19h-6V293.1z"/>
</g>
<g>
	<rect x="388.1" y="273.1" class="st0" width="4" height="25"/>
</g>
<g>
	<path class="st1" d="M392.1,298.1h-4v-25h4V298.1z M388.1,298.1h4v-25h-4V298.1z"/>
</g>
<g>
	<rect x="379.1" y="273.1" class="st0" width="7" height="32"/>
</g>
<g>
	<path class="st1" d="M386.1,305.1h-7v-32h7V305.1z M379.1,305.1h7v-32h-7V305.1z"/>
</g>
<g>
	<rect x="372.1" y="273.1" class="st0" width="4" height="39"/>
</g>
<g>
	<path class="st1" d="M377.1,312.1h-5v-39h5V312.1z M373.1,312.1h4v-39h-4V312.1z"/>
</g>
<g>
	<rect x="458.1" y="219.1" class="st0" width="4" height="40"/>
</g>
<g>
	<path class="st1" d="M462.1,259.1h-5v-40h5V259.1z M458.1,259.1h4v-40h-4V259.1z"/>
</g>
<g>
	<rect x="455.1" y="219.1" class="st0" width="4" height="44"/>
</g>
<g>
	<path class="st1" d="M460.1,263.1h-5v-44h5V263.1z M455.1,263.1h4v-44h-4V263.1z"/>
</g>
<g>
	<rect x="536.1" y="219.1" class="st0" width="4" height="40"/>
</g>
<g>
	<path class="st1" d="M540.1,259.1h-5v-40h5V259.1z M536.1,259.1h4v-40h-4V259.1z"/>
</g>
<g>
	<rect x="538.1" y="219.1" class="st0" width="4" height="44"/>
</g>
<g>
	<path class="st1" d="M543.1,263.1h-5v-44h5V263.1z M538.1,263.1h4v-44h-4V263.1z"/>
</g>
<g>
	<rect x="458.1" y="171.1" class="st0" width="4" height="41"/>
</g>
<g>
	<path class="st1" d="M462.1,212.1h-5v-41h5V212.1z M458.1,212.1h4v-40h-4V212.1z"/>
</g>
<g>
	<rect x="455.1" y="168.1" class="st0" width="4" height="45"/>
</g>
<g>
	<path class="st1" d="M460.1,213.1h-5v-45h5V213.1z M455.1,213.1h4v-45h-4V213.1z"/>
</g>
<g>
	<rect x="536.1" y="171.1" class="st0" width="4" height="41"/>
</g>
<g>
	<path class="st1" d="M540.1,212.1h-5v-41h5V212.1z M536.1,212.1h4v-40h-4V212.1z"/>
</g>
<g>
	<rect x="538.1" y="168.1" class="st0" width="4" height="45"/>
</g>
<g>
	<path class="st1" d="M543.1,213.1h-5v-45h5V213.1z M538.1,213.1h4v-45h-4V213.1z"/>
</g>
<g>
	<rect x="458.1" y="123.1" class="st0" width="4" height="37"/>
</g>
<g>
	<path class="st1" d="M462.1,160.1h-5v-37h5V160.1z M458.1,160.1h4v-37h-4V160.1z"/>
</g>
<g>
	<rect x="455.1" y="118.1" class="st0" width="4" height="42"/>
</g>
<g>
	<path class="st1" d="M460.1,160.1h-5v-42h5V160.1z M455.1,160.1h4v-42h-4V160.1z"/>
</g>
<g>
	<rect x="536.1" y="123.1" class="st0" width="4" height="37"/>
</g>
<g>
	<path class="st1" d="M540.1,160.1h-5v-37h5V160.1z M536.1,160.1h4v-37h-4V160.1z"/>
</g>
<g>
	<rect x="538.1" y="118.1" class="st0" width="4" height="42"/>
</g>
<g>
	<path class="st1" d="M543.1,160.1h-5v-42h5V160.1z M538.1,160.1h4v-42h-4V160.1z"/>
</g>
<g>
	<rect x="458.1" y="77.1" class="st0" width="4" height="31"/>
</g>
<g>
	<path class="st1" d="M462.1,108.1h-5v-31h5V108.1z M458.1,107.1h4v-30h-4V107.1z"/>
</g>
<g>
	<rect x="455.1" y="68.1" class="st0" width="4" height="39"/>
</g>
<g>
	<path class="st1" d="M460.1,107.1h-5v-39h5V107.1z M455.1,107.1h4v-39h-4V107.1z"/>
</g>
<g>
	<rect x="536.1" y="77.1" class="st0" width="4" height="31"/>
</g>
<g>
	<path class="st1" d="M540.1,108.1h-5v-31h5V108.1z M536.1,107.1h4v-30h-4V107.1z"/>
</g>
<g>
	<rect x="538.1" y="68.1" class="st0" width="4" height="39"/>
</g>
<g>
	<path class="st1" d="M543.1,107.1h-5v-39h5V107.1z M538.1,107.1h4v-39h-4V107.1z"/>
</g>
<g>
	<rect x="593.1" y="219.1" class="st0" width="3" height="30"/>
</g>
<g>
	<path class="st1" d="M597.1,249.1h-4v-30h4V249.1z M593.1,249.1h3v-29h-3V249.1z"/>
</g>
<g>
	<rect x="598.1" y="219.1" class="st0" width="6" height="33"/>
</g>
<g>
	<path class="st1" d="M604.1,252.1h-6v-33h6V252.1z M598.1,252.1h6v-33h-6V252.1z"/>
</g>
<g>
	<rect x="605.1" y="219.1" class="st0" width="4" height="36"/>
</g>
<g>
	<path class="st1" d="M609.1,255.1h-4v-36h4V255.1z M605.1,255.1h4v-36h-4V255.1z"/>
</g>
<g>
	<rect x="612.1" y="219.1" class="st0" width="7" height="40"/>
</g>
<g>
	<path class="st1" d="M618.1,259.1h-7v-40h7V259.1z M611.1,259.1h7v-40h-7V259.1z"/>
</g>
<g>
	<rect x="621.1" y="219.1" class="st0" width="4" height="44"/>
</g>
<g>
	<path class="st1" d="M626.1,263.1h-5v-44h5V263.1z M621.1,263.1h4v-44h-4V263.1z"/>
</g>
<g>
	<rect x="402.1" y="219.1" class="st0" width="3" height="30"/>
</g>
<g>
	<path class="st1" d="M405.1,249.1h-4v-30h4V249.1z M402.1,249.1h3v-29h-3V249.1z"/>
</g>
<g>
	<rect x="394.1" y="219.1" class="st0" width="6" height="33"/>
</g>
<g>
	<path class="st1" d="M400.1,252.1h-6v-33h6V252.1z M394.1,252.1h6v-33h-6V252.1z"/>
</g>
<g>
	<rect x="388.1" y="219.1" class="st0" width="4" height="36"/>
</g>
<g>
	<path class="st1" d="M392.1,255.1h-4v-36h4V255.1z M388.1,255.1h4v-36h-4V255.1z"/>
</g>
<g>
	<rect x="379.1" y="219.1" class="st0" width="7" height="40"/>
</g>
<g>
	<path class="st1" d="M386.1,259.1h-7v-40h7V259.1z M379.1,259.1h7v-40h-7V259.1z"/>
</g>
<g>
	<rect x="372.1" y="219.1" class="st0" width="4" height="44"/>
</g>
<g>
	<path class="st1" d="M377.1,263.1h-5v-44h5V263.1z M373.1,263.1h4v-44h-4V263.1z"/>
</g>
<g>
	<rect x="593.1" y="176.1" class="st0" width="3" height="34"/>
</g>
<g>
	<path class="st1" d="M596.1,211.1h-3v-35h3V211.1z M593.1,210.1h3v-34h-3V210.1z"/>
</g>
<g>
	<rect x="598.1" y="174.1" class="st0" width="6" height="37"/>
</g>
<g>
	<path class="st1" d="M604.1,211.1h-6v-37h6V211.1z M598.1,211.1h6v-37h-6V211.1z"/>
</g>
<g>
	<rect x="605.1" y="173.1" class="st0" width="4" height="39"/>
</g>
<g>
	<path class="st1" d="M609.1,212.1h-4v-39h4V212.1z M605.1,212.1h4v-39h-4V212.1z"/>
</g>
<g>
	<rect x="612.1" y="171.1" class="st0" width="7" height="41"/>
</g>
<g>
	<path class="st1" d="M618.1,212.1h-7v-41h7V212.1z M611.1,212.1h7v-41h-7V212.1z"/>
</g>
<g>
	<rect x="621.1" y="168.1" class="st0" width="4" height="45"/>
</g>
<g>
	<path class="st1" d="M626.1,213.1h-5v-45h5V213.1z M621.1,213.1h4v-45h-4V213.1z"/>
</g>
<g>
	<rect x="402.1" y="176.1" class="st0" width="3" height="34"/>
</g>
<g>
	<path class="st1" d="M405.1,211.1h-4v-35h4V211.1z M402.1,210.1h3v-34h-3V210.1z"/>
</g>
<g>
	<rect x="394.1" y="174.1" class="st0" width="6" height="37"/>
</g>
<g>
	<path class="st1" d="M400.1,211.1h-6v-37h6V211.1z M394.1,211.1h6v-37h-6V211.1z"/>
</g>
<g>
	<rect x="388.1" y="173.1" class="st0" width="4" height="39"/>
</g>
<g>
	<path class="st1" d="M392.1,212.1h-4v-39h4V212.1z M388.1,212.1h4v-39h-4V212.1z"/>
</g>
<g>
	<rect x="379.1" y="171.1" class="st0" width="7" height="41"/>
</g>
<g>
	<path class="st1" d="M386.1,212.1h-7v-41h7V212.1z M379.1,212.1h7v-41h-7V212.1z"/>
</g>
<g>
	<rect x="372.1" y="168.1" class="st0" width="4" height="45"/>
</g>
<g>
	<path class="st1" d="M377.1,213.1h-5v-45h5V213.1z M373.1,213.1h4v-45h-4V213.1z"/>
</g>
<g>
	<rect x="593.1" y="137.1" class="st0" width="3" height="23"/>
</g>
<g>
	<path class="st1" d="M597.1,161.1h-4v-24h4V161.1z M593.1,160.1h3v-23h-3V160.1z"/>
</g>
<g>
	<rect x="598.1" y="133.1" class="st0" width="6" height="28"/>
</g>
<g>
	<path class="st1" d="M604.1,161.1h-6v-28h6V161.1z M598.1,161.1h6v-28h-6V161.1z"/>
</g>
<g>
	<rect x="605.1" y="129.1" class="st0" width="4" height="32"/>
</g>
<g>
	<path class="st1" d="M609.1,161.1h-4v-32h4V161.1z M605.1,160.1h4v-31h-4V160.1z"/>
</g>
<g>
	<rect x="612.1" y="124.1" class="st0" width="7" height="37"/>
</g>
<g>
	<path class="st1" d="M618.1,161.1h-7v-37h7V161.1z M611.1,160.1h7v-37h-7V160.1z"/>
</g>
<g>
	<rect x="621.1" y="118.1" class="st0" width="4" height="42"/>
</g>
<g>
	<path class="st1" d="M626.1,160.1h-5v-42h5V160.1z M621.1,160.1h4v-42h-4V160.1z"/>
</g>
<g>
	<rect x="402.1" y="137.1" class="st0" width="3" height="23"/>
</g>
<g>
	<path class="st1" d="M405.1,161.1h-4v-24h4V161.1z M402.1,160.1h3v-23h-3V160.1z"/>
</g>
<g>
	<rect x="394.1" y="133.1" class="st0" width="6" height="28"/>
</g>
<g>
	<path class="st1" d="M400.1,161.1h-6v-28h6V161.1z M394.1,161.1h6v-28h-6V161.1z"/>
</g>
<g>
	<rect x="388.1" y="129.1" class="st0" width="4" height="32"/>
</g>
<g>
	<path class="st1" d="M392.1,161.1h-4v-32h4V161.1z M388.1,160.1h4v-31h-4V160.1z"/>
</g>
<g>
	<rect x="379.1" y="123.1" class="st0" width="7" height="37"/>
</g>
<g>
	<path class="st1" d="M386.1,161.1h-7v-37h7V161.1z M379.1,160.1h7v-37h-7V160.1z"/>
</g>
<g>
	<rect x="372.1" y="118.1" class="st0" width="4" height="42"/>
</g>
<g>
	<path class="st1" d="M377.1,160.1h-5v-42h5V160.1z M373.1,160.1h4v-42h-4V160.1z"/>
</g>
<g>
	<rect x="593.1" y="98.1" class="st0" width="3" height="9"/>
</g>
<g>
	<path class="st1" d="M597.1,107.1h-4v-9h4V107.1z M593.1,107.1h3v-9h-3V107.1z"/>
</g>
<g>
	<rect x="598.1" y="92.1" class="st0" width="6" height="15"/>
</g>
<g>
	<path class="st1" d="M604.1,107.1h-6v-15h6V107.1z M598.1,107.1h6v-15h-6V107.1z"/>
</g>
<g>
	<rect x="605.1" y="85.1" class="st0" width="4" height="22"/>
</g>
<g>
	<path class="st1" d="M609.1,107.1h-4v-22h4V107.1z M605.1,107.1h4v-21h-4V107.1z"/>
</g>
<g>
	<rect x="612.1" y="77.1" class="st0" width="7" height="30"/>
</g>
<g>
	<path class="st1" d="M618.1,107.1h-7v-31h7V107.1z M611.1,107.1h7v-30h-7V107.1z"/>
</g>
<g>
	<rect x="621.1" y="68.1" class="st0" width="4" height="39"/>
</g>
<g>
	<path class="st1" d="M626.1,107.1h-5v-39h5V107.1z M621.1,107.1h4v-39h-4V107.1z"/>
</g>
<g>
	<rect x="402.1" y="98.1" class="st0" width="3" height="9"/>
</g>
<g>
	<path class="st1" d="M405.1,107.1h-4v-9h4V107.1z M402.1,107.1h3v-9h-3V107.1z"/>
</g>
<g>
	<rect x="394.1" y="92.1" class="st0" width="6" height="15"/>
</g>
<g>
	<path class="st1" d="M400.1,107.1h-6v-15h6V107.1z M394.1,107.1h6v-15h-6V107.1z"/>
</g>
<g>
	<rect x="388.1" y="85.1" class="st0" width="4" height="22"/>
</g>
<g>
	<path class="st1" d="M392.1,107.1h-4v-22h4V107.1z M388.1,107.1h4v-21h-4V107.1z"/>
</g>
<g>
	<rect x="379.1" y="77.1" class="st0" width="7" height="30"/>
</g>
<g>
	<path class="st1" d="M386.1,107.1h-7v-31h7V107.1z M379.1,107.1h7v-30h-7V107.1z"/>
</g>
<g>
	<rect x="372.1" y="68.1" class="st0" width="4" height="39"/>
</g>
<g>
	<path class="st1" d="M377.1,107.1h-5v-39h5V107.1z M373.1,107.1h4v-39h-4V107.1z"/>
</g>
<g>
	<rect x="204.1" y="326.1" class="st0" width="93" height="54"/>
</g>
<g>
	<path class="st1" d="M297.1,380.1h-93v-54h93V380.1z M204.1,380.1h92v-53h-92V380.1z"/>
</g>
<g>
	<polygon class="st0" points="204.1,327.1 189.1,327.1 189.1,390.4 204.1,380.8 	"/>
</g>
<g>
	<path class="st1" d="M189.1,389.9v-63.8h15v54l-0.1,0.1L189.1,389.9z M190.1,327.1v62.8l14-9.3v-53.5H190.1z"/>
</g>
<g>
	<polygon class="st0" points="315.1,327.1 296.1,327.1 296.1,380.8 315.1,364.1 	"/>
</g>
<g>
	<path class="st1" d="M296.1,380.4v-54.3h19v37.3l-0.1,0.1L296.1,380.4z M297.1,327.1v53.1l18-16.4v-36.7L297.1,327.1L297.1,327.1z"
		/>
</g>
<g>
	<polygon class="st0" points="345.1,327.1 333.1,327.1 333.1,348.2 345.1,336.9 	"/>
</g>
<g>
	<path class="st1" d="M332.1,347.9v-21.8h13v10.2l-0.1,0.1L332.1,347.9z M333.1,327.1v20.5l12-10.9v-9.6H333.1z"/>
</g>
<g>
	<rect x="315.1" y="327.1" class="st0" width="18" height="21"/>
</g>
<g>
	<path class="st1" d="M333.1,348.1h-18v-22h18V348.1z M315.1,348.1h17v-21h-17V348.1z"/>
</g>
<g>
	<rect x="701.1" y="326.1" class="st0" width="93" height="54"/>
</g>
<g>
	<path class="st1" d="M794.1,380.1h-93v-54h93V380.1z M702.1,380.1h92v-53h-92V380.1z"/>
</g>
<g>
	<polygon class="st0" points="794.1,327.1 809.1,327.1 809.1,390.4 794.1,380.8 	"/>
</g>
<g>
	<path class="st1" d="M809.1,389.9l-0.3-0.2l-14.7-9.6v-54h15V389.9z M794.1,380.6l14,9.3v-62.8h-14V380.6z"/>
</g>
<g>
	<polygon class="st0" points="683.1,327.1 702.1,327.1 702.1,380.8 683.1,364.1 	"/>
</g>
<g>
	<path class="st1" d="M702.1,380.4l-0.3-0.3l-18.7-16.8v-37.2h19V380.4z M683.1,363.8l18,16.4v-53.1h-18V363.8z"/>
</g>
<g>
	<polygon class="st0" points="653.1,327.1 665.1,327.1 665.1,348.2 653.1,336.9 	"/>
</g>
<g>
	<path class="st1" d="M666.1,347.9l-13-11.6v-10.2h13V347.9z M653.1,336.7l12,10.9v-20.5h-12V336.7z"/>
</g>
<g>
	<rect x="665.1" y="327.1" class="st0" width="18" height="21"/>
</g>
<g>
	<path class="st1" d="M683.1,348.1h-18v-22h18V348.1z M666.1,348.1h17v-21h-17V348.1z"/>
</g>
<g>
	<rect x="701.1" y="273.1" class="st0" width="100" height="41"/>
</g>
<g>
	<path class="st1" d="M801.1,314.1h-100v-41h100V314.1z M701.1,314.1h100v-40h-100V314.1z"/>
</g>
<g>
	<polygon class="st0" points="683.1,273.1 702.1,273.1 702.1,313.8 683.1,303.5 	"/>
</g>
<g>
	<path class="st1" d="M702.1,314.3l-19-10.5v-30.7h19V314.3z M683.1,304.1l18,10.1v-40.1h-18V304.1z"/>
</g>
<g>
	<polygon class="st0" points="653.1,273.1 665.1,273.1 665.1,293.5 653.1,286.2 	"/>
</g>
<g>
	<path class="st1" d="M666.1,293.9l-13-7.4v-13.4h13V293.9z M653.1,286.9l12,7v-19.8h-12V286.9z"/>
</g>
<g>
	<rect x="665.1" y="273.1" class="st0" width="9" height="20"/>
</g>
<g>
	<path class="st1" d="M674.1,294.1h-9v-21h9V294.1z M665.1,294.1h8v-20h-8V294.1z"/>
</g>
<g>
	<polygon class="st0" points="674.1,273.1 683.1,273.1 683.1,298 674.1,293.5 	"/>
</g>
<g>
	<path class="st1" d="M683.1,298.5l-10-4.8v-20.6h10V298.5z M674.1,294.1l9,4.4v-24.4h-9V294.1z"/>
</g>
<g>
	<rect x="196.1" y="273.1" class="st0" width="100" height="41"/>
</g>
<g>
	<path class="st1" d="M296,314.1h-99.9v-41h100L296,314.1L296,314.1z M196.1,314.1h100v-40h-100V314.1z"/>
</g>
<g>
	<polygon class="st0" points="315.1,273.1 296.1,273.1 296.1,313.8 315.1,303.5 	"/>
</g>
<g>
	<path class="st1" d="M296.1,314.3v-41.2h19v30.7L296.1,314.3z M297.1,273.1v40.6l18-10.1v-30.5h-18.4H297.1z"/>
</g>
<g>
	<polygon class="st0" points="345.1,273.1 333.1,273.1 333.1,293.5 345.1,286.2 	"/>
</g>
<g>
	<path class="st1" d="M332.1,294v-20.9h13v13.4L332.1,294z M333.1,274.1v19.8l12-7v-12.8H333.1z"/>
</g>
<g>
	<rect x="324.1" y="273.1" class="st0" width="9" height="20"/>
</g>
<g>
	<path class="st1" d="M333,294.1h-8.9v-21h9v21H333z M324.1,294.1h8v-20h-8V294.1z"/>
</g>
<g>
	<polygon class="st0" points="324.1,273.1 315.1,273.1 315.1,298 324.1,293.5 	"/>
</g>
<g>
	<path class="st1" d="M315.1,298.5v-25.4h10v20.6l-0.1,0.1L315.1,298.5z M315.1,274.1v24.4l9-4.4v-20H315.1z"/>
</g>
<g>
	<rect x="701.1" y="219.1" class="st0" width="100" height="44"/>
</g>
<g>
	<path class="st1" d="M801.1,264.1h-100v-45h100V264.1z M701.1,264.1h100v-44h-100V264.1z"/>
</g>
<g>
	<polygon class="st0" points="683.1,219.1 702.1,219.1 702.1,263.5 683.1,257.6 	"/>
</g>
<g>
	<path class="st1" d="M702.1,264l-19-6v-38.9h19V264z M683.1,258.3l18,5.7v-43.9h-18V258.3z"/>
</g>
<g>
	<polygon class="st0" points="653.1,219.1 665.1,219.1 665.1,252 653.1,248.2 	"/>
</g>
<g>
	<path class="st1" d="M666.1,252.4l-13-3.9v-29.4h13V252.4z M653.1,248.8l12,3.7v-32.4h-12V248.8z"/>
</g>
<g>
	<rect x="665.1" y="219.1" class="st0" width="9" height="33"/>
</g>
<g>
	<path class="st1" d="M674.1,252.1h-9v-33h9V252.1z M665.1,252.1h8v-33h-8V252.1z"/>
</g>
<g>
	<polygon class="st0" points="674.1,219.1 683.1,219.1 683.1,255.5 674.1,252 	"/>
</g>
<g>
	<path class="st1" d="M683.1,256l-10-3.7v-33.2h10V256z M674.1,251.7l9,3.4v-36h-9V251.7z"/>
</g>
<g>
	<rect x="196.1" y="219.1" class="st0" width="100" height="44"/>
</g>
<g>
	<path class="st1" d="M296,264.1h-99.9v-45h100L296,264.1L296,264.1z M196.1,264.1h100v-44h-100V264.1z"/>
</g>
<g>
	<polygon class="st0" points="315.1,219.1 296.1,219.1 296.1,263.5 315.1,257.6 	"/>
</g>
<g>
	<path class="st1" d="M296.1,264v-44.9h19v39H315L296.1,264z M297.1,220.1V264l18-5.7v-38.2H297.1z"/>
</g>
<g>
	<polygon class="st0" points="345.1,219.1 333.1,219.1 333.1,252 345.1,248.2 	"/>
</g>
<g>
	<path class="st1" d="M332.1,251.9v-32.8h13v29H345L332.1,251.9z M333.1,220.1v32.4l12-3.7v-28.7H333.1z"/>
</g>
<g>
	<rect x="324.1" y="219.1" class="st0" width="9" height="33"/>
</g>
<g>
	<path class="st1" d="M333,252.1h-8.9v-33h9v33H333z M324.1,252.1h8v-33h-8V252.1z"/>
</g>
<g>
	<polygon class="st0" points="324.1,219.1 315.1,219.1 315.1,255.5 324.1,252 	"/>
</g>
<g>
	<path class="st1" d="M315.1,256v-36.9h10v33.2L315.1,256z M315.1,220.1v36l9-3.4v-32.6H315.1z"/>
</g>
<g>
	<rect x="701.1" y="117.1" class="st0" width="100" height="43"/>
</g>
<g>
	<path class="st1" d="M801.1,160.1h-100v-43h100V160.1z M701.1,160.1h100v-42h-100V160.1z"/>
</g>
<g>
	<polygon class="st0" points="683.1,160.1 702.1,160.1 702.1,117.5 683.1,125.4 	"/>
</g>
<g>
	<path class="st1" d="M702.1,160.1h-19V125l19-8.1V160.1z M683.1,160.1h18v-42.2l-18,7.7V160.1z"/>
</g>
<g>
	<polygon class="st0" points="653.1,160.1 665.1,160.1 665.1,132.7 653.1,138.2 	"/>
</g>
<g>
	<path class="st1" d="M665.2,160.1h-13.1v-22.2l0.1-0.1l12.9-5.6v27.9L665.2,160.1L665.2,160.1z M653.1,160.1h12v-27l-12,5.3V160.1z
		"/>
</g>
<g>
	<rect x="665.1" y="133.1" class="st0" width="9" height="27"/>
</g>
<g>
	<path class="st1" d="M674.1,160.1h-9v-28h9V160.1z M665.1,160.1h8v-27h-8V160.1z"/>
</g>
<g>
	<polygon class="st0" points="674.1,160.1 683.1,160.1 683.1,127.4 674.1,132.7 	"/>
</g>
<g>
	<path class="st1" d="M683.1,160.1h-10v-27.7l10-5.5V160.1z M674.1,160.1h9v-32.2l-9,5V160.1z"/>
</g>
<g>
	<rect x="196.1" y="117.1" class="st0" width="100" height="43"/>
</g>
<g>
	<path class="st1" d="M296,160.1h-99.9v-43h100L296,160.1L296,160.1z M196.1,160.1h100v-42h-100V160.1z"/>
</g>
<g>
	<polygon class="st0" points="315.1,160.1 296.1,160.1 296.1,117.5 315.1,125.4 	"/>
</g>
<g>
	<path class="st1" d="M315.1,160.1h-19v-43.2l19,8.1V160.1z M297.1,160.1h18v-34.5l-18-7.7V160.1z"/>
</g>
<g>
	<polygon class="st0" points="345.1,160.1 333.1,160.1 333.1,132.7 345.1,138.2 	"/>
</g>
<g>
	<path class="st1" d="M345.1,160.1h-13v-27.9l13,5.7V160.1z M333.1,160.1h12v-21.7l-12-5.3V160.1z"/>
</g>
<g>
	<rect x="324.1" y="133.1" class="st0" width="9" height="27"/>
</g>
<g>
	<path class="st1" d="M333,160.1h-8.9v-28h9v28H333z M324.1,160.1h8v-27h-8V160.1z"/>
</g>
<g>
	<polygon class="st0" points="324.1,160.1 315.1,160.1 315.1,127.4 324.1,132.7 	"/>
</g>
<g>
	<path class="st1" d="M325.1,160.1h-10v-33.2l10,5.5V160.1z M315.1,160.1h9V133l-9-5V160.1z"/>
</g>
<g>
	<rect x="701.1" y="67.1" class="st0" width="100" height="41"/>
</g>
<g>
	<path class="st1" d="M801.1,107.1h-100v-41h100V107.1z M701.1,107.1h100v-40h-100V107.1z"/>
</g>
<g>
	<polygon class="st0" points="683.1,107.1 702.1,107.1 702.1,66.4 683.1,79.4 	"/>
</g>
<g>
	<path class="st1" d="M702.1,107.1h-19V79.2l0.1-0.1l18.9-13.2V107.1z M683.1,107.1h18V67l-18,12.7V107.1z"/>
</g>
<g>
	<polygon class="st0" points="653.1,107.1 665.1,107.1 665.1,90.5 653.1,99.4 	"/>
</g>
<g>
	<path class="st1" d="M665.1,107.1h-13v-7.9l0.1-0.1l12.9-9.1L665.1,107.1L665.1,107.1z M653.1,107.1h12v-16l-12,8.6V107.1z"/>
</g>
<g>
	<rect x="665.1" y="91.1" class="st0" width="9" height="17"/>
</g>
<g>
	<path class="st1" d="M674.1,107.1h-9v-17h9V107.1z M665.1,107.1h8v-16h-8V107.1z"/>
</g>
<g>
	<polygon class="st0" points="674.1,107.1 683.1,107.1 683.1,83.2 674.1,90.5 	"/>
</g>
<g>
	<path class="st1" d="M683.1,107.1h-10V90.3l0.1-0.1l9.9-7.6V107.1z M674.1,107.1h9V83.8l-9,7V107.1z"/>
</g>
<g>
	<rect x="196.1" y="66.1" class="st0" width="100" height="41"/>
</g>
<g>
	<path class="st1" d="M296,107.1h-99.9v-41h100L296,107.1L296,107.1z M196.1,107.1h100v-40h-100V107.1z"/>
</g>
<g>
	<polygon class="st0" points="315.1,107.1 296.1,107.1 296.1,66.4 315.1,79.4 	"/>
</g>
<g>
	<path class="st1" d="M315.1,107.1h-19V66l19,13.3V107.1z M297.1,107.1h18V79.8l-18-12.7V107.1z"/>
</g>
<g>
	<polygon class="st0" points="345.1,107.1 333.1,107.1 333.1,90.5 345.1,99.4 	"/>
</g>
<g>
	<path class="st1" d="M345.1,107.1h-13V90l13,9.2V107.1z M333.1,107.1h12v-7.4l-12-8.6V107.1z"/>
</g>
<g>
	<rect x="324.1" y="91.1" class="st0" width="9" height="17"/>
</g>
<g>
	<path class="st1" d="M333,107.1h-8.9v-17h9v17H333z M324.1,107.1h8v-16h-8V107.1z"/>
</g>
<g>
	<polygon class="st0" points="324.1,107.1 315.1,107.1 315.1,83.2 324.1,90.5 	"/>
</g>
<g>
	<path class="st1" d="M325.1,107.1h-10V82.7l10,7.6V107.1z M315.1,107.1h9V90.8l-9-7V107.1z"/>
</g>
<g>
	<rect x="701.1" y="168.1" class="st0" width="100" height="45"/>
</g>
<g>
	<path class="st1" d="M801.1,213.1h-100v-45h100V213.1z M701.1,213.1h100v-45h-100V213.1z"/>
</g>
<g>
	<polygon class="st0" points="683.1,171.4 702.1,167.8 702.1,213.9 683.1,212 	"/>
</g>
<g>
	<path class="st1" d="M702.1,214.1h-0.2l-18.8-1.8v-40.2l19-3.5V214.1z M683.1,211.3l18,1.7v-44.1l-18,3.3V211.3z"/>
</g>
<g>
	<polygon class="st0" points="653.1,177 665.1,174.7 665.1,210.5 653.1,209.2 	"/>
</g>
<g>
	<path class="st1" d="M665.1,211.1h0.5l-12.5-1.4v-33.6H653l12.1-2.1v37.3V211.1z M653.1,209.6l12,1.3v-36.5l-12,2.3V209.6z"/>
</g>
<g>
	<rect x="665.1" y="174.1" class="st0" width="9" height="37"/>
</g>
<g>
	<path class="st1" d="M674.1,211.1h-9v-37h9V211.1z M665.1,211.1h8v-37h-8V211.1z"/>
</g>
<g>
	<polygon class="st0" points="674.1,174.5 683.1,172.2 683.1,211.2 674.1,210.7 	"/>
</g>
<g>
	<path class="st1" d="M683.1,212l-10-0.6v-37.3h0.1l9.9-2.4V212z M674.1,211.5l9,0.5v-40.8l-9,2.4V211.5z"/>
</g>
<g>
	<rect x="196.1" y="168.1" class="st0" width="100" height="45"/>
</g>
<g>
	<path class="st1" d="M296,213.1h-99.9v-45h100L296,213.1L296,213.1z M196.1,213.1h100v-45h-100V213.1z"/>
</g>
<g>
	<polygon class="st0" points="315.1,171.4 296.1,167.8 296.1,213.9 315.1,212 	"/>
</g>
<g>
	<path class="st1" d="M296.1,213.9v-45.5l19,3.5v40.2h-0.2L296.1,213.9z M297.1,168.8v44.1l18-1.7v-39.2L297.1,168.8z"/>
</g>
<g>
	<polygon class="st0" points="345.1,177 333.1,174.7 333.1,210.5 345.1,209.1 	"/>
</g>
<g>
	<path class="st1" d="M332.1,211.6v-38l13,2.5v34L332.1,211.6z M333.1,174.4v36.5l12-1.4v-32.8L333.1,174.4z"/>
</g>
<g>
	<rect x="324.1" y="174.1" class="st0" width="9" height="37"/>
</g>
<g>
	<path class="st1" d="M333,211.1h-8.9v-37h9v37H333z M324.1,211.1h8v-37h-8V211.1z"/>
</g>
<g>
	<polygon class="st0" points="324.1,174.5 315.1,172.2 315.1,211.2 324.1,210.7 	"/>
</g>
<g>
	<path class="st1" d="M315.1,212.8v-42.4l10,2.6v39.3L315.1,212.8z M315.1,171.3v40.8l9-0.5v-37.9L315.1,171.3z"/>
</g>
<g>
	<rect x="3.1" y="321.1" class="st0" width="990" height="6"/>
</g>
<g>
	<path class="st1" d="M994.1,327.1H3.1v-7h991V327.1z M3.1,326.1h990v-5H3.1V326.1z"/>
</g>
<g>
	<rect x="179.1" y="267.1" class="st0" width="638" height="6"/>
</g>
<g>
	<path class="st1" d="M818.2,274.1H179.1v-7h639v7H818.2z M180.1,273.1h637v-5h-637V273.1z"/>
</g>
<g>
	<rect x="3.1" y="213.1" class="st0" width="990" height="6"/>
</g>
<g>
	<path class="st1" d="M994.1,220.1H3.1v-7h991V220.1z M3.1,219.1h990v-5H3.1V219.1z"/>
</g>
<g>
	<rect x="3.1" y="160.1" class="st0" width="990" height="6"/>
</g>
<g>
	<path class="st1" d="M994.1,167.1H3.1v-7h991V167.1z M3.1,166.1h990v-5H3.1V166.1z"/>
</g>
<g>
	<rect x="3.1" y="107.1" class="st0" width="990" height="6"/>
</g>
<g>
	<path class="st1" d="M994.1,114.1H3.1v-7h991V114.1z M3.1,113.1h990v-5H3.1V113.1z"/>
</g>
<g>
	<rect x="3.1" y="52.1" class="st0" width="990" height="6"/>
</g>
<g>
	<path class="st1" d="M994.1,59.1H3.1v-7h991V59.1z M3.1,58.1h990v-5H3.1V58.1z"/>
</g>
<g>
	<rect x="59.1" y="8.1" class="st0" width="879" height="6"/>
</g>
<g>
	<path class="st1" d="M938.1,15.1h-880v-7h880V15.1z M59.1,14.1h878v-5h-878V14.1z"/>
</g>
<g>
	<rect x="3.1" y="390.1" class="st0" width="990" height="6"/>
</g>
<g>
	<path class="st1" d="M994.1,396.1H3.1v-7h991V396.1z M3.1,395.1h990v-5H3.1V395.1z"/>
</g>
<g>
	<rect x="993.1" y="58.1" class="st1" width="1" height="331"/>
</g>
<g>
	<rect x="2.1" y="58.1" class="st1" width="1" height="331"/>
</g>
<g>
	<rect x="103.1" y="327.1" class="st0" width="81" height="63"/>
</g>
<g>
	<path class="st1" d="M185.1,390.1h-82v-64h82V390.1z M103.1,390.1h81v-63h-81V390.1z"/>
</g>
<g>
	<rect x="105.1" y="327.1" class="st1" width="1" height="63"/>
</g>
<g>
	<rect x="182.1" y="327.1" class="st1" width="1" height="63"/>
</g>
<g>
	<rect x="105.1" y="330.1" class="st1" width="77" height="1"/>
</g>
<g>
	<rect x="121.1" y="331.1" class="st1" width="1" height="59"/>
</g>
<g>
	<rect x="136.1" y="331.1" class="st1" width="1" height="59"/>
</g>
<g>
	<rect x="152.1" y="330.1" class="st1" width="1" height="26"/>
</g>
<g>
	<rect x="167.1" y="331.1" class="st1" width="0" height="59"/>
</g>
<g>
	<rect x="105.1" y="374.1" class="st1" width="16" height="1"/>
</g>
<g>
	<rect x="168.1" y="374.1" class="st1" width="15" height="1"/>
</g>
<g>
	<rect x="121.1" y="357.1" class="st1" width="46" height="0"/>
</g>
<g>
	<rect x="105.1" y="339.1" class="st1" width="78" height="0"/>
</g>
<g>
	<path class="st1" d="M167.1,390.1h-1v-32h1V390.1z M166.1,389.1h1v-31h-1V389.1z"/>
</g>
<g>
	<path class="st1" d="M139.1,390.1h-1v-32h1V390.1z M138.1,389.1h1v-31h-1V389.1z"/>
</g>
<g>
	<rect x="139.1" y="386.1" class="st1" width="27" height="0"/>
</g>
<g>
	<rect x="139.1" y="359.1" class="st1" width="27" height="1"/>
</g>
<g>
	<rect x="139.1" y="358.1" class="st1" width="27" height="1"/>
</g>
<g>
	<rect x="150.1" y="358.1" class="st0" width="2" height="31"/>
</g>
<g>
	<path class="st1" d="M153.1,390.1h-3v-32h3V390.1z M150.1,389.1h2v-31h-2V389.1z"/>
</g>
<g>
	<rect x="151.1" y="358.1" class="st1" width="1" height="31"/>
</g>
<g>
	<rect x="813.1" y="327.1" class="st0" width="81" height="63"/>
</g>
<g>
	<path class="st1" d="M894.1,390.1h-82v-64h82V390.1z M813.1,390.1h81v-63h-81V390.1z"/>
</g>
<g>
	<rect x="892.1" y="327.1" class="st1" width="1" height="63"/>
</g>
<g>
	<rect x="814.1" y="327.1" class="st1" width="1" height="63"/>
</g>
<g>
	<rect x="815.1" y="330.1" class="st1" width="77" height="1"/>
</g>
<g>
	<rect x="876.1" y="331.1" class="st1" width="1" height="59"/>
</g>
<g>
	<rect x="860.1" y="331.1" class="st1" width="1" height="59"/>
</g>
<g>
	<rect x="844.1" y="330.1" class="st1" width="1" height="26"/>
</g>
<g>
	<rect x="829.1" y="331.1" class="st1" width="1" height="59"/>
</g>
<g>
	<rect x="876.1" y="374.1" class="st1" width="16" height="1"/>
</g>
<g>
	<rect x="815.1" y="374.1" class="st1" width="15" height="1"/>
</g>
<g>
	<rect x="830.1" y="357.1" class="st1" width="46" height="0"/>
</g>
<g>
	<rect x="814.1" y="339.1" class="st1" width="78" height="0"/>
</g>
<g>
	<path class="st1" d="M832.1,390.1h-1v-32h1V390.1z M831.1,389.1h1v-31h-1V389.1z"/>
</g>
<g>
	<path class="st1" d="M859.1,390.1h-1v-32h1V390.1z M858.1,389.1h1v-31h-1V389.1z"/>
</g>
<g>
	<rect x="831.1" y="386.1" class="st1" width="27" height="0"/>
</g>
<g>
	<rect x="831.1" y="359.1" class="st1" width="27" height="1"/>
</g>
<g>
	<rect x="831.1" y="358.1" class="st1" width="27" height="1"/>
</g>
<g>
	<rect x="845.1" y="358.1" class="st0" width="2" height="31"/>
</g>
<g>
	<path class="st1" d="M848.1,390.1h-3v-32h3V390.1z M845.1,389.1h2v-31h-2V389.1z"/>
</g>
<g>
	<rect x="846.1" y="358.1" class="st1" width="1" height="31"/>
</g>
<g>
	<rect x="60.1" y="14.1" class="st1" width="0" height="38"/>
</g>
<g>
	<rect x="71.1" y="14.1" class="st1" width="1" height="38"/>
</g>
<g>
	<rect x="86.1" y="15.1" class="st1" width="0" height="38"/>
</g>
<g>
	<rect x="100.1" y="14.1" class="st1" width="1" height="38"/>
</g>
<g>
	<rect x="106.1" y="14.1" class="st1" width="1" height="38"/>
</g>
<g>
	<rect x="86.1" y="14.1" class="st1" width="0" height="38"/>
</g>
<g>
	<rect x="187.1" y="14.1" class="st1" width="1" height="38"/>
</g>
<g>
	<rect x="194.1" y="14.1" class="st1" width="1" height="38"/>
</g>
<g>
	<rect x="275.1" y="14.1" class="st1" width="1" height="38"/>
</g>
<g>
	<rect x="282.1" y="14.1" class="st1" width="1" height="38"/>
</g>
<g>
	<rect x="362.1" y="14.1" class="st1" width="1" height="38"/>
</g>
<g>
	<rect x="371.1" y="14.1" class="st1" width="0" height="38"/>
</g>
<g>
	<rect x="627.1" y="14.1" class="st1" width="0" height="38"/>
</g>
<g>
	<rect x="636.1" y="14.1" class="st1" width="1" height="38"/>
</g>
<g>
	<rect x="723.1" y="14.1" class="st1" width="1" height="38"/>
</g>
<g>
	<rect x="714.1" y="14.1" class="st1" width="1" height="38"/>
</g>
<g>
	<rect x="803.1" y="14.1" class="st1" width="1" height="38"/>
</g>
<g>
	<rect x="810.1" y="14.1" class="st1" width="0" height="38"/>
</g>
<g>
	<rect x="890.1" y="14.1" class="st1" width="1" height="38"/>
</g>
<g>
	<rect x="896.1" y="14.1" class="st1" width="1" height="38"/>
</g>
<g>
	<rect x="911.1" y="14.1" class="st1" width="0" height="38"/>
</g>
<g>
	<rect x="925.1" y="14.1" class="st1" width="1" height="38"/>
</g>
<g>
	<rect x="934.1" y="14.1" class="st1" width="1" height="38"/>
</g>
<g>
	<rect x="448.1" y="14.1" class="st1" width="0" height="38"/>
</g>
<g>
	<rect x="461.1" y="14.1" class="st1" width="0" height="38"/>
</g>
<g>
	<rect x="536.1" y="14.1" class="st1" width="1" height="38"/>
</g>
<g>
	<rect x="548.1" y="14.1" class="st1" width="1" height="38"/>
</g>
<g>
	<rect x="895.1" y="2.1" class="st1" width="1" height="6"/>
</g>
<g>
	<rect x="883.1" y="2.1" class="st1" width="1" height="6"/>
</g>
<g>
	<rect x="808.1" y="2.1" class="st1" width="1" height="6"/>
</g>
<g>
	<rect x="722.1" y="2.1" class="st1" width="1" height="6"/>
</g>
<g>
	<rect x="635.1" y="2.1" class="st1" width="1" height="6"/>
</g>
<g>
	<rect x="548.1" y="2.1" class="st1" width="0" height="6"/>
</g>
<g>
	<rect x="461.1" y="2.1" class="st1" width="0" height="6"/>
</g>
<g>
	<rect x="374.1" y="2.1" class="st1" width="0" height="6"/>
</g>
<g>
	<rect x="288.1" y="2.1" class="st1" width="0" height="6"/>
</g>
<g>
	<rect x="200.1" y="2.1" class="st1" width="1" height="6"/>
</g>
<g>
	<rect x="113.1" y="2.1" class="st1" width="0" height="6"/>
</g>
<g>
	<rect x="101.1" y="2.1" class="st1" width="1" height="6"/>
</g>
<g>
	<rect x="188.1" y="2.1" class="st1" width="1" height="6"/>
</g>
<g>
	<rect x="275.1" y="2.1" class="st1" width="1" height="6"/>
</g>
<g>
	<rect x="362.1" y="2.1" class="st1" width="1" height="6"/>
</g>
<g>
	<rect x="449.1" y="2.1" class="st1" width="1" height="6"/>
</g>
<g>
	<rect x="623.1" y="2.1" class="st1" width="1" height="6"/>
</g>
<g>
	<rect x="536.1" y="2.1" class="st1" width="1" height="6"/>
</g>
<g>
	<rect x="710.1" y="2.1" class="st1" width="0" height="6"/>
</g>
<g>
	<rect x="797.1" y="2.1" class="st1" width="0" height="6"/>
</g>
<g>
	<rect x="60.1" y="21.1" class="st1" width="40" height="1"/>
</g>
<g>
	<rect x="107.1" y="21.1" class="st1" width="81" height="1"/>
</g>
<g>
	<rect x="113.1" y="22.1" class="st1" width="0" height="31"/>
</g>
<g>
	<rect x="128.1" y="22.1" class="st1" width="0" height="31"/>
</g>
<g>
	<rect x="144.1" y="22.1" class="st1" width="0" height="31"/>
</g>
<g>
	<rect x="159.1" y="22.1" class="st1" width="1" height="31"/>
</g>
<g>
	<rect x="174.1" y="22.1" class="st1" width="0" height="31"/>
</g>
<g>
	<rect x="195.1" y="21.1" class="st1" width="80" height="1"/>
</g>
<g>
	<rect x="201.1" y="22.1" class="st1" width="0" height="31"/>
</g>
<g>
	<rect x="216.1" y="22.1" class="st1" width="0" height="31"/>
</g>
<g>
	<rect x="230.1" y="22.1" class="st1" width="1" height="31"/>
</g>
<g>
	<rect x="246.1" y="22.1" class="st1" width="1" height="31"/>
</g>
<g>
	<rect x="260.1" y="22.1" class="st1" width="1" height="31"/>
</g>
<g>
	<rect x="282.1" y="21.1" class="st1" width="81" height="1"/>
</g>
<g>
	<rect x="287.1" y="22.1" class="st1" width="1" height="31"/>
</g>
<g>
	<rect x="302.1" y="22.1" class="st1" width="1" height="31"/>
</g>
<g>
	<rect x="317.1" y="22.1" class="st1" width="1" height="31"/>
</g>
<g>
	<rect x="333.1" y="22.1" class="st1" width="1" height="31"/>
</g>
<g>
	<rect x="347.1" y="22.1" class="st1" width="1" height="31"/>
</g>
<g>
	<rect x="372.1" y="21.1" class="st1" width="77" height="1"/>
</g>
<g>
	<rect x="376.1" y="22.1" class="st1" width="1" height="31"/>
</g>
<g>
	<rect x="390.1" y="22.1" class="st1" width="1" height="31"/>
</g>
<g>
	<rect x="404.1" y="22.1" class="st1" width="1" height="31"/>
</g>
<g>
	<rect x="420.1" y="22.1" class="st1" width="1" height="31"/>
</g>
<g>
	<rect x="435.1" y="22.1" class="st1" width="0" height="31"/>
</g>
<g>
	<rect x="461.1" y="21.1" class="st1" width="76" height="1"/>
</g>
<g>
	<rect x="549.1" y="21.1" class="st1" width="78" height="1"/>
</g>
<g>
	<rect x="636.1" y="21.1" class="st1" width="78" height="1"/>
</g>
<g>
	<rect x="723.1" y="21.1" class="st1" width="80" height="1"/>
</g>
<g>
	<rect x="563.1" y="22.1" class="st1" width="1" height="31"/>
</g>
<g>
	<rect x="578.1" y="22.1" class="st1" width="1" height="31"/>
</g>
<g>
	<rect x="593.1" y="22.1" class="st1" width="0" height="31"/>
</g>
<g>
	<rect x="608.1" y="22.1" class="st1" width="0" height="31"/>
</g>
<g>
	<rect x="650.1" y="22.1" class="st1" width="1" height="31"/>
</g>
<g>
	<rect x="665.1" y="22.1" class="st1" width="1" height="31"/>
</g>
<g>
	<rect x="680.1" y="22.1" class="st1" width="1" height="31"/>
</g>
<g>
	<rect x="695.1" y="22.1" class="st1" width="1" height="31"/>
</g>
<g>
	<rect x="710.1" y="22.1" class="st1" width="1" height="31"/>
</g>
<g>
	<rect x="736.1" y="22.1" class="st1" width="1" height="31"/>
</g>
<g>
	<rect x="751.1" y="22.1" class="st1" width="1" height="31"/>
</g>
<g>
	<rect x="766.1" y="22.1" class="st1" width="1" height="31"/>
</g>
<g>
	<rect x="782.1" y="22.1" class="st1" width="1" height="31"/>
</g>
<g>
	<rect x="797.1" y="22.1" class="st1" width="1" height="31"/>
</g>
<g>
	<rect x="823.1" y="22.1" class="st1" width="1" height="31"/>
</g>
<g>
	<rect x="838.1" y="22.1" class="st1" width="1" height="31"/>
</g>
<g>
	<rect x="853.1" y="22.1" class="st1" width="1" height="31"/>
</g>
<g>
	<rect x="868.1" y="22.1" class="st1" width="0" height="31"/>
</g>
<g>
	<rect x="883.1" y="22.1" class="st1" width="1" height="31"/>
</g>
<g>
	<rect x="477.1" y="22.1" class="st1" width="0" height="31"/>
</g>
<g>
	<rect x="491.1" y="22.1" class="st1" width="1" height="31"/>
</g>
<g>
	<rect x="506.1" y="22.1" class="st1" width="1" height="31"/>
</g>
<g>
	<rect x="521.1" y="22.1" class="st1" width="1" height="31"/>
</g>
<g>
	<rect x="810.1" y="21.1" class="st1" width="81" height="1"/>
</g>
<g>
	<rect x="897.1" y="21.1" class="st1" width="38" height="1"/>
</g>
<g>
	<polygon class="st1" points="60.4,52.6 8.1,34.4 8.1,53.1 8.1,53.1 8.1,34.1 7.7,34.1 60.5,52.3 	"/>
</g>
<g>
	<rect x="16.1" y="37.1" class="st1" width="1" height="15"/>
</g>
<g>
	<rect x="28.1" y="41.1" class="st1" width="1" height="11"/>
</g>
<g>
	<rect x="40.1" y="45.1" class="st1" width="0" height="7"/>
</g>
<g>
	<rect x="50.1" y="49.1" class="st1" width="0" height="3"/>
</g>
<g>
	<polygon class="st1" points="936.3,52.6 936.2,52.3 989.1,34 989.1,52.1 990.1,52.1 990.1,34.4 	"/>
</g>
<g>
	<rect x="980.1" y="37.1" class="st1" width="0" height="15"/>
</g>
<g>
	<rect x="968.1" y="41.1" class="st1" width="0" height="11"/>
</g>
<g>
	<rect x="957.1" y="45.1" class="st1" width="1" height="7"/>
</g>
<g>
	<rect x="946.1" y="49.1" class="st1" width="1" height="3"/>
</g>
<path class="st1" d="M937.1,8.1h-1v-6h-874v5l-1,1h-1v-1V1.6l0.5-0.5h876l0.5,0.5V8.1z M61.1,6.6v-4V6.6z"/>
</svg>
