<?xml version="1.0" encoding="utf-8"?>
<!-- Generator: Adobe Illustrator 26.3.1, SVG Export Plug-In . SVG Version: 6.00 Build 0)  -->
<svg version="1.1" id="Layer_1" xmlns="http://www.w3.org/2000/svg" xmlns:xlink="http://www.w3.org/1999/xlink" x="0px" y="0px"
	 viewBox="0 0 996.1 398" style="enable-background:new 0 0 996.1 398;" xml:space="preserve">
<style type="text/css">
	.st0{fill:#FFFFFF;}
	.st1{fill:#2E2015;}
</style>
<g id="m">
</g>
<g>
	<polygon class="st0" points="2.7,58.5 159.2,104.3 834.6,104.3 993.1,58.5 	"/>
	<g>
		<polyline class="st0" points="3.1,320.5 159.2,282.7 836.1,282.7 993.4,320.5 		"/>
		<polygon class="st0" points="3.1,389.9 159.2,330.9 836.1,330.9 993.4,389.9 		"/>
		<polygon class="st1" points="993.3,320.7 836,283 159.2,283 3.1,320.7 3,320.3 159.2,282.5 836.1,282.5 993.4,320.3 		"/>
	</g>
	<rect x="411.2" y="104.2" class="st1" width="0.2" height="225.9"/>
	<rect x="421.7" y="104.2" class="st1" width="0.2" height="225.9"/>
	<rect x="349.9" y="104.2" class="st1" width="0.2" height="225.9"/>
	<rect x="360.6" y="104.2" class="st1" width="0.2" height="225.9"/>
	<rect x="370.6" y="104.2" class="st1" width="0.2" height="225.9"/>
	<rect x="585.3" y="104.2" class="st1" width="0.2" height="225.9"/>
	<rect x="635.5" y="104.2" class="st1" width="0.2" height="225.9"/>
	<rect x="646.1" y="104.2" class="st1" width="0.2" height="225.9"/>
	<rect x="177" y="104.2" class="st1" width="0.2" height="225.9"/>
	<rect x="411.3" y="199.2" class="st1" width="11.7" height="0.2"/>
	<rect x="349.8" y="199.2" class="st1" width="29.4" height="0.2"/>
	<rect x="411.3" y="235.8" class="st1" width="11.7" height="0.2"/>
	<rect x="349.8" y="235.8" class="st1" width="29.4" height="0.2"/>
	<rect x="596.7" y="199.2" class="st1" width="49.2" height="0.2"/>
	<rect x="575.2" y="199.2" class="st1" width="10.2" height="0.2"/>
	<rect x="596.7" y="235.7" class="st1" width="49.2" height="0.2"/>
	<rect x="575.2" y="235.7" class="st1" width="10.2" height="0.2"/>
	<rect x="626" y="223.7" class="st1" width="9.6" height="0.2"/>
	<rect x="626" y="187.5" class="st1" width="9.6" height="0.2"/>
	<rect x="808.7" y="199.2" class="st1" width="19.3" height="0.2"/>
	<rect x="808" y="187.5" class="st1" width="9.6" height="0.2"/>
	<rect x="626" y="150.8" class="st1" width="9.6" height="0.2"/>
	<rect x="360.6" y="223.7" class="st1" width="10.2" height="0.2"/>
	<rect x="360.9" y="187.5" class="st1" width="9.9" height="0.2"/>
	<rect x="360.9" y="150.8" class="st1" width="9.9" height="0.2"/>
	<rect x="432.1" y="326.8" class="st1" width="0.2" height="3.3"/>
	<rect x="442.6" y="326.8" class="st1" width="0.2" height="3.3"/>
	<rect x="453.1" y="326.8" class="st1" width="0.2" height="3.3"/>
	<rect x="471.8" y="326.8" class="st1" width="0.2" height="3.3"/>
	<rect x="482.3" y="326.8" class="st1" width="0.2" height="3.3"/>
	<rect x="524.5" y="326.8" class="st1" width="0.2" height="3.3"/>
	<rect x="503.5" y="326.8" class="st1" width="0.2" height="3.3"/>
	<rect x="492.8" y="326.8" class="st1" width="0.2" height="3.3"/>
	<rect x="513.9" y="326.8" class="st1" width="0.2" height="3.3"/>
	<rect x="553.7" y="326.8" class="st1" width="0.2" height="3.3"/>
	<rect x="564.1" y="326.8" class="st1" width="0.2" height="3.3"/>
	<rect x="574.6" y="326.8" class="st1" width="0.2" height="3.3"/>
	<rect x="808" y="151" class="st1" width="9.6" height="0.2"/>
	<rect x="817.6" y="235.7" class="st1" width="6.3" height="0.2"/>
	<rect x="817.6" y="272.1" class="st1" width="6.3" height="0.2"/>
	<g>
		<rect x="12.2" y="61.3" class="st1" width="0.2" height="324.6"/>
		<rect x="18.1" y="63" class="st1" width="0.2" height="321"/>
		<rect x="24.9" y="65" class="st1" width="0.2" height="316.5"/>
		<rect x="30.4" y="66.7" class="st1" width="0.2" height="312.7"/>
		<rect x="51.5" y="72.7" class="st1" width="0.2" height="298.7"/>
		<rect x="46.6" y="71.2" class="st1" width="0.2" height="302"/>
		<rect x="57.4" y="74.4" class="st1" width="0.2" height="294.8"/>
		<rect x="62.3" y="75.8" class="st1" width="0.2" height="291.5"/>
		<rect x="76.4" y="79.8" class="st1" width="0.2" height="282.1"/>
		<rect x="81.3" y="81.3" class="st1" width="0.2" height="278.8"/>
		<rect x="85.9" y="82.6" class="st1" width="0.2" height="275.8"/>
		<rect x="90.6" y="84.2" class="st1" width="0.2" height="272.5"/>
		<rect x="106.4" y="88.7" class="st1" width="0.2" height="206.8"/>
		<rect x="110.6" y="89.7" class="st1" width="0.2" height="205"/>
		<rect x="114.7" y="90.9" class="st1" width="0.2" height="202.8"/>
		<rect x="129.3" y="95.1" class="st1" width="0.2" height="195"/>
		<rect x="133" y="96.4" class="st1" width="0.2" height="192.8"/>
		<rect x="136.6" y="97.4" class="st1" width="0.2" height="191.2"/>
		<rect x="156.1" y="102.9" class="st1" width="0.2" height="181"/>
		<rect x="178.6" y="104.1" class="st1" width="0.2" height="178.7"/>
		<polygon class="st1" points="3,376 2.9,375.8 97.3,342.1 97.4,342.3 		"/>
		<polygon class="st1" points="3,340.9 2.9,340.7 57.7,325.6 57.7,325.8 		"/>
		<polygon class="st1" points="3,305.4 2.9,305.2 162.2,272.7 162.2,272.8 		"/>
		<polygon class="st1" points="3,251.9 2.9,251.7 162.2,235.8 162.2,235.9 		"/>
		<rect x="3" y="198.2" class="st1" width="159.3" height="0.2"/>
		<polygon class="st1" points="146.1,161.2 2.9,144.6 3,144.5 146.1,161.1 		"/>
		<polygon class="st1" points="88.9,109.5 2.9,90.8 3,90.7 89,109.4 		"/>
		<polygon class="st1" points="18.2,77 12.4,75.5 12.4,75.3 18.2,76.8 		"/>
		<polygon class="st1" points="30.4,80.1 24.9,78.7 25,78.6 30.4,80 		"/>
		<polygon class="st1" points="51.6,85.7 46.7,84.4 46.7,84.2 51.6,85.5 		"/>
		<polygon class="st1" points="62.3,88.4 57.4,87.2 57.5,87 62.4,88.3 		"/>
		<polygon class="st1" points="81.3,93.4 76.5,92.1 76.5,92 81.3,93.2 		"/>
		<polygon class="st1" points="90.6,95.8 86,94.6 86,94.4 90.6,95.6 		"/>
		<polygon class="st1" points="106.5,99.9 97,97.5 97.1,97.3 106.5,99.8 		"/>
		<polygon class="st1" points="114.7,102.1 110.6,101 110.7,100.8 114.8,101.9 		"/>
		<polygon class="st1" points="129.3,105.8 122.8,104.1 122.8,104 129.4,105.7 		"/>
		
			<rect x="15.2" y="125.7" transform="matrix(0.1481 -0.989 0.989 0.1481 -114.1973 124.761)" class="st1" width="0.2" height="5.9"/>
		
			<rect x="27.7" y="127.8" transform="matrix(0.1481 -0.989 0.989 0.1481 -105.4811 138.6701)" class="st1" width="0.2" height="5.6"/>
		<rect x="49.1" y="131.2" transform="matrix(0.1482 -0.989 0.989 0.1482 -90.3349 162.5446)" class="st1" width="0.2" height="5"/>
		<rect x="59.9" y="132.7" transform="matrix(0.148 -0.989 0.989 0.148 -82.6097 174.5335)" class="st1" width="0.2" height="5"/>
		
			<rect x="78.9" y="135.7" transform="matrix(0.1481 -0.989 0.989 0.1481 -69.3771 195.8412)" class="st1" width="0.2" height="4.9"/>
		
			<rect x="88.2" y="137.3" transform="matrix(0.1481 -0.989 0.989 0.1481 -62.8128 206.2907)" class="st1" width="0.2" height="4.7"/>
		
			<rect x="103.8" y="139.3" transform="matrix(0.1481 -0.989 0.989 0.1481 -51.8184 223.6427)" class="st1" width="0.2" height="5.2"/>
		
			<rect x="112.6" y="141.2" transform="matrix(0.1482 -0.989 0.989 0.1482 -45.6266 233.453)" class="st1" width="0.2" height="4.1"/>
		
			<rect x="126.4" y="142.4" transform="matrix(0.1481 -0.989 0.989 0.1481 -35.8833 248.8763)" class="st1" width="0.2" height="5.7"/>
		
			<rect x="134.9" y="144.6" transform="matrix(0.1482 -0.989 0.989 0.1482 -29.8683 258.2522)" class="st1" width="0.2" height="3.7"/>
		
			<rect x="148.9" y="141.2" transform="matrix(0.1481 -0.989 0.989 0.1481 -20.0366 273.9647)" class="st1" width="0.2" height="14.8"/>
		<polygon class="st1" points="18.2,181.8 12.4,181.5 12.4,181.4 18.2,181.6 		"/>
		<polygon class="st1" points="30.4,182.2 24.9,182 24.9,181.9 30.4,182.1 		"/>
		<polygon class="st1" points="51.6,183 46.7,182.8 46.7,182.7 51.6,182.8 		"/>
		<polygon class="st1" points="62.4,183.4 57.5,183.2 57.5,183.1 62.4,183.2 		"/>
		<polygon class="st1" points="81.3,184.1 76.5,183.9 76.5,183.8 81.4,183.9 		"/>
		<polygon class="st1" points="90.6,184.5 86,184.3 86,184.1 90.7,184.3 		"/>
		<polygon class="st1" points="106.5,185.1 96.4,184.7 96.4,184.5 106.5,184.9 		"/>
		<polygon class="st1" points="114.7,185.4 110.7,185.2 110.7,185 114.7,185.2 		"/>
		<polygon class="st1" points="129.4,185.9 120.1,185.6 120.1,185.4 129.4,185.7 		"/>
		<polygon class="st1" points="136.6,186.2 133,186 133,185.9 136.6,186 		"/>
		<polygon class="st1" points="156.2,186.9 153.2,186.8 153.2,186.6 156.2,186.7 		"/>
		
			<rect x="12.4" y="233.5" transform="matrix(0.9979 -6.532915e-02 6.532915e-02 0.9979 -15.2286 1.4975)" class="st1" width="5.8" height="0.2"/>
		
			<rect x="24.9" y="232.7" transform="matrix(0.9979 -6.532915e-02 6.532915e-02 0.9979 -15.1499 2.3026)" class="st1" width="5.5" height="0.2"/>
		
			<rect x="46.7" y="231.3" transform="matrix(0.9979 -6.532915e-02 6.532915e-02 0.9979 -15.0126 3.7043)" class="st1" width="4.9" height="0.2"/>
		
			<rect x="57.5" y="230.6" transform="matrix(0.9979 -6.532915e-02 6.532915e-02 0.9979 -14.9436 4.4116)" class="st1" width="5" height="0.2"/>
		
			<rect x="76.5" y="229.3" transform="matrix(0.9979 -6.532915e-02 6.532915e-02 0.9979 -14.8182 5.6469)" class="st1" width="4.9" height="0.2"/>
		
			<rect x="86" y="228.7" transform="matrix(0.9979 -6.532915e-02 6.532915e-02 0.9979 -14.7589 6.2597)" class="st1" width="4.7" height="0.2"/>
		
			<rect x="96.3" y="227.8" transform="matrix(0.9979 -6.532915e-02 6.532915e-02 0.9979 -14.6723 7.1104)" class="st1" width="10.2" height="0.2"/>
		
			<rect x="110.7" y="227.1" transform="matrix(0.9979 -6.532915e-02 6.532915e-02 0.9979 -14.6023 7.8504)" class="st1" width="4.1" height="0.2"/>
		
			<rect x="120" y="226.3" transform="matrix(0.9979 -6.532915e-02 6.532915e-02 0.9979 -14.5245 8.6294)" class="st1" width="9.4" height="0.2"/>
		
			<rect x="133" y="225.6" transform="matrix(0.9979 -6.532915e-02 6.532915e-02 0.9979 -14.4572 9.2878)" class="st1" width="3.6" height="0.2"/>
		
			<rect x="147.9" y="224.5" transform="matrix(0.9979 -6.532915e-02 6.532915e-02 0.9979 -14.3485 10.4124)" class="st1" width="8.3" height="0.2"/>
		
			<rect x="12.4" y="285.6" transform="matrix(0.9851 -0.1721 0.1721 0.9851 -48.9387 6.9004)" class="st1" width="5.9" height="0.2"/>
		
			<rect x="24.9" y="283.4" transform="matrix(0.9851 -0.1721 0.1721 0.9851 -48.3757 8.993)" class="st1" width="5.6" height="0.2"/>
		
			<rect x="46.7" y="279.7" transform="matrix(0.9851 -0.1721 0.1721 0.9851 -47.4182 12.6379)" class="st1" width="5" height="0.2"/>
		<rect x="57.4" y="277.8" transform="matrix(0.9851 -0.1721 0.1721 0.9851 -46.9315 14.451)" class="st1" width="5" height="0.2"/>
		
			<rect x="76.5" y="274.5" transform="matrix(0.9851 -0.1721 0.1721 0.9851 -46.0794 17.6803)" class="st1" width="4.9" height="0.2"/>
		
			<rect x="86" y="272.9" transform="matrix(0.9851 -0.1721 0.1721 0.9851 -45.6638 19.2742)" class="st1" width="4.7" height="0.2"/>
		
			<rect x="96.3" y="270.6" transform="matrix(0.9851 -0.1721 0.1721 0.9851 -45.0725 21.4943)" class="st1" width="10.3" height="0.2"/>
		
			<rect x="110.6" y="268.6" transform="matrix(0.9851 -0.1721 0.1721 0.9851 -44.5611 23.392)" class="st1" width="4.1" height="0.2"/>
		
			<rect x="125.1" y="266.1" transform="matrix(0.9851 -0.1721 0.1721 0.9851 -43.9131 25.8674)" class="st1" width="4.3" height="0.2"/>
		
			<rect x="133" y="264.8" transform="matrix(0.9851 -0.1721 0.1721 0.9851 -43.576 27.1559)" class="st1" width="3.7" height="0.2"/>
		
			<rect x="153.2" y="261.3" transform="matrix(0.9851 -0.1721 0.1721 0.9851 -42.6774 30.5199)" class="st1" width="3" height="0.2"/>
		<polygon class="st1" points="12.4,355.3 12.4,355.1 18.2,353.3 18.2,353.5 		"/>
		<polygon class="st1" points="25,351.3 24.9,351.2 30.4,349.4 30.5,349.6 		"/>
		<polygon class="st1" points="46.7,344.5 46.7,344.3 51.6,342.8 51.6,342.9 		"/>
		<polygon class="st1" points="57.5,341.1 57.4,340.9 62.4,339.4 62.4,339.5 		"/>
		<polygon class="st1" points="76.5,335.1 76.5,334.9 81.3,333.4 81.4,333.5 		"/>
		<polygon class="st1" points="86,332.1 86,331.9 90.6,330.4 90.7,330.6 		"/>
	</g>
	<g>
		<rect x="983.8" y="61.3" class="st1" width="0.2" height="324.9"/>
		<rect x="977.9" y="63" class="st1" width="0.2" height="321"/>
		<rect x="971.2" y="65" class="st1" width="0.2" height="316.5"/>
		<rect x="965.7" y="66.7" class="st1" width="0.2" height="312.7"/>
		<rect x="944.5" y="72.7" class="st1" width="0.2" height="298.7"/>
		<rect x="949.4" y="71.2" class="st1" width="0.2" height="302"/>
		<rect x="938.6" y="74.4" class="st1" width="0.2" height="294.8"/>
		<rect x="933.7" y="75.8" class="st1" width="0.2" height="291.5"/>
		<rect x="919.6" y="79.8" class="st1" width="0.2" height="282.1"/>
		<rect x="914.7" y="81.3" class="st1" width="0.2" height="278.8"/>
		<rect x="910.1" y="82.6" class="st1" width="0.2" height="275.8"/>
		<rect x="905.4" y="84.2" class="st1" width="0.2" height="272.5"/>
		<rect x="889.6" y="88.7" class="st1" width="0.2" height="206.8"/>
		<rect x="885.4" y="89.7" class="st1" width="0.2" height="205"/>
		<rect x="881.4" y="90.9" class="st1" width="0.2" height="202.8"/>
		<rect x="866.8" y="95.1" class="st1" width="0.2" height="195"/>
		<rect x="863.1" y="96.4" class="st1" width="0.2" height="192.8"/>
		<rect x="859.4" y="97.4" class="st1" width="0.2" height="191.2"/>
		<rect x="839.9" y="102.9" class="st1" width="0.2" height="181"/>
		<rect x="817.5" y="104.1" class="st1" width="0.2" height="178.7"/>
		<polygon class="st1" points="993.2,376 898.8,342.3 898.8,342.1 993.3,375.8 		"/>
		<polygon class="st1" points="993.2,340.9 938.4,325.8 938.5,325.6 993.3,340.7 		"/>
		<polygon class="st1" points="993.2,305.4 834,272.8 834,272.7 993.2,305.2 		"/>
		<polygon class="st1" points="993.2,251.9 834,235.9 834,235.8 993.2,251.7 		"/>
		<rect x="834" y="198.2" class="st1" width="159.3" height="0.2"/>
		<polygon class="st1" points="850.1,161.2 850.1,161.1 993.2,144.5 993.2,144.6 		"/>
		<polygon class="st1" points="907.2,109.5 907.2,109.4 993.2,90.7 993.2,90.8 		"/>
		<polygon class="st1" points="978,77 978,76.8 983.8,75.3 983.8,75.5 		"/>
		<polygon class="st1" points="965.8,80.1 965.8,80 971.2,78.6 971.3,78.7 		"/>
		<polygon class="st1" points="944.6,85.7 944.5,85.5 949.5,84.2 949.5,84.4 		"/>
		<polygon class="st1" points="933.9,88.4 933.8,88.3 938.7,87 938.7,87.2 		"/>
		<polygon class="st1" points="914.9,93.4 914.9,93.2 919.7,92 919.7,92.1 		"/>
		<polygon class="st1" points="905.6,95.8 905.6,95.6 910.1,94.4 910.2,94.6 		"/>
		<polygon class="st1" points="889.7,99.9 889.7,99.8 899.1,97.3 899.1,97.5 		"/>
		<polygon class="st1" points="881.5,102.1 881.4,101.9 885.5,100.8 885.6,101 		"/>
		<polygon class="st1" points="866.9,105.8 866.8,105.7 873.4,104 873.4,104.1 		"/>
		<polygon class="st1" points="978,129.2 978,129 983.8,128.2 983.8,128.3 		"/>
		<polygon class="st1" points="965.8,131 965.7,130.9 971.2,130.1 971.2,130.2 		"/>
		<polygon class="st1" points="944.6,134.2 944.6,134.1 949.5,133.3 949.5,133.5 		"/>
		<polygon class="st1" points="933.8,135.8 933.7,135.7 938.7,134.9 938.7,135.1 		"/>
		<polygon class="st1" points="914.8,138.7 914.8,138.5 919.7,137.8 919.7,137.9 		"/>
		<polygon class="st1" points="905.5,140.1 905.5,139.9 910.2,139.2 910.2,139.4 		"/>
		<polygon class="st1" points="889.7,142.4 889.7,142.3 894.9,141.5 894.9,141.7 		"/>
		<polygon class="st1" points="881.5,143.7 881.4,143.5 885.5,142.9 885.5,143.1 		"/>
		<polygon class="st1" points="866.8,145.9 866.8,145.7 872.4,144.9 872.4,145 		"/>
		<polygon class="st1" points="859.5,147 859.5,146.8 863.1,146.2 863.2,146.4 		"/>
		<polygon class="st1" points="839.9,149.9 839.9,149.7 854.5,147.5 854.6,147.7 		"/>
		<polygon class="st1" points="978,181.8 978,181.6 983.8,181.4 983.8,181.5 		"/>
		<polygon class="st1" points="965.7,182.2 965.7,182.1 971.2,181.9 971.2,182 		"/>
		<polygon class="st1" points="944.6,183 944.6,182.8 949.5,182.7 949.5,182.8 		"/>
		<polygon class="st1" points="933.8,183.4 933.8,183.2 938.7,183.1 938.7,183.2 		"/>
		<polygon class="st1" points="914.8,184.1 914.8,183.9 919.7,183.8 919.7,183.9 		"/>
		<polygon class="st1" points="905.5,184.5 905.5,184.3 910.2,184.1 910.2,184.3 		"/>
		<polygon class="st1" points="889.7,185.1 889.7,184.9 899.8,184.5 899.8,184.7 		"/>
		<polygon class="st1" points="881.4,185.4 881.4,185.2 885.5,185 885.5,185.2 		"/>
		<polygon class="st1" points="866.8,185.9 866.8,185.7 876.1,185.4 876.1,185.6 		"/>
		<polygon class="st1" points="859.6,186.2 859.6,186 863.1,185.9 863.1,186 		"/>
		<polygon class="st1" points="840,186.9 840,186.7 842.9,186.6 842.9,186.8 		"/>
		<polygon class="st1" points="983.8,233.9 978,233.5 978,233.3 983.8,233.7 		"/>
		<polygon class="st1" points="971.2,233.1 965.7,232.7 965.7,232.5 971.2,232.9 		"/>
		<polygon class="st1" points="949.5,231.6 944.6,231.3 944.6,231.1 949.5,231.5 		"/>
		<polygon class="st1" points="938.7,230.9 933.8,230.6 933.8,230.4 938.7,230.7 		"/>
		<polygon class="st1" points="919.7,229.6 914.8,229.3 914.8,229.2 919.7,229.5 		"/>
		<polygon class="st1" points="910.2,229 905.5,228.7 905.5,228.5 910.2,228.9 		"/>
		<polygon class="st1" points="899.8,228.3 889.7,227.7 889.7,227.5 899.8,228.2 		"/>
		<polygon class="st1" points="885.5,227.4 881.4,227.1 881.5,227 885.5,227.2 		"/>
		<polygon class="st1" points="876.2,226.8 866.8,226.2 866.8,226 876.2,226.6 		"/>
		<polygon class="st1" points="863.1,225.9 859.5,225.7 859.5,225.5 863.1,225.7 		"/>
		<polygon class="st1" points="848.3,224.9 840,224.4 840,224.2 848.3,224.8 		"/>
		<polygon class="st1" points="983.8,286.3 978,285.2 978,285.1 983.8,286.1 		"/>
		<polygon class="st1" points="971.2,284.1 965.7,283.1 965.8,282.9 971.2,283.9 		"/>
		<polygon class="st1" points="949.5,280.3 944.6,279.4 944.6,279.3 949.5,280.1 		"/>
		<polygon class="st1" points="938.7,278.4 933.7,277.5 933.8,277.4 938.7,278.2 		"/>
		<polygon class="st1" points="919.7,275.1 914.8,274.2 914.8,274.1 919.7,274.9 		"/>
		<polygon class="st1" points="910.2,273.4 905.5,272.6 905.5,272.5 910.2,273.3 		"/>
		<polygon class="st1" points="899.8,271.6 889.7,269.9 889.7,269.7 899.8,271.5 		"/>
		<polygon class="st1" points="885.5,269.1 881.4,268.4 881.5,268.3 885.5,269 		"/>
		<polygon class="st1" points="871.1,266.6 866.8,265.9 866.8,265.7 871.1,266.5 		"/>
		<polygon class="st1" points="863.1,265.2 859.5,264.6 859.5,264.4 863.2,265.1 		"/>
		<polygon class="st1" points="842.9,261.7 839.9,261.2 840,261 842.9,261.6 		"/>
		<polygon class="st1" points="983.8,355.3 978,353.5 978,353.3 983.8,355.1 		"/>
		<polygon class="st1" points="971.2,351.3 965.7,349.6 965.8,349.4 971.3,351.2 		"/>
		<polygon class="st1" points="949.5,344.5 944.5,342.9 944.6,342.8 949.5,344.3 		"/>
		<polygon class="st1" points="938.7,341.1 933.7,339.5 933.8,339.4 938.7,340.9 		"/>
		<polygon class="st1" points="919.7,335.1 914.8,333.5 914.9,333.4 919.7,334.9 		"/>
		<polygon class="st1" points="910.1,332.1 905.5,330.6 905.6,330.4 910.2,331.9 		"/>
	</g>
	<g>
		<polygon class="st0" points="716.2,246.2 817.5,267.5 179.5,267.5 280.1,246.2 		"/>
		<path class="st1" d="M819.6,267.7H177.4L280.1,246h436.2l0,0L819.6,267.7z M181.6,267.2h633.9l-99.3-20.9H280.1L181.6,267.2z"/>
	</g>
	<g>
		<polyline class="st0" points="3,320.5 159.2,282.7 836.1,282.7 993.4,320.5 		"/>
		<polygon class="st1" points="993.3,320.7 836,282.9 159.2,282.9 3.1,320.7 3,320.2 159.1,282.5 836.1,282.5 993.4,320.2 		"/>
	</g>
	<polygon class="st1" points="179.3,267.7 179.3,219.8 179.7,219.8 179.7,267.2 280,246 716.2,246 817.3,267.2 817.3,219.4 
		817.7,219.4 817.7,267.7 817.5,267.6 716.1,246.4 280.1,246.4 	"/>
	<polygon class="st1" points="993.3,390 836,330.6 159.2,330.6 3.1,390 3,389.6 159.2,330.2 836.1,330.2 993.4,389.6 	"/>
	<polygon class="st1" points="836.1,104.3 159.1,104.3 3,58.6 3.1,58.2 159.2,103.9 836,103.9 993.3,58.2 993.4,58.6 	"/>
	<g>
		<polyline class="st0" points="3,113.6 159.2,140.5 836.1,140.5 993.4,113.6 		"/>
		<polygon class="st1" points="159.2,140.8 3,113.8 3.1,113.4 159.2,140.3 836.1,140.3 993.3,113.4 993.4,113.8 836.1,140.8 		"/>
	</g>
	<g>
		<polyline class="st0" points="3,166.4 159.2,177.7 836.1,177.7 993.4,166.4 		"/>
		<polygon class="st1" points="159.2,177.9 3,166.6 3.1,166.2 159.2,177.5 836.1,177.5 993.3,166.2 993.4,166.6 836.1,177.9 		"/>
	</g>
	<g>
		<polyline class="st0" points="3,213.6 159.2,209.8 836.1,209.8 993.4,213.6 		"/>
		<polygon class="st1" points="993.4,213.8 836.1,210 159.2,210 3,213.8 3,213.3 159.2,209.5 836.1,209.5 993.4,213.3 		"/>
	</g>
	<rect x="422.9" y="137.2" class="st0" width="152.3" height="23"/>
	<rect x="422.9" y="217.2" class="st0" width="152.3" height="32.5"/>
	<rect x="422.9" y="174.4" class="st0" width="152.3" height="37.6"/>
	<rect x="422.9" y="77.7" class="st0" width="152.3" height="31.4"/>
	<rect x="344.9" y="286.6" class="st1" width="308" height="0.4"/>
	<rect x="422.9" y="271.9" class="st0" width="152.3" height="16"/>
	<path class="st1" d="M575.4,212.1H422.6v-41.3h152.7v41.3H575.4z M422.9,211.8h152.2V171H422.9V211.8z"/>
	<path class="st1" d="M575.4,258.3H422.6V219h152.7v39.3H575.4z M422.9,258h152.2v-38.7H422.9V258z"/>
	<path class="st1" d="M575.4,304.7H422.6v-31.3h152.7v31.3H575.4z M422.9,304.5h152.2v-30.8H422.9V304.5z"/>
	<path class="st1" d="M575.4,160.6H422.6v-35.5h152.7v35.5H575.4z M422.9,160.3h152.2v-35H422.9V160.3z"/>
	<path class="st1" d="M575.4,107.6H422.6v-30h152.7v30H575.4z M422.9,107.3h152.2V77.9H422.9V107.3z"/>
	<rect x="427.5" y="213.4" class="st1" width="0.3" height="44.8"/>
	<rect x="427.5" y="170.9" class="st1" width="0.3" height="41.1"/>
	<rect x="427.5" y="125.1" class="st1" width="0.3" height="41.3"/>
	<rect x="427.5" y="77.7" class="st1" width="0.3" height="35.7"/>
	<rect x="569.1" y="213.4" class="st1" width="0.3" height="44.8"/>
	<rect x="569.1" y="170.9" class="st1" width="0.3" height="41.1"/>
	<rect x="569.1" y="125.1" class="st1" width="0.3" height="41.3"/>
	<rect x="569.1" y="77.7" class="st1" width="0.3" height="35.7"/>
	<rect x="555.8" y="213.4" class="st1" width="0.3" height="44.8"/>
	<rect x="555.8" y="170.9" class="st1" width="0.3" height="41.1"/>
	<rect x="555.8" y="125.1" class="st1" width="0.3" height="41.3"/>
	<rect x="555.8" y="77.7" class="st1" width="0.3" height="35.7"/>
	<rect x="532" y="213.4" class="st1" width="0.3" height="44.8"/>
	<rect x="532" y="170.9" class="st1" width="0.3" height="41.1"/>
	<rect x="532" y="125.1" class="st1" width="0.3" height="41.3"/>
	<rect x="532" y="77.7" class="st1" width="0.3" height="35.7"/>
	<rect x="519.1" y="213.4" class="st1" width="0.3" height="44.8"/>
	<rect x="519.1" y="170.9" class="st1" width="0.3" height="41.1"/>
	<rect x="519.1" y="125.1" class="st1" width="0.3" height="41.3"/>
	<rect x="519.1" y="77.7" class="st1" width="0.3" height="35.7"/>
	<rect x="505.1" y="213.4" class="st1" width="0.3" height="44.8"/>
	<rect x="505.1" y="170.9" class="st1" width="0.3" height="41.1"/>
	<rect x="505.1" y="125.1" class="st1" width="0.3" height="41.3"/>
	<rect x="505.1" y="77.7" class="st1" width="0.3" height="35.7"/>
	<rect x="492.1" y="213.4" class="st1" width="0.3" height="44.8"/>
	<rect x="492.1" y="170.9" class="st1" width="0.3" height="41.1"/>
	<rect x="492.1" y="125.1" class="st1" width="0.3" height="41.3"/>
	<rect x="492.1" y="77.7" class="st1" width="0.3" height="35.7"/>
	<rect x="478.5" y="213.4" class="st1" width="0.3" height="44.8"/>
	<rect x="478.5" y="170.9" class="st1" width="0.3" height="41.1"/>
	<rect x="478.5" y="125.1" class="st1" width="0.3" height="41.3"/>
	<rect x="478.5" y="77.7" class="st1" width="0.3" height="35.7"/>
	<rect x="441.5" y="213.3" class="st1" width="0.3" height="44.9"/>
	<rect x="441.5" y="170.9" class="st1" width="0.3" height="41.1"/>
	<rect x="441.5" y="125.1" class="st1" width="0.3" height="41.3"/>
	<rect x="441.5" y="77.7" class="st1" width="0.3" height="35.7"/>
	<rect x="465.5" y="213.3" class="st1" width="0.3" height="44.9"/>
	<rect x="465.5" y="170.9" class="st1" width="0.3" height="41.1"/>
	<rect x="465.5" y="125.1" class="st1" width="0.3" height="41.3"/>
	<rect x="465.5" y="77.7" class="st1" width="0.3" height="35.7"/>
	<rect x="441.7" y="90.2" class="st1" width="13.4" height="0.3"/>
	<rect x="427.8" y="152" class="st1" width="141.4" height="0.3"/>
	<rect x="427.8" y="198.4" class="st1" width="141.4" height="0.3"/>
	<rect x="427.8" y="244.9" class="st1" width="141.4" height="0.3"/>
	<rect x="465.6" y="291.2" class="st1" width="66.6" height="0.3"/>
	<rect x="542.6" y="291.2" class="st1" width="26.6" height="0.3"/>
	<rect x="427.6" y="291.2" class="st1" width="27.7" height="0.3"/>
	<rect x="422.9" y="298.2" class="st1" width="152.3" height="0.3"/>
	<rect x="427.8" y="105.6" class="st1" width="141.4" height="0.3"/>
	<rect x="542.6" y="90.2" class="st1" width="13.4" height="0.3"/>
	<rect x="519.1" y="90.2" class="st1" width="13.1" height="0.3"/>
	<rect x="492.3" y="90.2" class="st1" width="12.8" height="0.3"/>
	<rect x="465.7" y="90.2" class="st1" width="12.8" height="0.3"/>
	<rect x="441.7" y="183.3" class="st1" width="13.4" height="0.3"/>
	<rect x="542.6" y="183.3" class="st1" width="13.4" height="0.3"/>
	<rect x="519.1" y="183.3" class="st1" width="13.1" height="0.3"/>
	<rect x="492.3" y="183.3" class="st1" width="12.8" height="0.3"/>
	<rect x="465.7" y="183.3" class="st1" width="12.8" height="0.3"/>
	<rect x="441.7" y="136.8" class="st1" width="13.4" height="0.3"/>
	<rect x="542.6" y="136.8" class="st1" width="13.4" height="0.3"/>
	<rect x="519.1" y="136.8" class="st1" width="13.1" height="0.3"/>
	<rect x="492.3" y="136.8" class="st1" width="12.8" height="0.3"/>
	<rect x="465.7" y="136.8" class="st1" width="12.8" height="0.3"/>
	<rect x="441.7" y="229.7" class="st1" width="13.4" height="0.3"/>
	<rect x="542.6" y="229.7" class="st1" width="13.4" height="0.3"/>
	<rect x="519.1" y="229.7" class="st1" width="13.1" height="0.3"/>
	<rect x="492.3" y="229.7" class="st1" width="12.8" height="0.3"/>
	<rect x="465.7" y="229.7" class="st1" width="12.8" height="0.3"/>
	<rect x="441.7" y="276" class="st1" width="13.4" height="0.2"/>
	<rect x="542.6" y="276" class="st1" width="13.4" height="0.2"/>
	<rect x="519.1" y="276" class="st1" width="13.1" height="0.2"/>
	<rect x="492.3" y="276" class="st1" width="12.8" height="0.2"/>
	<rect x="465.7" y="276" class="st1" width="12.8" height="0.2"/>
	<rect x="427.5" y="273.4" class="st1" width="0.2" height="24.9"/>
	<rect x="569.1" y="273.4" class="st1" width="0.2" height="24.9"/>
	<rect x="555.9" y="273.4" class="st1" width="0.2" height="24.9"/>
	<rect x="532.1" y="273.4" class="st1" width="0.2" height="24.9"/>
	<rect x="519.1" y="273.4" class="st1" width="0.2" height="24.9"/>
	<rect x="505.1" y="273.4" class="st1" width="0.2" height="24.9"/>
	<rect x="492.2" y="273.4" class="st1" width="0.2" height="24.9"/>
	<rect x="478.5" y="273.4" class="st1" width="0.2" height="24.9"/>
	<rect x="441.5" y="273.4" class="st1" width="0.2" height="24.9"/>
	<rect x="465.6" y="273.4" class="st1" width="0.2" height="24.9"/>
	<g>
		<rect x="161.6" y="177.9" class="st0" width="3.2" height="31.6"/>
		<path class="st1" d="M165,209.7h-3.5v-31.9h3.5V209.7z M161.7,209.4h3V178h-3V209.4z"/>
	</g>
	<g>
		<rect x="141.7" y="175.9" class="st0" width="3.2" height="34.3"/>
		<path class="st1" d="M145,210.3h-3.5v-34.6h3.5V210.3z M141.8,210.1h3V176h-3V210.1z"/>
	</g>
	<g>
		<rect x="141.7" y="137.2" class="st0" width="3.2" height="23.5"/>
		<path class="st1" d="M145,160.8h-3.5V137h3.5V160.8z M141.8,160.6h3v-23.3h-3V160.6z"/>
	</g>
	<g>
		<rect x="141.7" y="97.9" class="st0" width="3.2" height="9.4"/>
		<path class="st1" d="M145,107.4h-3.5v-9.6h3.5V107.4z M141.8,107.2h3v-9.1h-3V107.2z"/>
	</g>
	<g>
		<rect x="831.4" y="250.7" class="st0" width="3.2" height="32.2"/>
		<path class="st1" d="M834.8,283h-3.5v-32.4h3.5V283z M831.6,282.8h3v-31.9h-3V282.8z"/>
	</g>
	<g>
		<rect x="817.5" y="246.5" class="st0" width="17.1" height="4.2"/>
		<path class="st1" d="M834.8,250.8h-17.4v-4.4h17.4V250.8z M817.7,250.6h16.9v-4h-16.9V250.6z"/>
	</g>
	<g>
		<polygon class="st0" points="990.4,274.2 834.6,250.7 834.6,246.5 990.4,266.9 		"/>
		<path class="st1" d="M990.5,274.4L990.5,274.4l-155.9-23.5v-4.5h0.1l155.8,20.5V274.4z M834.8,250.6L990.3,274v-7l-155.5-20.4
			V250.6z"/>
	</g>
	<g>
		<rect x="951.6" y="326.6" class="st0" width="5.9" height="50.8"/>
		<path class="st1" d="M957.7,377.5h-6.2v-51h6.2V377.5z M951.7,377.2h5.7v-50.5h-5.7V377.2z"/>
	</g>
	<g>
		<rect x="951.6" y="268.3" class="st0" width="5.9" height="44.5"/>
		<path class="st1" d="M957.7,313h-6.2v-44.8h6.2V313z M951.7,312.7h5.7v-44.3h-5.7V312.7z"/>
	</g>
	<g>
		<rect x="951.6" y="168.5" class="st0" width="5.9" height="44"/>
		<path class="st1" d="M957.7,212.6h-6.2v-44.2h6.2V212.6z M951.7,212.3h5.7v-43.7h-5.7V212.3z"/>
	</g>
	<g>
		<rect x="951.6" y="118" class="st0" width="5.9" height="44"/>
		<path class="st1" d="M957.7,162h-6.2v-44.2h6.2V162z M951.7,161.8h5.7v-43.7h-5.7V161.8z"/>
	</g>
	<g>
		<rect x="951.6" y="68.4" class="st0" width="5.9" height="39.1"/>
		<path class="st1" d="M957.7,107.6h-6.2V68.2h6.2V107.6z M951.7,107.4h5.7V68.5h-5.7V107.4z"/>
	</g>
	<g>
		<rect x="922.4" y="326.6" class="st0" width="5.5" height="39.3"/>
		<path class="st1" d="M928,366h-5.7v-39.6h5.7V366z M922.6,365.7h5.2v-39h-5.2V365.7z"/>
	</g>
	<g>
		<rect x="922.4" y="264.1" class="st0" width="5.5" height="41.2"/>
		<path class="st1" d="M928,305.4h-5.7V264h5.7V305.4z M922.6,305.2h5.2v-40.9h-5.2V305.2z"/>
	</g>
	<g>
		<rect x="922.4" y="170.7" class="st0" width="5.5" height="41.8"/>
		<path class="st1" d="M928,212.6h-5.7v-42h5.7V212.6z M922.6,212.3h5.2v-41.5h-5.2V212.3z"/>
	</g>
	<g>
		<rect x="922.4" y="124.4" class="st0" width="5.5" height="37.5"/>
		<path class="st1" d="M928,162h-5.7v-37.8h5.7V162z M922.6,161.8h5.2v-37.3h-5.2V161.8z"/>
	</g>
	<g>
		<rect x="922.4" y="77.1" class="st0" width="5.5" height="30.4"/>
		<path class="st1" d="M928,107.6h-5.7V77h5.7V107.6z M922.6,107.4h5.2V77.3h-5.2V107.4z"/>
	</g>
	<g>
		<rect x="894.9" y="326.6" class="st0" width="5" height="28.4"/>
		<path class="st1" d="M900,355.1h-5.2v-28.7h5.2V355.1z M895.1,354.9h4.7v-28.2h-4.7V354.9z"/>
	</g>
	<g>
		<rect x="894.9" y="259.8" class="st0" width="5" height="38.7"/>
		<path class="st1" d="M900,298.7h-5.2v-39h5.2V298.7z M895.1,298.5h4.7V260h-4.7V298.5z"/>
	</g>
	<g>
		<rect x="894.9" y="172.9" class="st0" width="5" height="38.5"/>
		<path class="st1" d="M900,211.5h-5.2v-38.7h5.2V211.5z M895.1,211.3h4.7v-38.2h-4.7V211.3z"/>
	</g>
	<g>
		<rect x="894.9" y="129.2" class="st0" width="5" height="31.2"/>
		<path class="st1" d="M900,160.6h-5.2v-31.5h5.2V160.6z M895.1,160.3h4.7v-31h-4.7V160.3z"/>
	</g>
	<g>
		<rect x="851.4" y="137.3" class="st0" width="3.2" height="23.2"/>
		<path class="st1" d="M854.7,160.6h-3.4v-23.4h3.4V160.6z M851.5,160.3h2.9v-22.9h-2.9V160.3z"/>
	</g>
	<g>
		<rect x="851.4" y="98.3" class="st0" width="3.2" height="9"/>
		<path class="st1" d="M854.7,107.4h-3.4v-9.3h3.4V107.4z M851.5,107.2h2.9v-8.8h-2.9V107.2z"/>
	</g>
	<g>
		<rect x="851.4" y="176.6" class="st0" width="3.2" height="33.2"/>
		<path class="st1" d="M854.7,210h-3.4v-33.5h3.4V210z M851.5,209.7h2.9v-33h-2.9V209.7z"/>
	</g>
	<g>
		<rect x="851.4" y="219.8" class="st0" width="3.2" height="29.3"/>
		<path class="st1" d="M854.7,249.2h-3.4v-29.5h3.4V249.2z M851.5,248.9h2.9v-29h-2.9V248.9z"/>
	</g>
	<g>
		<rect x="851.4" y="253.1" class="st0" width="3.2" height="34.3"/>
		<path class="st1" d="M854.7,287.4h-3.4v-34.5h3.4V287.4z M851.5,287.2h2.9v-34h-2.9V287.2z"/>
	</g>
	<g>
		<rect x="894.9" y="85.2" class="st0" width="5" height="22.3"/>
		<path class="st1" d="M900,107.6h-5.2V85.1h5.2V107.6z M895.1,107.4h4.7v-22h-4.7V107.4z"/>
	</g>
	<g>
		<rect x="983" y="268.7" class="st0" width="7.4" height="4.3"/>
		<path class="st1" d="M990.5,273.1h-7.7v-4.5h7.7V273.1z M983.1,272.9h7.2v-4h-7.2V272.9z"/>
	</g>
	<g>
		<polygon class="st0" points="983,268.7 831.5,247.7 831.5,250.7 983,273 		"/>
		<path class="st1" d="M983.1,273.1L983.1,273.1l-151.7-22.3v-3.3h0.1l151.6,21V273.1z M831.6,250.6l151.3,22.2v-4l-151.3-21V250.6z
			"/>
	</g>
	<g>
		<polygon class="st0" points="831.5,247.7 834.9,247.7 990.4,268.7 983,268.7 		"/>
		<path class="st1" d="M990.4,268.8H983l-151.5-21v-0.2h3.4l155.5,21V268.8z M833.3,247.8L983,268.6h5.5l-153.7-20.8H833.3z"/>
	</g>
	<g>
		<rect x="922.4" y="219.2" class="st0" width="5.5" height="41.1"/>
		<path class="st1" d="M928,260.4h-5.7V219h5.7V260.4z M922.6,260.2h5.2v-40.9h-5.2V260.2z"/>
	</g>
	<g>
		<rect x="951.6" y="219.2" class="st0" width="5.9" height="45.1"/>
		<path class="st1" d="M957.7,264.4h-6.2v-45.3h6.2V264.4z M951.7,264.1h5.7v-44.8h-5.7V264.1z"/>
	</g>
	<g>
		<rect x="894.9" y="219.2" class="st0" width="5" height="37.2"/>
		<path class="st1" d="M900,256.6h-5.2v-37.5h5.2V256.6z M895.1,256.3h4.7v-37h-4.7V256.3z"/>
	</g>
	<g>
		<rect x="831.4" y="178" class="st0" width="3.2" height="31.8"/>
		<path class="st1" d="M834.8,209.9h-3.5v-32h3.5V209.9z M831.6,209.6h3v-31.5h-3V209.6z"/>
	</g>
	<g>
		<rect x="831.4" y="140.7" class="st0" width="3.2" height="19.7"/>
		<path class="st1" d="M834.8,160.6h-3.5v-20h3.5V160.6z M831.6,160.3h3v-19.5h-3V160.3z"/>
	</g>
	<g>
		<rect x="831.4" y="104.1" class="st0" width="3.2" height="3"/>
		<path class="st1" d="M834.8,107.3h-3.5V104h3.5V107.3z M831.6,107h3v-2.8h-3V107z"/>
	</g>
	<g>
		<rect x="990.4" y="266.9" class="st0" width="2.2" height="7.3"/>
		<path class="st1" d="M992.7,274.3h-2.5v-7.5h2.5V274.3z M990.5,274.1h2v-7h-2V274.1z"/>
	</g>
	<g>
		<rect x="817.5" y="247.7" class="st0" width="13.9" height="3"/>
		<path class="st1" d="M831.6,250.8h-14.2v-3.3h14.2V250.8z M817.7,250.6h13.7v-2.8h-13.7V250.6z"/>
	</g>
	<g>
		<rect x="831.4" y="219.2" class="st0" width="3.2" height="28.5"/>
		<path class="st1" d="M834.8,247.8h-3.5v-28.7h3.5V247.8z M831.6,247.5h3v-28.2h-3V247.5z"/>
	</g>
	<g>
		<rect x="161.6" y="250.7" class="st0" width="3.2" height="32.6"/>
		<path class="st1" d="M165,283.4h-3.5v-32.8h3.5V283.4z M161.7,283.2h3v-32.3h-3V283.2z"/>
	</g>
	<g>
		<rect x="141.7" y="253.7" class="st0" width="3.2" height="34.3"/>
		<path class="st1" d="M145.1,288h-3.5v-34.5h3.5V288z M141.9,287.8h3v-34h-3V287.8z"/>
	</g>
	<g>
		<rect x="161.7" y="246.5" class="st0" width="17.9" height="4.2"/>
		<path class="st1" d="M179.7,250.8h-18.2v-4.4h18.2V250.8z M161.7,250.6h17.7v-4h-17.7V250.6z"/>
	</g>
	<g>
		<polygon class="st0" points="5.9,274.2 161.6,250.7 161.6,246.5 5.9,266.9 		"/>
		<path class="st1" d="M5.8,274.4v-7.5h0.1l155.8-20.5v4.5h-0.1L5.8,274.4z M6,267.1v7l155.5-23.4v-4L6,267.1z"/>
	</g>
	<g>
		<rect x="38.8" y="268.3" class="st0" width="5.9" height="44.5"/>
		<path class="st1" d="M44.8,313h-6.2v-44.8h6.2V313z M38.8,312.7h5.7v-44.3h-5.7V312.7z"/>
	</g>
	<g>
		<rect x="38.8" y="326.7" class="st0" width="5.9" height="51.1"/>
		<path class="st1" d="M44.8,377.9h-6.2v-51.3h6.2V377.9z M38.8,377.7h5.7v-50.8h-5.7V377.7z"/>
	</g>
	<g>
		<rect x="38.8" y="168.4" class="st0" width="5.9" height="44"/>
		<path class="st1" d="M44.8,212.6h-6.2v-44.2h6.2V212.6z M38.8,212.3h5.7v-43.7h-5.7V212.3z"/>
	</g>
	<g>
		<rect x="38.8" y="117.9" class="st0" width="5.9" height="44"/>
		<path class="st1" d="M44.8,162h-6.2v-44.2h6.2V162z M38.8,161.8h5.7v-43.7h-5.7V161.8z"/>
	</g>
	<g>
		<rect x="38.8" y="68.4" class="st0" width="5.9" height="39.1"/>
		<path class="st1" d="M44.8,107.6h-6.2V68.2h6.2V107.6z M38.8,107.4h5.7V68.5h-5.7V107.4z"/>
	</g>
	<g>
		<rect x="68.3" y="264.1" class="st0" width="5.5" height="41.2"/>
		<path class="st1" d="M74,305.4h-5.7V264H74V305.4z M68.5,305.2h5.2v-40.9h-5.2V305.2z"/>
	</g>
	<g>
		<rect x="68.3" y="326.7" class="st0" width="5.5" height="39.7"/>
		<path class="st1" d="M74,366.5h-5.7v-39.9H74V366.5z M68.5,366.3h5.2v-39.4h-5.2V366.3z"/>
	</g>
	<g>
		<rect x="68.3" y="170.6" class="st0" width="5.5" height="41.8"/>
		<path class="st1" d="M74,212.6h-5.7v-42H74V212.6z M68.5,212.3h5.2v-41.5h-5.2V212.3z"/>
	</g>
	<g>
		<rect x="68.3" y="124.4" class="st0" width="5.5" height="37.5"/>
		<path class="st1" d="M74,162h-5.7v-37.8H74V162z M68.5,161.8h5.2v-37.3h-5.2V161.8z"/>
	</g>
	<g>
		<rect x="68.3" y="77.1" class="st0" width="5.5" height="30.4"/>
		<path class="st1" d="M74,107.6h-5.7V77H74V107.6z M68.5,107.4h5.2V77.3h-5.2V107.4z"/>
	</g>
	<g>
		<rect x="96.3" y="259.9" class="st0" width="5" height="38.7"/>
		<path class="st1" d="M101.4,298.7h-5.2v-39h5.2V298.7z M96.5,298.5h4.7V260h-4.7V298.5z"/>
	</g>
	<g>
		<rect x="96.3" y="326.7" class="st0" width="5" height="29"/>
		<path class="st1" d="M101.4,355.8h-5.2v-29.3h5.2V355.8z M96.5,355.6h4.7v-28.8h-4.7V355.6z"/>
	</g>
	<g>
		<rect x="96.3" y="173" class="st0" width="5" height="38.5"/>
		<path class="st1" d="M101.4,211.5h-5.2v-38.7h5.2V211.5z M96.5,211.3h4.7v-38.2h-4.7V211.3z"/>
	</g>
	<g>
		<rect x="96.3" y="129.3" class="st0" width="5" height="31.2"/>
		<path class="st1" d="M101.4,160.6h-5.2v-31.5h5.2V160.6z M96.5,160.3h4.7v-31h-4.7V160.3z"/>
	</g>
	<g>
		<rect x="96.3" y="85.2" class="st0" width="5" height="22.3"/>
		<path class="st1" d="M101.4,107.6h-5.2V85.1h5.2V107.6z M96.5,107.4h4.7v-22h-4.7V107.4z"/>
	</g>
	<g>
		<rect x="5.9" y="268.7" class="st0" width="7.4" height="4.3"/>
		<path class="st1" d="M13.4,273.1H5.7v-4.5h7.7V273.1z M6,272.9h7.2v-4H6V272.9z"/>
	</g>
	<g>
		<polygon class="st0" points="13.3,268.7 164.8,247.7 164.8,250.7 13.3,273 		"/>
		<path class="st1" d="M13.2,273.1v-4.6h0.1l151.7-21v3.3h-0.1L13.2,273.1z M13.4,268.8v4l151.3-22.2v-2.8L13.4,268.8z"/>
	</g>
	<g>
		<polygon class="st0" points="164.8,247.7 161.4,247.7 5.9,268.7 13.3,268.7 		"/>
		<path class="st1" d="M5.9,268.8v-0.2l155.5-21h3.4v0.2l-151.5,21H5.9z M7.7,268.6h5.5l149.7-20.8h-1.6L7.7,268.6z"/>
	</g>
	<g>
		<rect x="68.3" y="219.2" class="st0" width="5.5" height="41.1"/>
		<path class="st1" d="M74,260.4h-5.7V219H74V260.4z M68.5,260.2h5.2v-40.9h-5.2V260.2z"/>
	</g>
	<g>
		<rect x="38.8" y="219.2" class="st0" width="5.9" height="45.1"/>
		<path class="st1" d="M44.8,264.4h-6.2v-45.3h6.2V264.4z M38.8,264.1h5.7v-44.8h-5.7V264.1z"/>
	</g>
	<g>
		<rect x="96.3" y="219.2" class="st0" width="5" height="37.2"/>
		<path class="st1" d="M101.4,256.6h-5.2v-37.5h5.2V256.6z M96.5,256.3h4.7v-37h-4.7V256.3z"/>
	</g>
	<g>
		<rect x="161.6" y="140.5" class="st0" width="3.2" height="19.9"/>
		<path class="st1" d="M165,160.6h-3.5v-20.2h3.5V160.6z M161.7,160.3h3v-19.7h-3V160.3z"/>
	</g>
	<g>
		<rect x="3.7" y="267" class="st0" width="2.2" height="7.3"/>
		<path class="st1" d="M6,274.3H3.5v-7.5H6V274.3z M3.8,274.1h2v-7h-2V274.1z"/>
	</g>
	<g>
		<rect x="164.9" y="247.7" class="st0" width="14.6" height="3"/>
		<path class="st1" d="M179.7,250.8h-14.8v-3.3h14.8V250.8z M165.1,250.6h14.3v-2.8h-14.3V250.6z"/>
	</g>
	<g>
		<rect x="161.6" y="219.2" class="st0" width="3.2" height="28.5"/>
		<path class="st1" d="M165,247.8h-3.5v-28.7h3.5V247.8z M161.7,247.5h3v-28.2h-3V247.5z"/>
	</g>
	<g>
		<rect x="141.7" y="219.2" class="st0" width="3.2" height="30"/>
		<path class="st1" d="M145,249.3h-3.5V219h3.5V249.3z M141.8,249.1h3v-29.8h-3V249.1z"/>
	</g>
	<g>
		<rect x="465.9" y="326.6" class="st0" width="2.1" height="11.9"/>
		<path class="st1" d="M468.1,338.6h-2.3v-12.1h2.3V338.6z M466,338.4h1.9v-11.7H466V338.4z"/>
	</g>
	<g>
		<rect x="464.2" y="326.6" class="st0" width="2.1" height="20"/>
		<path class="st1" d="M466.4,346.7h-2.3v-20.2h2.3V346.7z M464.3,346.5h1.9v-19.8h-1.9V346.5z"/>
	</g>
	<g>
		<rect x="461.5" y="326.6" class="st0" width="3.1" height="29.7"/>
		<path class="st1" d="M464.7,356.4h-3.3v-30h3.3V356.4z M461.6,356.2h2.9v-29.5h-2.9V356.2z"/>
	</g>
	<g>
		<rect x="457.8" y="326.6" class="st0" width="4.4" height="40"/>
		<path class="st1" d="M462.4,366.7h-4.7v-40.3h4.7V366.7z M458,366.5h4.2v-39.8H458V366.5z"/>
	</g>
	<g>
		<rect x="870.8" y="118" class="st0" width="5" height="44"/>
		<path class="st1" d="M876,162h-5.3v-44.2h5.3V162z M870.9,161.8h4.8V118h-4.8V161.8z"/>
	</g>
	<g>
		<rect x="870.8" y="168.5" class="st0" width="5" height="44"/>
		<path class="st1" d="M876,212.6h-5.3v-44.2h5.3V212.6z M870.9,212.3h4.8v-43.8h-4.8V212.3z"/>
	</g>
	<g>
		<rect x="870.8" y="219.4" class="st0" width="5" height="93.8"/>
		<path class="st1" d="M876,313.3h-5.3v-94h5.3V313.3z M870.9,313.1h4.8v-93.6h-4.8V313.1z"/>
	</g>
	<g>
		<rect x="870.8" y="68.4" class="st0" width="5" height="39.1"/>
		<path class="st1" d="M876,107.6h-5.3V68.3h5.3V107.6z M870.9,107.4h4.8V68.5h-4.8V107.4z"/>
	</g>
	<g>
		<rect x="845.3" y="123.7" class="st0" width="6.6" height="36.8"/>
		<path class="st1" d="M852,160.6h-6.8v-37h6.8V160.6z M845.4,160.4h6.4v-36.6h-6.4V160.4z"/>
	</g>
	<g>
		<rect x="845.3" y="170.7" class="st0" width="6.6" height="41.5"/>
		<path class="st1" d="M852,212.3h-6.8v-41.7h6.8V212.3z M845.4,212.1h6.4v-41.3h-6.4V212.1z"/>
	</g>
	<g>
		<rect x="845.3" y="219.4" class="st0" width="6.6" height="85.8"/>
		<path class="st1" d="M852,305.4h-6.8v-86.1h6.8V305.4z M845.4,305.1h6.4v-85.6h-6.4V305.1z"/>
	</g>
	<g>
		<rect x="801.4" y="273.4" class="st0" width="7.3" height="19.3"/>
		<path class="st1" d="M808.8,292.8h-7.5v-19.5h7.5V292.8z M801.5,292.6h7.1v-19.1h-7.1V292.6z"/>
	</g>
	<g>
		<rect x="801.4" y="174.4" class="st0" width="7.3" height="36.3"/>
		<path class="st1" d="M808.8,210.8h-7.5v-36.5h7.5V210.8z M801.5,210.6h7.1v-36.1h-7.1V210.6z"/>
	</g>
	<g>
		<rect x="801.4" y="133.2" class="st0" width="7.3" height="27"/>
		<path class="st1" d="M808.8,160.3h-7.5v-27.2h7.5V160.3z M801.5,160.1h7.1v-26.8h-7.1V160.1z"/>
	</g>
	<g>
		<rect x="801.4" y="92.3" class="st0" width="7.3" height="15"/>
		<path class="st1" d="M808.8,107.4h-7.5V92.2h7.5V107.4z M801.5,107.2h7.1V92.4h-7.1V107.2z"/>
	</g>
	<g>
		<rect x="845.3" y="77.1" class="st0" width="6.6" height="30.4"/>
		<path class="st1" d="M852,107.6h-6.8V77h6.8V107.6z M845.4,107.4h6.4V77.2h-6.4V107.4z"/>
	</g>
	<g>
		<polygon class="st0" points="845.3,123.7 842.7,124.7 842.7,160.5 845.3,160.5 		"/>
		<path class="st1" d="M845.4,160.6h-2.8v-36l2.8-1.1V160.6z M842.8,160.4h2.4v-36.5l-2.4,0.9V160.4z"/>
	</g>
	<g>
		<polygon class="st0" points="845.3,170.7 842.7,171 842.7,212.2 845.3,212.2 		"/>
		<path class="st1" d="M845.4,212.3h-2.8v-41.4l2.8-0.4V212.3z M842.8,212.1h2.4v-41.3l-2.4,0.3V212.1z"/>
	</g>
	<g>
		<polygon class="st0" points="845.3,219.4 842.7,219.4 842.7,304.6 845.3,305.3 		"/>
		<path class="st1" d="M845.4,305.4l-2.8-0.7v-85.4h2.8V305.4z M842.8,304.5l2.4,0.6v-85.6h-2.4V304.5z"/>
	</g>
	<g>
		<polygon class="st0" points="845.3,77.1 842.7,78.8 842.7,107.5 845.3,107.5 		"/>
		<path class="st1" d="M845.4,107.6h-2.8V78.7l2.8-1.8V107.6z M842.8,107.4h2.4V77.3l-2.4,1.6V107.4z"/>
	</g>
	<g>
		<rect x="823.9" y="85.2" class="st0" width="4.1" height="22.3"/>
		<path class="st1" d="M828.1,107.6h-4.3V85.1h4.3V107.6z M824,107.4h3.9v-22H824V107.4z"/>
	</g>
	<g>
		<rect x="823.9" y="128.8" class="st0" width="4.1" height="31.7"/>
		<path class="st1" d="M828.1,160.6h-4.3v-31.9h4.3V160.6z M824,160.4h3.9V129H824V160.4z"/>
	</g>
	<g>
		<rect x="823.9" y="172.9" class="st0" width="4.1" height="38.7"/>
		<path class="st1" d="M828.1,211.8h-4.3v-38.9h4.3V211.8z M824,211.5h3.9V173H824V211.5z"/>
	</g>
	<g>
		<rect x="823.9" y="219.4" class="st0" width="4.1" height="79"/>
		<path class="st1" d="M828.1,298.6h-4.3v-79.2h4.3V298.6z M824,298.3h3.9v-78.8H824V298.3z"/>
	</g>
	<g>
		<rect x="120.1" y="117.9" class="st0" width="5" height="44"/>
		<path class="st1" d="M125.2,162h-5.3v-44.2h5.3V162z M120.2,161.8h4.8V118h-4.8V161.8z"/>
	</g>
	<g>
		<rect x="120.1" y="168.4" class="st0" width="5" height="44"/>
		<path class="st1" d="M125.2,212.6h-5.3v-44.2h5.3V212.6z M120.2,212.3h4.8v-43.8h-4.8V212.3z"/>
	</g>
	<g>
		<rect x="120.1" y="219.4" class="st0" width="5" height="93.8"/>
		<path class="st1" d="M125.2,313.3h-5.3v-94h5.3V313.3z M120.2,313.1h4.8v-93.6h-4.8V313.1z"/>
	</g>
	<g>
		<rect x="120.1" y="68.4" class="st0" width="5" height="39.1"/>
		<path class="st1" d="M125.2,107.6h-5.3V68.3h5.3V107.6z M120.2,107.4h4.8V68.5h-4.8V107.4z"/>
	</g>
	<g>
		<rect x="144" y="123.6" class="st0" width="6.6" height="36.8"/>
		<path class="st1" d="M150.7,160.6h-6.8v-37h6.8V160.6z M144.1,160.4h6.4v-36.6h-6.4V160.4z"/>
	</g>
	<g>
		<rect x="144" y="170.6" class="st0" width="6.6" height="41.5"/>
		<path class="st1" d="M150.7,212.3h-6.8v-41.7h6.8V212.3z M144.1,212.1h6.4v-41.3h-6.4V212.1z"/>
	</g>
	<g>
		<rect x="144" y="219.5" class="st0" width="6.6" height="85.8"/>
		<path class="st1" d="M150.7,305.4h-6.8v-86.1h6.8V305.4z M144.1,305.1h6.4v-85.6h-6.4V305.1z"/>
	</g>
	<g>
		<rect x="187.3" y="273.5" class="st0" width="7.3" height="19.3"/>
		<path class="st1" d="M194.6,292.8h-7.5v-19.5h7.5V292.8z M187.3,292.6h7.1v-19.1h-7.1V292.6z"/>
	</g>
	<g>
		<rect x="187.3" y="174.4" class="st0" width="7.3" height="36.3"/>
		<path class="st1" d="M194.6,210.8h-7.5v-36.5h7.5V210.8z M187.3,210.6h7.1v-36.1h-7.1V210.6z"/>
	</g>
	<g>
		<rect x="187.3" y="133.2" class="st0" width="7.3" height="27"/>
		<path class="st1" d="M194.6,160.3h-7.5v-27.2h7.5V160.3z M187.3,160.1h7.1v-26.8h-7.1V160.1z"/>
	</g>
	<g>
		<rect x="187.3" y="92.3" class="st0" width="7.3" height="15"/>
		<path class="st1" d="M194.6,107.4h-7.5V92.2h7.5V107.4z M187.3,107.2h7.1V92.4h-7.1V107.2z"/>
	</g>
	<g>
		<rect x="144" y="77.1" class="st0" width="6.6" height="30.4"/>
		<path class="st1" d="M150.7,107.6h-6.8V77h6.8V107.6z M144.1,107.4h6.4V77.2h-6.4V107.4z"/>
	</g>
	<g>
		<polygon class="st0" points="150.6,123.7 153.2,124.7 153.2,160.5 150.6,160.5 		"/>
		<path class="st1" d="M153.4,160.6h-2.8v-37.1l2.8,1.1V160.6z M150.7,160.4h2.4v-35.6l-2.4-0.9V160.4z"/>
	</g>
	<g>
		<polygon class="st0" points="150.6,170.7 153.2,171 153.2,212.2 150.6,212.2 		"/>
		<path class="st1" d="M153.4,212.3h-2.8v-41.7l2.8,0.4V212.3z M150.7,212.1h2.4v-41l-2.4-0.3V212.1z"/>
	</g>
	<g>
		<polygon class="st0" points="150.6,219.4 153.2,219.4 153.2,304.6 150.6,305.3 		"/>
		<path class="st1" d="M150.5,305.4v-86.1h2.8v85.4L150.5,305.4z M150.7,219.5v85.6l2.4-0.6v-85H150.7z"/>
	</g>
	<g>
		<polygon class="st0" points="150.6,77.1 153.2,78.8 153.2,107.5 150.6,107.5 		"/>
		<path class="st1" d="M153.4,107.6h-2.8V76.9l2.8,1.8V107.6z M150.7,107.4h2.4V78.9l-2.4-1.6V107.4z"/>
	</g>
	<g>
		<rect x="168" y="85.2" class="st0" width="4.1" height="22.3"/>
		<path class="st1" d="M172.1,107.6h-4.3V85.1h4.3V107.6z M168.1,107.4h3.9v-22h-3.9V107.4z"/>
	</g>
	<g>
		<rect x="168" y="128.8" class="st0" width="4.1" height="31.7"/>
		<path class="st1" d="M172.1,160.6h-4.3v-31.9h4.3V160.6z M168.1,160.4h3.9V129h-3.9V160.4z"/>
	</g>
	<g>
		<rect x="168" y="173" class="st0" width="4.1" height="38.7"/>
		<path class="st1" d="M172.1,211.8h-4.3v-38.9h4.3V211.8z M168.1,211.5h3.9V173h-3.9V211.5z"/>
	</g>
	<g>
		<rect x="168" y="219.5" class="st0" width="4.1" height="79"/>
		<path class="st1" d="M172.1,298.6h-4.3v-79.2h4.3V298.6z M168.1,298.3h3.9v-78.8h-3.9V298.3z"/>
	</g>
	<g>
		<rect x="455.3" y="326.6" class="st0" width="4.4" height="50.8"/>
		<path class="st1" d="M459.9,377.5h-4.7v-51h4.7V377.5z M455.4,377.2h4.2v-50.6h-4.2V377.2z"/>
	</g>
	<g>
		<rect x="530" y="326.5" class="st0" width="2.1" height="11.9"/>
		<path class="st1" d="M532.2,338.6h-2.3v-12.1h2.3V338.6z M530.1,338.4h1.9v-11.7h-1.9V338.4z"/>
	</g>
	<g>
		<rect x="531.7" y="326.5" class="st0" width="2.1" height="20"/>
		<path class="st1" d="M533.9,346.7h-2.3v-20.2h2.3V346.7z M531.8,346.5h1.9v-19.8h-1.9V346.5z"/>
	</g>
	<g>
		<rect x="533.4" y="326.6" class="st0" width="3.1" height="29.7"/>
		<path class="st1" d="M536.6,356.4h-3.3v-30h3.3V356.4z M533.6,356.2h2.9v-29.5h-2.9V356.2z"/>
	</g>
	<g>
		<rect x="535.8" y="326.6" class="st0" width="4.4" height="40"/>
		<path class="st1" d="M540.3,366.7h-4.7v-40.3h4.7V366.7z M535.8,366.5h4.2v-39.8h-4.2V366.5z"/>
	</g>
	<g>
		<rect x="538.3" y="326.5" class="st0" width="4.4" height="50.8"/>
		<path class="st1" d="M542.8,377.5h-4.7v-51h4.7V377.5z M538.3,377.2h4.2v-50.6h-4.2V377.2z"/>
	</g>
	<g>
		<rect x="593.1" y="326.5" class="st0" width="3.2" height="11.9"/>
		<path class="st1" d="M596.4,338.6h-3.5v-12.1h3.5V338.6z M593.2,338.4h3v-11.7h-3V338.4z"/>
	</g>
	<g>
		<rect x="597.8" y="326.5" class="st0" width="6" height="20"/>
		<path class="st1" d="M604,346.7h-6.2v-20.2h6.2V346.7z M598,346.5h5.8v-19.8H598V346.5z"/>
	</g>
	<g>
		<rect x="605.4" y="326.6" class="st0" width="3.7" height="29.7"/>
		<path class="st1" d="M609.3,356.4h-3.9v-30h3.9V356.4z M605.6,356.2h3.5v-29.5h-3.5V356.2z"/>
	</g>
	<g>
		<rect x="611.7" y="326.6" class="st0" width="6.9" height="40"/>
		<path class="st1" d="M618.7,366.7h-7.2v-40.3h7.2V366.7z M611.7,366.5h6.7v-39.8h-6.7V366.5z"/>
	</g>
	<g>
		<rect x="621.1" y="326.5" class="st0" width="4.4" height="50.8"/>
		<path class="st1" d="M625.6,377.5h-4.7v-51h4.7V377.5z M621.1,377.2h4.2v-50.6h-4.2V377.2z"/>
	</g>
	<g>
		<rect x="401.5" y="326.6" class="st0" width="3.2" height="11.9"/>
		<path class="st1" d="M404.8,338.6h-3.5v-12.1h3.5V338.6z M401.6,338.4h3v-11.7h-3V338.4z"/>
	</g>
	<g>
		<rect x="394" y="326.6" class="st0" width="6" height="20"/>
		<path class="st1" d="M400.1,346.7h-6.2v-20.2h6.2V346.7z M394.1,346.5h5.8v-19.8h-5.8V346.5z"/>
	</g>
	<g>
		<rect x="388.6" y="326.6" class="st0" width="3.7" height="29.7"/>
		<path class="st1" d="M392.4,356.4h-3.9v-30h3.9V356.4z M388.7,356.2h3.5v-29.5h-3.5V356.2z"/>
	</g>
	<g>
		<rect x="379.2" y="326.6" class="st0" width="6.9" height="40"/>
		<path class="st1" d="M386.3,366.7h-7.2v-40.3h7.2V366.7z M379.3,366.5h6.7v-39.8h-6.7V366.5z"/>
	</g>
	<g>
		<rect x="372.3" y="326.6" class="st0" width="4.4" height="50.8"/>
		<path class="st1" d="M376.9,377.5h-4.7v-51h4.7V377.5z M372.5,377.2h4.2v-50.6h-4.2V377.2z"/>
	</g>
	<g>
		<rect x="457.8" y="273.4" class="st0" width="4.4" height="31.9"/>
		<path class="st1" d="M462.4,305.4h-4.7v-32.1h4.7V305.4z M458,305.2h4.2v-31.6H458V305.2z"/>
	</g>
	<g>
		<rect x="455.3" y="273.4" class="st0" width="4.4" height="39"/>
		<path class="st1" d="M459.9,312.5h-4.7v-39.2h4.7V312.5z M455.4,312.3h4.2v-38.7h-4.2V312.3z"/>
	</g>
	<g>
		<rect x="535.8" y="273.4" class="st0" width="4.4" height="31.9"/>
		<path class="st1" d="M540.3,305.4h-4.7v-32.1h4.7V305.4z M535.8,305.2h4.2v-31.6h-4.2V305.2z"/>
	</g>
	<g>
		<rect x="538.3" y="273.4" class="st0" width="4.4" height="39"/>
		<path class="st1" d="M542.8,312.5h-4.7v-39.2h4.7V312.5z M538.3,312.3h4.2v-38.7h-4.2V312.3z"/>
	</g>
	<g>
		<rect x="593.1" y="273.5" class="st0" width="3.2" height="14.1"/>
		<path class="st1" d="M596.4,287.6h-3.5v-14.3h3.5V287.6z M593.2,287.4h3v-13.9h-3V287.4z"/>
	</g>
	<g>
		<rect x="597.8" y="273.4" class="st0" width="6" height="19.5"/>
		<path class="st1" d="M604,293h-6.2v-19.7h6.2V293z M598,292.8h5.8v-19.3H598V292.8z"/>
	</g>
	<g>
		<rect x="605.4" y="273.5" class="st0" width="3.7" height="24.9"/>
		<path class="st1" d="M609.3,298.5h-3.9v-25.1h3.9V298.5z M605.6,298.2h3.5v-24.7h-3.5V298.2z"/>
	</g>
	<g>
		<rect x="611.7" y="273.4" class="st0" width="6.9" height="31.9"/>
		<path class="st1" d="M618.7,305.4h-7.2v-32.1h7.2V305.4z M611.7,305.2h6.7v-31.6h-6.7V305.2z"/>
	</g>
	<g>
		<rect x="621.1" y="273.4" class="st0" width="4.4" height="39"/>
		<path class="st1" d="M625.6,312.5h-4.7v-39.2h4.7V312.5z M621.1,312.3h4.2v-38.7h-4.2V312.3z"/>
	</g>
	<g>
		<rect x="401.5" y="273.4" class="st0" width="3.2" height="14.1"/>
		<path class="st1" d="M404.8,287.6h-3.5v-14.3h3.5V287.6z M401.6,287.4h3v-13.9h-3V287.4z"/>
	</g>
	<g>
		<rect x="394" y="273.4" class="st0" width="6" height="19.5"/>
		<path class="st1" d="M400.1,293h-6.2v-19.7h6.2V293z M394.1,292.8h5.8v-19.3h-5.8V292.8z"/>
	</g>
	<g>
		<rect x="388.6" y="273.4" class="st0" width="3.7" height="24.9"/>
		<path class="st1" d="M392.4,298.5h-3.9v-25.1h3.9V298.5z M388.7,298.2h3.5v-24.7h-3.5V298.2z"/>
	</g>
	<g>
		<rect x="379.2" y="273.4" class="st0" width="6.9" height="31.9"/>
		<path class="st1" d="M386.3,305.4h-7.2v-32.1h7.2V305.4z M379.3,305.2h6.7v-31.6h-6.7V305.2z"/>
	</g>
	<g>
		<rect x="372.3" y="273.4" class="st0" width="4.4" height="39"/>
		<path class="st1" d="M376.9,312.5h-4.7v-39.2h4.7V312.5z M372.5,312.3h4.2v-38.7h-4.2V312.3z"/>
	</g>
	<g>
		<rect x="457.8" y="219.4" class="st0" width="4.4" height="39.8"/>
		<path class="st1" d="M462.4,259.3h-4.7v-40h4.7V259.3z M458,259.1h4.2v-39.5H458V259.1z"/>
	</g>
	<g>
		<rect x="455.3" y="219.4" class="st0" width="4.4" height="43.8"/>
		<path class="st1" d="M459.9,263.3h-4.7v-44h4.7V263.3z M455.4,263.1h4.2v-43.5h-4.2V263.1z"/>
	</g>
	<g>
		<rect x="535.8" y="219.4" class="st0" width="4.4" height="39.8"/>
		<path class="st1" d="M540.3,259.3h-4.7v-40h4.7V259.3z M535.8,259.1h4.2v-39.5h-4.2V259.1z"/>
	</g>
	<g>
		<rect x="538.3" y="219.4" class="st0" width="4.4" height="43.8"/>
		<path class="st1" d="M542.8,263.3h-4.7v-44h4.7V263.3z M538.3,263.1h4.2v-43.5h-4.2V263.1z"/>
	</g>
	<g>
		<rect x="457.8" y="171.2" class="st0" width="4.4" height="40.7"/>
		<path class="st1" d="M462.4,212h-4.7v-40.9h4.7V212z M458,211.8h4.2v-40.4H458V211.8z"/>
	</g>
	<g>
		<rect x="455.3" y="168.5" class="st0" width="4.4" height="44.8"/>
		<path class="st1" d="M459.9,213.4h-4.7v-45h4.7V213.4z M455.4,213.2h4.2v-44.6h-4.2V213.2z"/>
	</g>
	<g>
		<rect x="535.8" y="171.3" class="st0" width="4.4" height="40.7"/>
		<path class="st1" d="M540.3,212h-4.7v-40.9h4.7V212z M535.8,211.8h4.2v-40.4h-4.2V211.8z"/>
	</g>
	<g>
		<rect x="538.3" y="168.5" class="st0" width="4.4" height="44.8"/>
		<path class="st1" d="M542.8,213.4h-4.7v-45h4.7V213.4z M538.3,213.2h4.2v-44.6h-4.2V213.2z"/>
	</g>
	<g>
		<rect x="457.8" y="123.6" class="st0" width="4.4" height="36.9"/>
		<path class="st1" d="M462.4,160.6h-4.7v-37.1h4.7V160.6z M458,160.4h4.2v-36.6H458V160.4z"/>
	</g>
	<g>
		<rect x="455.3" y="118.4" class="st0" width="4.4" height="42.1"/>
		<path class="st1" d="M459.9,160.6h-4.7v-42.3h4.7V160.6z M455.4,160.4h4.2v-41.8h-4.2V160.4z"/>
	</g>
	<g>
		<rect x="535.8" y="123.6" class="st0" width="4.4" height="36.9"/>
		<path class="st1" d="M540.3,160.6h-4.7v-37.1h4.7V160.6z M535.8,160.4h4.2v-36.6h-4.2V160.4z"/>
	</g>
	<g>
		<rect x="538.3" y="118.4" class="st0" width="4.4" height="42.1"/>
		<path class="st1" d="M542.8,160.6h-4.7v-42.3h4.7V160.6z M538.3,160.4h4.2v-41.8h-4.2V160.4z"/>
	</g>
	<g>
		<rect x="457.8" y="76.9" class="st0" width="4.4" height="30.5"/>
		<path class="st1" d="M462.4,107.5h-4.7V76.8h4.7V107.5z M458,107.3h4.2V77H458V107.3z"/>
	</g>
	<g>
		<rect x="455.3" y="68.3" class="st0" width="4.4" height="39.1"/>
		<path class="st1" d="M459.9,107.5h-4.7V68.2h4.7V107.5z M455.4,107.3h4.2V68.4h-4.2V107.3z"/>
	</g>
	<g>
		<rect x="535.8" y="76.9" class="st0" width="4.4" height="30.5"/>
		<path class="st1" d="M540.3,107.5h-4.7V76.8h4.7V107.5z M535.8,107.3h4.2V77h-4.2V107.3z"/>
	</g>
	<g>
		<rect x="538.3" y="68.3" class="st0" width="4.4" height="39.1"/>
		<path class="st1" d="M542.8,107.5h-4.7V68.2h4.7V107.5z M538.3,107.3h4.2V68.4h-4.2V107.3z"/>
	</g>
	<g>
		<rect x="593.1" y="219.4" class="st0" width="3.2" height="29.5"/>
		<path class="st1" d="M596.4,249h-3.5v-29.7h3.5V249z M593.2,248.8h3v-29.3h-3V248.8z"/>
	</g>
	<g>
		<rect x="597.8" y="219.4" class="st0" width="6" height="32.9"/>
		<path class="st1" d="M604,252.4h-6.2v-33.1h6.2V252.4z M598,252.2h5.8v-32.6H598V252.2z"/>
	</g>
	<g>
		<rect x="605.4" y="219.4" class="st0" width="3.7" height="35.8"/>
		<path class="st1" d="M609.3,255.3h-3.9v-36h3.9V255.3z M605.6,255.1h3.5v-35.5h-3.5V255.1z"/>
	</g>
	<g>
		<rect x="611.7" y="219.4" class="st0" width="6.9" height="39.8"/>
		<path class="st1" d="M618.7,259.3h-7.2v-40h7.2V259.3z M611.7,259.1h6.7v-39.5h-6.7V259.1z"/>
	</g>
	<g>
		<rect x="621.1" y="219.4" class="st0" width="4.4" height="43.8"/>
		<path class="st1" d="M625.6,263.3h-4.7v-44h4.7V263.3z M621.1,263.1h4.2v-43.5h-4.2V263.1z"/>
	</g>
	<g>
		<rect x="401.5" y="219.4" class="st0" width="3.2" height="29.5"/>
		<path class="st1" d="M404.8,249h-3.5v-29.7h3.5V249z M401.6,248.8h3v-29.3h-3V248.8z"/>
	</g>
	<g>
		<rect x="394" y="219.4" class="st0" width="6" height="32.9"/>
		<path class="st1" d="M400.1,252.4h-6.2v-33.1h6.2V252.4z M394.1,252.2h5.8v-32.6h-5.8V252.2z"/>
	</g>
	<g>
		<rect x="388.6" y="219.4" class="st0" width="3.7" height="35.8"/>
		<path class="st1" d="M392.4,255.3h-3.9v-36h3.9V255.3z M388.7,255.1h3.5v-35.5h-3.5V255.1z"/>
	</g>
	<g>
		<rect x="379.2" y="219.4" class="st0" width="6.9" height="39.8"/>
		<path class="st1" d="M386.3,259.3h-7.2v-40h7.2V259.3z M379.3,259.1h6.7v-39.5h-6.7V259.1z"/>
	</g>
	<g>
		<rect x="372.3" y="219.4" class="st0" width="4.4" height="43.8"/>
		<path class="st1" d="M376.9,263.3h-4.7v-44h4.7V263.3z M372.5,263.1h4.2v-43.5h-4.2V263.1z"/>
	</g>
	<g>
		<rect x="593.1" y="176" class="st0" width="3.2" height="34.4"/>
		<path class="st1" d="M596.4,210.5H593v-34.6h3.4V210.5z M593.2,210.3h3v-34.2h-3V210.3z"/>
	</g>
	<g>
		<rect x="597.8" y="174.5" class="st0" width="6" height="37"/>
		<path class="st1" d="M604,211.6h-6.2v-37.2h6.2V211.6z M598,211.4h5.8v-36.8H598V211.4z"/>
	</g>
	<g>
		<rect x="605.4" y="172.8" class="st0" width="3.7" height="38.7"/>
		<path class="st1" d="M609.3,211.6h-3.9v-39h3.9V211.6z M605.6,211.4h3.5v-38.5h-3.5V211.4z"/>
	</g>
	<g>
		<rect x="611.7" y="171.3" class="st0" width="6.9" height="40.7"/>
		<path class="st1" d="M618.7,212h-7.2v-40.9h7.2V212z M611.7,211.8h6.7v-40.5h-6.7V211.8z"/>
	</g>
	<g>
		<rect x="621.1" y="168.6" class="st0" width="4.4" height="44.9"/>
		<path class="st1" d="M625.6,213.6h-4.7v-45.2h4.7V213.6z M621.1,213.4h4.2v-44.7h-4.2V213.4z"/>
	</g>
	<g>
		<rect x="401.5" y="176" class="st0" width="3.2" height="34.4"/>
		<path class="st1" d="M404.8,210.5h-3.5v-34.6h3.5V210.5z M401.6,210.3h3v-34.2h-3V210.3z"/>
	</g>
	<g>
		<rect x="394" y="174.5" class="st0" width="6" height="37"/>
		<path class="st1" d="M400.1,211.6h-6.2v-37.2h6.2V211.6z M394.1,211.4h5.8v-36.8h-5.8V211.4z"/>
	</g>
	<g>
		<rect x="388.6" y="172.8" class="st0" width="3.7" height="38.7"/>
		<path class="st1" d="M392.4,211.6h-3.9v-39h3.9V211.6z M388.7,211.4h3.5v-38.5h-3.5V211.4z"/>
	</g>
	<g>
		<rect x="379.2" y="171.2" class="st0" width="6.9" height="40.7"/>
		<path class="st1" d="M386.3,212h-7.2v-40.9h7.2V212z M379.3,211.8h6.7v-40.5h-6.7V211.8z"/>
	</g>
	<g>
		<rect x="372.3" y="168.5" class="st0" width="4.4" height="44.9"/>
		<path class="st1" d="M376.9,213.6h-4.7v-45.2h4.7V213.6z M372.5,213.4h4.2v-44.7h-4.2V213.4z"/>
	</g>
	<g>
		<rect x="593.1" y="137.1" class="st0" width="3.2" height="23.4"/>
		<path class="st1" d="M596.4,160.7h-3.5v-23.6h3.5V160.7z M593.2,160.4h3v-23.1h-3V160.4z"/>
	</g>
	<g>
		<rect x="597.8" y="132.8" class="st0" width="6" height="27.7"/>
		<path class="st1" d="M604,160.7h-6.2v-28h6.2V160.7z M598,160.4h5.8v-27.5H598V160.4z"/>
	</g>
	<g>
		<rect x="605.4" y="128.8" class="st0" width="3.7" height="31.7"/>
		<path class="st1" d="M609.3,160.7h-3.9v-31.9h3.9V160.7z M605.6,160.4h3.5V129h-3.5V160.4z"/>
	</g>
	<g>
		<rect x="611.7" y="123.7" class="st0" width="6.9" height="36.9"/>
		<path class="st1" d="M618.7,160.7h-7.2v-37.2h7.2V160.7z M611.7,160.4h6.7v-36.7h-6.7V160.4z"/>
	</g>
	<g>
		<rect x="621.1" y="118.4" class="st0" width="4.4" height="42.1"/>
		<path class="st1" d="M625.6,160.7h-4.7v-42.4h4.7V160.7z M621.1,160.4h4.2v-41.9h-4.2V160.4z"/>
	</g>
	<g>
		<rect x="401.5" y="137.2" class="st0" width="3.2" height="23.4"/>
		<path class="st1" d="M404.8,160.7h-3.5v-23.6h3.5V160.7z M401.6,160.4h3v-23.1h-3V160.4z"/>
	</g>
	<g>
		<rect x="394" y="132.8" class="st0" width="6" height="27.7"/>
		<path class="st1" d="M400.1,160.7h-6.2v-28h6.2V160.7z M394.1,160.4h5.8v-27.5h-5.8V160.4z"/>
	</g>
	<g>
		<rect x="388.6" y="128.9" class="st0" width="3.7" height="31.7"/>
		<path class="st1" d="M392.4,160.7h-3.9v-31.9h3.9V160.7z M388.7,160.4h3.5V129h-3.5V160.4z"/>
	</g>
	<g>
		<rect x="379.2" y="123.6" class="st0" width="6.9" height="36.9"/>
		<path class="st1" d="M386.3,160.7h-7.2v-37.2h7.2V160.7z M379.3,160.4h6.7v-36.7h-6.7V160.4z"/>
	</g>
	<g>
		<rect x="372.3" y="118.4" class="st0" width="4.4" height="42.1"/>
		<path class="st1" d="M376.9,160.7h-4.7v-42.4h4.7V160.7z M372.5,160.4h4.2v-41.9h-4.2V160.4z"/>
	</g>
	<g>
		<rect x="593.1" y="98.3" class="st0" width="3.2" height="9.1"/>
		<path class="st1" d="M596.4,107.4h-3.5v-9.3h3.5V107.4z M593.2,107.2h3v-8.9h-3V107.2z"/>
	</g>
	<g>
		<rect x="597.8" y="92.1" class="st0" width="6" height="15.2"/>
		<path class="st1" d="M604,107.4h-6.2V92h6.2V107.4z M598,107.2h5.8V92.3H598V107.2z"/>
	</g>
	<g>
		<rect x="605.4" y="85.7" class="st0" width="3.7" height="21.6"/>
		<path class="st1" d="M609.3,107.4h-3.9V85.6h3.9V107.4z M605.6,107.2h3.5V85.8h-3.5V107.2z"/>
	</g>
	<g>
		<rect x="611.7" y="76.9" class="st0" width="6.9" height="30.4"/>
		<path class="st1" d="M618.7,107.4h-7.2V76.8h7.2V107.4z M611.7,107.2h6.7V77h-6.7V107.2z"/>
	</g>
	<g>
		<rect x="621.1" y="68.3" class="st0" width="4.4" height="39"/>
		<path class="st1" d="M625.6,107.4h-4.7V68.2h4.7V107.4z M621.1,107.2h4.2V68.4h-4.2V107.2z"/>
	</g>
	<g>
		<rect x="401.5" y="98.2" class="st0" width="3.2" height="9.1"/>
		<path class="st1" d="M404.8,107.4h-3.5v-9.3h3.5V107.4z M401.6,107.2h3v-8.9h-3V107.2z"/>
	</g>
	<g>
		<rect x="394" y="92.2" class="st0" width="6" height="15.2"/>
		<path class="st1" d="M400.1,107.4h-6.2V92h6.2V107.4z M394.1,107.2h5.8V92.3h-5.8V107.2z"/>
	</g>
	<g>
		<rect x="388.6" y="85.7" class="st0" width="3.7" height="21.6"/>
		<path class="st1" d="M392.4,107.4h-3.9V85.6h3.9V107.4z M388.7,107.2h3.5V85.8h-3.5V107.2z"/>
	</g>
	<g>
		<rect x="379.2" y="76.9" class="st0" width="6.9" height="30.4"/>
		<path class="st1" d="M386.3,107.4h-7.2V76.8h7.2V107.4z M379.3,107.2h6.7V77h-6.7V107.2z"/>
	</g>
	<g>
		<rect x="372.3" y="68.3" class="st0" width="4.4" height="39"/>
		<path class="st1" d="M376.9,107.4h-4.7V68.2h4.7V107.4z M372.5,107.2h4.2V68.4h-4.2V107.2z"/>
	</g>
	<g>
		<rect x="203.9" y="326.6" class="st0" width="92.6" height="53.8"/>
		<path class="st1" d="M296.7,380.5h-93v-54.1h93V380.5z M204.1,380.1h92.2v-53.4h-92.2V380.1z"/>
	</g>
	<g>
		<polygon class="st0" points="203.9,326.6 189.3,326.6 189.3,389.9 203.9,380.3 		"/>
		<path class="st1" d="M189.1,390.2v-63.8h15v54l-0.1,0.1L189.1,390.2z M189.5,326.8v62.8l14.2-9.3v-53.5H189.5z"/>
	</g>
	<g>
		<polygon class="st0" points="315.1,326.6 296.5,326.6 296.5,380.3 315.1,363.6 		"/>
		<path class="st1" d="M296.3,380.7v-54.3h19v37.3l-0.1,0.1L296.3,380.7z M296.7,326.8v53.1l18.2-16.4v-36.7L296.7,326.8
			L296.7,326.8z"/>
	</g>
	<g>
		<polygon class="st0" points="345.1,326.6 332.7,326.6 332.7,347.7 345.1,336.4 		"/>
		<path class="st1" d="M332.6,348.2v-21.8h12.8v10.2l-0.1,0.1L332.6,348.2z M332.9,326.8v20.5l12-10.9v-9.6H332.9z"/>
	</g>
	<g>
		<rect x="315.1" y="326.6" class="st0" width="17.6" height="21.2"/>
		<path class="st1" d="M332.9,347.9h-18v-21.5h18V347.9z M315.3,347.5h17.2v-20.8h-17.2V347.5z"/>
	</g>
	<g>
		<rect x="701.5" y="326.5" class="st0" width="92.6" height="53.8"/>
		<path class="st1" d="M794.3,380.5h-93v-54.1h93V380.5z M701.7,380.1h92.2v-53.4h-92.2V380.1z"/>
	</g>
	<g>
		<polygon class="st0" points="794.1,326.6 808.7,326.6 808.7,389.9 794.1,380.3 		"/>
		<path class="st1" d="M808.9,390.2l-0.3-0.2l-14.7-9.6v-54h15V390.2z M794.3,380.2l14.2,9.3v-62.8h-14.2V380.2z"/>
	</g>
	<g>
		<polygon class="st0" points="682.9,326.6 701.5,326.6 701.5,380.3 682.9,363.6 		"/>
		<path class="st1" d="M701.7,380.7l-0.3-0.3l-18.7-16.8v-37.2h19V380.7z M683.1,363.5l18.2,16.4v-53.1h-18.2V363.5z"/>
	</g>
	<g>
		<polygon class="st0" points="652.9,326.6 665.3,326.6 665.3,347.7 652.9,336.4 		"/>
		<path class="st1" d="M665.5,348.2l-12.8-11.6v-10.2h12.8V348.2z M653.1,336.4l12,10.9v-20.5h-12V336.4z"/>
	</g>
	<g>
		<rect x="665.3" y="326.6" class="st0" width="17.6" height="21.2"/>
		<path class="st1" d="M683.1,347.9h-18v-21.5h18V347.9z M665.5,347.5h17.2v-20.8h-17.2V347.5z"/>
	</g>
	<g>
		<rect x="701.4" y="273.4" class="st0" width="100" height="40.7"/>
		<path class="st1" d="M801.6,314.3H701.2v-41h100.4V314.3z M701.7,313.9h99.6v-40.3h-99.6V313.9z"/>
	</g>
	<g>
		<polygon class="st0" points="682.9,273.4 701.5,273.4 701.5,314.1 682.9,303.8 		"/>
		<path class="st1" d="M701.7,314.4l-19-10.5v-30.7h19V314.4z M683.1,303.7l18.2,10.1v-40.1h-18.2V303.7z"/>
	</g>
	<g>
		<polygon class="st0" points="652.9,273.4 665.3,273.4 665.3,293.8 652.9,286.5 		"/>
		<path class="st1" d="M665.5,294.1l-12.8-7.4v-13.4h12.8V294.1z M653.1,286.4l12,7v-19.8h-12V286.4z"/>
	</g>
	<g>
		<rect x="665.3" y="273.4" class="st0" width="8.5" height="20.3"/>
		<path class="st1" d="M673.9,293.9H665v-20.7h8.9V293.9z M665.5,293.6h8.1v-19.9h-8.1V293.6z"/>
	</g>
	<g>
		<polygon class="st0" points="673.7,273.4 682.9,273.4 682.9,298.3 673.7,293.8 		"/>
		<path class="st1" d="M683.1,298.7l-9.5-4.8v-20.6h9.5V298.7z M673.9,293.6l8.7,4.4v-24.4h-8.7V293.6z"/>
	</g>
	<g>
		<rect x="196.5" y="273.4" class="st0" width="100" height="40.7"/>
		<path class="st1" d="M296.7,314.3H196.4v-41h100.4v41H296.7z M196.7,313.9h99.6v-40.3h-99.6V313.9z"/>
	</g>
	<g>
		<polygon class="st0" points="315.1,273.4 296.5,273.4 296.5,314.1 315.1,303.8 		"/>
		<path class="st1" d="M296.3,314.4v-41.2h19v30.7L296.3,314.4z M296.7,273.6v40.1l18.2-10.1v-30.1L296.7,273.6L296.7,273.6z"/>
	</g>
	<g>
		<polygon class="st0" points="345.1,273.4 332.7,273.4 332.7,293.8 345.1,286.5 		"/>
		<path class="st1" d="M332.6,294.1v-20.9h12.8v13.4L332.6,294.1z M332.9,273.6v19.8l12-7v-12.8H332.9z"/>
	</g>
	<g>
		<rect x="324.3" y="273.4" class="st0" width="8.5" height="20.3"/>
		<path class="st1" d="M332.9,293.9h-8.8v-20.7h8.9v20.7H332.9z M324.5,293.6h8.1v-19.9h-8.1V293.6z"/>
	</g>
	<g>
		<polygon class="st0" points="324.3,273.4 315.1,273.4 315.1,298.3 324.3,293.8 		"/>
		<path class="st1" d="M315,298.7v-25.4h9.5v20.6l-0.1,0.1L315,298.7z M315.3,273.6V298l8.7-4.4v-20H315.3z"/>
	</g>
	<g>
		<rect x="701.4" y="219.4" class="st0" width="100" height="44.4"/>
		<path class="st1" d="M801.6,264H701.2v-44.8h100.4V264z M701.7,263.6h99.6v-44h-99.6V263.6z"/>
	</g>
	<g>
		<polygon class="st0" points="682.9,219.4 701.5,219.4 701.5,263.8 682.9,257.9 		"/>
		<path class="st1" d="M701.7,264l-19-6v-38.9h19V264z M683.1,257.8l18.2,5.7v-43.9h-18.2V257.8z"/>
	</g>
	<g>
		<polygon class="st0" points="652.9,219.4 665.3,219.4 665.3,252.3 652.9,248.5 		"/>
		<path class="st1" d="M665.5,252.5l-12.8-3.9v-29.4h12.8V252.5z M653.1,248.3l12,3.7v-32.4h-12V248.3z"/>
	</g>
	<g>
		<rect x="665.3" y="219.4" class="st0" width="8.5" height="32.9"/>
		<path class="st1" d="M673.9,252.5H665v-33.3h8.9V252.5z M665.5,252.1h8.1v-32.5h-8.1V252.1z"/>
	</g>
	<g>
		<polygon class="st0" points="673.7,219.4 682.9,219.4 682.9,255.8 673.7,252.3 		"/>
		<path class="st1" d="M683.1,256.1l-9.5-3.7v-33.2h9.5V256.1z M673.9,252.1l8.7,3.4v-36h-8.7V252.1z"/>
	</g>
	<g>
		<rect x="196.5" y="219.4" class="st0" width="100" height="44.4"/>
		<path class="st1" d="M296.7,264H196.4v-44.8h100.4V264H296.7z M196.7,263.6h99.6v-44h-99.6V263.6z"/>
	</g>
	<g>
		<polygon class="st0" points="315.1,219.4 296.5,219.4 296.5,263.8 315.1,257.9 		"/>
		<path class="st1" d="M296.3,264v-44.8h19v38.9h-0.1L296.3,264z M296.7,219.6v43.9l18.2-5.7v-38.2H296.7z"/>
	</g>
	<g>
		<polygon class="st0" points="345.1,219.4 332.7,219.4 332.7,252.3 345.1,248.5 		"/>
		<path class="st1" d="M332.6,252.5v-33.3h12.8v29.4h-0.1L332.6,252.5z M332.9,219.6V252l12-3.7v-28.7H332.9z"/>
	</g>
	<g>
		<rect x="324.3" y="219.4" class="st0" width="8.5" height="32.9"/>
		<path class="st1" d="M332.9,252.5h-8.8v-33.3h8.9v33.3H332.9z M324.5,252.1h8.1v-32.5h-8.1V252.1z"/>
	</g>
	<g>
		<polygon class="st0" points="324.3,219.4 315.1,219.4 315.1,255.8 324.3,252.3 		"/>
		<path class="st1" d="M315,256.1v-36.9h9.5v33.2L315,256.1z M315.3,219.6v36l8.7-3.4v-32.6H315.3z"/>
	</g>
	<g>
		<rect x="701.4" y="117.5" class="st0" width="100" height="42.7"/>
		<path class="st1" d="M801.6,160.4H701.2v-43h100.4V160.4z M701.7,160.1h99.6v-42.3h-99.6V160.1z"/>
	</g>
	<g>
		<polygon class="st0" points="682.9,160.2 701.5,160.2 701.5,117.6 682.9,125.5 		"/>
		<path class="st1" d="M701.7,160.4h-19v-35.1l19-8.1V160.4z M683.1,160.1h18.2v-42.2l-18.2,7.7V160.1z"/>
	</g>
	<g>
		<polygon class="st0" points="652.9,160.2 665.3,160.2 665.3,132.8 652.9,138.3 		"/>
		<path class="st1" d="M665.5,160.4h-12.8v-22.2l0.1-0.1l12.6-5.6v27.9L665.5,160.4L665.5,160.4z M653.1,160.1h12v-27l-12,5.3V160.1
			z"/>
	</g>
	<g>
		<rect x="665.3" y="132.8" class="st0" width="8.5" height="27.4"/>
		<path class="st1" d="M673.9,160.4H665v-27.8h8.9V160.4z M665.5,160.1h8.1V133h-8.1V160.1z"/>
	</g>
	<g>
		<polygon class="st0" points="673.7,160.2 682.9,160.2 682.9,127.5 673.7,132.8 		"/>
		<path class="st1" d="M683.1,160.4h-9.5v-27.7l9.5-5.5V160.4z M673.9,160.1h8.7v-32.2l-8.7,5V160.1z"/>
	</g>
	<g>
		<rect x="196.5" y="117.6" class="st0" width="100" height="42.7"/>
		<path class="st1" d="M296.7,160.4H196.4v-43h100.4v43H296.7z M196.7,160.1h99.6v-42.3h-99.6V160.1z"/>
	</g>
	<g>
		<polygon class="st0" points="315.1,160.2 296.5,160.2 296.5,117.6 315.1,125.5 		"/>
		<path class="st1" d="M315.3,160.4h-19v-43.2l19,8.1V160.4z M296.7,160.1h18.2v-34.5l-18.2-7.7V160.1z"/>
	</g>
	<g>
		<polygon class="st0" points="345.1,160.2 332.7,160.2 332.7,132.8 345.1,138.3 		"/>
		<path class="st1" d="M345.3,160.4h-12.8v-27.9l12.8,5.7V160.4z M332.9,160.1h12v-21.7l-12-5.3V160.1z"/>
	</g>
	<g>
		<rect x="324.3" y="132.8" class="st0" width="8.5" height="27.4"/>
		<path class="st1" d="M332.9,160.4h-8.8v-27.8h8.9v27.8H332.9z M324.5,160.1h8.1V133h-8.1V160.1z"/>
	</g>
	<g>
		<polygon class="st0" points="324.3,160.2 315.1,160.2 315.1,127.5 324.3,132.8 		"/>
		<path class="st1" d="M324.5,160.4H315v-33.2l9.5,5.5V160.4z M315.3,160.1h8.7V133l-8.7-5V160.1z"/>
	</g>
	<g>
		<rect x="701.4" y="66.8" class="st0" width="100" height="40.6"/>
		<path class="st1" d="M801.6,107.5H701.2v-41h100.4V107.5z M701.7,107.2h99.6V67h-99.6V107.2z"/>
	</g>
	<g>
		<polygon class="st0" points="682.9,107.4 701.5,107.4 701.5,66.7 682.9,79.7 		"/>
		<path class="st1" d="M701.7,107.5h-19V79.6l0.1-0.1l18.9-13.2V107.5z M683.1,107.2h18.2V67.1l-18.2,12.7V107.2z"/>
	</g>
	<g>
		<polygon class="st0" points="652.9,107.4 665.3,107.4 665.3,90.8 652.9,99.7 		"/>
		<path class="st1" d="M665.5,107.5h-12.8v-7.9l0.1-0.1l12.7-9.1L665.5,107.5L665.5,107.5z M653.1,107.2h12v-16l-12,8.6V107.2z"/>
	</g>
	<g>
		<rect x="665.3" y="90.8" class="st0" width="8.5" height="16.6"/>
		<path class="st1" d="M673.9,107.5H665V90.6h8.9V107.5z M665.5,107.2h8.1V91h-8.1V107.2z"/>
	</g>
	<g>
		<polygon class="st0" points="673.7,107.4 682.9,107.4 682.9,83.5 673.7,90.8 		"/>
		<path class="st1" d="M683.1,107.5h-9.5V90.7l0.1-0.1l9.4-7.6V107.5z M673.9,107.2h8.7V83.9l-8.7,7V107.2z"/>
	</g>
	<g>
		<rect x="196.5" y="66.7" class="st0" width="100" height="40.6"/>
		<path class="st1" d="M296.7,107.5H196.4v-41h100.4v41H296.7z M196.7,107.2h99.6V67h-99.6V107.2z"/>
	</g>
	<g>
		<polygon class="st0" points="315.1,107.4 296.5,107.4 296.5,66.7 315.1,79.7 		"/>
		<path class="st1" d="M315.3,107.5h-19V66.4l19,13.3V107.5z M296.7,107.2h18.2V79.9l-18.2-12.7V107.2z"/>
	</g>
	<g>
		<polygon class="st0" points="345.1,107.4 332.7,107.4 332.7,90.8 345.1,99.7 		"/>
		<path class="st1" d="M345.3,107.5h-12.8V90.4l12.8,9.2V107.5z M332.9,107.2h12v-7.4l-12-8.6V107.2z"/>
	</g>
	<g>
		<rect x="324.3" y="90.8" class="st0" width="8.5" height="16.6"/>
		<path class="st1" d="M332.9,107.5h-8.8V90.6h8.9v16.9H332.9z M324.5,107.2h8.1V91h-8.1V107.2z"/>
	</g>
	<g>
		<polygon class="st0" points="324.3,107.4 315.1,107.4 315.1,83.5 324.3,90.8 		"/>
		<path class="st1" d="M324.5,107.5H315V83.1l9.5,7.6V107.5z M315.3,107.2h8.7V90.9l-8.7-7V107.2z"/>
	</g>
	<g>
		<rect x="701.4" y="168.4" class="st0" width="100" height="45.1"/>
		<path class="st1" d="M801.6,213.6H701.2v-45.4h100.4V213.6z M701.7,213.2h99.6v-44.7h-99.6V213.2z"/>
	</g>
	<g>
		<polygon class="st0" points="682.9,171.8 701.5,168.3 701.5,213.4 682.9,211.6 		"/>
		<path class="st1" d="M701.7,213.6h-0.2l-18.8-1.8v-40.2l19-3.5V213.6z M683.1,211.5l18.2,1.7v-44.6l-18.2,3.3V211.5z"/>
	</g>
	<g>
		<polygon class="st0" points="652.9,176.5 665.3,174.1 665.3,211.1 652.9,209.8 		"/>
		<path class="st1" d="M665.5,211.3h-0.2l-12.5-1.4v-33.5h0.2l12.6-2.4L665.5,211.3L665.5,211.3z M653.1,209.6l12,1.3v-36.5l-12,2.3
			V209.6z"/>
	</g>
	<g>
		<rect x="665.3" y="174.1" class="st0" width="8.5" height="37"/>
		<path class="st1" d="M673.9,211.3H665V174h8.9V211.3z M665.5,210.9h8.1v-36.6h-8.1V210.9z"/>
	</g>
	<g>
		<polygon class="st0" points="673.7,174.1 682.9,171.8 682.9,211.6 673.7,211.1 		"/>
		<path class="st1" d="M683.1,211.8l-9.5-0.6v-37.3h0.1l9.4-2.4V211.8z M673.9,210.9l8.7,0.5V172l-8.7,2.3V210.9z"/>
	</g>
	<g>
		<rect x="196.5" y="168.3" class="st0" width="100" height="45.1"/>
		<path class="st1" d="M296.7,213.6H196.4v-45.4h100.4v45.4H296.7z M196.7,213.2h99.6v-44.7h-99.6V213.2z"/>
	</g>
	<g>
		<polygon class="st0" points="315.1,171.8 296.5,168.3 296.5,213.4 315.1,211.6 		"/>
		<path class="st1" d="M296.3,213.6v-45.5l19,3.5v40.2h-0.2L296.3,213.6z M296.7,168.6v44.6l18.2-1.7v-39.6L296.7,168.6z"/>
	</g>
	<g>
		<polygon class="st0" points="345.1,176.5 332.7,174.1 332.7,211.1 345.1,209.7 		"/>
		<path class="st1" d="M332.6,211.3v-37.4l12.8,2.5v33.5L332.6,211.3z M332.9,174.4v36.5l12-1.4v-32.8L332.9,174.4z"/>
	</g>
	<g>
		<rect x="324.3" y="174.1" class="st0" width="8.5" height="37"/>
		<path class="st1" d="M332.9,211.3h-8.8V174h8.9v37.3H332.9z M324.5,210.9h8.1v-36.6h-8.1V210.9z"/>
	</g>
	<g>
		<polygon class="st0" points="324.3,174.1 315.1,171.8 315.1,211.6 324.3,211.1 		"/>
		<path class="st1" d="M315,211.8v-40.3l9.5,2.5v37.3L315,211.8z M315.3,172v39.4l8.7-0.5v-36.6L315.3,172z"/>
	</g>
	<g>
		<rect x="3" y="320.6" class="st0" width="990.3" height="6"/>
		<path class="st1" d="M993.7,326.9H2.7v-6.6h991V326.9z M3.4,326.2h989.7v-5.3H3.4V326.2z"/>
	</g>
	<g>
		<rect x="179.5" y="267.5" class="st0" width="638.1" height="6"/>
		<path class="st1" d="M817.9,273.8H179.1v-6.6h638.7v6.6H817.9z M179.8,273.1h637.4v-5.3H179.8V273.1z"/>
	</g>
	<g>
		<rect x="3" y="213.4" class="st0" width="990.3" height="6"/>
		<path class="st1" d="M993.7,219.7H2.7v-6.6h991V219.7z M3.4,219.1h989.7v-5.3H3.4V219.1z"/>
	</g>
	<g>
		<rect x="3" y="160.5" class="st0" width="990.3" height="6"/>
		<path class="st1" d="M993.7,166.8H2.7v-6.6h991V166.8z M3.4,166.1h989.7v-5.3H3.4V166.1z"/>
	</g>
	<g>
		<rect x="3" y="107.5" class="st0" width="990.3" height="6"/>
		<path class="st1" d="M993.7,113.8H2.7v-6.6h991V113.8z M3.4,113.1h989.7v-5.3H3.4V113.1z"/>
	</g>
	<g>
		<rect x="3" y="52.5" class="st0" width="990.3" height="6"/>
		<path class="st1" d="M993.7,58.8H2.7v-6.6h991V58.8z M3.4,58.1h989.7v-5.3H3.4V58.1z"/>
	</g>
	<g>
		<rect x="58.7" y="8.3" class="st0" width="879.1" height="6"/>
		<path class="st1" d="M938.1,14.6H58.3V8h879.8V14.6z M59,13.9h878.4V8.6H59V13.9z"/>
	</g>
	<g>
		<rect x="3" y="389.8" class="st0" width="990.3" height="6"/>
		<path class="st1" d="M993.7,396.1H2.7v-6.6h991V396.1z M3.4,395.4h989.7v-5.3H3.4V395.4z"/>
	</g>
	<rect x="993" y="58.4" class="st1" width="0.7" height="331.4"/>
	<rect x="2.7" y="58.4" class="st1" width="0.7" height="331.4"/>
	<g>
		<rect x="103.3" y="326.6" class="st0" width="81.4" height="63.2"/>
		<path class="st1" d="M185,390.1h-82v-63.9h82V390.1z M103.6,389.5h80.7v-62.6h-80.7V389.5z"/>
	</g>
	<rect x="105" y="326.6" class="st1" width="0.3" height="63.2"/>
	<rect x="182.6" y="326.6" class="st1" width="0.3" height="63.2"/>
	<rect x="105.2" y="330" class="st1" width="77.4" height="0.5"/>
	<rect x="121" y="330.5" class="st1" width="0.3" height="59.3"/>
	<rect x="136.6" y="330.5" class="st1" width="0.3" height="59.3"/>
	<rect x="152.2" y="330.5" class="st1" width="0.3" height="26.1"/>
	<rect x="167.4" y="330.5" class="st1" width="0.3" height="59.3"/>
	<rect x="105.2" y="374.2" class="st1" width="16.1" height="0.3"/>
	<rect x="167.5" y="374.2" class="st1" width="15.3" height="0.3"/>
	<rect x="121.1" y="356.5" class="st1" width="46.4" height="0.3"/>
	<rect x="105.2" y="339.3" class="st1" width="77.5" height="0.3"/>
	<path class="st1" d="M166.8,389.8h-1.2v-31.6h1.2V389.8z M165.8,389.6h0.8v-31.2h-0.8V389.6z"/>
	<path class="st1" d="M139.1,389.8h-1.2v-31.6h1.2V389.8z M138.1,389.6h0.8v-31.2h-0.8V389.6z"/>
	<rect x="139" y="386.4" class="st1" width="26.8" height="0.2"/>
	<rect x="139" y="359.3" class="st1" width="26.8" height="0.2"/>
	<rect x="139" y="358.3" class="st1" width="26.8" height="0.2"/>
	<g>
		<rect x="150.2" y="358.3" class="st0" width="2.2" height="31.4"/>
		<path class="st1" d="M152.6,389.9h-2.5v-31.7h2.5V389.9z M150.3,389.6h2v-31.1h-2V389.6z"/>
	</g>
	<rect x="151.3" y="358.3" class="st1" width="0.2" height="31.1"/>
	<g>
		<rect x="812.8" y="326.6" class="st0" width="81.4" height="63.2"/>
		<path class="st1" d="M894.5,390.1h-82v-63.9h82V390.1z M813.1,389.5h80.7v-62.6h-80.7V389.5z"/>
	</g>
	<rect x="892.2" y="326.6" class="st1" width="0.3" height="63.2"/>
	<rect x="814.6" y="326.6" class="st1" width="0.3" height="63.2"/>
	<rect x="814.8" y="330" class="st1" width="77.4" height="0.5"/>
	<rect x="876.2" y="330.5" class="st1" width="0.3" height="59.3"/>
	<rect x="860.6" y="330.5" class="st1" width="0.3" height="59.3"/>
	<rect x="844.9" y="330.5" class="st1" width="0.3" height="26.1"/>
	<rect x="829.7" y="330.5" class="st1" width="0.3" height="59.3"/>
	<rect x="876.1" y="374.2" class="st1" width="16.1" height="0.3"/>
	<rect x="814.6" y="374.2" class="st1" width="15.3" height="0.3"/>
	<rect x="829.9" y="356.5" class="st1" width="46.4" height="0.3"/>
	<rect x="814.8" y="339.3" class="st1" width="77.5" height="0.3"/>
	<path class="st1" d="M831.8,389.8h-1.2v-31.6h1.2V389.8z M830.8,389.6h0.8v-31.2h-0.8V389.6z"/>
	<path class="st1" d="M859.5,389.8h-1.2v-31.6h1.2V389.8z M858.5,389.6h0.8v-31.2h-0.8V389.6z"/>
	<rect x="831.6" y="386.4" class="st1" width="26.8" height="0.2"/>
	<rect x="831.6" y="359.3" class="st1" width="26.8" height="0.2"/>
	<rect x="831.6" y="358.3" class="st1" width="26.8" height="0.2"/>
	<g>
		<rect x="845.1" y="358.4" class="st0" width="2.2" height="31.4"/>
		<path class="st1" d="M847.4,389.9h-2.5v-31.7h2.5V389.9z M845.2,389.6h2v-31.1h-2V389.6z"/>
	</g>
	<rect x="846" y="358.3" class="st1" width="0.2" height="31.1"/>
	<rect x="60.3" y="14.5" class="st1" width="0.3" height="37.9"/>
	<rect x="71.9" y="14.5" class="st1" width="0.3" height="37.9"/>
	<rect x="86.3" y="14.9" class="st1" width="0.3" height="37.6"/>
	<rect x="100.6" y="14.5" class="st1" width="0.3" height="37.9"/>
	<rect x="106.8" y="14.5" class="st1" width="0.3" height="37.9"/>
	<rect x="86.3" y="14.5" class="st1" width="0.3" height="37.9"/>
	<rect x="187.8" y="14.5" class="st1" width="0.3" height="37.9"/>
	<rect x="194.9" y="14.5" class="st1" width="0.3" height="37.9"/>
	<rect x="275" y="14.5" class="st1" width="0.3" height="37.9"/>
	<rect x="282.1" y="14.5" class="st1" width="0.3" height="37.9"/>
	<rect x="362.8" y="14.5" class="st1" width="0.3" height="37.9"/>
	<rect x="371.3" y="14.5" class="st1" width="0.3" height="37.9"/>
	<rect x="627.3" y="14.5" class="st1" width="0.3" height="37.9"/>
	<rect x="636.1" y="14.5" class="st1" width="0.3" height="37.9"/>
	<rect x="723.2" y="14.5" class="st1" width="0.3" height="37.9"/>
	<rect x="714.7" y="14.5" class="st1" width="0.3" height="37.9"/>
	<rect x="803.1" y="14.5" class="st1" width="0.3" height="37.9"/>
	<rect x="809.5" y="14.5" class="st1" width="0.3" height="37.9"/>
	<rect x="890.9" y="14.5" class="st1" width="0.3" height="37.9"/>
	<rect x="896.6" y="14.5" class="st1" width="0.3" height="37.9"/>
	<rect x="910.5" y="14.5" class="st1" width="0.3" height="37.9"/>
	<rect x="925.2" y="14.5" class="st1" width="0.3" height="37.9"/>
	<rect x="934.8" y="14.5" class="st1" width="0.3" height="37.9"/>
	<rect x="448.3" y="14.5" class="st1" width="0.3" height="37.9"/>
	<rect x="460.5" y="14.5" class="st1" width="0.3" height="37.9"/>
	<rect x="536.6" y="14.5" class="st1" width="0.3" height="37.9"/>
	<rect x="548.8" y="14.5" class="st1" width="0.3" height="37.9"/>
	<polygon class="st1" points="936.4,8.2 936.1,8.2 936.1,2.4 61,2.4 61,7.4 60.7,7.4 60.7,2.2 936.4,2.2 	"/>
	<rect x="895.2" y="2.1" class="st1" width="0.3" height="6"/>
	<rect x="883.8" y="2.1" class="st1" width="0.3" height="6"/>
	<rect x="808.7" y="2.1" class="st1" width="0.3" height="6"/>
	<rect x="722" y="2.1" class="st1" width="0.3" height="6"/>
	<rect x="635.1" y="2.1" class="st1" width="0.3" height="6"/>
	<rect x="548.3" y="2.1" class="st1" width="0.3" height="6"/>
	<rect x="461.4" y="2.1" class="st1" width="0.3" height="6"/>
	<rect x="374.4" y="2.1" class="st1" width="0.3" height="6"/>
	<rect x="287.5" y="2.1" class="st1" width="0.3" height="6"/>
	<rect x="200.2" y="2.1" class="st1" width="0.3" height="6"/>
	<rect x="113.3" y="2.1" class="st1" width="0.3" height="6"/>
	<rect x="101.6" y="2.1" class="st1" width="0.3" height="6"/>
	<rect x="188.8" y="2.1" class="st1" width="0.3" height="6"/>
	<rect x="275.9" y="2.1" class="st1" width="0.3" height="6"/>
	<rect x="362.8" y="2.1" class="st1" width="0.3" height="6"/>
	<rect x="449.9" y="2.1" class="st1" width="0.3" height="6"/>
	<rect x="623.7" y="2.1" class="st1" width="0.3" height="6"/>
	<rect x="536.9" y="2.1" class="st1" width="0.3" height="6"/>
	<rect x="710.4" y="2.1" class="st1" width="0.3" height="6"/>
	<rect x="797.3" y="2.1" class="st1" width="0.3" height="6"/>
	<rect x="60.5" y="21.7" class="st1" width="40.2" height="0.3"/>
	<rect x="107" y="21.7" class="st1" width="81" height="0.3"/>
	<rect x="113.3" y="21.9" class="st1" width="0.3" height="30.6"/>
	<rect x="128.4" y="21.9" class="st1" width="0.3" height="30.6"/>
	<rect x="143.5" y="21.9" class="st1" width="0.3" height="30.6"/>
	<rect x="159" y="21.9" class="st1" width="0.3" height="30.6"/>
	<rect x="173.5" y="21.9" class="st1" width="0.3" height="30.6"/>
	<rect x="195.2" y="21.7" class="st1" width="80" height="0.3"/>
	<rect x="200.5" y="21.9" class="st1" width="0.3" height="30.6"/>
	<rect x="215.5" y="21.9" class="st1" width="0.3" height="30.6"/>
	<rect x="230.7" y="21.9" class="st1" width="0.3" height="30.6"/>
	<rect x="246.2" y="21.9" class="st1" width="0.3" height="30.6"/>
	<rect x="260.7" y="21.9" class="st1" width="0.3" height="30.6"/>
	<rect x="282.3" y="21.7" class="st1" width="80.6" height="0.3"/>
	<rect x="287.6" y="21.9" class="st1" width="0.3" height="30.6"/>
	<rect x="302.6" y="21.9" class="st1" width="0.3" height="30.6"/>
	<rect x="317.8" y="21.9" class="st1" width="0.3" height="30.6"/>
	<rect x="333.2" y="21.9" class="st1" width="0.3" height="30.6"/>
	<rect x="347.8" y="21.9" class="st1" width="0.3" height="30.6"/>
	<rect x="371.5" y="21.7" class="st1" width="77.2" height="0.3"/>
	<rect x="376.8" y="21.9" class="st1" width="0.3" height="30.6"/>
	<rect x="390.1" y="21.9" class="st1" width="0.3" height="30.6"/>
	<rect x="404.9" y="21.9" class="st1" width="0.3" height="30.6"/>
	<rect x="420.2" y="21.9" class="st1" width="0.3" height="30.6"/>
	<rect x="435.3" y="21.9" class="st1" width="0.3" height="30.6"/>
	<rect x="460.8" y="21.7" class="st1" width="76" height="0.3"/>
	<rect x="549" y="21.7" class="st1" width="78.4" height="0.3"/>
	<rect x="636.2" y="21.7" class="st1" width="78.4" height="0.3"/>
	<rect x="723.2" y="21.7" class="st1" width="80" height="0.3"/>
	<rect x="563" y="21.9" class="st1" width="0.3" height="30.6"/>
	<rect x="578.1" y="21.9" class="st1" width="0.3" height="30.6"/>
	<rect x="593.3" y="21.9" class="st1" width="0.3" height="30.6"/>
	<rect x="608.3" y="21.9" class="st1" width="0.3" height="30.6"/>
	<rect x="650.2" y="21.9" class="st1" width="0.3" height="30.6"/>
	<rect x="665.2" y="21.9" class="st1" width="0.3" height="30.6"/>
	<rect x="680.1" y="21.9" class="st1" width="0.3" height="30.6"/>
	<rect x="695.1" y="21.9" class="st1" width="0.3" height="30.6"/>
	<rect x="710" y="21.9" class="st1" width="0.3" height="30.6"/>
	<rect x="736.7" y="21.9" class="st1" width="0.3" height="30.6"/>
	<rect x="751.8" y="21.9" class="st1" width="0.3" height="30.6"/>
	<rect x="766.9" y="21.9" class="st1" width="0.3" height="30.6"/>
	<rect x="782" y="21.9" class="st1" width="0.3" height="30.6"/>
	<rect x="797.1" y="21.9" class="st1" width="0.3" height="30.6"/>
	<rect x="823.9" y="21.9" class="st1" width="0.3" height="30.6"/>
	<rect x="838" y="21.9" class="st1" width="0.3" height="30.6"/>
	<rect x="853.2" y="21.9" class="st1" width="0.3" height="30.6"/>
	<rect x="868.3" y="21.9" class="st1" width="0.3" height="30.6"/>
	<rect x="883.7" y="21.9" class="st1" width="0.3" height="30.6"/>
	<rect x="476.5" y="21.9" class="st1" width="0.3" height="30.6"/>
	<rect x="491.6" y="21.9" class="st1" width="0.3" height="30.6"/>
	<rect x="506.6" y="21.9" class="st1" width="0.3" height="30.6"/>
	<rect x="521.7" y="21.9" class="st1" width="0.3" height="30.6"/>
	<rect x="809.6" y="21.7" class="st1" width="81.4" height="0.3"/>
	<rect x="896.8" y="21.7" class="st1" width="38.1" height="0.3"/>
	<polygon class="st1" points="60.4,52.6 7.7,34.4 7.7,52.5 7.5,52.5 7.5,34 7.7,34 60.5,52.3 	"/>
	<rect x="16.2" y="37.2" class="st1" width="0.3" height="15"/>
	<rect x="28.2" y="41.2" class="st1" width="0.3" height="11"/>
	<rect x="39.5" y="45.1" class="st1" width="0.3" height="7.1"/>
	<rect x="50.3" y="48.8" class="st1" width="0.3" height="3.4"/>
	<polygon class="st1" points="936.3,52.6 936.2,52.3 989.3,34 989.3,52.5 989,52.5 989,34.4 	"/>
	<rect x="980.3" y="37.2" class="st1" width="0.3" height="15"/>
	<rect x="968.3" y="41.2" class="st1" width="0.3" height="11"/>
	<rect x="957" y="45.1" class="st1" width="0.3" height="7.1"/>
	<rect x="946.1" y="48.8" class="st1" width="0.3" height="3.4"/>
</g>
</svg>
