<?xml version="1.0" encoding="utf-8"?>
<!-- Generator: Adobe Illustrator 26.3.1, SVG Export Plug-In . SVG Version: 6.00 Build 0)  -->
<svg version="1.2" baseProfile="tiny" id="Calque_1"
	 xmlns="http://www.w3.org/2000/svg" xmlns:xlink="http://www.w3.org/1999/xlink" x="0px" y="0px" viewBox="0 0 1280 600"
	 overflow="visible" xml:space="preserve">
<g>
	<polygon fill="#D2C8B4" points="1293.6,137.5 1293.6,-3.3 1231.9,13.2 	"/>
	<path fill="#D2C8B4" d="M1207.5,112.7l18.8,264.7l-87.1-184.9L1055,504.8l-14.5-267.9L841.4,550.2l89.5-313.4L627.8,504.8
		l204.5-312.2L456.4,377.4l307.5-264.7l-402.5,80.8L739.5,13.2L388.5-9H-13.6v266.8C67.2,285.3,114,362.3,166,422.5
		c84.4,97.7,177.4,130.8,313.9,130.8H640V609h653.6V173.8L1207.5,112.7z"/>
	<polygon fill="#FFFFFF" points="361.4,193.5 763.9,112.7 456.4,377.4 832.2,192.5 627.8,504.8 930.9,236.8 841.4,550.2 
		1040.5,236.8 1055,504.8 1139.2,192.5 1226.3,377.4 1207.5,112.7 1293.6,173.8 1293.6,137.5 1231.9,13.2 1293.6,-3.3 1293.6,-9 
		388.5,-9 739.5,13.2 	"/>
	<path fill="#FFF800" d="M479.9,553.3c-136.5,0-229.4-33.1-313.9-130.8c-52-60.1-98.9-137.2-179.6-164.7V609H640v-55.7H479.9z"/>
</g>
</svg>
