<?xml version="1.0" encoding="UTF-8"?>
<svg id="Calque_1" data-name="Calque 1" xmlns="http://www.w3.org/2000/svg" xmlns:xlink="http://www.w3.org/1999/xlink" viewBox="0 0 1280 234">
  <defs>
    <style>
      .cls-1 {
        fill: none;
      }

      .cls-2 {
        clip-path: url(#clippath);
      }

      .cls-3 {
        fill: #fff;
      }

      .cls-4 {
        fill: #3df069;
      }

      .cls-5 {
        fill: #1754ff;
      }

      .cls-6 {
        clip-path: url(#clippath-1);
      }

      .cls-7 {
        clip-path: url(#clippath-3);
      }

      .cls-8 {
        clip-path: url(#clippath-2);
      }
    </style>
    <clipPath id="clippath">
      <rect class="cls-1" x="-1378" y="-183" width="1280" height="600"/>
    </clipPath>
    <clipPath id="clippath-1">
      <rect class="cls-1" x="-1378" y="-182.9995" width="1684.01342" height="1125.40656"/>
    </clipPath>
    <clipPath id="clippath-2">
      <rect class="cls-1" x="72.73806" y="11.41435" width="1134.52388" height="211.1713"/>
    </clipPath>
    <clipPath id="clippath-3">
      <rect class="cls-1" x="72.73806" y="11.41435" width="1134.52388" height="211.1713"/>
    </clipPath>
  </defs>
  <g class="cls-2">
    <g class="cls-6">
      <path class="cls-3" d="M-39.47163,931.16772l152.45293-151.15833,74.36317-73.7312,107.32984-106.4188c15.11931-14.99088,15.11868-39.51937-.0005-54.51025L-35.62497,217.85531c-15.1183-14.99035-39.85741-14.99085-54.97659,0l-52.66047,52.21326c-14.95482,14.82782-39.42585,14.82882-54.38217,0L-352.87421,116.15625c-15.11308-14.98474-39.84394-14.98524-54.95752,0l-226.81566,224.89006c-15.11358,14.98474-15.11308,39.50558,0,54.49081L-94.42872,931.16823c15.11314,14.98422,39.84394,14.98422,54.95708-.00051"/>
    </g>
  </g>
  <g>
    <g class="cls-8">
      <path class="cls-5" d="M326.19461,199.67165c-43.1937,0-77.50487-34.75126-77.19934-82.79597,.30869-48.66314,34.613-83.11256,77.19934-83.11256,42.88658,0,77.50328,34.44942,77.50328,83.11256,0,48.04471-34.00196,82.79597-77.50328,82.79597"/>
      <path class="cls-4" d="M1101.52972,194.62708c-40.02339,0-71.8196-32.63893-71.53624-77.76238,.29019-45.70125,32.07957-78.06052,71.53624-78.06052,39.73996,0,71.81155,32.35927,71.81155,78.06052,0,45.12345-31.50538,77.76238-71.81155,77.76238"/>
      <path class="cls-4" d="M326.20409,11.41567c-58.75885,0-103.03905,46.26746-103.03905,105.87746,0,60.16143,43.99895,105.29226,103.03905,105.29226,59.32871,0,103.32504-45.13083,103.32504-105.29226,0-59.60999-44.56517-105.87746-103.32504-105.87746m0,183.35647c-40.02126,0-71.81432-32.63841-71.53094-77.76238,.28494-45.70125,32.0743-78.05999,71.53094-78.05999,39.74,0,71.81586,32.35874,71.81586,78.05999,0,45.12397-31.50599,77.76238-71.81586,77.76238"/>
    </g>
    <polygon points="72.73806 15.38745 72.73806 218.04349 101.975 218.04349 101.975 130.34797 196.49773 130.34797 196.49773 102.52733 101.975 102.52733 101.975 43.49146 204.16184 43.49146 204.16184 15.38745 72.73806 15.38745"/>
    <g class="cls-7">
      <path d="M966.28132,79.82229c0-40.58956-36.04784-64.43516-75.22475-64.43516h-70.95947V218.0437h44.55773v-72.94091h21.01402l54.77746,72.94091h51.09635l-61.59253-81.73004c21.00294-9.93685,36.3312-27.81747,36.3312-56.49138m-73.51873,24.98169h-28.10776V59.95229h26.97161c18.73709,0,29.80264,8.8039,29.80264,22.14274,0,13.342-9.93314,22.70894-28.66649,22.70894"/>
      <path d="M596.1401,75.28398c0-41.15947-34.0658-59.89653-71.25288-59.89653h-62.73071V218.04349h28.95359v-82.0208h25.82967l63.58559,82.0208h36.33062l-67.27411-85.98846c21.85937-4.25526,46.55823-24.69515,46.55823-56.77105m-105.03,32.92546V43.20861h34.62617c23.27939,0,40.88033,10.216,40.88033,32.07537,0,23.55852-17.8843,32.92546-40.88033,32.92546h-34.62617Z"/>
      <path class="cls-5" d="M1101.67118,11.41562c-59.04751,.28283-105.60152,46.26746-105.60152,105.59409,0,60.72763,49.39663,105.57615,105.60152,105.29648,56.1969-.28337,105.59089-44.56885,105.59089-105.29648,0-59.32663-46.55137-105.88115-105.59089-105.59409m0,167.46205c-30.94349,0-58.76048-23.55483-58.76048-61.86796,0-40.02652,28.10402-62.16558,58.76048-62.16558s59.03952,22.42612,59.03952,62.16558c0,38.31313-28.10769,61.86796-59.03952,61.86796"/>
      <path d="M715.36724,15.3874h-70.10932V218.04344h44.56463v-65.83932h28.1008c43.42854,0,76.35768-28.09293,76.35768-68.40651,0-46.26746-36.05145-68.41021-78.91379-68.41021m1.41584,94.52852h-26.96053V59.38582h26.96053c20.73059,0,33.49534,9.37064,33.49534,24.98168,0,14.47494-12.76475,25.54842-33.49534,25.54842"/>
    </g>
  </g>
</svg>